<svg xmlns="http://www.w3.org/2000/svg" viewBox="0 0 166.38 163.26"><defs><style>.cls-1,.cls-2{fill:#fff;}.cls-1{fill-rule:evenodd;}</style></defs><title>Recurso 2vfsdf654</title><g id="Capa_2" data-name="Capa 2"><g id="Capa_1-2" data-name="Capa 1"><polygon class="cls-1" points="101 90.19 153.59 90.19 166.38 87.46 153.59 84.81 101 84.81 101 90.19"/><polygon class="cls-1" points="101 98.47 153.59 98.47 166.38 95.74 153.59 93.08 101 93.08 101 98.47"/><polygon class="cls-1" points="101 106.02 153.59 106.02 166.38 103.29 153.59 100.64 101 100.64 101 106.02"/><path class="cls-1" d="M9.44,116.21c1.9,0,3.83.84,4.32,1.84a3,3,0,0,1-1.4,2l-.35-.29a2.76,2.76,0,0,0-2.86-2.24c-2.42,0-4.28,1.82-4.37,5.41,0,4.66,2.51,7,4.9,7a11.1,11.1,0,0,0,2-.34v-1.7c0-1.76-.33-2.07-.58-2.44l.16-.38a4.39,4.39,0,0,1,1.53-.29,2.92,2.92,0,0,1,1.26.27c-.06,1.31-.11,1.91-.15,3.5,0,.49,0,2,0,2a5.41,5.41,0,0,0-.62.11,24.47,24.47,0,0,1-4.92.65c-3.15,0-6.1-2.69-6.1-7.28s2.84-7.87,7.09-7.87Z"/><path class="cls-1" d="M17.64,131.07c0-1.33.09-4.48.09-7.57,0-2.59-.95-2.68-1.09-2.68v-.4a3.81,3.81,0,0,1,2-.55c.89,0,1.06.53,1.06,1.26a3.38,3.38,0,0,1-.06.6l-.11,1c.06-.16,1.39-2.89,3.43-2.89a1.35,1.35,0,0,1,1.53,1.33,1.1,1.1,0,0,1-1.13,1.13,1.61,1.61,0,0,1-.42,0,1,1,0,0,0-1-.75c-1.75,0-2.26,3.37-2.26,4.88a33.69,33.69,0,0,0,.22,4.7Z"/><path class="cls-1" d="M26.6,125.72a11.27,11.27,0,0,0-.33-4.12,1.13,1.13,0,0,0-.82-.8v-.38a3.91,3.91,0,0,1,1.84-.55c1.51,0,1.33,1.06,1.31,3.26l0,3.46c0,2.13.31,3,1.73,3a3.88,3.88,0,0,0,3.06-1.46c0-.91.06-2.08.06-4.44a7.11,7.11,0,0,0-.28-2.19,1.17,1.17,0,0,0-.82-.76v-.37a4.14,4.14,0,0,1,1.7-.51c1.27,0,1.4.35,1.4,2.26v5.59c0,2.77,1.15,2.61,1.82,2.68v.4a4.89,4.89,0,0,1-2,.55c-1.46,0-1.77-1.3-1.81-2.48a5,5,0,0,1-4.26,2.48,2.65,2.65,0,0,1-2.64-2.63s0-1,0-3"/><path class="cls-1" d="M39.73,136.39c0-.64,0-4.41,0-4.95,0-4.48,0-8.62,0-8.62,0-1.25-.4-1.91-1-2v-.4a3.34,3.34,0,0,1,1.82-.55c1.11,0,1.26.49,1.26,1.33a4.73,4.73,0,0,1,3.06-1.33c2.09,0,4.15,1.57,4.15,5.36,0,3-1.77,6.12-5.26,6.12a7,7,0,0,1-2-.31c0,1.69,0,3.55.09,4.51a6,6,0,0,0,.11.84Zm2.18-14.57v.07c0,1.37-.18,3.88-.18,6.74v1.19h0a7.25,7.25,0,0,0,2.22.31c2.48,0,3-2.81,3-4.52,0-2.73-1.38-4.28-3.26-4.28a2.82,2.82,0,0,0-1.75.49"/><path class="cls-1" d="M51.07,125.79c0-3.44,2.3-6,5.47-6,2.47,0,4.7,1.78,4.7,5.55,0,3.19-2.23,6-5.45,6-4.61,0-4.72-5.22-4.72-5.57m2.17-.93c0,3,1.33,5.41,3.15,5.41,1.46,0,2.66-1.69,2.66-4.19,0-3-1.49-5.13-3.3-5.13s-2.51,2.24-2.51,3.91"/><path class="cls-1" d="M92.38,130.8a4.65,4.65,0,0,1-2,.55,1.63,1.63,0,0,1-1.69-1.53,5,5,0,0,1-3.28,1.53c-2.08,0-4.15-1.48-4.15-5.27,0-3,1.78-6.26,5.26-6.26a6.87,6.87,0,0,1,2,.31c0-2.41,0-2.86,0-2.86,0-1.24-.4-1.9-1-2v-.4a3.3,3.3,0,0,1,1.82-.56c1.13,0,1.39.67,1.39,2s-.17,2.69-.17,5.55c0,2.57,0,5,.11,6.36.08,1.86.82,2.13,1.79,2.15v.4Zm-3.88-1.62v-.33c0-.56,0-3.55,0-4.15v-3.35a8.35,8.35,0,0,0-2.21-.31c-2.49,0-3,2.95-3,4.66,0,2.73,1.37,4.19,3.26,4.19a3,3,0,0,0,1.88-.71"/><path class="cls-1" d="M94.71,125.72a11.27,11.27,0,0,0-.33-4.12,1.15,1.15,0,0,0-.82-.8v-.38a3.91,3.91,0,0,1,1.84-.55c1.51,0,1.33,1.06,1.31,3.26l0,3.46c0,2.13.32,3,1.73,3a3.87,3.87,0,0,0,3.06-1.46c0-.91.07-2.08.07-4.44a7,7,0,0,0-.29-2.19,1.13,1.13,0,0,0-.82-.76v-.37a4.21,4.21,0,0,1,1.71-.51c1.26,0,1.4.35,1.4,2.26v5.59c0,2.77,1.15,2.61,1.82,2.68v.4a4.89,4.89,0,0,1-2,.55c-1.46,0-1.77-1.3-1.82-2.48a5,5,0,0,1-4.25,2.48,2.65,2.65,0,0,1-2.64-2.63s0-1,0-3"/><path class="cls-1" d="M111.43,121.06c-1.73,0-2.79,2.13-2.79,4.28s1.09,4.33,3.35,4.33a4.32,4.32,0,0,0,3.46-1.95,1.85,1.85,0,0,1,.09.53c0,1.71-2.22,3.1-4.33,3.1-2.35,0-4.54-1.55-4.54-5.27s2.08-6.26,5.21-6.26c1.62,0,3.43.56,3.43,2a1.1,1.1,0,0,1-1.86.69c-.09-.82-.64-1.45-2-1.45"/><path class="cls-1" d="M126.87,130.4v.4a4.82,4.82,0,0,1-2.06.55c-1.49,0-1.69-1.84-1.69-2.17a3.49,3.49,0,0,1-3.17,2.17,2.81,2.81,0,0,1-3-2.86c0-2.15,2.09-3.32,4.48-3.32a7.2,7.2,0,0,1,1.66.22c0-.44,0-.91,0-1.33,0-1.75-.29-3.22-2.09-3.22a1.63,1.63,0,0,0-1.7,1.58c0,.06,0,.15,0,.22a1.34,1.34,0,0,1-.75.22,1,1,0,0,1-1.07-1c0-1.33,1.84-2,3.55-2,2.44,0,4,.91,4,3.17,0,.47,0,.93,0,4.31a7.21,7.21,0,0,0,.31,2.3,1.66,1.66,0,0,0,1.53.8m-3.82-4.48s-4.14,0-4.14,2.2a1.62,1.62,0,0,0,1.73,1.64,2.86,2.86,0,0,0,2.35-1.07c0-.46.06-2.77.06-2.77"/><path class="cls-1" d="M131.19,120.16h2.71c.66,0,.77-.27.77-.27a1.73,1.73,0,0,1,.05.42c0,.78-.8,1.2-1.71,1.2-.4,0-1.06-.05-1.48-.05a.84.84,0,0,0-.31,0l0,5.63c0,1.42.18,2.44,1.76,2.44a3.27,3.27,0,0,0,2.06-.62.84.84,0,0,1,.13.46c0,.89-1.31,2-2.93,2-2.5,0-3-1.34-3-3.6,0-1.22.13-3.1.13-4.48a4,4,0,0,0-.22-1.71,1.68,1.68,0,0,0-1-.75l.11-.66c.09,0,1.09,0,2.13-1.84h1.09Z"/><path class="cls-1" d="M137.58,131.07V131l.18-7.48c.09-2.59-1.07-2.68-1.07-2.68v-.4a3.81,3.81,0,0,1,2-.55c1.06,0,1.17.84,1.11,1.86,0,0-.14,2.64-.14,7.67a8.61,8.61,0,0,0,.14,1.67Zm1-15.37a1.19,1.19,0,0,1,1.17,1.15,1.19,1.19,0,1,1-2.37,0,1.18,1.18,0,0,1,1.2-1.15"/><path class="cls-1" d="M148.34,131.67l-.8-.2a2,2,0,0,1-1.53-1.6l-2-6.25c-.77-2.47-1.95-2.78-2.06-2.8l0-.4a3.88,3.88,0,0,1,1.84-.55c1,0,1.31.46,1.57,1.46.11.62.73,2.51,2.11,6.39a14,14,0,0,0,.6,1.44s.22-.91.44-1.49l1.75-4.61a3.84,3.84,0,0,0,.31-1.4,1,1,0,0,0-.37-.84v-.4a2.71,2.71,0,0,1,1.59-.55c.58,0,.76.31.76.75a5.85,5.85,0,0,1-.56,1.89l-3.12,7.36Z"/><path class="cls-1" d="M153.88,125.79c0-3.44,2.31-6,5.48-6,2.46,0,4.7,1.78,4.7,5.55,0,3.19-2.24,6-5.45,6-4.62,0-4.73-5.22-4.73-5.57m2.18-.93c0,3,1.33,5.41,3.14,5.41,1.47,0,2.67-1.69,2.67-4.19,0-3-1.49-5.13-3.31-5.13s-2.5,2.24-2.5,3.91"/><path class="cls-1" d="M10.78,147.07l4.61,13.54a7.5,7.5,0,0,0,.92,2.1H13.14a3.63,3.63,0,0,0-.19-.9l-1.76-5.14H5.11l-2,5.69a2,2,0,0,0-.08.35H1.1l5.95-15.64c.66-2.12,2.18-2,3.1-2.23a20.42,20.42,0,0,0,.63,2.23m-2.57.87-2.65,7.47h5.19Z"/><path class="cls-1" d="M19,155.18c0-5.3-.06-8.79-.06-8.79,0-1.47-.47-2.25-1.23-2.36v-.47a3.92,3.92,0,0,1,2.15-.66c1.34,0,1.68.79,1.65,2.39,0,1.26-.13,2.25-.18,4.33a4.14,4.14,0,0,1-.16,1.31,5.46,5.46,0,0,1,3.65-1.52c2.46,0,4.9,1.91,4.9,6.4,0,3.54-2.1,7.23-6.21,7.23-1.89,0-3.75-.63-4.25-1.73S19,158.8,19,155.18m2.3-3.39v.06c0,3,0,5.29.11,7,.1,2.09.55,2.93,2.38,2.93,2.94,0,3.49-3.46,3.49-5.48,0-3.22-1.62-5.11-3.85-5.11a3.57,3.57,0,0,0-2.13.65"/><path class="cls-1" d="M40.91,155.65l-6.32-.08c0,.39,0,.68,0,1.05,0,2.83,1.62,4.43,3.85,4.43a5.07,5.07,0,0,0,4.09-2.31,2.24,2.24,0,0,1,.11.63c0,2-2.63,3.68-5.12,3.68-2.78,0-5.29-1.84-5.37-6.25,0-4.22,2.17-7.39,5.5-7.39,4.54,0,4.75,4,4.75,5.32v.6a2.79,2.79,0,0,1-1.52.32m-6.4-1.13,5.62-.1c0-1.68-.87-3.54-2.81-3.54-1.73,0-2.34,1.6-2.81,3.64"/><path class="cls-1" d="M46.47,162.7v-.39c.05-6.5,0-15.92,0-15.92,0-1.47-.47-2.25-1.23-2.36v-.47a3.92,3.92,0,0,1,2.15-.66c1.78,0,1.76,1.42,1.57,4.25-.23,3.8-.15,11.54,0,14.45a7.71,7.71,0,0,0,.15,1.1Z"/><path class="cls-1" d="M164.58,79.43c-1.9-9-1.63-32.27-1.46-46.18.06-5.31.11-9.14,0-10.83-.31-9.69-7.85-19.72-19.94-19.72-12.94,0-21.44,6.94-26.32,12.85C114.08,8.63,107.56,2.7,98.4,2.7A33.91,33.91,0,0,0,73.66,13.48C67.59,4.05,55.55,0,39.66,0,23.32,0,5.73,6.79,5.73,19.5c0,6.15,4.87,9.55,10.2,9.55a12.53,12.53,0,0,0,7.2-2.12c0-.63-.22-1.48-.22-2.11,0-7.65,6.38-15.06,16.32-15.06,17.18,0,20,14,20,30.75,0,4-.21,8.48-.42,12.73a68.07,68.07,0,0,0-15.91-2.13C19.92,51.11,0,62.34,0,82.92c0,13.57,9.11,27.36,29,27.36,11.24,0,26.3-7.85,30.33-20.78,0,3.18,1.94,20.78,16.13,20.78,6.16,0,15.71-2.75,19.72-5.31v-3.81c-.62,0-10.6.42-14.62-7.64-1.92-4-3-14.41-3-22,0-32.24.4-36.69.4-41.15a39.06,39.06,0,0,0-.65-7.24,23.57,23.57,0,0,1,13.71-4.33c6.65.11,10,3,9.82,18.51l-.28,35.41a40.7,40.7,0,0,0,.3,7.51l.26,1.89h19.15l-.59-2.66c-2.24-10-1.69-40.23-1.48-51.6l0-1.89a24.64,24.64,0,0,1,17.62-7.17c6.64.12,10,3,9.83,18.51l-.28,35.41a38.36,38.36,0,0,0,.31,7.51l.26,1.89h19.1ZM58.11,84.83C56,89.28,46.23,95,35.64,95,24,95,19.09,86.53,19.09,79.31c0-20.57,39.45-21,39.67-21,0,0-.65,22-.65,26.5"/><path class="cls-1" d="M71.05,116.85l.15-.38h3.33l3.79-.06a2.91,2.91,0,0,1,.29,2.46h-.42c-.14-.67-1.09-1.18-2.33-1.22L74,117.58c-.06,1.13-.15,4-.15,5.41H77.3c.69,0,.82-.28.82-.28a1.71,1.71,0,0,1,0,.44c0,1.24-1.22,1.22-2,1.22-.13,0-1.8-.05-2.37,0,0,1.86,0,3.74.06,5.19a.35.35,0,0,0,0,.13h4.21c.69,0,.82-.29.82-.29a1.85,1.85,0,0,1,0,.45c0,1.24-1.22,1.24-2,1.24H71.6c.05-.74,0-1.51,0-1.51V119.31c0-1.75-.33-2.08-.57-2.46"/><path class="cls-1" d="M70.57,163a2.6,2.6,0,0,1-1.91-2L64.33,150.4a15.05,15.05,0,0,1-.44-1.52c0,.37,0,1.29,0,1.73,0,3.15-.11,8.19-.19,10.73a6.67,6.67,0,0,0,.11,1.36H62l0-.41c.31-5.8.55-13.25.57-15.43a3,3,0,0,0-.7-1l.18-.45a5.35,5.35,0,0,1,1.81-.34,3.08,3.08,0,0,1,1.65.39,152.7,152.7,0,0,0,5.77,14.66c4.88-12.48,5.22-13.35,5.38-13.77.39-1,1.84-1,3.51-1.18-.07,1.39,0,1.63-.07,4.31-.08,4,.05,8.6.15,11.67a9.26,9.26,0,0,0,.19,1.54H77.55l0-1.57c.08-4.72,0-8.24-.11-10.67,0-.45,0-1.29,0-1.58l-.55,1.71L72.38,161l-.7,2.23Z"/><path class="cls-1" d="M92.89,155.65l-6.32-.08c0,.39,0,.68,0,1.05,0,2.83,1.62,4.43,3.86,4.43a5.09,5.09,0,0,0,4.09-2.31,2.44,2.44,0,0,1,.1.63c0,2-2.62,3.68-5.11,3.68-2.78,0-5.3-1.84-5.38-6.25,0-4.22,2.18-7.39,5.51-7.39,4.53,0,4.74,4,4.74,5.32v.6a2.77,2.77,0,0,1-1.52.32m-6.4-1.13,5.62-.1c0-1.68-.87-3.54-2.81-3.54-1.73,0-2.33,1.6-2.81,3.64"/><path class="cls-1" d="M106.56,162.7a6.18,6.18,0,0,1,0-1.25l0-6.3c0-2.52-.45-3.65-2.13-3.67a4.79,4.79,0,0,0-3.69,1.78c0,1.08,0,4.7.05,7.48a9.16,9.16,0,0,0,.21,2H98.37v-.1l.11-8.84c0-3.07-1.31-3.17-1.31-3.17l0-.48a4.51,4.51,0,0,1,2.34-.65c1.26,0,1.41,1,1.33,2.2l-.13.74a6,6,0,0,1,5-3,3.2,3.2,0,0,1,3.15,3.12c0,1.1-.21,7.95.26,10.17Z"/><path class="cls-1" d="M125.57,162.39a5.46,5.46,0,0,1-2.33.66,1.93,1.93,0,0,1-2-1.81,5.91,5.91,0,0,1-3.89,1.81c-2.46,0-4.9-1.76-4.9-6.25,0-3.54,2.1-7.39,6.22-7.39a7.86,7.86,0,0,1,2.3.36c0-2.86,0-3.38,0-3.38,0-1.47-.48-2.25-1.24-2.36v-.47a4,4,0,0,1,2.15-.66c1.34,0,1.66.79,1.66,2.39s-.21,3.17-.21,6.56c0,3,.05,5.87.13,7.52.1,2.21,1,2.52,2.12,2.55ZM121,160.48v-.4c0-.65,0-4.19,0-4.9v-4a9.56,9.56,0,0,0-2.62-.37c-2.94,0-3.49,3.49-3.49,5.51,0,3.22,1.62,4.95,3.85,4.95a3.58,3.58,0,0,0,2.23-.83"/><path class="cls-1" d="M127,156.46c0-4.06,2.73-7.05,6.48-7.05,2.91,0,5.56,2.1,5.56,6.55,0,3.78-2.65,7.08-6.45,7.08-5.46,0-5.59-6.16-5.59-6.58m2.57-1.1c0,3.57,1.58,6.4,3.73,6.4,1.73,0,3.14-2,3.14-5,0-3.49-1.75-6.06-3.9-6.06s-3,2.65-3,4.62"/><path class="cls-1" d="M141,162.21a3.82,3.82,0,0,0,.71-.79l5.84-9.26a4.28,4.28,0,0,1,.74-.84h-3.67c-1.55,0-2.65.6-2.76,1.39h-.5a3.53,3.53,0,0,1,.42-3.07l3.62.16h6.09l.08.5a3.08,3.08,0,0,0-.71.79L145,160.45a2.93,2.93,0,0,1-.63.73h4.12c1.55,0,2.65-.6,2.75-1.39h.5a3.2,3.2,0,0,1-.42,2.91H141.05Z"/><path class="cls-1" d="M165.28,161.92v.47a5.86,5.86,0,0,1-2.44.66c-1.76,0-2-2.18-2-2.57a4.13,4.13,0,0,1-3.75,2.57,3.32,3.32,0,0,1-3.6-3.39c0-2.54,2.47-3.93,5.3-3.93a8.33,8.33,0,0,1,2,.26c0-.52,0-1.08,0-1.57,0-2.08-.34-3.81-2.46-3.81a1.92,1.92,0,0,0-2,1.87c0,.07,0,.18,0,.26a1.55,1.55,0,0,1-.89.26,1.18,1.18,0,0,1-1.26-1.18c0-1.57,2.18-2.41,4.2-2.41,2.88,0,4.75,1.07,4.75,3.75,0,.55-.06,1.1-.06,5.09a8.37,8.37,0,0,0,.37,2.72,2,2,0,0,0,1.81.95m-4.51-5.3s-4.91,0-4.91,2.6a1.91,1.91,0,0,0,2,1.94,3.4,3.4,0,0,0,2.78-1.26c0-.55.08-3.28.08-3.28"/><rect class="cls-2" x="2.37" y="136.87" width="161.64" height="2.23"/></g></g></svg>