<svg xmlns="http://www.w3.org/2000/svg" viewBox="0 0 19.78 12"><defs><style>.cls-1{fill:#fff;}</style></defs><title>Recurso 3sdfd</title><g id="Capa_2" data-name="Capa 2"><g id="Capa_1-2" data-name="Capa 1"><path class="cls-1" d="M19.78,11V1a1,1,0,0,0-1-1h0a1,1,0,0,0-1,1V11a1,1,0,0,0,1,1h0A1,1,0,0,0,19.78,11Zm-13.3.3h0a1,1,0,0,0,0-1.41l-2-2A.52.52,0,0,1,4.87,7h9.92a1,1,0,0,0,1-1V6a1,1,0,0,0-1-1H4.86a.52.52,0,0,1-.37-.89l2-2a1,1,0,0,0,0-1.4h0a1,1,0,0,0-1.4,0L.15,5.63a.53.53,0,0,0,0,.74L5.09,11.3A1,1,0,0,0,6.48,11.31Z"/></g></g></svg>