<svg xmlns="http://www.w3.org/2000/svg" viewBox="0 0 126.64 106.16"><defs><style>.cls-1{fill:#fff;}</style></defs><title>Recurso 1vfsdf654XZCV</title><g id="Capa_2" data-name="Capa 2"><g id="Capa_2-2" data-name="Capa 2"><path class="cls-1" d="M20.13,39.38a24.65,24.65,0,0,1-11-2.52c-1.56-.67-2.18-1.53-1-3.13s2.1-3.07,3.07-4.65a1.64,1.64,0,0,1,2.57-.66,13.46,13.46,0,0,0,8,1.39c1.65-.16,2.79-1,2.91-2.66s-1-2.5-2.46-2.87-2.7-.5-4.05-.72c-.48-.08-1.08.08-1.42-.16-2.32-1.62-.84-4-1.17-6.08-.19-1.19.62-1.67,1.75-1.8a14.06,14.06,0,0,0,4.81-1.11,2.67,2.67,0,0,0,1.73-3.13A2.68,2.68,0,0,0,21.12,9c-1.75,0-3.35.11-4.1,2a1.16,1.16,0,0,1-.21.35c-.62.71-8,.95-8.6.27A2.23,2.23,0,0,1,7.9,9.9C8.1,6,10.41,3.48,13.64,1.66,18.7-1.17,26.35-.29,30.71,3.59a9.7,9.7,0,0,1,.23,14.13c-1,.93-1.43,1.55-.05,2.53,5.75,4.08,5.21,13.48-2.39,17.34A15.69,15.69,0,0,1,20.13,39.38Z"/><path class="cls-1" d="M109.52,19.68q0,8.07,0,16.14c0,2.75-.12,2.86-3,2.89-1.38,0-2.77-.1-4.14,0-2.16.18-2.7-.81-2.67-2.81.09-7.11,0-14.21,0-21.31,0-2.38-.18-2.51-2.49-1.79s-2.61.64-2.63-1.85c0-1.86,0-3.73,0-5.59a2,2,0,0,1,1.41-2.24C99.54,2.08,102.84.43,106.67.75c2.67.21,2.84.18,2.84,2.79Q109.53,11.61,109.52,19.68Z"/><path class="cls-1" d="M90.37,19.75c0,5.44-.07,10.88,0,16.32,0,2-.56,2.83-2.58,2.69a38.37,38.37,0,0,0-4.55,0c-1.87.09-2.54-.72-2.52-2.58.07-7.1,0-14.19,0-21.29,0-2.7-.1-2.77-2.69-2-2.23.66-2.41.54-2.43-1.7,0-1.93,0-3.86,0-5.79A2,2,0,0,1,77,3.13C80.62,2,84.08.42,88,.74c1.8.15,2.39.73,2.36,2.48-.07,5.51,0,11,0,16.53Z"/><path class="cls-1" d="M69,25.1c0,2.68,0,5.37,0,8.06.05,1.61-.41,2.53-2.21,2.34-1.36-.14-3,.54-3.71-1.35-.22-.56-.71-.09-1,.13-3.63,2.64-7.21,1.9-10.54-.46a10.39,10.39,0,0,1-4.4-10.66,10.68,10.68,0,0,1,9.69-9,6.88,6.88,0,0,1,5.55,1.75c.65.61,1.3,1.12,1.76-.23.7-2,2.44-1.15,3.72-1.1S69,15.88,69,16.82C69,19.58,69,22.34,69,25.1ZM57.46,30.4a5.36,5.36,0,0,0,5.41-5.14,5.74,5.74,0,0,0-5-5.79c-2.66-.12-4.85,2.17-5,5.23C52.67,28,54.54,30.29,57.46,30.4Z"/><path class="cls-1" d="M57,54.94c0,2.21,0,4.41,0,6.62,0,.9.41,2.27-.87,2.43s-2.94.78-4-.58c-.43-.53-.6-.68-1.28-.34-5.63,2.88-11.65,0-12.91-6.19A9,9,0,0,1,40.53,48a8.51,8.51,0,0,1,8.6-2.14,4.55,4.55,0,0,1,1.65.81c.8.69,1.23,1.34,2-.22.63-1.38,2.23-.68,3.37-.6S56.94,47,57,47.7C57,50.12,57,52.53,57,54.94Zm-5.51,0a4.41,4.41,0,0,0-4.39-4.5c-2.48,0-4.08,1.69-4.12,4.4s1.48,4.42,4,4.45A4.34,4.34,0,0,0,51.44,55Z"/><path class="cls-1" d="M109,54.8c0,2.21,0,4.41,0,6.62,0,.92.37,2.27-.83,2.49-1.37.26-3,.9-4.18-.59-.46-.6-.73-.63-1.3-.19-4.29,3.27-11.74.07-13-6.27-1.38-7,5.17-13.19,11.59-11a3.4,3.4,0,0,1,1.13.49c.92.82,1.56,2,2.47-.21.41-1,2.17-.5,3.28-.29S109,47,109,47.77C109,50.12,109,52.46,109,54.8Zm-5.68.23A4.29,4.29,0,0,0,99,50.45a4.1,4.1,0,0,0-4.24,4.34c-.06,2.6,1.64,4.54,4,4.55A4.28,4.28,0,0,0,103.28,55Z"/><path class="cls-1" d="M81.73,62.17a9.37,9.37,0,0,1-5.06,2.18,6.51,6.51,0,0,1-7-5.15c-.83-4-.31-8.11-.36-12.16,0-.8.45-1.2,1.33-1.19,4.89,0,4.11-.54,4.17,3.7,0,2,0,4,0,6,0,2.28,1.18,3.66,3,3.61s3.21-1.51,3.22-3.74c0-2.41.09-4.82,0-7.23-.07-1.71.36-2.68,2.29-2.35a4,4,0,0,0,1.24,0c1.73-.28,2.09.59,2.07,2.13-.07,4.62,0,9.23,0,13.85,0,.9.31,2.17-1.12,2.22-1.26,0-2.89.68-3.43-1.31A2.58,2.58,0,0,0,81.73,62.17Z"/><path class="cls-1" d="M55.39,97.4c0,2,0,4,0,6,0,.84.35,2-.83,2.28s-2.52.59-3.55-.32c-.49-.44-.63-.92-1.43-.4-3,2-6,1.32-8.63-.7A8.27,8.27,0,0,1,37.77,96a7.94,7.94,0,0,1,12.4-5.7c.53.33.86.44,1.08-.21.6-1.74,2.06-1.16,3.15-1,1.37.17,1,1.45,1,2.35,0,2,0,4,0,6Zm-5.16.27a4.15,4.15,0,0,0-3.88-4.45A4.09,4.09,0,0,0,42.45,97a3.91,3.91,0,1,0,7.78.67Z"/><path class="cls-1" d="M105.11,90.64c.69-.4.51-1.63,1.61-1.66,2.73-.06,3.07-.12,3,2.45-.06,3.92,0,7.85,0,11.78,0,.91.38,2.24-.8,2.49s-2.68.68-3.7-.45c-.54-.61-.81-.68-1.48-.24-3.06,2-6,1.15-8.59-.84a8.18,8.18,0,0,1-3.07-8.48C93.26,89.72,100.37,86.51,105.11,90.64Zm-4.45,10.79a4,4,0,0,0,4-4.11,4.39,4.39,0,0,0-4.13-4.1,4.17,4.17,0,0,0-3.82,4.13A3.87,3.87,0,0,0,100.66,101.43Z"/><path class="cls-1" d="M58.42,97.39c0-2,0-4,0-6,0-.85-.32-2,.92-2.21,1-.2,2.34-.56,3,.55.55.86.77.65,1.51.23,5-2.92,10-.31,10.5,5.58.24,2.81,0,5.65.06,8.47,0,2.23-1.61,1.73-2.93,1.83s-2.24-.26-2.17-1.9c.08-2.27,0-4.55,0-6.82,0-2.08-1.28-3.56-2.94-3.56-1.49,0-2.8,1.52-2.84,3.45-.06,2.35-.1,4.69,0,7,.06,1.94-1.16,1.85-2.47,1.8s-2.75.26-2.7-1.84S58.43,99.59,58.42,97.39Z"/><path class="cls-1" d="M28.18,55.8C29,53,29.78,50.5,30.57,48c.61-1.86,4.24-3.12,5.91-2.09.63.39.44,1,.23,1.46-2.2,5.26-4.38,10.53-6.65,15.76-.65,1.5-3.52,1.43-4.2-.16-2.2-5.19-4.26-10.42-6.34-15.65-.4-1-.06-1.62,1.13-1.51h.21c3.77-.15,3.72-.14,5,3.4C26.57,51.3,26.93,53.47,28.18,55.8Z"/><path class="cls-1" d="M83.62,105.83c-1.38,0-2.76,0-4.14,0-.92,0-2.1.3-2.49-.92a3.33,3.33,0,0,1,.64-3.47c2-2.19,3.84-4.49,5.73-6.75.29-.35,1-.53.73-1.11s-1-.29-1.48-.31c-1.24-.05-2.49-.05-3.73,0s-1.66-.71-1.61-1.85S77.1,89,78.77,89c3.39,0,6.77-.09,10.15,0,1.81,0,2.42,2.49,1,4.35-1.66,2.2-3.5,4.25-5.24,6.39-.32.39-1,.77-.69,1.35s1,.25,1.52.28a24.14,24.14,0,0,0,2.69,0c1.65-.12,2.58.32,2.58,2.25s-1,2.31-2.61,2.24S85.14,105.83,83.62,105.83Z"/><path class="cls-1" d="M29.15,97.75l2.31-7.16c.43-1.31,4.28-2.27,5.27-1.31.51.5.22,1.07,0,1.54-1.88,4.57-3.81,9.12-5.72,13.68a2.12,2.12,0,0,1-2.29,1.35,1.92,1.92,0,0,1-2-1.38C25,100,23.18,95.53,21.33,91.09c-.67-1.6-.19-2.06,1.46-2.07,3.18,0,3.15,0,4.07,3,.56,1.9,1.22,3.78,1.84,5.66Z"/><path class="cls-1" d="M112.24,55c0-2.34,0-4.68,0-7,0-.79-.22-1.94.86-2s2.67-.76,3.39.61,1,.83,1.82.14a5.86,5.86,0,0,1,7.72.55c1.35,1.34.06,2.3-.46,3.26a1.63,1.63,0,0,1-2.55.72c-3-1.71-5.13-.39-5.13,3,0,2.62-.06,5.24,0,7.85,0,1.47-.48,2.21-2,2a7.58,7.58,0,0,0-1.65,0c-1.44.14-2-.51-2-1.9C112.27,59.81,112.24,57.4,112.24,55Z"/><path class="cls-1" d="M65.89,52.21c0,3.31-.06,6.62,0,9.92,0,1.78-.93,2.1-2.35,2s-3.32.6-3.33-1.89c0-6.68,0-13.36,0-20,0-2.56,2.09-1.79,3.55-1.91s2.15.44,2.12,2C65.84,45.6,65.9,48.9,65.89,52.21Z"/><path class="cls-1" d="M6.4,105.42c2.5-1.57,3.55-3.87,5.95-5,2.11-1,2.09-4.72.08-6s-3-3.45-4.52-5.29a5.56,5.56,0,0,1,5.56.88c.83.65,1.18.87,1.5-.28.42-1.51,1.65-1.29,2.71-1.14s.94,1.17.94,2c0,4.27,0,8.55,0,12.82,0,.73.65,1.88-.46,2.16s-2.73.68-3.53-.3-1.23-.42-1.8,0C10.86,106.44,8.89,106.17,6.4,105.42Z"/><path class="cls-1" d="M112.72,97.45q0-3.09,0-6.19c0-.8-.23-1.84.83-2.07s2.38-.62,3,.5,1,.69,1.77.12a5.51,5.51,0,0,1,6.85.42c1.35,1.16.4,2-.22,3s-1.17,1.57-2.46.82c-2.69-1.58-4.64-.35-4.64,2.8,0,2.4-.06,4.81,0,7.22,0,2.14-1.47,1.71-2.72,1.76s-2.55.16-2.48-1.78C112.78,101.86,112.72,99.65,112.72,97.45Z"/><path class="cls-1" d="M106.94,79.53a12.48,12.48,0,0,1-6-1.19,2.36,2.36,0,0,0-2.84.34,22.4,22.4,0,0,1-4.9,2.62c-.45.2-1,.41-1.31-.1-.42-.77.4-.87.82-1.12,1.32-.75,2.62-1.52,4-2.19s1.54-1.33.55-2.5a4.27,4.27,0,0,1-.7-4.29,3.42,3.42,0,0,1,3.55-2.61c1.77.11,2.77,1.38,3,3.15a5,5,0,0,1-.56,3c-.39.75-1.64,1.3-1.12,2.19s1.65.85,2.6,1.05c8.28,1.82,14.77-3.56,18.06-9.13.2-.33.54-.85,0-1-2.6-1-.36-1.49.2-2,.93-.85,1.86-2.42,3.13-1.87s.74,2.33,1,3.57c.11.49.46,1.14-.12,1.52s-.86-.22-1.23-.49c-1.22-.89-1.41.35-1.75.93a20.73,20.73,0,0,1-6.78,7.36A16.73,16.73,0,0,1,106.94,79.53ZM101.75,72c-.28-.92-.47-2.23-2.06-2.1s-2.07,1.21-2,2.59.36,2.67,1.84,3.08C100.26,75.81,101.78,73.42,101.75,72Z"/><path class="cls-1" d="M4.32,47.3a6.49,6.49,0,0,1,3.21,2.37c.74.95-.42,1.07-.72,1.57-.55.89.13.93.68.9C9.79,52,9.26,53.71,9.4,55c.17,1.54-.94,1.36-1.91,1.39-.46,0-1.06-.13-1.31.37a1.38,1.38,0,0,0,.6,1.64c1.6,1.28.7,2.07-.38,3C5.16,62.46,4.29,62.66,3,61.22a9.49,9.49,0,0,1,.11-12.94A10.34,10.34,0,0,1,4.32,47.3Z"/><path class="cls-1" d="M13,51.81a24.74,24.74,0,0,1-6.51-5.72,8.43,8.43,0,0,1,8.13,1,8.55,8.55,0,0,1,3.89,7.75,1.51,1.51,0,0,1-1.68,1.65c-1.58,0-3.17,0-4.75.07-.74,0-1-.24-1-.94a5,5,0,0,0,0-1.44C10.82,52.72,11.05,51.76,13,51.81Z"/><path class="cls-1" d="M1.23,96.71A8.33,8.33,0,0,1,4.8,90.34c1.71-1.24,2.08.65,2.86,1.31.63.55,1.41,1.31.17,2.35-2.21,1.84-2.46,4.49-.5,6.48,1.47,1.48,0,1.89-.63,2.54-.74.8-1.55,1.94-2.9.69A9.31,9.31,0,0,1,1.23,96.71Z"/><path class="cls-1" d="M40.34,71.09c3.5-2.32,6.41-2.21,8.89.33a6.53,6.53,0,0,1,.44,7.7c-1.88,2.68-4.6,2.91-9.79.69v4c0,.41,0,.89-.54,1s-.67-.41-.67-.82c0-4.48,0-9,0-13.44a.67.67,0,0,1,.57-.74C40.34,69.54,39.62,70.92,40.34,71.09Zm4.38,9.24a4.85,4.85,0,1,0,0-9.69,4.8,4.8,0,0,0-4.84,4.85A4.75,4.75,0,0,0,44.72,80.33Z"/><path class="cls-1" d="M16,72.41c6.86.17,13.2,1.78,19.47,3.73.42.13,1.12.25.79.91s-1.05.37-1.63.2a86,86,0,0,0-13.07-3.1c-5.34-.68-10.59-.79-15.48,2A15.88,15.88,0,0,0,1.58,80.1c-.35.44-.72,1-1.3.6s-.09-1,.24-1.42a16.75,16.75,0,0,1,9.15-6A28.1,28.1,0,0,1,16,72.41Z"/><path class="cls-1" d="M63.11,79.83c-3.88,2.4-6.82,2.21-9.22-.56a6.42,6.42,0,0,1,0-7.67c2.43-2.72,5.42-2.88,9.23-.47.53-.34,0-1.61,1-1.41s.53,1.13.54,1.73c0,2.68,0,5.37,0,8,0,.6.47,1.52-.55,1.72S63.67,80.13,63.11,79.83Zm.32-4.27a4.82,4.82,0,0,0-4.75-4.91,4.92,4.92,0,0,0-4.82,4.89,4.83,4.83,0,0,0,4.7,4.76A4.69,4.69,0,0,0,63.43,75.56Z"/><path class="cls-1" d="M45.54,7.23a4.85,4.85,0,0,1-4.63,4.82,4.79,4.79,0,0,1-4.84-4.8,4.74,4.74,0,0,1,9.47,0ZM40.7,9.6a2.21,2.21,0,0,0,2.42-2.16A2.19,2.19,0,0,0,40.9,5a2.15,2.15,0,0,0-2.4,2C38.33,8.52,39.18,9.32,40.7,9.6Z"/><path class="cls-1" d="M121.12,7.18a4.81,4.81,0,0,1-4.63,4.87,4.87,4.87,0,0,1-4.86-4.63,4.75,4.75,0,0,1,9.49-.24ZM116.4,9.59a2.17,2.17,0,0,0,2.31-2.34A2.18,2.18,0,0,0,116.35,5a2.14,2.14,0,0,0-2.27,2.35A2.1,2.1,0,0,0,116.4,9.59Z"/><path class="cls-1" d="M87.17,71.29c.53-.48-.08-1.56.89-1.5s.6.94.61,1.49c0,2.75,0,5.49,0,8.24,0,.56.36,1.43-.45,1.61-1.15.25-.46-1.06-1-1.41-4,2.48-7.08,2.34-9.33-.42a5.93,5.93,0,0,1,.35-8C80.61,68.81,83.77,68.79,87.17,71.29Zm-4.62,9a4.87,4.87,0,0,0,4.91-4.78,5.06,5.06,0,0,0-4.85-4.9,4.85,4.85,0,0,0-4.75,4.73A4.72,4.72,0,0,0,82.55,80.3Z"/><path class="cls-1" d="M9.47,64.33a7.28,7.28,0,0,1-1-.14c-.58-.13-1.44.12-1.65-.55s.89-.76,1.11-1.26c1.11-2.56,3.78-2.88,5.82-4.05,1.57-.89,1.93,1.06,2.78,1.75s.38,1.5-.37,2.09A9.4,9.4,0,0,1,9.47,64.33Z"/><path class="cls-1" d="M67.39,75.53c0-1.59,0-3.17,0-4.76,0-1.11.31-1.26,1-.49s.92.13,1.32-.12a4.31,4.31,0,0,1,4.51,0c.32.17.78.48.57,1s-.63.32-1,.21c-3.94-1-5.28,0-5.28,4.11,0,1.59,0,3.17,0,4.76,0,.39.09.92-.49.94s-.56-.49-.56-.89c0-1.58,0-3.17,0-4.75Z"/></g></g></svg>