<svg xmlns="http://www.w3.org/2000/svg" viewBox="0 0 2557.12 598.16"><defs><style>.cls-1{fill:#8c8c8c;}</style></defs><title>Recurso 4</title><g id="Capa_2" data-name="Capa 2"><g id="Capa_1-2" data-name="Capa 1"><path class="cls-1" d="M0,308.39c8.39-1.54,16.92-1.13,25.37-1.57,28.26-1.45,56.54-2.8,84.78.55a168.06,168.06,0,0,1,33.57,7.19c44.07,14.73,50.48,56.91,40.61,85.1-6.21,17.73-16.52,29.2-37.11,41.06,4.34,2.35,8.5,4.53,12.6,6.83,24.77,13.88,37.13,38.36,33.67,66.65-4.92,40.24-28.25,65.48-68.62,74.64-21.28,4.82-42.85,5.76-64.5,5.38-20.12-.35-40.27-.12-60.37-1.39ZM53.39,507.88h.08c0,12,.08,24,0,35.92,0,2.86.63,4.18,3.78,4.31,5,.2,9.93,1.14,14.91,1.34,13.57.56,27-.5,39.59-6.09,16.43-7.27,23.93-20.27,23.21-39.73-.54-14.62-9.54-25.73-25.61-31.54s-32.86-6-49.78-4.45c-5.38.48-6.39,2.49-6.24,7.32C53.62,485.92,53.39,496.91,53.39,507.88Zm1.89-118.47H53.71c0,10.64.1,21.27-.06,31.9,0,2.7.62,3.69,3.46,4.05a140.45,140.45,0,0,0,18.42,1.12c14.17-.08,27.92-2.06,40-10.22,12.26-8.31,16.71-20.31,15.07-34.61-1.67-14.54-10.49-23.2-24.15-27.31-15.18-4.56-30.57-3.57-46-1.62-3.73.47-5.36,1.65-5.23,5.79C55.49,368.8,55.28,379.11,55.28,389.41Z"/><path class="cls-1" d="M2431.88,0c6.31,2.07,13,1.74,19.44,2.71,9.47,1.42,16.63,6,21,14.28a374.6,374.6,0,0,1,21.56,48.1c2.51,7,.18,10-8.31,10.6-9.63.64-19.3.75-28.95,1.07a1310.72,1310.72,0,0,0-159.89,15.69c-49.18,7.74-97.48,19.17-145.37,32.55a79.19,79.19,0,0,1-14.64,3c-10.26.89-15.34-2-19.92-11.34-3.43-7-5.71-14.49-8.1-21.91-3.41-10.58-7-21.1-10.09-31.78-2.74-9.54,0-15.68,8.83-20.27,11-5.71,23.05-8.5,34.9-11.66,42.52-11.32,85.92-17.85,129.53-23.21C2294,5.08,2316.15,2.49,2338.41,1c.69,0,1.28-.21,1.52-1h24a49.32,49.32,0,0,0,22,0h23a26.71,26.71,0,0,0,16,0Z"/><path class="cls-1" d="M2385.9,0a49.32,49.32,0,0,1-22,0Z"/><path class="cls-1" d="M2424.89,0a26.71,26.71,0,0,1-16,0Z"/><path class="cls-1" d="M2471.14,98c12,.07,24.54-.16,36.94,1.71,8.24,1.24,14.51,5.51,17.35,13.28,7.36,20.11,15.71,39.83,23.22,59.88,3.31,8.83.84,13.22-8.25,16.5-10.86,3.91-22.34,5.21-33.65,7-41.89,6.58-83.6,14.17-125,23.39-65.22,14.53-130.26,29.76-194.4,48.63-32.69,9.62-64.93,20.6-96.84,32.55a91.22,91.22,0,0,1-18.29,4.8c-10.47,1.61-17-1.53-21.53-11.09-4.43-9.36-6.28-19.57-8.92-29.5-4.13-15.56-8.58-31-11.15-47-2.78-17.29,1.45-26.27,17.38-33.84,21.08-10,43.59-16.18,65.68-23.43a1204.93,1204.93,0,0,1,146.2-37.63c45.24-8.8,90.67-16.19,136.56-20.74C2421.16,100.11,2445.9,98.78,2471.14,98Z"/><path class="cls-1" d="M2270.15,425.26c-10.32.42-17.49-4.4-22.25-13.23-4.28-7.95-7-16.54-9.25-25.19-6.58-24.79-18-47.8-26.22-72-6.94-20.5-1.29-31.73,19.73-37.13q58.92-15.12,117.9-30c48-12.18,96.56-22.12,145.13-31.9,4.06-.82,8.23-1.22,12.36-1.67,11.26-1.22,18,2.31,23.3,12.35,4.69,8.83,7.71,18.35,10.88,27.78,4.59,13.68,8.92,27.45,13.34,41.19.4,1.26.7,2.56,1,3.85,2.86,12.66.26,18.51-11.59,24.08-16.11,7.57-33.08,13-49.66,19.37q-95.76,37-191.55,73.85C2292.56,420.77,2281.8,424.78,2270.15,425.26Z"/><path class="cls-1" d="M1395.26,408.94c5.93-6.81,10.84-12.62,16-18.27,20.52-22.72,46.49-27,74.88-20.9,15.63,3.34,25.11,14.82,32.33,28.34,1.46,2.75,2.5,5.78,5.18,7.81,2.36,1.78,3.78,2,5.75-.86,7.13-10.32,15-20.2,26.36-26.09,20.64-10.71,42.59-14.37,65.17-7.69,21,6.21,32.64,21.3,36.34,42.65,4.06,23.35,4.47,47,4.9,70.57.63,34.92-1,69.83-.94,104.75,0,3.41-1.3,4.2-4.27,4.44a309.92,309.92,0,0,1-49.41,0c-3.13-.25-4.17-1.22-4-4.55,2.2-41.37,2.49-82.77,1.77-124.18-.15-8.47-.53-17-1.2-25.4-1.35-17.2-13.91-26.53-30.84-23-11.53,2.4-20.89,8-27.33,18.29-9.91,15.88-15.67,32.89-15.67,51.71,0,33.76-.11,67.52.1,101.28,0,4.53-1.25,5.47-5.53,5.39-15-.27-30-.24-45,0-4.06.06-5.34-.92-5.3-5.17.39-41.07-.42-82.15.67-123.22.27-10.16-.13-20.3-2.75-30.18-4.33-16.33-15.44-22.64-31.8-18.05-13,3.65-21.67,12.54-28.12,23.89-7.3,12.85-10.39,26.88-11.07,41.49-1.65,35.23-2.15,70.48-.16,105.71.26,4.61-1.1,6-5.55,6-16.16.33-32.3-.06-48.45-.57-4.59-.15-3.46-3-3.46-5.4q0-89.55.05-179.1c0-6.66.07-13.31,0-20,0-2.18.27-3.65,2.71-4.53,14.58-5.3,29.39-9.58,45-10.72,5.92-.44,5.87-.38,5.48,5.75C1396.42,388.68,1395.9,398.12,1395.26,408.94Z"/><path class="cls-1" d="M1742.65,409.7c1.57-.05,2-1.28,2.67-2.16,22.24-31.62,68-35.39,96.76-18.15,15.58,9.35,24.4,23.93,29.54,40.61,10.6,34.4,10,69-2.14,102.82-12.27,34.17-38.74,53-73.08,60.49a207.09,207.09,0,0,1-94.56-1.42c-13.17-3.23-13.13-3.36-13.12-16.51q.09-136,.08-271.91c0-4.08,1.17-6.17,5-7.77,15.36-6.47,31.62-8.84,47.94-11.12,3.06-.43,2.71,1.52,2.85,3.26a439.9,439.9,0,0,1,1.11,54.82c-1,21.93-2.12,43.85-3.18,65.77A6.37,6.37,0,0,0,1742.65,409.7Zm.7,113.28c0,7-.25,14,.07,20.93.37,7.85.59,7.89,8.28,9.1,4.1.65,8.23,1.24,12.37,1.58,24.58,2,44.54-10,52.81-33.14,9.49-26.55,8.15-53.28-2.1-79.41-4.47-11.39-16.14-17.87-28.43-17.08-16.84,1.09-33.27,16.06-37.16,34.13C1744.65,480.14,1743.22,501.51,1743.35,523Z"/><path class="cls-1" d="M1108.86,487.77c.33-23.67,4.6-48.54,18.8-70.68,19.31-30.13,47.2-46,82.9-47.87,20-1,39.56,1.06,58,9.59,24.91,11.52,40.32,31.29,47.38,57.2,9.15,33.55,7.73,66.93-6.58,98.92-16.27,36.37-45.35,56.26-84.42,61.94a120,120,0,0,1-60.32-6.67c-24.22-9.08-40.19-25.73-48.13-50.27C1111.21,523.64,1108.92,507,1108.86,487.77Zm58-4.19c.22,3.32.35,6.64.67,9.95,1.16,11.78,3.12,23.37,9,33.9s13.94,18.13,26.13,20.52c20.49,4,39.08-3.77,49.19-22.08,14.78-26.79,15.67-54.76,4.13-83a41.57,41.57,0,0,0-18-20.76c-20.69-11.91-51.8-1.5-63.53,21.29C1168,456.08,1166.6,469.67,1166.89,483.58Z"/><path class="cls-1" d="M1007.56,473.35c-.61,24.85-4.75,48.92-16.95,71-17.92,32.39-45.93,49.17-82.49,52.65-16.77,1.59-33.31.67-49.35-4.56-32.13-10.48-51.08-33.39-58.68-65.49a152.26,152.26,0,0,1,7-93c18.18-45.49,60.68-68.51,107.82-65.13,17.32,1.24,33.8,5.37,48.78,14.44,27.15,16.43,39.36,41.76,42.83,72.2A117.94,117.94,0,0,1,1007.56,473.35ZM950.14,481c0-1.49.05-3,0-4.48-.65-16.08-3.92-31.33-14.43-44.16-14.53-17.75-38.74-20.66-57.16-7a50.79,50.79,0,0,0-17.8,24.15c-8.9,25-7.45,50,1.78,74.54a39.72,39.72,0,0,0,16.91,20.38c18.38,11.1,41.74,6.09,55.64-11.84C946.87,517.37,949.87,499.56,950.14,481Z"/><path class="cls-1" d="M336.88,561.49c-12.13,19.35-29.77,29.91-51,34.64a74.51,74.51,0,0,1-48.74-5.54c-27.87-13.12-39-46.34-25.71-76.2,10.07-22.65,28.45-36.27,50.8-45.21,20.4-8.17,41.82-10.65,63.6-10.45,4.12,0,5.6-.91,5.16-5.17s-.29-8.61-.94-12.91c-2.4-15.92-11-24.33-27-26.6-18.92-2.66-37.1.26-54.87,6.82-6.69,2.48-13.43,4.85-20.16,7.21-2.55.9-4,.9-4.25-2.79-.86-13.6-2.11-27.18-3.42-40.74-.25-2.56.52-3.51,2.8-4.22,33.38-10.46,67.24-15.7,102.34-11.14,31.4,4.08,51.05,20.33,58,49.27a123.39,123.39,0,0,1,3.07,27.21c.75,47.55,1.33,95.11,2.15,142.66.07,4.06-1.15,5-5,4.91-14.65-.21-29.31-.25-44,0-4.26.08-4.86-1.32-4.51-5.13C336,579.28,336.36,570.38,336.88,561.49ZM319.5,496.33c-11,.71-21.84,2.11-32.3,5.65-9.58,3.24-18.38,7.67-23.87,16.8-9.81,16.29-.39,34.74,18.57,34.73,17.34,0,32.14-6.18,40.83-22.65a75.17,75.17,0,0,0,8-27.5c.76-7.24.66-7.24-6.73-7C322.49,496.36,321,496.33,319.5,496.33Z"/><path class="cls-1" d="M2110.84,562.51c-17.43,24.23-41.66,34.12-70.19,34.84-28.29.71-49.94-13.07-57.93-36.88-6-17.8-3.1-35.12,5-51.67,11.07-22.49,30.67-34.29,53.53-41.66,15-4.83,30.67-5.8,46.27-7,4.81-.39,9.62-.81,14.43-1.15,1.87-.13,3.12-.52,3.06-2.87-.21-7.65-.5-15.26-2.68-22.69-3-10.13-10-15.85-19.94-18.17-20.8-4.83-41-1.94-60.69,5.47-6.53,2.46-13.09,4.83-19.65,7.19-2.49.89-4,1-4.29-2.7-.93-13.6-2.2-27.17-3.56-40.73-.28-2.75,1-3.43,3.08-4,23.4-5.91,46.83-11.57,71.07-12.76a135.05,135.05,0,0,1,50.65,6.77c22.95,7.84,35.93,24.19,39.86,47.88a124.94,124.94,0,0,1,2,22.82c-.84,47.4,2,94.76,1.8,142.15,0,4.73-1,6.2-5.94,6.08-14.48-.36-29-.24-43.47,0-3.63.05-4.46-1.07-4.16-4.53C2109.93,580.18,2110.3,571.47,2110.84,562.51Zm-17.05-66.61c-16.61,0-32.22,3.72-46.52,12.4-5.82,3.53-10.75,7.87-13.1,14.45-4.59,12.85,4.68,27.59,19.53,31.09,13.06,3.09,23.86-1.66,33.29-10.2,10.85-9.81,16.13-22.33,17.6-36.78,1.12-11,1.42-10.95-9.3-11Z"/><path class="cls-1" d="M470.9,408.12c2.55-3.06,5.27-6,7.63-9.19,13.16-17.86,31.4-26.56,52.88-29.59,10.13-1.43,20.23-1.95,30.26.45,24.33,5.83,38.58,22.54,42.05,49,4.28,32.75,4.19,65.68,3.95,98.6-.17,23.78-.74,47.56-1,71.34,0,3.37-.81,4.57-4.4,4.52q-23.49-.29-47,0c-3.5,0-4.48-1-4.45-4.47.4-40.91-.56-81.82.64-122.73a132.48,132.48,0,0,0-1.65-26.83c-3.47-19.89-15.85-27.76-35.31-22.43-12.33,3.38-20.85,11.35-26.79,22.32-7.59,14-10.35,29.33-12,44.93-3,28.23-1.35,56.48-.57,84.74.19,7,.26,14,.55,20.94.11,2.48-.46,3.53-3.23,3.51q-25.48-.16-51,0c-2.59,0-3.58-.8-3.45-3.43.17-3.48,0-7,0-10.47q0-95.29-.13-190.6c0-4.33,1.46-6,5.32-7.2,13.57-4.12,27.28-7.35,41.5-8.15,3.7-.2,5.2.51,5.05,4.71-.35,9.9-.11,19.81-.11,29.73Z"/><path class="cls-1" d="M734.75,370.2c14.89-.29,29.51,2.2,44.17,4.31,3.59.52,4,2.17,3.62,5.31-1.77,13.68-3.45,27.37-4.92,41.08-.34,3.21-1.57,4-4.45,3.25-6.75-1.78-13.61-3.19-20.24-5.32-28.36-9.1-53.09,9-60.85,31.22q-11.91,34-.13,67.87c6.92,19.8,21.4,29.23,42.07,29.83a89.45,89.45,0,0,0,30-4.32c14.2-4.52,14.35-4.46,15.94,10,1.11,10.07,1.85,20.19,2.68,30.3.14,1.68.78,3.51-2,4.21-22,5.43-43.9,11.1-66.86,10.13-40.26-1.71-68.18-21.85-80.45-60-12.92-40.13-9.74-79.53,10.07-116.87,17.46-32.95,45.86-49.27,82.92-51C729.09,370.09,731.92,370.2,734.75,370.2Z"/><path class="cls-1" d="M1086.29,440.14c0,49.23-.07,98.46.12,147.68,0,4.52-1.21,5.52-5.53,5.44-15.15-.27-30.31-.2-45.47,0-3.45,0-4.89-.47-4.88-4.51q.18-143.19,0-286.4c0-3.17,1-4.69,3.87-5.84,14.62-5.82,29.45-10.36,45.42-10.32,3.83,0,4.64,1.16,4.64,4.79q-.18,74.6-.09,149.19Z"/><path class="cls-1" d="M1960.34,482c0,35.41,0,70.82.08,106.23,0,3.76-.75,5.09-4.84,5-16.81-.25-33.63-.18-50.45,0-3.17,0-4.22-.72-4.21-4.08q.15-106,0-212c0-2.92.64-3.85,3.77-4.08,17-1.28,33.91-1.69,50.89-1.86,4.11-.05,4.85,1.29,4.83,5C1960.29,411.51,1960.34,446.76,1960.34,482Z"/><path class="cls-1" d="M1967.08,310.28c-.07,19.9-15.49,34.74-36,34.63-18.76-.11-33.86-16-33.58-35.44.26-18.86,15.32-32.87,35.35-32.89S1967.15,290.74,1967.08,310.28Z"/></g></g></svg>