<svg xmlns="http://www.w3.org/2000/svg" viewBox="0 0 596.85 616.04"><defs><style>.cls-1{fill:#fff;}</style></defs><title>resRecurso 1ress</title><g id="Capa_2" data-name="Capa 2"><g id="Capa_1-2" data-name="Capa 1"><g id="Capa_2-2" data-name="Capa 2"><g id="Capa_1-2-2" data-name="Capa 1-2"><path class="cls-1" d="M281.7,249.72l-3,4.86c-6.86,2.61-10.05,7.83-9.92,14.92.12,6.16.62,12.42,7.82,15,.74,2.92,1.48,5.84,2.2,8.76-5.45,15.29-4,27.88,13.45,34.16,8.5,15,25.93,18.32,37.7,29,5-8.39,10.84-16.38,14.62-25.26,4.32-10.16,6.77-21.11,10-31.72,6.34-4.78,13.58-8.38,12.42-18.85-.57-5.21-3-12,3.14-16.38.43-.71.87-1.42,1.31-2.13q2.64,6.81,5.29,13.63c-1.31,3.92-2.66,7.82-3.93,11.75-.8,2.49-1.48,5-2.22,7.52l8.95-1.91-9,14.55c-10.84,9.31-9.09,23.06-11.26,34.95-4.53,24.76-7.08,49.87-10.45,74.84-.07.66-.15,1.31-.22,2l-4.83,54v12c-.12,15.69,1.38,31.05,8.78,45.28a.66.66,0,0,0,.27.71l9.72,13.44a.64.64,0,0,0,.65.55c9,9.86,20.78,13.82,33.5,15.8l2,.18,57.89,9.15h-.05l-.87,3.9-1,.87-29,2.1-.49-.08-.45.2-17,4.49,6.88,3.54,5.25,1.72h.41l.32.24c.69,1.64,1.37,3.27,2.05,4.91l-1.06.94-77.16-4.56c-1.11-.06-2.22,0-3.34-.06a20.05,20.05,0,0,0,2.34,2.93c12.72,11,28.65,10.09,43.88,11.84a33.76,33.76,0,0,1,5.44,1.53c-1.63.63-3.22,1.65-4.9,1.82-12.75,1.29-25.51,2.41-38.27,3.58l-.35-.52v.31a1.33,1.33,0,0,0,.43.13l2.58,2.67c-1,.37-2.16,1.23-3.08,1-12.7-2.56-27.84,9.79-38.88-6.91-1.36-2.06-8.23,10.92-17.36,7.65-4.37-1.57-9.5-1-14.29-1.43.15-1.62-.33-4,.56-4.74,2.75-2.46,6-4.32,9.09-6.41-4.88.45-9.78.82-14.64,1.43-1.38.18-2.68,1.11-4,1.69l-1.95.74c-8.1,4.55-16.27,8.78-26,5.25h0l-2.22-1.91c.06-.34.13-.68.19-1l4.51-5.52-10.46.48-1.25.15-7.11,1.74-1.69.32L196.28,597l2.39-2.84,3.46-.68.29.1.23-.21,5.81-1.79-3.82-2.07-2.48-.35-6.28-.93-2.22-.48c-12.36-.67-24.72-1.33-33.17-12.43a1.9,1.9,0,0,0,.21-.88l54-6,2-.31,3.21-.75,2.75-.36,13.17-4.24a.93.93,0,0,0,.84-.42C266.12,552,278.3,528.11,284.48,500c5.84-26.54,7-53.58,7.29-80.66l.09-1.87c8.06-46.55-7-79.8-42.59-94.07.4-2.27.8-4.53,1.19-6.8l15,3.43c.73-8.71,1.89-17.44,1.6-26.12,0-1-8.08-1.75-12.42-2.61l-8-8.77c5.57-3.8,16.21,4.16,18.24-7.86q-.11-6.65-.23-13.28V254.8q5.27-6.24,10.55-12.47Z"/><path class="cls-1" d="M520.63,417.47c3.17-5.8,6.08-11.78,9.63-17.34,2.13-3.34,3.06-10.34,7.94-8.17,2.7,1.21,4.47,9,3.53,13.13-7.57,33-28.28,60.28-40.39,91.35-2.17,5.57-5,11-6.42,16.71-.89,3.68-4.56,10.23,2.37,11.06,6,.71,11.76-4.53,12-10.53,1-30.72,17.34-52.15,40.42-69.87l.92-.44c10.13-11.43,22.92,14.88,32.66-2.3,1.19,1.7,2.93,3.23,3.47,5.11,5,17.18-6.91,29.54-12.53,43.75-4.37,11-17.86,27.8-7.71,32.5,11.5,5.33,17.1-15.1,24-25.48a14.67,14.67,0,0,1,3.22-3.45c.29-.22,2.08.65,2.27,1.29,2.16,7.28-.14,14-3.91,19.93-6.25,9.88-13.57,19-26.86,18.61-7.41-.24-12.81-4.16-15-11.68-1.28-4.31-2.63-1.43-4,0-16.93,18.18-38.94,5.27-58.2,9.35-1.05.22-2.87-1.65-3.85-2.91-2-2.57-3.62-5.38-5.4-8.09-10.73,20.59-30.61,6.1-45.56,11.59-13.9,5.1-21.9-3-21.89-17.7,0-15.45,8-28.57,13.24-42.48v-.09c3.59-6.72,6.91-13.6,10.89-20.08,1.81-2.94,4.92-5.07,7.45-7.58,1.57,3.81,4.53,7.64,4.47,11.42-.32,20.11-15.29,35-19.74,53.72-1.09,4.58-.45,9.58-.61,14.39,2.06,0,4.43.63,6.12-.17,5.3-2.52,7.83-6.41,7.49-13-.85-16.29,7.42-29.57,15.78-42.66l.1-.13c1.36-1.65,2.51-3.56,4.12-4.92,12.09-10.14,20.57-30.68,41.88-14.85h0c.44,1,.88,2.06,1.31,3.09a10.1,10.1,0,0,0,2.11-2.22c4.94-10.27,9.79-20.57,14.66-30.86Zm45.94,43.34c-.68-2.13-.76-4.77-2-5.59-1.07-.69-3.94.19-5.27,1.28-18.84,15.51-30.54,35.23-34,59.5-.3,2.1,1,6,2.44,6.42,1.94.61,5.36-.56,7-2.15C551.14,503.62,559.91,482.8,566.57,460.81Zm-111,55.41c.67,1.55,1.29,5.62,2.94,6.09,2.2.63,6-.78,7.74-2.6,16.44-16.83,24.52-37.94,29.92-60.3.26-1.08-.42-3.37-1-3.48a6.32,6.32,0,0,0-4.52.7c-19.64,14.65-30,34.86-35.13,59.59Z"/><path class="cls-1" d="M87.49,38c1,.12,2.07.25,3.11.36C95.54,41.05,98,40,97.22,34l-.07,0,2.07-4h-.06l2-2.36s.13-.36.12-.36C107,20.4,112.81,13.52,118.43,6.51a59.47,59.47,0,0,0,4-6.51c1.21,2,2.9,3.76,3.57,5.89,4,13,7.24,2.4,10.73-.3,2.52-1.19,5.07-8.29,7.35-2.21,1.57,4.17-2.23,10.35-3.62,15.64-3.89,6.18-9.79,11.93-11.2,18.63-2.14,10.18-23.68,21.24-.13,31.63,1.67.74,4,2.63,4,3.93-.07,2.75-1.5,5.48-2.38,8.21-2-1.28-3.94-2.59-5.94-3.82-6.51-4-13.3-7.67-19.5-12.12C95.9,58.71,80.22,55.67,87.49,38Z"/><path class="cls-1" d="M547.56,267.31l16,6.27,2,1.94,1,1.1h-.08l3,4.12c.69,1.26,1.37,2.52,2,3.78.32.73.63,1.47,1,2.21.16.61.32,1.22.49,1.83l.59,1h0l.8,2.39q0,6,.07,12.09l-1,2.54a1.23,1.23,0,0,0-.49.69c-4.33,5.28-9.63,3.36-14.54,1.56-12.46-4.58-17.87-14.64-19.53-27-.71-5.28-1.64-11.19,5-14.08Z"/><path class="cls-1" d="M61.07,287.45l2.25,3.24.21.22c0,.52,0,1-.05,1.55,2,20.5-10.56,29.29-27.85,33.72-2.51.64-7.61-.68-8.25-2.35-3.6-9.32,1.65-17.25,5.7-25.11,1.23-2.39,3.74-4.13,5.67-6.17l1.11-1L43,289.17l1.74-.83,1-.83v.08l5-2.17,1.51-.77Z"/><path class="cls-1" d="M400.13,110.12c1,11.54-1.74,21.78-11.44,28.95-5.12,3.78-11,8.59-17.51,5.36-5.6-2.78-4.62-9.72-3.87-14.91a27.57,27.57,0,0,1,15.78-21.7c2.58-1.27,5.18-2.48,7.76-3.72l1.82-.18,7.56,6Z"/><path class="cls-1" d="M324.56,83.62c2.92,8.68,8.74,19,2.62,26.1-4.51,5.22-14.25-.28-20.19-4.83-10-7.67-12.2-19-11.5-30.8.08-1.4,5.32-2.49,8.18-3.72l2.9.4,8.07,2.78h0l8.85,8.15h0l1.11,1.89Z"/><path class="cls-1" d="M52.68,357.36c-7.76,2.23-15.53,6-23.25-.09-.24-.6-.49-1.2-.73-1.81v-2c.08-1.15.17-2.3.25-3.46.31-.85.62-1.71.92-2.56l.19-.19-.15-.25c4.09-7.8,9.3-14.28,18.64-15.94l12.16.17,2,0,2.42.33,1.6.95,1,.9c.72,2.17,1.44,4.33,2.17,6.5,0,.08-.05.16-.07.24,0,.58-.07,1.17-.1,1.76-.46.62-.92,1.23-1.37,1.85l-3,4-4.09,4.47-8.08,4.86A.44.44,0,0,0,52.68,357.36Z"/><path class="cls-1" d="M434.7,101.54c-2.66,6.44-4.31,13.59-8.24,19.13s-12.29,9.37-17.87,6.12c-3.46-2-2.73-11.2-3.88-17.17h0c1-2.67,2-5.35,3.05-8l1-1.8,10-10.11h0l13.58-.86h0q1.23,5.34,2.41,10.69A19.08,19.08,0,0,0,434.7,101.54Z"/><path class="cls-1" d="M529.48,201.26a55.8,55.8,0,0,1-5.57,2.1c-10.94,2.93-20.74.71-28.76-7.35-1.17-1.17-1.48-4.91-.51-6.24,7.19-9.94,17.23-12.65,28.94-10.31a.83.83,0,0,0,.77.18l6.21,2.91,1.79,1.08c8.54,6.6,5.08,12-1.75,17Z"/><path class="cls-1" d="M508.6,161.53c-3,11.26-8.49,20.53-21.06,22.46-5.45.83-14.6,1.89-16.08-.65-3.89-6.68-.49-14.41,5.35-19.56,9.16-8.09,19.82-10.76,31.69-6.23C508.53,158.87,508.57,160.2,508.6,161.53Z"/><path class="cls-1" d="M86.7,170.28c6.12-1,14.2-8,17.89-.58,4.46,9-1.81,17.37-9.26,23.62a.51.51,0,0,0-.62.25c-7.07,2.25-15.78,8.18-21.11,1.42s3-13.68,6.34-20.18h0l3.86-3,1-.46,1.18-.71A.79.79,0,0,0,86.7,170.28Z"/><path class="cls-1" d="M588.37,394.9c.82,7.37,5.77,16.88-8.52,16.41l-2.23-.64h-1.3l-2.38,1.41v.28h-.08l-.84-3.11-7.34-6-2-2.9c-.51-1-1-1.91-1.51-2.86l-.78-2.07q-.27-7-.58-14l1.73-1.08,2.09-.66,8.49.05,3.41,1.78,1.33.33,2.71,2.53,1.1,1.06.89.89,1.87,2.2Z"/><path class="cls-1" d="M478.58,158.54c-12.24,8.65-10.18-5.66-14.82-9.23l-.42-2.67c-.11-.72-.22-1.45-.32-2.18l-.27-2.58.84-4.35,2.1-6,4.7-7c3.26-5.14,6.84-3.42,10.47-.5q1.32,1.78,2.58,3.58l1.09,2c.64,1.77,1.27,3.55,1.91,5.33l-.18,9.17-5.76,12.13Z"/><path class="cls-1" d="M66.41,323.5c.18-15.13,1.88-29,22.32-28.05h0C94.51,305.58,93,315,84.28,322.14c-4.59,3.77-10.11,10.7-17.48,3.32Z"/><path class="cls-1" d="M371.22,94.68A47.85,47.85,0,0,1,372.75,88c3.39-9,10.74-13,19.55-14.87a4.59,4.59,0,0,1,3.87,2.12c3.43,9.74-.56,17.28-7.6,23.78l-.09,0c-5.75-1-13.66,13.06-17.33-2.48C371.17,95.93,371.2,95.31,371.22,94.68Z"/><path class="cls-1" d="M202.66,115.31c12.71,3.23,15.91,12.37,14.4,24-.18,1.39-3.63,3.62-5.23,3.36-11.75-1.9-14.79-11.07-16-21-.22-2,2.47-4.23,3.82-6.37Z"/><path class="cls-1" d="M27.6,386.5c-3.14-6.63-3-12.9,2.59-18.14,1.14-1.07,4.36-1.83,5.11-1.12,5,4.66,3.84,10.43,2,16.14a1.24,1.24,0,0,0-.42.82l-6.2,4.25-.28-.15h-.31l-1.41-.83Z"/><path class="cls-1" d="M422.64,592.43c-.68-1.64-1.36-3.27-2.05-4.91l3.88,1.19.9.79Z"/><path class="cls-1" d="M417.1,585.75l2.76,1.55-5.25-1.72h2a.37.37,0,0,0,.48.18Z"/><path class="cls-1" d="M218.53,389.37c-7.25,14-14.81,27.8-21.58,42-2.15,4.51-2.19,10-3.2,15.06,1.38.25,3.13,1.18,4.07.66,6.1-3.4,11.14-7.85,12.53-15.17,4-21.27,16.12-36.93,34.33-47.85,6.62-4,13.71-4.37,18.77,3.44.33.51,1.68,1,2,.78,2.64-2,3.08-9.17,7.82-5.59,5.29,4,4.56,11.09,2,16.68-5.69,12.54-12.38,24.63-18,37.2-1.32,3,0,7.09,0,10.68,3.13-1.53,6.7-2.54,9.27-4.72,2.85-2.42,4.41-6.33,7.21-8.82,3.44-3.05,3.42-12.61,8.45-9.52s1.25,11.06-2.34,15.54C269.73,452.45,259,465.42,243.79,445c-.2-.26-2.1.32-2.81.95-8.77,7.74-17.63,13.2-28.22,2.68-.52-.52-3.08.54-4.39,1.35-10,6.27-19.32,8.53-26.71-3.83-.28-.46-3-.21-3.82.53-6.32,5.39-13,9.87-21.64,6.33-7.76-3.18-8.33-10.5-8.63-17.67a12.14,12.14,0,0,0-.48-2.23,7.61,7.61,0,0,0-1.41,1.25c-8.56,12.87-18.33,27.81-35.48,16.11-16.56-11.3-11-28.75-3.37-43.79,6-11.9,13.91-24.83,28.85-23.26,12.74,1.34,18.38,12.7,18.2,25.8,0,.5.63,1,1,1.51a28.7,28.7,0,0,0,3.06-3.08c8.22-11.18,17.82-27.57,31.06-24.2,30.29,7.72,19.39-22.29,31.72-29.88v-.06c4.28-2.61,3.3-11.67,10.21-9.73,1.89.53,3.57,8.87,2.26,12.51-4.08,11.32-9.64,22.11-14.63,33.11Zm4.68,51.25c.77,1.57,1.26,4.39,2.64,4.92s4.32-.45,5.64-1.73c13.11-12.64,21.19-28.25,26-45.65.39-1.4-.44-3.12-.7-4.7-1.54.29-3.44.09-4.56.93C236.88,406,227.44,421.24,223.21,440.62Zm-62.59.39c.75,1.48,1.3,4.27,2.53,4.62a7.22,7.22,0,0,0,5.77-1.62c14-12.55,20.68-29.22,25.6-46.76,1-3.42-1.1-4.94-4.15-2.79-16.06,11.32-25.65,26.84-29.75,46.54Zm-48.87-4.17c.39,3.92.44,9.49,4.76,8.14,13.86-4.35,18.57-17.24,21.66-29.41,1-3.81-6.33-9.73-9.84-14.68C118.08,410.89,113.68,423.52,111.75,436.84Zm31.83-37.54-2.65-4.3c-.74,1.55-2.1,3.13-2,4.66,0,2,1.23,3.91,1.92,5.86Z"/><path class="cls-1" d="M171.19,505.37a17.62,17.62,0,0,0-2.59,3.3C158.93,529.78,146.53,540,126,519.84c-.33-.32-3.52,2-5.2,3.4-5.88,4.73-12.38,8.45-19.56,4-7.4-4.61-6.25-12.78-3.5-19,5.85-13.13,13.13-25.63,20-38.27.67-1.22,2.91-1.57,4.42-2.32,1.25,2.72,4.23,6.13,3.47,8.05-5,12.55-10.91,24.7-16.08,37.18-1,2.49-.13,5.8-.12,8.73,2.5-1.34,6-2,7.35-4.11,9.52-14.16,18.48-28.7,27.92-42.91,1.89-2.86,5-4.89,7.61-7.29,1.09,4.08,4.14,8.93,2.9,12.12-3.82,9.82-9.56,18.87-14,28.48-2,4.47-7.17,11.33-1.29,14s10.15-4.66,13-9.86c7.53-13.66,14.65-27.55,22.14-41.23,1.2-2.19,4.84-6.19,6-1.74,3.48,14.07,8.55,3.68,13,1.41,4.13-2.12,8.19-4.42,12.36-.56,4.42,4.1,5.36,9.17,2.6,14.53-4.63,9-9.72,17.8-14.16,26.91-1.65,3.38-4.09,8.35.46,10.55,1.95,1,7.22-2.06,9.23-4.64,12-15.48,16.35-36.83,35.7-46.75,6.76-3.47,12.72-5.57,19.65,1.32,10.7,10.62,11.16,10-2.19,34.94-2.62,4.89-8.08,12.24-2.79,15.36s9.36-5.31,13.29-9.57c3-3.24,5.9-6.54,8.85-9.81,3.86,6.59-.09,11.8-3.92,16-9.09,10.06-19,18.46-30.87,3-.26-.34-2.7.59-3.79,1.38-8.46,6.13-16.78,10.46-25-.46-.34-.45-2.23-.37-2.85.14-7.77,6.33-16.81,10.7-25.34,3.76-8.8-7.15-3.68-16.78-.49-25.36a34.09,34.09,0,0,1,1.72-3.61c3.34-6.4,6.71-12.79,10.06-19.18-6.7,5.68-13.67,11.08-20,17.18-2.56,2.47-3.66,6.44-5.43,9.72Zm52.69,12c.6,1.41,1,3.82,1.9,4.06a6.17,6.17,0,0,0,4.9-1.26c11.87-10.51,19.25-23.86,23.61-38.91.94-3.21-1-5.23-4.15-3.08-13.95,9.4-22.51,22.49-26.26,39.2Z"/><path class="cls-1" d="M396.63,497.44l-18.14,29.88c-2.6,2.11-5.91,6.49-7.67,5.94-6.31-2-9.91-7.89-10.36-14.06-2.53-34.67,6.63-67.93,13.55-101.38,1.74-8.39,2.83-24.66,8.93-22.92,11.22,3.19,7.11,17.49,5.52,27.28-4,24.45-8.91,48.74-13.39,73.1a32.93,32.93,0,0,0-.06,5.79c1.08-1.37,2.29-2.66,3.24-4.12q29-44.47,57.91-89c5.82-4,8.5-17.49,14.82-13.13,6.91,4.78.77,15.77-2.69,23.64l-2.7,6h0l-4,5-4.95,8a.45.45,0,0,0-.34.54h0Z"/><path class="cls-1" d="M129.14,98l29.62-14.39,3.63-.23c-1.85,4.85-3.52,9.79-5.6,14.54-1.85,4.22-4.15,8.24-6.26,12.35l-.08.09-7.15,8.89c4,2.77,7.86,5.61,11.9,8.26a63.5,63.5,0,0,0,6.09,3.12c-5.2,6.62-5.27,16.93-14.51,20.4-.79.3-3.52-3.06-4.54-5.13-13.67-27.84-26.65-1.89-39.55.89-9,2-17.46,6.93-26.18,10.49-.49.2-1.22-.16-1.85-.26a11.52,11.52,0,0,1,1.49-3c11-11.26,30.7-22.22,31-33.74C107.73,101.16,127.8,110.24,129.14,98Z"/><path class="cls-1" d="M142.47,357.34c-11.3,1-19.83.49-25.12,14.85-10,27.15-24.62,52.58-37.46,78.66-.55,1.13-3,2.59-3.53,2.25-5.49-3.4-6-9.46-4.15-14.17,7.74-19.39,16.27-38.47,24.67-57.59,3.74-8.51,17.63-19.7-6.31-19.63-5.25,0-9.61-4.33-9.49-10.24,0-.83,6.28-1.87,9.72-2.25,15.35-1.73,30.69-3.69,46.09-4.65,6.46-.4,12.93,3,13.28,10.17C150.42,360.06,144.55,356.34,142.47,357.34Z"/><path class="cls-1" d="M345.76,310.28c-.88,16.79-10.21,27.94-25.4,30.34-9.07,1.44-10.51-10.57-10.11-17.5.86-14.93,7.69-28.94,23-31.78C344.78,289.2,344.58,301.92,345.76,310.28Z"/><path class="cls-1" d="M473.38,210.64c2.36-4-1.86-12.13,6.45-11.83,19.88.74,29.75,12.24,30.36,31.68.17,5.29.82,13.51-7.43,12.49C484.39,240.72,476.07,228.13,473.38,210.64Z"/><path class="cls-1" d="M67.45,231.77c5.72,19.21,0,34-17.64,43.54-8.3,4.5-13.41,1.62-14.8-8.07-3-21,13.33-39,32.37-35.53Z"/><path class="cls-1" d="M366.67,351.38l-.09-2.9c.59-8.26,3.46-15.49,9.7-21.13,7.73-7,16.51-11.25,27.16-9.11,1.61.32,3.78,3.23,3.85,5,.5,11.68-3,22.43-13.75,27.77C385.33,355.1,375.69,364.5,366.67,351.38Z"/><path class="cls-1" d="M70.73,221.66c.14-9.34.86-17.95,9.67-16.64,15.82,2.33,21.54,15,22.45,29.36.38,6,.66,16.46-8,15.52C78,248.05,72,234.88,70.73,221.66Z"/><path class="cls-1" d="M355.09,293.09c-18.22-8.16-24-21.79-18.91-41,2.32-8.73,8-5.28,13.08-5.09,1.42,1.06,2.89,2.06,4.24,3.21,11.77,10,12.64,23.19,10.48,37.08C363.24,292.07,359.63,293.58,355.09,293.09Z"/><path class="cls-1" d="M281.7,249.72l-6.47-7.3c-1-11.58.46-22.61,8.88-31.36,4.49-4.66,9.9-10.42,17-6,9.75,6.11,7.15,16.67,4.65,24.76C302.38,240.79,293.09,247.15,281.7,249.72Z"/><path class="cls-1" d="M79.54,289.69c-1.09-.13-15.93-1-16.59-11.84-.69-11.32,13.49-15.05,24.45-15.1,10.12-.05,23.27,2.7,23.68,13.38C111.45,285.79,100.29,291.41,79.54,289.69Z"/><path class="cls-1" d="M264.81,163.38c-13.7-13.34-16-29.09-9.89-46.64,1.35-3.87,3.77-6.71,7.66-3.44,14.72,12.38,19.26,28.13,13.65,46.46-1.75,5.7-6.49,5.92-11.42,3.61Z"/><path class="cls-1" d="M408.9,156c-1.9,13.37-6.66,26.14-21.21,27.7-7.9.85-8.9-10.53-8.68-17.1.45-13.4,7.5-24.91,20.72-27.1C407,138.28,407.59,149.2,408.9,156Z"/><path class="cls-1" d="M492.59,279.46c-9.24,2.55-19.71,7.05-26.8-1.78-4.25-5.3,1.57-12.34,5.87-17.06,8.41-9.23,22.49-14.17,30.48-7.78,13.82,11-2.34,18.27-8.76,26.1A1,1,0,0,0,492.59,279.46Z"/><path class="cls-1" d="M440.44,199.66c5.64-9.62,12.49-20.09,24.84-15.92,8.71,2.94,5.51,13.52,3.63,20.83-3.35,13-13.16,19.74-25.75,17.34-8-1.54-3.69-11.25-4.62-17.36Z"/><path class="cls-1" d="M370.5,307.67l9-14.55c10-5.42,20.52-8.76,32.08-7.6q2.57,3.56,5.12,7.13c-2.11,13.81-32.88,29.06-43.69,21.44C371.46,313,371.31,309.86,370.5,307.67Z"/><path class="cls-1" d="M419.67,171.58c-10.82-10.5-8.66-22.18-2.34-33.64,2.64-4.78,6.62-10.08,13.33-8.39,6.3,1.58,8.27,7.56,9,13.13,1.46,11.17-1.22,21.07-11.07,28a55.49,55.49,0,0,0-4.54,4Z"/><path class="cls-1" d="M141,286.56c2,14.66-18.64,32-32.13,26.41-2.9-1.21-6.39-6.78-5.82-9.57,2.44-12.06,12-18.19,22.72-21.85,3.84-1.31,8.69.34,13.08.64C139.55,283.65,140.27,285.1,141,286.56Z"/><path class="cls-1" d="M308.43,163.53c-13.22-1.64-23.51-9.26-23.73-27-.09-7.24,5.27-6,9.14-5.64,15.78,1.49,25.25,10.44,27.38,26.05C322.12,163.53,316.44,163.79,308.43,163.53Z"/><path class="cls-1" d="M306.68,253.82c-3.21-10.71-2.08-22.09,6.82-27.89,5.82-3.78,12.95,4.29,15.56,10.73,4.5,11.1,5.67,24-4.49,31.64-7.1,5.32-11.82-4.43-16-10Z"/><path class="cls-1" d="M547.51,218.64c-1.49,14.67-9.65,24.21-23.88,26.43-7,1.09-8.07-7.24-7.58-12.19,1.38-14,8.65-24.24,23.45-26.08C547.69,205.79,546.32,213.52,547.51,218.64Z"/><path class="cls-1" d="M336.8,207.23c6.65-5.69,14.83-19.07,21.58-11.94,11.67,12.33,3.3,25.65-8.89,35.26l-5.27,3.33-8.07-.56c-.28-.62-.56-1.25-.83-1.88q-.66-7.49-1.33-15Q335.4,211.85,336.8,207.23Z"/><path class="cls-1" d="M315.6,195.53c-10.79,1.71-21.53,2.4-29.4-7.08-4.12-4.95-12.13-12.15-5.65-17.18,11.12-8.62,23-3.24,31.81,6.34,3.27,3.54,4.38,9.09,6.48,13.72Z"/><path class="cls-1" d="M435.56,292.48a60.71,60.71,0,0,1,4.79,4.28c7.26,8,12.37,17.54,8.13,27.9-1.88,4.61-9.47,1.86-14.06-.37-13.3-6.42-16.66-17.8-14.9-31.48C424.7,284.16,430.21,292.43,435.56,292.48Z"/><path class="cls-1" d="M432.38,224.2c5.22,1.24,15.39-.22,14.73,8.08-1,12.72-11.92,17.65-23.8,17.93-6.3.14-16.6,0-15.95-7.7C408.43,229.85,419,224.61,432.38,224.2Z"/><path class="cls-1" d="M106.83,223.41c-6.89-8-8.54-17.28-5.2-27,2.57-7.45,7.46-16.56,15.82-14.18,7.76,2.21,10,11.75,7.46,20.37-2.86,9.59-6,19.15-18.11,20.73Z"/><path class="cls-1" d="M442.52,342.78c-2.41,10.79-11.85,16.69-24.94,17.59-4.84.34-10.82-.63-9.86-7.42,2.24-15.9,13.13-21.45,28-21.63C441.65,331.24,443,334.67,442.52,342.78Z"/><path class="cls-1" d="M226,172.46c-.21,9.48-3.28,16-11.7,15.27-11.11-.95-13.07-10.13-12.62-19.22.39-8,.36-20.44,10.11-19.69C224.79,149.81,223,164.45,226,172.46Z"/><path class="cls-1" d="M336.68,146.09C322.77,144.56,315.19,135.25,314,121c-.47-5.72,6.1-5.11,9.75-4.61,14.05,1.93,22.61,10.16,23.75,24.45C348.07,147.64,342,145.81,336.68,146.09Z"/><path class="cls-1" d="M143,267c-11.92,8-23.41,6.92-34.07-2.22-1.54-1.32-2.36-5-1.75-7,1.93-6.6,7.94-8.31,13.79-8.7,11.55-.77,23-.55,25.47,14.72Z"/><path class="cls-1" d="M187.23,331.21a.46.46,0,0,0-.55.25c-4.58,0-11.16,4.46-13-2.36-2.86-10.47,1.53-19.5,10.86-25,5-3,12-8.07,16.72-2.86,5.36,5.94,2.33,14.17-2.35,20.16C195.82,325.28,191.17,328,187.23,331.21Z"/><path class="cls-1" d="M188.06,283.55c-9.82,4.6-20.4,15.19-27.32-3.41l4.8-8.86,3.34-3.6c7.49-3.95,15.21-9.78,23.77-4.82,7.1,4.13-.1,10.33,0,15.62Z"/><path class="cls-1" d="M304.49,299.63c-13.77-9.8-15.06-22.13-6.8-35.94.83-1.4,5.38-2.29,6.8-1.33,8.74,5.92,13.84,14.29,11.55,25.05-.93,4.36-4.71,8.11-7.19,12.14Z"/><path class="cls-1" d="M371,161.3c-2.25,10.11-4.87,20.31-17.31,22-5.9.78-8.84-4.23-8.05-9.61,1.65-11.14,3-24.05,16.71-26.18C369.25,146.41,369.73,155.3,371,161.3Z"/><path class="cls-1" d="M394.74,206c-1.12,4-.16,9.94-6.12,9.33-14.57-1.48-21.17-10.9-21.85-24.88-.2-4.09-.33-9.16,6-8.5C387.28,183.38,392.24,193.62,394.74,206Z"/><path class="cls-1" d="M250.46,316.68c-.39,2.27-.79,4.53-1.19,6.8-8.4,4.81-17,9.45-26.88,4.73-5.16-2.46-14.48-5.26-10.92-11.85,6.47-12,18.61-10.73,29.84-6.32C244.71,311.37,247.43,314.42,250.46,316.68Z"/><path class="cls-1" d="M282.2,199.09c-1.73,5.21,0,14.5-8.38,14.16-11.88-.48-14.51-10.91-14.81-20.67-.18-6-.44-15.94,7.27-15.5C277.74,177.74,281,188.26,282.2,199.09Z"/><path class="cls-1" d="M475.48,295.62c4,4.65,8.15,10.09,5.22,15.9-1.17,2.32-8.05,3.05-12,2.44-11.63-1.79-19-8.72-21-20.71l9.12-6,7.77.2-.09.28Z"/><path class="cls-1" d="M512.57,281.31l9.86.31h.07l5.07,1.9h0l2.4,1.09.63.9c3.45,4.23,3.24,8.65-1,11.68-11.15,7.91-22.68,9.37-34.14.31v-6l1.43-1.92,1.74-1.62,5.33-3.72a.71.71,0,0,0,.73-.45l6.16-2.19Z"/><path class="cls-1" d="M287,102.07c9.49,1.43,20.13,3.77,21.2,15.13.69,7.38-8.6,8.15-14.59,8.19-10.27.06-19.87-4.8-21.48-14.81C271,103.39,280.38,102.91,287,102.07Z"/><path class="cls-1" d="M186.29,180.48c3.41,1.35,11-.72,9.94,5.9-2,12.43-11.48,17.74-23.41,17.88-4.5.05-12.25.06-11.73-6C162.31,183.93,173.75,181.31,186.29,180.48Z"/><path class="cls-1" d="M460.76,115.87c-1.57,9.71-4.12,19.93-14.8,21.2-6.89.82-8.28-8.2-8.27-14,0-10.11,4.21-20,14.66-21.38C459.1,100.74,459.53,110,460.76,115.87Z"/><path class="cls-1" d="M167.84,134.26c.5-4.2,0-8.65,5.2-8.17,13.85,1.26,22.19,8.69,23.66,22.84.49,4.66-2.42,6.88-6.81,6.25C177.29,153.39,168.58,147.44,167.84,134.26Z"/><path class="cls-1" d="M555.48,343.13c11,2.19,20.84,6.6,21.61,19,.41,6.55-7.38,6.48-12.15,6.14-10.89-.78-19.55-6.3-21-17.52C543.13,344.45,550.44,344.23,555.48,343.13Z"/><path class="cls-1" d="M419.67,171.58,424,174.7c-.13,4,.18,8-.46,11.85-2.46,14.95,2.15,20.42,16.85,13.11l-1.9,4.89c-21.41,6.83-35.78,21.76-46.71,40.64-8.72,3.46-15.82,8.49-17.12,18.67-.42,3.25-.77,6.89,3.87,7.83l-1.85,4.07Q374,269,371.4,262.13l35.12-45.59c15.05-5,16.45-15.95,12.64-29.14Z"/><path class="cls-1" d="M145.47,335.2c-6.55-1.89-17.79.7-17.31-8.37.54-10.4,11.53-13.89,21.12-14.25,6.3-.25,15.16,1.69,14.46,9.48C162.92,331.24,153.85,333.84,145.47,335.2Z"/><path class="cls-1" d="M172.84,176.7c-9-1.41-19.4-3.71-20.2-12.6-.61-6.77,9.84-9,16.65-9.06,9.39,0,20.1,4.2,21,13.08C191,174.71,179.33,174.82,172.84,176.7Z"/><path class="cls-1" d="M180.67,216.55l1.73.07c5.54,4.61,10.89,9.86,19.07,5.81l24.76,8.38,1,.29-.57-.61q-2.16-5.42-4.33-10.85c3.17-.09,6.15-.44,6.37-4.61l5.76,10.6q1.14-7,2.26-14.06l6.13-.86c-.45,12.2-9,26.41,8.41,34.22l-4.64,2.34-2.33.54-13.46-7.11c-5.85-7.56-14-10.15-23.09-10.47l-21.1-6.9Z"/><path class="cls-1" d="M247.82,114c-1.4,11.08-6.39,19.77-17.22,21.3-7.6,1.07-8-7.23-7.59-12.49.9-10.7,7.71-18.1,18-19.63C247.56,102.22,246.33,110,247.82,114Z"/><path class="cls-1" d="M410.76,279.37c-7.43.1-12.11.47-11.54-5.23,1.29-13.05,9.11-19.7,22-20.2,4.27-.17,10,.17,8.89,6.35C427.94,272.68,419.25,278.34,410.76,279.37Z"/><path class="cls-1" d="M242.87,210.71l-6.13.86c-3.4-6.48-7-12.84-4.18-20.65,2.51-7.08,6.77-12.66,13.89-15,1.28-.43,4.82,3.13,5.92,5.49,4.42,9.53.82,17.66-5.42,25.05C245.68,207.94,244.24,209.29,242.87,210.71Z"/><path class="cls-1" d="M228.72,215c-.22,4.17-3.2,4.52-6.37,4.61-2.63-.12-5.4.25-7.87-.45-10.21-2.9-15.78-10.2-15.26-20.48.32-6.36,6.92-4.45,11-4.22C222.89,195.21,227.54,203.67,228.72,215Z"/><path class="cls-1" d="M261,76.87c-.8,11-3.33,20-16,20.84-6.83.47-6.56-4.86-6.58-9.34,0-11.87,4-21.85,17.07-22.85C262.54,65,259.35,73.18,261,76.87Z"/><path class="cls-1" d="M230.53,289.35c2.61,6.13.54,10-5.9,11.16-13.46,2.34-23.28-2.18-27.94-15.69l5.91-4.8c7.9-3.06,15-.43,22,3Z"/><path class="cls-1" d="M522.35,275.25c-8.61.51-12.92-.09-12.27-5.4,1.54-12.47,9.42-18.94,21.61-20.07,4.09-.38,8.88.61,8.19,6.14C538.31,268.56,529.82,274.13,522.35,275.25Z"/><path class="cls-1" d="M292.22,327.44c-17.46-6.28-18.9-18.87-13.45-34.16,5.81-3.54,10.55.33,13.24,3.89C299.33,306.8,298.09,317.3,292.22,327.44Z"/><path class="cls-1" d="M489.21,375.12c-.88,5.05.51,11.35-5.86,10-11.68-2.5-18.55-10.24-18.87-22.67-.12-4.67.61-10.14,7-8.83C483.4,356.07,487.28,365.57,489.21,375.12Z"/><path class="cls-1" d="M452.73,149.68c2.63-.06,6.95-1.14,7.63,0,4.31,7.12,3.92,15.23-.9,21.45-3.78,4.89-10.14,7.8-15.51,11.34-.16.11-2.83-2.33-3.06-3.79-1.66-10.38-.21-19.86,9-26.63,1-.73,1.9-1.58,2.85-2.37Z"/><path class="cls-1" d="M341.74,95.82c-5.09-.28-10.19.22-9.58-4.95,1.55-13,10-18.86,22.64-19.19,3.75-.09,8.6-.45,7.74,5.54C360.7,89.89,352.08,94.82,341.74,95.82Z"/><path class="cls-1" d="M100.77,321.59c6.78.17,15.91-1.8,17.57,6.7,1.4,7.13-6,11.46-12.67,13-7.2,1.64-17.77,3.43-20-4.08-2.93-9.61,8.2-12,15.22-15.62Z"/><path class="cls-1" d="M228.36,158.79c1-8.27,4.21-16.85,12.8-17.75,6.71-.71,8.28,7.93,8.1,13.74-.27,9-3.59,18.91-13.2,19.59C229.55,174.83,229.33,165.2,228.36,158.79Z"/><path class="cls-1" d="M136.7,201.49c-7.68-7-11.56-15.45-8.21-25.65.37-1.15,7-1.61,9.76-.36,11.1,5,15,14.2,13.3,26-1,1.29-2.09,2.57-3.14,3.86a1.24,1.24,0,0,0-.66.06h0l-11-3.94Z"/><path class="cls-1" d="M533.72,357.37c-13.74-.38-19.31-7.68-21.59-18-.87-3.92,1.06-7.34,6-6.85,11.35,1.11,19.41,6.65,21.54,18.25C540.72,356.16,536.87,358,533.72,357.37Z"/><path class="cls-1" d="M364.81,118.46c-1.05,4.51-.24,12.32-6.5,11.37-9.37-1.42-14.67-9.25-14.34-18.91.17-4.72-1.29-13.54,6.2-12.85C361,99.06,364,108.46,364.81,118.46Z"/><path class="cls-1" d="M549.85,327.74c-.53,5-.5,10.07-6.1,9.43-12.33-1.39-17.13-10-18-21.31-.34-4.36,1.21-7.72,6.41-7.23C544.29,309.76,547.6,318.75,549.85,327.74Z"/><path class="cls-1" d="M460.74,244.53c-2.87-6-9.6-11.87-4.26-18.57,1.67-2.09,9.34-.59,13.69.92,9,3.13,12.18,10.83,10.35,19.57-1.75,8.37-8.54,1.6-12.77,3Z"/><path class="cls-1" d="M389,227.94c-2.23,10.26-8.8,17.13-20.45,18.46-4.21.48-5.47-2.72-5.35-6.15.45-12.93,8-19.33,20.17-20.84C388.91,218.72,388.57,223.21,389,227.94Z"/><path class="cls-1" d="M378.58,271.69c-4.64-.94-4.29-4.58-3.87-7.83,1.3-10.18,8.4-15.21,17.12-18.67,3.87.22,8.42-.78,8,5.72C398.92,264.25,392.75,272,378.58,271.69Z"/><path class="cls-1" d="M161,310.68c-7.85-1.25-17.24-2.65-17.71-11.36-.38-7,8.64-8.71,14.78-8.36,7.2.41,16.43,2.46,16.95,10.7C175.45,308.1,167.1,309.66,161,310.68Z"/><path class="cls-1" d="M220.54,81.69c2,3.75,5,7.28,5.92,11.28,1.4,6.37.26,13.46-5.77,16.57-2,1-8.28-3.36-10.8-6.65-5-6.5-4.4-14.42-.42-21.14,2.63-4.43,7.31-2.29,11.06-.07Z"/><path class="cls-1" d="M287.92,79.85c-1.6,9.9-6,18.14-16.71,19.4-6.72.8-5.32-6.54-5.17-10.18.43-10.51,6.78-17.66,16.87-19.11C288.25,69.2,286.85,76,287.92,79.85Z"/><path class="cls-1" d="M497,305.28c5.15,2.37,10.93,4,15.29,7.33,4.17,3.24,8.87,10,3.5,13.84-8.8,6.25-16.85-.3-22.9-6.73-3.49-3.7-7.65-9.22-.7-14.3Z"/><path class="cls-1" d="M523.79,390.33c-2.13-6-.75-11.41,2.44-16.61,3.82-6.23,9.6-13.36,16.24-9.18,5.82,3.66,3,12.7-.81,18.56-4,6.22-9,12-17.9,7.23Z"/><path class="cls-1" d="M519.67,371.64c-.75,4.15-.33,9.85-6.3,8.88-10.77-1.75-14.26-10.42-15.34-19.88-.39-3.4-.65-9.86,4.9-8.94C513.54,353.48,518.45,361.41,519.67,371.64Z"/><path class="cls-1" d="M419.2,187.4c3.81,13.19,2.41,24.12-12.64,29.14-7-9.3-7.43-18.76.86-27.18C410,186.7,414.17,181,419.2,187.4Z"/><path class="cls-1" d="M126.87,169.38c-7.6-1.25-16.73-3-17.29-10.33-.52-6.8,8.46-8.28,14.82-8.21,7.41.09,17,1.75,17.63,9.41C142.59,167.53,132.83,167.76,126.87,169.38Z"/><path class="cls-1" d="M498.75,344.78c-.2,6.22-1.27,14.13-8,14-7.53-.19-10.39-7.86-10.23-15.34.13-6,.75-14.17,7.65-14.14C496.21,329.29,498.66,337.13,498.75,344.78Z"/><path class="cls-1" d="M471.15,320.22c5.16.39,9.18.84,8.42,6.12-1.61,11.19-9.22,15.38-19.62,16-4.14.23-7.2-1.26-6.61-5.86C454.76,325.38,462.62,321.61,471.15,320.22Z"/><path class="cls-1" d="M262.64,353.67l-2-.09-8-4.05h-.06c-2.86-5.2-10.32-10.76-5.1-16.22,4.91-5.15,12.86-2.07,17.86,2.9,4.49,4.47,10,9.41,5.24,17.07l-1.93.35Z"/><path class="cls-1" d="M246.65,282.61l8,8.77,1,16.53-11.78-1.51-1-1-2-2.1-4.11-7.84c0-1.93-.07-3.85-.1-5.78l.27-6.41Z"/><path class="cls-1" d="M268.1,231.26c-1.29,4.11-.52,11.94-6.32,11.45C254,242.05,250.26,235,250.5,227c.16-5.26.28-13,6.37-12.69C265.36,214.78,267.38,223.1,268.1,231.26Z"/><path class="cls-1" d="M189.11,94.37c1.44,4.35,3.63,8.61,4.13,13.06.74,6.68-3.43,11.27-9.07,14.11-1,.49-4-1.24-4.86-2.67-4.56-7.38-4-14.88.86-21.92,2-2.92,4.58-5.61,8.68-2.86h.28Z"/><path class="cls-1" d="M276.57,284.52c-7.2-2.6-7.7-8.86-7.82-15-.13-7.09,3.06-12.31,9.92-14.92C290.46,265.44,287.33,275.25,276.57,284.52Z"/><path class="cls-1" d="M557,338.89c3.74-.64.35-2.05.83-6.53,1.08-10.24,8.16-14.67,17.61-15.59,3.2-.31,7.41.56,6.89,5.16C581.19,332.07,574.56,336.68,557,338.89Z"/><path class="cls-1" d="M452.84,365.08c-1.75,10.69-9.27,14.41-19,14.84-3.86.17-5.7-2.6-5.1-6.35,1.63-10,8.83-13.9,17.85-14.85C450.15,358.34,453.63,359.91,452.84,365.08Z"/><path class="cls-1" d="M437.73,270.33c-5.11-9.25-1.8-17.65,5.4-22.85,5.06-3.67,6.4,4.7,9.65,7.38l-.09,9.58-10.14,11.94Z"/><path class="cls-1" d="M558.48,241.63c4.59,3.74,11.52,6.31,10.23,13.55-.35,2-6.21,3.92-9.66,4.14-8,.52-15.72-4.39-16.1-11.22-.65-11.64,9.87-5,15.52-6.46Z"/><path class="cls-1" d="M328.85,181.71c-1.4-3-3.62-5.82-4-8.92-.79-6.1-2.28-13.11,4.51-16.89,1.61-.9,6.13.9,7.65,2.8,7.24,9,3.82,17.2-3,24.78Z"/><path class="cls-1" d="M451.7,421.15c9.09,2.36,9.84,9.34,9.05,16.87-.47,4.45-2.62,8.74-7.76,7.8-8.34-1.52-9-8.6-9.3-15.46l1.92-5.92h0l3-3.09a5.08,5.08,0,0,1,.95-.15Z"/><path class="cls-1" d="M148.41,205.38c1-1.29,2.1-2.57,3.14-3.86,7.65,9,18.23,12.31,29.12,15l6,6.78c-13.76-3.38-27.44-8-41.73-2.48l-2.44-3.73C146.14,214.05,163.65,218,148.41,205.38Z"/><path class="cls-1" d="M328.85,181.71l5.18,1.77q1.38,11.88,2.77,23.75-1.41,4.62-2.81,9.24L321.8,201.32h0l-6.21-5.77,3.24-4.2,8.36,5.86Z"/><path class="cls-1" d="M201.47,222.43c-8.18,4-13.53-1.2-19.07-5.81.59-4.05-6-10.72,1.67-11.78C196,203.2,199.66,212.55,201.47,222.43Z"/><path class="cls-1" d="M437.73,270.33c1.6,2,3.21,4,4.82,6.05L436.86,284l7.75,1.45,2.55.17,9.61,1.6-9.12,6-6-.87-18.94-9.59Z"/><path class="cls-1" d="M165.54,271.28l-4.8,8.86L141,286.56c-.72-1.46-1.44-2.91-2.15-4.37,2.56-4.62,24.18-1.69,5.79-14.62l4.08-2.1,2-.1a.61.61,0,0,0,.73.25l4.9,2.23Z"/><path class="cls-1" d="M497,305.28l-4.81.14c-2.87-7.92-8.29-11.46-16.76-9.79l-11-7.92,3.81-.1,10.36,1,9.5,1.07,7.29,1.85v6C496,300.1,496.49,302.68,497,305.28Z"/><path class="cls-1" d="M355.09,293.09c4.54.49,8.15-1,8.89-5.78,2.16-13.89,1.29-27.07-10.48-37.08-1.35-1.15-2.82-2.15-4.24-3.21l-2.58-7.52c4.21,2.81,3.83,12.07,12.36,8.81l11.09,15.95c-6.15,4.42-3.71,11.17-3.14,16.38,1.16,10.47-6.08,14.07-12.42,18.85C354.74,297.36,354.91,295.22,355.09,293.09Z"/><path class="cls-1" d="M452.69,264.44l.09-9.58,8-10.33,7,4.9-1.25,2-2,1.92-9,9.1-.2.25Z"/><path class="cls-1" d="M422.67,282.79l18.94,9.59-6.05.1c-5.35-.05-10.86-8.32-16,.33l-2.79-.16-5.12-7.13Z"/><path class="cls-1" d="M359,248.31c-8.53,3.26-8.15-6-12.36-8.81a.45.45,0,0,1-.2-.59h0L345,235.5c-.24-.54-.49-1.08-.74-1.62l5.27-3.33,1.24,2.76c-.5,6.78,3.06,11.33,8.25,15Z"/><path class="cls-1" d="M202.6,280l-5.91,4.8-1.68.35h-.09l-6.86-1.62,4.64-5.07,2,.1,1.32.18,1.65.52,3.05.24Z"/><path class="cls-1" d="M246.64,247.27l4.64-2.34h0l3.6,2.4,9.82,7.51v6.58A23.17,23.17,0,0,0,246.64,247.27Z"/><path class="cls-1" d="M236.8,283.3l-.27,6.41-6-.36L224.65,283Z"/><path class="cls-1" d="M359,248.3c-5.19-3.66-8.75-8.21-8.25-15Z"/><path class="cls-1" d="M148.71,265.47l-4.08,2.1L143,267l3.45-3.22Z"/><path class="cls-1" d="M306.68,253.82l1.93,4.48Z"/><path class="cls-1" d="M254.86,247.38l-3.6-2.4Z"/><path class="cls-1" d="M345,235.5l1.52,3.41C346,237.78,345.47,236.64,345,235.5Z"/><path class="cls-1" d="M304.49,299.63l4.36-.08Z"/><path class="cls-1" d="M451.7,421.15l-2.14.07Z"/><path class="cls-1" d="M264.89,274.75c-20.29,1.28-23.38-10.57-20.58-26.94l2.33-.54c8.53,1.54,14.55,6.25,18,14.2Q264.79,268.11,264.89,274.75Z"/><path class="cls-1" d="M74.63,383.48c-.1,5.88-2.12,9-7,7.95-10.13-2.22-14.86-9.06-15-19.27-.05-3.72.23-7.7,5.28-7.07C69.29,366.52,73.41,374.49,74.63,383.48Z"/><path class="cls-1" d="M62.36,408.85c-2.12,9.37-6,15.2-14.7,16.27-3.78.46-5.08-2.12-4.79-5.32.78-8.52,5.75-13.63,14-14.88C58.55,404.66,60.72,407.61,62.36,408.85Z"/><path class="cls-1" d="M44.28,389.86c4-1,8.89-5.57,12-.41,3.28,5.44-1.22,10.05-5.65,12.56-3,1.7-9.47,2.75-10.55,1.28-3.79-5.18,1.48-9.16,4.07-13.34l-.1-.28Z"/><path class="cls-1" d="M7.27,164.47c8,4,7.89-3,9.66-7.43,6.13-15.34,12.45-30.56,25.71-41.44,1.18-1,2.84-1.34,4.27-2,.26,1.67,1,3.45.69,5-2.34,10.87-5.07,21.66-7.29,32.55-.7,3.44-.19,7.12-.24,10.69,3.32-.72,6.61-1.54,10-2.14,3-.54,6.11-.84,9.16-1.25-2.62,3.19-4.78,7-8,9.43-5.24,4-11.14,7.19-16.77,10.71,4.76,3.61,9.54,7.2,14.25,10.87A18.56,18.56,0,0,1,51,192.17c-1.1.7-2.75,2.28-3.22,2-14.46-9-35.43-3.4-46.27-20.4C-2.56,167.26,2.23,165.87,7.27,164.47Z"/><path class="cls-1" d="M144.93,220.85q-2,6.35-4,12.68l-.12.19c-.4.58-.79,1.17-1.18,1.75l.06-.05-1.14,1,.1-.1-2.06,1.13c-6.38,2.7-13,6.64-19.59,2-1.83-1.3-2-7-1-9.92,4.2-11.39,14.59-12,24.65-12.88l1.82.5Z"/><path class="cls-1" d="M144.76,237.49c.58-11.29,7.51-15.65,17.8-15.67,1.35,0,4.06,3.15,3.84,4.44-1.91,11.05-9.33,14.44-19.69,13.16Z"/><path class="cls-1" d="M230.85,240.7c-4,11-13.17,11.57-22.53,10.61-7.11-.73-15-4.52-14.93-11.51,0-5.74,7.25-9.68,14.37-9.57C216.9,230.55,225,233.14,230.85,240.7Z"/><path class="cls-1" d="M168.51,262.32c-5.43.45-11.72,1.17-12-6.42-.55-12.4,6.91-20.06,17.78-24.08,4.37-1.61,11.73-4,13.4,2.59,2.8,11-3.52,19-12.52,24.8a52.75,52.75,0,0,1-6.69,3.11Z"/><path class="cls-1" d="M213.67,275.88c-5.15-.85-13.6.57-12.91-7.93.86-10.52,10.15-13.12,19.15-13.31,5.16-.11,13.85-1,13.32,6.37C232.51,271.06,224.49,275.91,213.67,275.88Z"/></g></g></g></g></svg>