<svg xmlns="http://www.w3.org/2000/svg" viewBox="0 0 16.88 16.88"><defs><style>.cls-1{fill:#004fa7;}</style></defs><title>Recurso 15</title><g id="Capa_2" data-name="Capa 2"><g id="Capa_1-2" data-name="Capa 1"><path class="cls-1" d="M15.61,16.67l-5.3-5.31a.77.77,0,0,0-1-.07,5.91,5.91,0,0,1-1.21.59,6,6,0,0,1-2,.35,5.91,5.91,0,0,1-4.34-1.77A5.89,5.89,0,0,1,0,6.12,5.88,5.88,0,0,1,1.78,1.78,5.87,5.87,0,0,1,6.11,0a5.88,5.88,0,0,1,4.34,1.78,5.88,5.88,0,0,1,1.78,4.34,5.84,5.84,0,0,1-.36,2,5.74,5.74,0,0,1-.59,1.19.75.75,0,0,0,.08,1l5.31,5.31a.75.75,0,0,1,0,1.06h0A.75.75,0,0,1,15.61,16.67ZM6.12,10.73A4.47,4.47,0,0,0,9.39,9.39a4.47,4.47,0,0,0,1.34-3.27A4.49,4.49,0,0,0,9.39,2.84,4.47,4.47,0,0,0,6.12,1.5,4.58,4.58,0,0,0,1.5,6.12,4.47,4.47,0,0,0,2.84,9.39,4.49,4.49,0,0,0,6.12,10.73Z"/></g></g></svg>