<svg xmlns="http://www.w3.org/2000/svg" viewBox="0 0 438.85 117.71"><defs><style>.cls-1{fill:#fff;}</style></defs><title>Recurso 1vfsdf654XZCV</title><g id="Capa_2" data-name="Capa 2"><g id="Capa_1-2" data-name="Capa 1"><path class="cls-1" d="M423.5,74.4c-3.67,24.92-23.16,42.49-48,43.28-23.75.76-44.72-15.8-49.91-39.41-5.39-24.5,10.44-51,33.94-56.89-.63,1.52-1.25,3.05-1.87,4.57a41.59,41.59,0,0,0,9.61,45.92C380.77,85.06,404,89.22,423.5,74.4Z"/><path class="cls-1" d="M360.8,20.49C370.46,1.59,397.28-5.81,416.92,5a41.92,41.92,0,0,1,10.81,65.26c-1.1,1.2-2.12,2.56-3.8,3.09-.57-4.26.85-8.67-1-12.83l.26-1.33A19.76,19.76,0,0,0,425,56.89c7.62-13.54,3.7-31-9.13-40.64A31.58,31.58,0,0,0,375,18.59l-1,.48C369.48,18.47,365.2,20,360.8,20.49Z"/><path class="cls-1" d="M422.94,60.53c-11.1,14.14-28.64,16.84-42.22,9.06-18-10.31-22.08-34.75-6.72-50.52l1-.48c1.31.17,2.62.36,3.92.52,23.2,3,39.23,17.47,44.29,40.09Z"/><path class="cls-1" d="M0,61.43A33.34,33.34,0,0,1,1.55,50.6a19.61,19.61,0,0,1,4.21-7.24A15.93,15.93,0,0,1,12,39.3,22.41,22.41,0,0,1,19.58,38a34.59,34.59,0,0,1,5.57.4q2.46.41,4.2.87a23.55,23.55,0,0,1,3.53,1.23v7c-1-.08-2-.18-3.14-.3L26.46,47c-1.21-.07-2.49-.1-3.82-.1a23.62,23.62,0,0,0-5.48.55,7.37,7.37,0,0,0-3.74,2.1,9.61,9.61,0,0,0-2.12,4.38,32.87,32.87,0,0,0-.68,7.41,29.3,29.3,0,0,0,.79,7.56,9.64,9.64,0,0,0,2.4,4.48,8,8,0,0,0,4,2.13,27.43,27.43,0,0,0,5.74.53c1.38,0,2.67,0,3.84-.11s2.2-.16,3.08-.27,1.94-.26,2.76-.43v7.05A16.2,16.2,0,0,1,30,83.65a34.93,34.93,0,0,1-4.16.94,36.05,36.05,0,0,1-5.87.42,26.07,26.07,0,0,1-7.75-1.12A15.13,15.13,0,0,1,5.84,80,18.93,18.93,0,0,1,1.57,72.8,35.06,35.06,0,0,1,0,61.43Z"/><path class="cls-1" d="M42.4,71.16a16.38,16.38,0,0,1,1.12-6.45,11,11,0,0,1,3.06-4.25,11.86,11.86,0,0,1,4.55-2.34,21,21,0,0,1,5.62-.72,40.72,40.72,0,0,1,5.55.34c1.65.23,3.09.48,4.31.76a34.77,34.77,0,0,1,3.78,1.07V55.42c0-1.05,0-1.93-.11-2.65a9.1,9.1,0,0,0-.36-1.88,4.06,4.06,0,0,0-.7-1.36,7.25,7.25,0,0,0-1.08-1.06,9.12,9.12,0,0,0-3.74-1.39,35.8,35.8,0,0,0-6.2-.43c-1.62,0-3.18.05-4.7.15s-2.86.22-4,.36c-1.39.14-2.71.3-4,.47V40.55a26.58,26.58,0,0,1,4.2-1.24c1.42-.31,3.19-.61,5.31-.88a61.17,61.17,0,0,1,7.56-.4c2,0,3.69.08,5.21.23a20.33,20.33,0,0,1,4,.79,12.33,12.33,0,0,1,3.08,1.44,10.88,10.88,0,0,1,2.4,2.21A12.16,12.16,0,0,1,78.76,45a13.75,13.75,0,0,1,1,2.89,25.22,25.22,0,0,1,.53,3.8c.1,1.43.15,3.09.15,5V83.86H71.88l-.77-3.31A24.8,24.8,0,0,1,67,82.89a35,35,0,0,1-4.57,1.57,21.6,21.6,0,0,1-5.75.72,24.38,24.38,0,0,1-6.54-.76A10.24,10.24,0,0,1,45.69,82a9.7,9.7,0,0,1-2.51-4.34A23.46,23.46,0,0,1,42.4,71.16Zm10.32,0a7.65,7.65,0,0,0,.47,3,3.59,3.59,0,0,0,1.35,1.67,5.31,5.31,0,0,0,2.19.75,23.6,23.6,0,0,0,3,.17,19.86,19.86,0,0,0,4.1-.41,31.34,31.34,0,0,0,3.42-.87,23.56,23.56,0,0,0,3.19-1.27V66.41c-.91-.17-1.88-.33-2.93-.47s-1.93-.26-3.08-.36-2.36-.15-3.63-.15a29.12,29.12,0,0,0-3.64.19,6.09,6.09,0,0,0-2.48.81,3.64,3.64,0,0,0-1.44,1.74A7.77,7.77,0,0,0,52.72,71.16Z"/><path class="cls-1" d="M94.73,17.85h10.11v66H94.73Z"/><path class="cls-1" d="M115.84,61a30.83,30.83,0,0,1,1.83-11.51,18.12,18.12,0,0,1,4.84-7.1,16.94,16.94,0,0,1,6.89-3.59,31.82,31.82,0,0,1,7.94-1,22.27,22.27,0,0,1,8.52,1.41,13,13,0,0,1,5.37,3.92,15,15,0,0,1,2.8,6.06,34.72,34.72,0,0,1,.81,7.77c0,1.33-.05,2.71-.15,4.12s-.23,2.88-.4,4.38H126.21a18.91,18.91,0,0,0,.66,5.07,7.17,7.17,0,0,0,2,3.36,8.41,8.41,0,0,0,3.78,1.87,25.51,25.51,0,0,0,5.88.57c2,0,3.84,0,5.57-.15s3.24-.22,4.54-.36c1.53-.14,2.92-.32,4.16-.55v7.05a44.56,44.56,0,0,1-4.71,1.45c-1.45.36-3.13.7-5.06,1a41.33,41.33,0,0,1-6.16.44A29.39,29.39,0,0,1,128,83.93a15.4,15.4,0,0,1-6.6-4.12,18.78,18.78,0,0,1-4.12-7.5A39,39,0,0,1,115.84,61Zm29.7-3.1V56.25a27.57,27.57,0,0,0-.32-4.46,6.65,6.65,0,0,0-1.3-3.13,5.69,5.69,0,0,0-2.76-1.84,15.68,15.68,0,0,0-4.76-.59,15.45,15.45,0,0,0-5.2.74,6.86,6.86,0,0,0-3.14,2.22,8.46,8.46,0,0,0-1.53,3.65,27.56,27.56,0,0,0-.41,5Z"/><path class="cls-1" d="M165,39.05h7.4l1.24,3.31a38.64,38.64,0,0,1,5.1-2.29,49.62,49.62,0,0,1,5.49-1.57,28.72,28.72,0,0,1,6.63-.73q6.63,0,9.8,3.47t3.17,10.85V83.86H193.71V53.32a17.07,17.07,0,0,0-.23-3,3.86,3.86,0,0,0-1-2,4.57,4.57,0,0,0-2.2-1.17,15.39,15.39,0,0,0-3.86-.38,29.74,29.74,0,0,0-4.62.32c-1.38.21-2.57.43-3.56.65a32.22,32.22,0,0,0-3.14.94V83.86H165Z"/><path class="cls-1" d="M230.63,85.18A16.75,16.75,0,0,1,224,84a11,11,0,0,1-4.78-4,20.5,20.5,0,0,1-2.91-7.28,53.13,53.13,0,0,1-1-11,47.38,47.38,0,0,1,.95-11,21.48,21.48,0,0,1,3-7.41,11.71,11.71,0,0,1,4.84-4.16,15.62,15.62,0,0,1,6.48-1.3,32.77,32.77,0,0,1,6,.51,45.74,45.74,0,0,1,4.72,1.11A30,30,0,0,1,245.41,41V17.85h10.11v66h-8.71l-.59-3.56a27.06,27.06,0,0,1-4.34,2.46,31.62,31.62,0,0,1-4.95,1.68A25.32,25.32,0,0,1,230.63,85.18Zm3.56-9.05a26.12,26.12,0,0,0,4.23-.32,34.6,34.6,0,0,0,3.59-.74,27.12,27.12,0,0,0,3.4-1.1V48.35c-1.16-.28-2.39-.55-3.7-.81-1.1-.19-2.37-.38-3.8-.55a37.18,37.18,0,0,0-4.4-.25,8.21,8.21,0,0,0-3.82.78,5.39,5.39,0,0,0-2.33,2.62,15.17,15.17,0,0,0-1.17,4.79,68.89,68.89,0,0,0-.32,7.35,58,58,0,0,0,.3,6.42A11.58,11.58,0,0,0,227.36,73a5.33,5.33,0,0,0,2.52,2.4A10.47,10.47,0,0,0,234.19,76.13Z"/><path class="cls-1" d="M267.88,71.16A16.37,16.37,0,0,1,269,64.71a11,11,0,0,1,3.06-4.25,11.82,11.82,0,0,1,4.54-2.34,21.12,21.12,0,0,1,5.63-.72,40.46,40.46,0,0,1,5.54.34c1.66.23,3.1.48,4.32.76a36.11,36.11,0,0,1,3.78,1.07V55.42c0-1.05,0-1.93-.11-2.65a9.1,9.1,0,0,0-.36-1.88,4.25,4.25,0,0,0-.7-1.36,7.25,7.25,0,0,0-1.08-1.06,9.18,9.18,0,0,0-3.74-1.39,35.93,35.93,0,0,0-6.21-.43c-1.61,0-3.18.05-4.69.15s-2.87.22-4.06.36c-1.38.14-2.7.3-3.95.47V40.55a27.06,27.06,0,0,1,4.21-1.24c1.41-.31,3.18-.61,5.31-.88a60.94,60.94,0,0,1,7.56-.4c1.95,0,3.69.08,5.2.23a20.3,20.3,0,0,1,4,.79,12.33,12.33,0,0,1,3.08,1.44,10.88,10.88,0,0,1,2.4,2.21A12.66,12.66,0,0,1,304.25,45a13.77,13.77,0,0,1,1,2.89,24,24,0,0,1,.53,3.8c.1,1.43.15,3.09.15,5V83.86h-8.54l-.76-3.31a25.21,25.21,0,0,1-4.12,2.34,36.05,36.05,0,0,1-4.57,1.57,21.6,21.6,0,0,1-5.75.72,24.45,24.45,0,0,1-6.55-.76A10.36,10.36,0,0,1,271.17,82a9.69,9.69,0,0,1-2.5-4.34A23.06,23.06,0,0,1,267.88,71.16Zm10.32,0a7.84,7.84,0,0,0,.47,3A3.61,3.61,0,0,0,280,75.81a5.26,5.26,0,0,0,2.19.75,23.48,23.48,0,0,0,2.95.17,19.93,19.93,0,0,0,4.1-.41,31.34,31.34,0,0,0,3.42-.87,24.65,24.65,0,0,0,3.19-1.27V66.41c-.91-.17-1.89-.33-2.93-.47s-1.94-.26-3.08-.36-2.36-.15-3.64-.15a29.06,29.06,0,0,0-3.63.19,6.09,6.09,0,0,0-2.48.81,3.61,3.61,0,0,0-1.45,1.74A8,8,0,0,0,278.2,71.16Z"/><path class="cls-1" d="M34,94.44h6.91a7.49,7.49,0,0,1,1.14.09,3.79,3.79,0,0,1,1.09.32,3.85,3.85,0,0,1,1,.64,3.65,3.65,0,0,1,.79,1A5.75,5.75,0,0,1,45.46,98a10.65,10.65,0,0,1,.19,2.09,9.07,9.07,0,0,1-.21,2.08,6,6,0,0,1-.56,1.51,3.84,3.84,0,0,1-.83,1,4.16,4.16,0,0,1-1,.62,4.28,4.28,0,0,1-1.1.3,7.12,7.12,0,0,1-1.12.08H36.94v6.13H34ZM40.47,103a2.24,2.24,0,0,0,1.07-.22,1.63,1.63,0,0,0,.64-.61,2.58,2.58,0,0,0,.33-.92,7.9,7.9,0,0,0,.08-1.13A8.27,8.27,0,0,0,42.51,99a2.76,2.76,0,0,0-.33-.94,1.67,1.67,0,0,0-.64-.65,2.12,2.12,0,0,0-1.07-.24H36.94V103Z"/><path class="cls-1" d="M48.84,94.44h6.49a10.24,10.24,0,0,1,1.36.09,5.11,5.11,0,0,1,1.25.33,3.85,3.85,0,0,1,1.08.62,3.73,3.73,0,0,1,.85,1A5.32,5.32,0,0,1,60.43,98a9.44,9.44,0,0,1,.19,2,6.6,6.6,0,0,1-.13,1.4,4.65,4.65,0,0,1-.34,1.09,3.5,3.5,0,0,1-.49.83,4.14,4.14,0,0,1-.55.61,3.79,3.79,0,0,1-1.51.82v0l3.67,7.06H57.93l-3.26-6.4h-2.9v6.4H48.84Zm6.46,8.26c1.53,0,2.3-.94,2.3-2.84a4.13,4.13,0,0,0-.17-1.26,2,2,0,0,0-.48-.84,1.79,1.79,0,0,0-.75-.46,3.24,3.24,0,0,0-1-.14H51.77v5.54Z"/><path class="cls-1" d="M64.53,94.44H75v2.72H67.46v4.58h6.32v2.67H67.46v4.73h7.75v2.72H64.53Z"/><path class="cls-1" d="M78.49,94.44H81.4v11.65a6.78,6.78,0,0,0,.18,1.71,2.19,2.19,0,0,0,.61,1,2.29,2.29,0,0,0,1.09.54,7.74,7.74,0,0,0,1.65.15,7,7,0,0,0,1.53-.15,2.44,2.44,0,0,0,1.09-.54,2.32,2.32,0,0,0,.65-1,5.51,5.51,0,0,0,.22-1.71V94.44h2.9v11.82a9.12,9.12,0,0,1-.34,2.65,4.49,4.49,0,0,1-1.12,1.86,4.75,4.75,0,0,1-2,1.1,10.14,10.14,0,0,1-2.95.37,10.6,10.6,0,0,1-3-.36,4.89,4.89,0,0,1-2-1.09,4.22,4.22,0,0,1-1.13-1.85,8.66,8.66,0,0,1-.36-2.63Z"/><path class="cls-1" d="M95.71,94.44h4.85l6.35,14.7H107c0-.3,0-.59,0-.89s0-.54,0-.85v-13h2.9v17.42h-4.75L99.71,99.6c-.15-.34-.28-.66-.41-.95s-.24-.55-.33-.77-.22-.5-.31-.72h0v14.7h-2.9Z"/><path class="cls-1" d="M114.27,94.44h2.93v17.42h-2.93Z"/><path class="cls-1" d="M125.32,111.86l-5.9-17.42h3.35l4.76,14.7h.2l4.74-14.7h3.35l-5.9,17.42Z"/><path class="cls-1" d="M138,94.44h10.47v2.72H141v4.58h6.32v2.67H141v4.73h7.75v2.72H138Z"/><path class="cls-1" d="M152.07,94.44h6.48a10.13,10.13,0,0,1,1.36.09,5.31,5.31,0,0,1,1.26.33,3.64,3.64,0,0,1,1.93,1.64,5.65,5.65,0,0,1,.55,1.49,9.39,9.39,0,0,1,.2,2,7.33,7.33,0,0,1-.13,1.4,5.83,5.83,0,0,1-.34,1.09,4.33,4.33,0,0,1-.49.83,4.83,4.83,0,0,1-.56.61,3.79,3.79,0,0,1-1.51.82v0l3.67,7.06h-3.34l-3.26-6.4H155v6.4h-2.93Zm6.45,8.26c1.53,0,2.3-.94,2.3-2.84a4.13,4.13,0,0,0-.17-1.26,2,2,0,0,0-.47-.84,1.93,1.93,0,0,0-.75-.46,3.36,3.36,0,0,0-1-.14H155v5.54Z"/><path class="cls-1" d="M167,109.26c.41.06.86.11,1.34.15s.89.07,1.42.09,1.1,0,1.69,0a9.29,9.29,0,0,0,1.88-.15,2.49,2.49,0,0,0,1.06-.45,1.32,1.32,0,0,0,.47-.74,4.43,4.43,0,0,0,.11-1,6.81,6.81,0,0,0-.05-.82,1.55,1.55,0,0,0-.2-.66,1.37,1.37,0,0,0-.45-.51,2.37,2.37,0,0,0-.81-.35l-3.55-.93a4.92,4.92,0,0,1-1.43-.59,3,3,0,0,1-.94-.94A4.24,4.24,0,0,1,167,101a9.73,9.73,0,0,1-.16-1.91,5.86,5.86,0,0,1,.39-2.24,4.12,4.12,0,0,1,1.1-1.56,4.67,4.67,0,0,1,1.73-.9,8,8,0,0,1,2.26-.29,15.82,15.82,0,0,1,1.9.11c.57.08,1.07.16,1.48.25s.93.23,1.33.36v2.25l-1.16-.13c-.35,0-.74-.07-1.18-.1s-.88,0-1.35,0a17.12,17.12,0,0,0-1.78.08,3,3,0,0,0-1.1.3,1.34,1.34,0,0,0-.56.66,3.5,3.5,0,0,0-.16,1.14,4.65,4.65,0,0,0,.05.69,1.28,1.28,0,0,0,.19.54,1.32,1.32,0,0,0,.44.4,3.28,3.28,0,0,0,.78.32l3.31,1a9.23,9.23,0,0,1,1.13.39,3.69,3.69,0,0,1,.86.47,2.94,2.94,0,0,1,.63.64,3.14,3.14,0,0,1,.43.88,6.62,6.62,0,0,1,.23,1.19,14.6,14.6,0,0,1,.07,1.57,10.3,10.3,0,0,1-.24,2.39,3.23,3.23,0,0,1-.9,1.62,4,4,0,0,1-1.81.93,12.25,12.25,0,0,1-3,.3,17,17,0,0,1-2.35-.13,12.58,12.58,0,0,1-1.52-.29,4.43,4.43,0,0,1-1.06-.41Z"/><path class="cls-1" d="M181.3,94.44h2.93v17.42H181.3Z"/><path class="cls-1" d="M191.82,97.14H186.6v-2.7H200v2.7h-5.27v14.72h-2.91Z"/><path class="cls-1" d="M206,94.44h3.88l5.7,17.42h-3.23l-1.47-4.72h-5.93l-1.4,4.72h-3.2Zm4.08,10.07-2.15-7.37h-.05l-2.15,7.37Z"/><path class="cls-1" d="M218,94.44h6.48a10.13,10.13,0,0,1,1.36.09,5.31,5.31,0,0,1,1.26.33,4.15,4.15,0,0,1,1.08.62,3.91,3.91,0,0,1,.85,1,5.32,5.32,0,0,1,.55,1.49,9.39,9.39,0,0,1,.2,2,7.33,7.33,0,0,1-.13,1.4,5.83,5.83,0,0,1-.34,1.09,4.33,4.33,0,0,1-.49.83,4.18,4.18,0,0,1-.56.61,3.72,3.72,0,0,1-1.51.82v0l3.67,7.06H227l-3.26-6.4h-2.89v6.4H218Zm6.45,8.26c1.53,0,2.3-.94,2.3-2.84a4.49,4.49,0,0,0-.16-1.26,2.13,2.13,0,0,0-.48-.84,1.93,1.93,0,0,0-.75-.46,3.31,3.31,0,0,0-1-.14h-3.45v5.54Z"/><path class="cls-1" d="M233.63,94.44h2.93v17.42h-2.93Z"/><path class="cls-1" d="M247.35,112.24a13.42,13.42,0,0,1-2.08-.16,6.05,6.05,0,0,1-1.76-.56,4.81,4.81,0,0,1-1.41-1,5.59,5.59,0,0,1-1-1.67,9.64,9.64,0,0,1-.65-2.38,20.22,20.22,0,0,1-.22-3.21,17.16,17.16,0,0,1,.49-4.52,6.66,6.66,0,0,1,1.41-2.79,4.93,4.93,0,0,1,2.26-1.42,10.69,10.69,0,0,1,3-.39,11.38,11.38,0,0,1,2.08.17,6.16,6.16,0,0,1,1.76.57,4.87,4.87,0,0,1,1.4,1.08,5.82,5.82,0,0,1,1,1.69,10.43,10.43,0,0,1,.64,2.4,23.38,23.38,0,0,1,0,6.4,10.21,10.21,0,0,1-.64,2.39,5.58,5.58,0,0,1-1,1.67,4.63,4.63,0,0,1-1.4,1.06,6.47,6.47,0,0,1-1.76.55A12.34,12.34,0,0,1,247.35,112.24Zm0-2.7a6,6,0,0,0,2-.28,2.49,2.49,0,0,0,1.25-1,4.9,4.9,0,0,0,.65-2,20.38,20.38,0,0,0,.19-3.11,20.82,20.82,0,0,0-.19-3.14,5,5,0,0,0-.65-2,2.42,2.42,0,0,0-1.25-1,7,7,0,0,0-4,0,2.39,2.39,0,0,0-1.25,1,5.11,5.11,0,0,0-.66,2,22.22,22.22,0,0,0-.19,3.14,21.76,21.76,0,0,0,.19,3.11,5.06,5.06,0,0,0,.66,2,2.45,2.45,0,0,0,1.25,1A6,6,0,0,0,247.35,109.54Z"/></g></g></svg>