<svg xmlns="http://www.w3.org/2000/svg" viewBox="0 0 436.06 112.73"><defs><style>.cls-1{fill:#203662;}.cls-2{fill:none;}.cls-3{fill:#5dc9ee;}.cls-4{fill:#f2b22b;}</style></defs><title>Recurso 1525</title><g id="Capa_2" data-name="Capa 2"><g id="Capa_1-2" data-name="Capa 1"><path class="cls-1" d="M422.94,58.79h0l.27-1.33v0l0,0Z"/><path class="cls-1" d="M0,59.7A33.42,33.42,0,0,1,1.56,48.87a19.62,19.62,0,0,1,4.21-7.24A15.89,15.89,0,0,1,12,37.57a22.29,22.29,0,0,1,7.58-1.3,33.44,33.44,0,0,1,5.57.4q2.46.4,4.2.87a23,23,0,0,1,3.53,1.23v7c-1-.08-2-.18-3.14-.3l-3.28-.2c-1.21-.07-2.49-.1-3.82-.1a23.49,23.49,0,0,0-5.48.55,7.34,7.34,0,0,0-3.74,2.1,9.59,9.59,0,0,0-2.12,4.38,33.47,33.47,0,0,0-.68,7.41,29.63,29.63,0,0,0,.79,7.56,9.74,9.74,0,0,0,2.4,4.48,8,8,0,0,0,4,2.13,27.69,27.69,0,0,0,5.74.53c1.38,0,2.67,0,3.84-.11s2.2-.16,3.08-.27,1.94-.26,2.76-.43v7A16.16,16.16,0,0,1,30,81.92a34.32,34.32,0,0,1-4.16.94,36,36,0,0,1-5.87.42,26.14,26.14,0,0,1-7.75-1.12,15.1,15.1,0,0,1-6.38-3.89,19,19,0,0,1-4.27-7.2A35.32,35.32,0,0,1,0,59.7Z"/><path class="cls-1" d="M42.41,69.43A16.5,16.5,0,0,1,43.53,63a11.17,11.17,0,0,1,3.06-4.25,11.89,11.89,0,0,1,4.55-2.34,21,21,0,0,1,5.62-.72,39.58,39.58,0,0,1,5.55.34c1.65.23,3.09.48,4.31.76a33.17,33.17,0,0,1,3.78,1.07V53.69A18.84,18.84,0,0,0,70.29,51a8.56,8.56,0,0,0-.36-1.88,3.83,3.83,0,0,0-.7-1.36,6.77,6.77,0,0,0-1.08-1.06,9,9,0,0,0-3.74-1.39,35.71,35.71,0,0,0-6.2-.43c-1.62,0-3.18,0-4.7.15s-2.86.22-4,.36c-1.39.14-2.71.3-4,.47V38.82a27,27,0,0,1,4.2-1.24c1.42-.31,3.19-.61,5.31-.88a61.67,61.67,0,0,1,7.56-.4c2,0,3.69.08,5.21.23a20.09,20.09,0,0,1,4,.79,12,12,0,0,1,3.08,1.44A10.51,10.51,0,0,1,77.27,41a12,12,0,0,1,1.5,2.3,13.36,13.36,0,0,1,1,2.89A24.3,24.3,0,0,1,80.3,50c.1,1.43.15,3.09.15,5V82.13H71.89l-.77-3.31A24.9,24.9,0,0,1,67,81.16a34.7,34.7,0,0,1-4.57,1.57,21.43,21.43,0,0,1-5.75.72,24.48,24.48,0,0,1-6.54-.76,10.33,10.33,0,0,1-4.45-2.42,9.71,9.71,0,0,1-2.51-4.34A23.76,23.76,0,0,1,42.41,69.43Zm10.32,0a7.86,7.86,0,0,0,.47,3,3.62,3.62,0,0,0,1.35,1.67,5.39,5.39,0,0,0,2.19.75,23.21,23.21,0,0,0,3,.17,20.15,20.15,0,0,0,4.1-.41,32.93,32.93,0,0,0,3.42-.87,23.81,23.81,0,0,0,3.19-1.27V64.68c-.91-.17-1.88-.33-2.93-.47s-1.93-.26-3.08-.36-2.36-.15-3.63-.15a29.59,29.59,0,0,0-3.64.19,6.1,6.1,0,0,0-2.48.81,3.67,3.67,0,0,0-1.44,1.74A7.82,7.82,0,0,0,52.73,69.43Z"/><path class="cls-1" d="M94.74,16.12h10.11v66H94.74Z"/><path class="cls-1" d="M115.85,59.27a31.08,31.08,0,0,1,1.83-11.51,18.08,18.08,0,0,1,4.84-7.1,16.83,16.83,0,0,1,6.89-3.59,31.76,31.76,0,0,1,7.94-1,22.29,22.29,0,0,1,8.52,1.41,13,13,0,0,1,5.37,3.92,14.82,14.82,0,0,1,2.8,6.06,34.41,34.41,0,0,1,.81,7.77c0,1.33,0,2.71-.15,4.12s-.23,2.88-.4,4.38H126.22a18.87,18.87,0,0,0,.66,5.07,7.33,7.33,0,0,0,2,3.36A8.42,8.42,0,0,0,132.66,74a25.28,25.28,0,0,0,5.88.57c2,0,3.84,0,5.57-.15s3.24-.22,4.54-.36c1.53-.14,2.92-.32,4.16-.55v7A45,45,0,0,1,148.1,82c-1.45.36-3.13.7-5.06,1a41,41,0,0,1-6.16.44A29.34,29.34,0,0,1,128,82.2a15.53,15.53,0,0,1-6.6-4.12,18.86,18.86,0,0,1-4.12-7.5A39.28,39.28,0,0,1,115.85,59.27Zm29.7-3.1V54.52a26.62,26.62,0,0,0-.32-4.46,6.53,6.53,0,0,0-1.3-3.13,5.55,5.55,0,0,0-2.76-1.84,19,19,0,0,0-10,.15,6.85,6.85,0,0,0-3.14,2.22,8.56,8.56,0,0,0-1.53,3.65,27.89,27.89,0,0,0-.41,5Z"/><path class="cls-1" d="M165,37.32h7.4l1.24,3.31a38.78,38.78,0,0,1,5.1-2.29,49.8,49.8,0,0,1,5.49-1.57,28.49,28.49,0,0,1,6.63-.73q6.63,0,9.8,3.47t3.17,10.85V82.13H193.72V51.59a16.71,16.71,0,0,0-.23-3,3.81,3.81,0,0,0-1-2,4.54,4.54,0,0,0-2.2-1.17,15.15,15.15,0,0,0-3.86-.38,28.63,28.63,0,0,0-4.62.32c-1.38.21-2.57.43-3.56.65a31.44,31.44,0,0,0-3.14.94V82.13H165Z"/><path class="cls-1" d="M230.64,83.45A16.74,16.74,0,0,1,224,82.27a11.14,11.14,0,0,1-4.78-4A20.66,20.66,0,0,1,216.32,71a53.43,53.43,0,0,1-1-11,47.8,47.8,0,0,1,1-11,21.59,21.59,0,0,1,3-7.41,11.75,11.75,0,0,1,4.84-4.16,15.55,15.55,0,0,1,6.48-1.3,31.78,31.78,0,0,1,6,.51,42.54,42.54,0,0,1,4.72,1.11,29.81,29.81,0,0,1,4.11,1.53V16.12h10.11v66h-8.71l-.59-3.56A27.25,27.25,0,0,1,241.89,81a31.7,31.7,0,0,1-4.95,1.68A25.67,25.67,0,0,1,230.64,83.45Zm3.56-9a26,26,0,0,0,4.23-.32,36.26,36.26,0,0,0,3.59-.74,26.44,26.44,0,0,0,3.4-1.1V46.62c-1.16-.28-2.39-.55-3.7-.81-1.1-.19-2.37-.38-3.8-.55a36,36,0,0,0-4.4-.25,8.29,8.29,0,0,0-3.82.78,5.46,5.46,0,0,0-2.33,2.62,15.22,15.22,0,0,0-1.17,4.79,72,72,0,0,0-.32,7.35,57.37,57.37,0,0,0,.3,6.42,11.75,11.75,0,0,0,1.19,4.3,5.38,5.38,0,0,0,2.52,2.4A10.59,10.59,0,0,0,234.2,74.4Z"/><path class="cls-1" d="M267.89,69.43A16.5,16.5,0,0,1,269,63a11.17,11.17,0,0,1,3.06-4.25,11.92,11.92,0,0,1,4.54-2.34,21,21,0,0,1,5.63-.72,39.34,39.34,0,0,1,5.54.34c1.66.23,3.1.48,4.32.76a35.36,35.36,0,0,1,3.78,1.07V53.69a18.84,18.84,0,0,0-.11-2.65,8.56,8.56,0,0,0-.36-1.88,4.19,4.19,0,0,0-.7-1.36,6.77,6.77,0,0,0-1.08-1.06,9.12,9.12,0,0,0-3.74-1.39,35.83,35.83,0,0,0-6.21-.43c-1.61,0-3.18,0-4.69.15s-2.87.22-4.06.36c-1.38.14-2.7.3-3.95.47V38.82a27.07,27.07,0,0,1,4.21-1.24c1.41-.31,3.18-.61,5.31-.88a59.75,59.75,0,0,1,7.56-.4c1.95,0,3.69.08,5.2.23a20.09,20.09,0,0,1,4,.79,12,12,0,0,1,3.08,1.44,10.51,10.51,0,0,1,2.4,2.21,12.55,12.55,0,0,1,1.52,2.3,13.36,13.36,0,0,1,1,2.89,23.17,23.17,0,0,1,.53,3.8c.1,1.43.15,3.09.15,5V82.13H297.4l-.76-3.31a24.58,24.58,0,0,1-4.12,2.34A36.22,36.22,0,0,1,288,82.73a21.43,21.43,0,0,1-5.75.72,24.55,24.55,0,0,1-6.55-.76,10.45,10.45,0,0,1-4.47-2.42,9.69,9.69,0,0,1-2.5-4.34A23.39,23.39,0,0,1,267.89,69.43Zm10.32,0a7.86,7.86,0,0,0,.47,3A3.64,3.64,0,0,0,280,74.08a5.39,5.39,0,0,0,2.19.75,24.32,24.32,0,0,0,2.95.17,20.15,20.15,0,0,0,4.1-.41,32.93,32.93,0,0,0,3.42-.87,24.35,24.35,0,0,0,3.19-1.27V64.68c-.91-.17-1.89-.33-2.93-.47s-1.94-.26-3.08-.36-2.36-.15-3.64-.15a29.43,29.43,0,0,0-3.63.19,6.1,6.1,0,0,0-2.48.81,3.69,3.69,0,0,0-1.45,1.74A8.19,8.19,0,0,0,278.21,69.43Z"/><path class="cls-1" d="M34,92.71h6.91a7.2,7.2,0,0,1,1.14.09,3.7,3.7,0,0,1,1.09.32,3.63,3.63,0,0,1,1,.64,3.5,3.5,0,0,1,.79,1,5.32,5.32,0,0,1,.53,1.51,10.49,10.49,0,0,1,.19,2.09,9.07,9.07,0,0,1-.21,2.08,5.62,5.62,0,0,1-.56,1.51,3.79,3.79,0,0,1-.83,1,4.29,4.29,0,0,1-1,.62,4.17,4.17,0,0,1-1.1.3,8.32,8.32,0,0,1-1.12.08H37v6.13H34Zm6.47,8.56a2.31,2.31,0,0,0,1.07-.22,1.57,1.57,0,0,0,.64-.61,2.54,2.54,0,0,0,.33-.92,7.16,7.16,0,0,0,.08-1.13,8.32,8.32,0,0,0-.08-1.12,2.64,2.64,0,0,0-.33-.94,1.67,1.67,0,0,0-.64-.65,2.1,2.1,0,0,0-1.07-.24H37v5.83Z"/><path class="cls-1" d="M48.85,92.71h6.49a10.24,10.24,0,0,1,1.36.09,4.91,4.91,0,0,1,1.25.33,3.53,3.53,0,0,1,1.08.62,3.71,3.71,0,0,1,.85,1,4.89,4.89,0,0,1,.56,1.52,9,9,0,0,1,.19,2,6,6,0,0,1-.13,1.4,4.75,4.75,0,0,1-.34,1.09,3.3,3.3,0,0,1-.49.83A3.76,3.76,0,0,1,57.61,103h0l3.67,7.06H57.94l-3.26-6.4h-2.9v6.4H48.85ZM55.31,101c1.53,0,2.3-.94,2.3-2.84a4.12,4.12,0,0,0-.17-1.26A1.91,1.91,0,0,0,57,96a1.66,1.66,0,0,0-.75-.46,3.06,3.06,0,0,0-1-.14H51.78V101Z"/><path class="cls-1" d="M64.54,92.71H75v2.72H67.47V100h6.32v2.67H67.47v4.73h7.75v2.72H64.54Z"/><path class="cls-1" d="M78.5,92.71h2.91v11.65a7.05,7.05,0,0,0,.18,1.71,2.21,2.21,0,0,0,.61,1,2.39,2.39,0,0,0,1.09.54,7.68,7.68,0,0,0,1.65.15,7.78,7.78,0,0,0,1.53-.15,2.44,2.44,0,0,0,1.09-.54,2.29,2.29,0,0,0,.65-1,5.22,5.22,0,0,0,.22-1.71V92.71h2.9v11.82a8.81,8.81,0,0,1-.34,2.65A4.45,4.45,0,0,1,89.87,109a4.74,4.74,0,0,1-2,1.1,10.12,10.12,0,0,1-3,.37,10.86,10.86,0,0,1-3-.36,5,5,0,0,1-2-1.09,4.28,4.28,0,0,1-1.13-1.85,9,9,0,0,1-.36-2.63Z"/><path class="cls-1" d="M95.72,92.71h4.85l6.35,14.7H107V92.67h2.9v17.42h-4.75L99.72,97.87c-.15-.34-.28-.66-.41-1s-.24-.55-.33-.77-.22-.5-.31-.72h0v14.7h-2.9Z"/><path class="cls-1" d="M114.28,92.71h2.93v17.42h-2.93Z"/><path class="cls-1" d="M125.33,110.13l-5.9-17.42h3.35l4.76,14.7h.2l4.74-14.7h3.35l-5.9,17.42Z"/><path class="cls-1" d="M138,92.71h10.47v2.72H141V100h6.32v2.67H141v4.73h7.75v2.72H138Z"/><path class="cls-1" d="M152.08,92.71h6.48a10.24,10.24,0,0,1,1.36.09,5.44,5.44,0,0,1,1.26.33,3.62,3.62,0,0,1,1.93,1.64,5.35,5.35,0,0,1,.55,1.49,9,9,0,0,1,.2,2,7.3,7.3,0,0,1-.13,1.4,5.29,5.29,0,0,1-.34,1.09,4.11,4.11,0,0,1-.49.83,4.6,4.6,0,0,1-.56.61,3.9,3.9,0,0,1-1.51.82h0l3.67,7.06h-3.34l-3.26-6.4H155v6.4h-2.93Zm6.45,8.26c1.53,0,2.3-.94,2.3-2.84a4.12,4.12,0,0,0-.17-1.26,1.85,1.85,0,0,0-.47-.84,1.82,1.82,0,0,0-.75-.46,3.06,3.06,0,0,0-1-.14H155V101Z"/><path class="cls-1" d="M167,107.53c.41.06.86.11,1.34.15s.89.07,1.42.09,1.1,0,1.69,0a9.87,9.87,0,0,0,1.88-.15,2.51,2.51,0,0,0,1.06-.45,1.28,1.28,0,0,0,.47-.74,4.26,4.26,0,0,0,.11-1,5.56,5.56,0,0,0,0-.82,1.41,1.41,0,0,0-.2-.66,1.3,1.3,0,0,0-.45-.51,2.17,2.17,0,0,0-.81-.35l-3.55-.93a5.09,5.09,0,0,1-1.43-.59,3,3,0,0,1-.94-.94,4.45,4.45,0,0,1-.54-1.36,10.19,10.19,0,0,1-.16-1.91,6.08,6.08,0,0,1,.39-2.24,4.11,4.11,0,0,1,1.1-1.56,4.63,4.63,0,0,1,1.73-.9,7.88,7.88,0,0,1,2.26-.29,15,15,0,0,1,1.9.11c.57.08,1.07.16,1.48.25s.93.23,1.33.36v2.25l-1.16-.13c-.35,0-.74-.07-1.18-.1s-.88,0-1.35,0a15.15,15.15,0,0,0-1.78.08,3.06,3.06,0,0,0-1.1.3,1.34,1.34,0,0,0-.56.66,3.66,3.66,0,0,0-.16,1.14,5.34,5.34,0,0,0,.05.69,1.35,1.35,0,0,0,.19.54,1.53,1.53,0,0,0,.44.4,3.29,3.29,0,0,0,.78.32l3.31,1a7.17,7.17,0,0,1,1.13.39,3.42,3.42,0,0,1,.86.47,2.73,2.73,0,0,1,.63.64,2.88,2.88,0,0,1,.43.88,6.1,6.1,0,0,1,.23,1.19,13.64,13.64,0,0,1,.07,1.57,9.65,9.65,0,0,1-.24,2.39,3.23,3.23,0,0,1-.9,1.62,4,4,0,0,1-1.81.93,12.58,12.58,0,0,1-3,.3,16.83,16.83,0,0,1-2.35-.13,13.14,13.14,0,0,1-1.52-.29,4.56,4.56,0,0,1-1.06-.41Z"/><path class="cls-1" d="M181.31,92.71h2.93v17.42h-2.93Z"/><path class="cls-1" d="M191.83,95.41h-5.22v-2.7H200v2.7h-5.27v14.72h-2.91Z"/><path class="cls-1" d="M206,92.71h3.88l5.7,17.42h-3.23l-1.47-4.72H205l-1.4,4.72h-3.2Zm4.08,10.07-2.15-7.37h-.05l-2.15,7.37Z"/><path class="cls-1" d="M218,92.71h6.48a10.24,10.24,0,0,1,1.36.09,5.44,5.44,0,0,1,1.26.33,4,4,0,0,1,1.08.62,3.71,3.71,0,0,1,.85,1,5,5,0,0,1,.55,1.49,9,9,0,0,1,.2,2,7.3,7.3,0,0,1-.13,1.4,5.29,5.29,0,0,1-.34,1.09,4.11,4.11,0,0,1-.49.83,4,4,0,0,1-.56.61,3.66,3.66,0,0,1-1.51.82h0l3.67,7.06H227l-3.26-6.4h-2.89v6.4H218Zm6.45,8.26c1.53,0,2.3-.94,2.3-2.84a4.11,4.11,0,0,0-.16-1.26,2,2,0,0,0-.48-.84,1.82,1.82,0,0,0-.75-.46,3.06,3.06,0,0,0-1-.14h-3.45V101Z"/><path class="cls-1" d="M233.64,92.71h2.93v17.42h-2.93Z"/><path class="cls-1" d="M247.36,110.51a13.25,13.25,0,0,1-2.08-.16,6.45,6.45,0,0,1-1.76-.56,5.17,5.17,0,0,1-1.41-1,5.79,5.79,0,0,1-1-1.67,10.23,10.23,0,0,1-.65-2.38,20.3,20.3,0,0,1-.22-3.21,17.65,17.65,0,0,1,.49-4.52,6.65,6.65,0,0,1,1.41-2.79,4.9,4.9,0,0,1,2.26-1.42,10.89,10.89,0,0,1,3-.39,11.09,11.09,0,0,1,2.08.17,6,6,0,0,1,1.76.57,4.78,4.78,0,0,1,1.4,1.08,5.55,5.55,0,0,1,1,1.69,10,10,0,0,1,.64,2.4,22.87,22.87,0,0,1,0,6.4,9.94,9.94,0,0,1-.64,2.39,5.58,5.58,0,0,1-1,1.67,4.55,4.55,0,0,1-1.4,1.06,6.67,6.67,0,0,1-1.76.55A12.51,12.51,0,0,1,247.36,110.51Zm0-2.7a6.13,6.13,0,0,0,2-.28,2.48,2.48,0,0,0,1.25-1,4.91,4.91,0,0,0,.65-2,19,19,0,0,0,.19-3.11,19.4,19.4,0,0,0-.19-3.14,4.86,4.86,0,0,0-.65-2,2.38,2.38,0,0,0-1.25-1,7,7,0,0,0-4,0,2.38,2.38,0,0,0-1.25,1,5.19,5.19,0,0,0-.66,2,23.53,23.53,0,0,0-.19,3.14,23.08,23.08,0,0,0,.19,3.11,5.25,5.25,0,0,0,.66,2,2.56,2.56,0,0,0,1.25,1A6.2,6.2,0,0,0,247.36,107.81Z"/><path class="cls-2" d="M417.75,66.82a34.32,34.32,0,1,0-52.1-44.59,46.68,46.68,0,0,1,6.62-.48A45.49,45.49,0,0,1,417.75,66.82Z"/><path class="cls-1" d="M392.72,77.69a34.25,34.25,0,0,0,25-10.87,45.49,45.49,0,0,0-45.48-45.07,46.68,46.68,0,0,0-6.62.48,34.32,34.32,0,0,0,27.07,55.46Z"/><path class="cls-1" d="M349.37,43.34A43,43,0,0,1,353,26,45.49,45.49,0,1,0,416,79.9a43.31,43.31,0,0,1-66.59-36.56Z"/><path class="cls-3" d="M436.06,43.34A43.34,43.34,0,0,0,353,26a45.43,45.43,0,0,1,12.66-3.81,34.32,34.32,0,1,1,52.1,44.59c0,.14,0,.28,0,.42A45.62,45.62,0,0,1,416,79.9,43.35,43.35,0,0,0,436.06,43.34Z"/><path class="cls-4" d="M417.75,66.82a34.32,34.32,0,0,1-52.1-44.59A45.43,45.43,0,0,0,353,26,43.31,43.31,0,0,0,416,79.9a45.62,45.62,0,0,0,1.8-12.66C417.76,67.1,417.75,67,417.75,66.82Z"/></g></g></svg>