<svg xmlns="http://www.w3.org/2000/svg" viewBox="0 0 3041.51 3328"><defs><style>.cls-1{fill:#fff;}</style></defs><title>Recurso 3ayudaHdsdfVsd</title><g id="Capa_2" data-name="Capa 2"><g id="_Layer_" data-name="&lt;Layer&gt;"><path class="cls-1" d="M1841.22,713H1200.43a64,64,0,0,1,0-128h640.79a64,64,0,0,1,0,128Z"/><path class="cls-1" d="M1841.22,1133.82H1200.43a64,64,0,0,1,0-128h640.79a64,64,0,0,1,0,128Z"/><path class="cls-1" d="M1403.21,2016.19A155.09,155.09,0,0,1,1254,1822.45a725,725,0,0,0,21.2-138.93C910.8,1574.77,661.1,1239.67,661.06,859.43,661.2,384.64,1046.21-.14,1521,0s859.57,385.15,859.43,859.94c-.12,408.94-288.3,761.2-689.11,842.34-41.84,112.61-105.17,205.54-188.54,276.55A153.13,153.13,0,0,1,1403.21,2016.19ZM1520.83,127.68c-403.48,0-731.76,328.27-731.76,731.75,0,342.56,232.71,635.67,565.86,712.88a64,64,0,0,1,49.56,62.2,873.63,873.63,0,0,1-26.6,220,25.22,25.22,0,0,0,11.44,29.41,24.47,24.47,0,0,0,30.49-2.44c73.8-62.89,128.41-148.66,162.25-254.87a64,64,0,0,1,51.25-44c353-54.49,619.26-365.4,619.26-723.2C2252.58,456,1924.31,127.68,1520.83,127.68Z"/><path class="cls-1" d="M1824.86,3195.27c-6,0-12-.24-17.29-.68-171-14.68-473.88-95.13-684.46-204.46a388.81,388.81,0,0,0-322.36-16.49,64,64,0,0,1-80-29.36L433.52,2406.07a64,64,0,0,1,26.6-86.52,63.29,63.29,0,0,1,14.24-5.49c64-16,629.06-157.46,752.36-157.46,110.65,0,592.74,125.3,819.88,232a228,228,0,0,1,125.25,153.21l601.94-272a190.91,190.91,0,0,1,174.9,8c83,48.64,112.21,150.41,80,279.22a192.68,192.68,0,0,1-72,107.53c-82.61,61.41-309.63,196.5-546.46,316C2127.89,3123.06,1931.11,3195.27,1824.86,3195.27Zm-881.21-377a516.94,516.94,0,0,1,238.3,58.21c193.78,100.61,481.25,177.21,636.39,190.49,27.4,2.36,147-5.2,534.13-200.9,227.66-115.05,451.24-247.74,528.05-304.67a64.4,64.4,0,0,0,24-36c8.24-33,22.73-112.41-20.52-137.77a62.85,62.85,0,0,0-57.48-1.68l-667.75,302a226.31,226.31,0,0,1-32,51.24c-2.4,2.88-4.88,5.8-7.48,8.68a227.12,227.12,0,0,1-246.43,62.29l-336.59-120a248.59,248.59,0,0,0-216.58,23.64,64,64,0,1,1-68-108.49,376.06,376.06,0,0,1,327.51-35.73l336.6,120a99.54,99.54,0,0,0,108-27c1.52-1.68,3-3.32,4.32-5a96.64,96.64,0,0,0,19.8-83.33,101,101,0,0,0-56-69.88c-224.54-105.61-690.87-220-765.39-220-73.09,0-398.4,74-641.63,133.81l223,418.2A516.33,516.33,0,0,1,943.65,2818.31Z"/><path class="cls-1" d="M544.73,3328a174.69,174.69,0,0,1-154.1-92L20.68,2546.36A174.73,174.73,0,0,1,92,2310.06l183-98.17a174.54,174.54,0,0,1,236.31,71.33h0l369.75,689.54a174.71,174.71,0,0,1-71.32,236.31h0l-183,98.13A173.46,173.46,0,0,1,544.73,3328ZM357.43,2319.22a46.33,46.33,0,0,0-21.92,5.52l-182.82,98.13a46.56,46.56,0,0,0-19,63l369.76,689.54a46.47,46.47,0,0,0,62.91,19l.09,0,183-98.13a46.48,46.48,0,0,0,19-62.93l0,0L398.51,2343.9a46.59,46.59,0,0,0-41.08-24.56Z"/></g></g></svg>