<svg xmlns="http://www.w3.org/2000/svg" viewBox="0 0 1549.97 256.2"><defs><style>.cls-1{fill:#e3091b;}.cls-2{fill:#e3091c;}.cls-3{fill:#e2081b;}.cls-4{fill:#e2071a;}.cls-5{fill:#2e2524;}.cls-6{fill:#f29700;}.cls-7{fill:#de0618;}.cls-8{fill:#0177ba;}.cls-9{fill:#f09501;}.cls-10{fill:#fefefe;}.cls-11{fill:#0a679b;}.cls-12{fill:#303329;}.cls-13{fill:#252323;}.cls-14{fill:#f1d604;}.cls-15{fill:#f7da02;}.cls-16{fill:#fdde00;}</style></defs><title>Recurso 2</title><g id="Capa_2" data-name="Capa 2"><g id="Capa_1-2" data-name="Capa 1"><path class="cls-1" d="M1154.65,142.94c0,8.13,0,16.26,0,24.39,0,6.47-3,9.94-8.45,10.09-5.63.16-9.43-3.56-9.49-9.79-.15-18.92-2.2-37.84,0-56.75A56.4,56.4,0,0,1,1140.68,95c4.72-10.9,14.27-16.84,26.14-16.24,5.73.29,10,3.53,13.66,7.44,7.84,8.25,13.72,17.9,19.26,27.75,6.43,11.41,12.15,23.24,19.53,34.1a59.57,59.57,0,0,0,6.48,8.18c5.17,5.29,12.08,4.23,15.63-2.33,2.51-4.64,3-9.81,3.19-15,.47-11.64-.9-23.22-1.4-34.83-.23-5.31-.51-10.62-.45-15.93.07-5.08,3.17-8.19,7.92-8.51s9.65,2.66,9.71,7.33c.32,22.37,3.66,44.84-1,67.07-3.23,15.33-12.64,23-26.8,23.4-6.23.15-10.85-2.85-15-6.86-8.64-8.44-15.06-18.54-20.86-29-6.11-11-11.53-22.43-18.33-33.07a56.67,56.67,0,0,0-6.3-8.32c-5.13-5.5-11.81-4.59-15.6,2-2.91,5.06-3.25,10.76-3.58,16.38A97.32,97.32,0,0,0,1154.65,142.94Z"/><path class="cls-2" d="M373.69,139.19c0-7.15-.05-14.29,0-21.43.07-6.31,3.08-9.73,8.25-9.61,5,.12,7.72,3.35,7.75,9.5q.07,19.93,0,39.86c0,2.4.15,4,3.15,4.39,19.1,2.73,37.81,1.88,55.82-5.66a36,36,0,0,0,12.57-8.81c10.29-11.1,10.12-25.35-.57-36-10.23-10.17-23.14-14.41-37-16.85-17.52-3.08-34.75-1.95-51.88,2.43-5,1.28-9.14-.26-10.19-3.62s1.15-7.3,5.89-9.19c9.07-3.64,18.71-4.4,28.35-4.84,21.14-1,41.85,1,61.56,9.35a62.27,62.27,0,0,1,16.08,9.86c19.67,16.74,19.73,43.9.07,60.67-10.85,9.26-23.92,13.5-37.66,15.8a146.43,146.43,0,0,1-48.67.4c-9.78-1.64-13.43-5.92-13.5-15.85C373.65,152.8,373.69,146,373.69,139.19Z"/><path class="cls-3" d="M1286.6,139.26q0-10,0-19.93c0-7.76,2.56-11.24,8.14-11.15,5.38.09,7.87,3.51,7.87,10.91,0,12.79.14,25.58-.09,38.36,0,3.24,1.13,4.27,4,4.65,17.21,2.27,34.2,1.65,50.71-4.13,7.8-2.74,14.73-6.92,19.51-14,7.24-10.7,6.55-21.94-2.2-31.39-7.55-8.15-17.09-13.1-27.75-15.82a120.81,120.81,0,0,0-61.64.07,16.06,16.06,0,0,1-2.41.61c-3.34.33-6.59-.14-8.06-3.53-1.58-3.64.34-6.41,3.35-8.45,4-2.69,8.58-3.52,13.17-4.22,25.87-4,51.36-3,76.13,6.32a58.9,58.9,0,0,1,20.32,12.31c18,17.14,18,39.88.88,57.24-9.43,9.58-21.59,14.12-34.42,16.83a145.73,145.73,0,0,1-54,1.5c-9.88-1.61-13.45-5.83-13.49-15.77C1286.57,152.88,1286.6,146.07,1286.6,139.26Z"/><path class="cls-1" d="M1015.46,121.57H1064c6,0,8.85,2.46,8.75,7.56-.1,4.92-2.83,7.27-8.58,7.28-15.63,0-31.25,0-47.23,0,.7,3.34,2.77,5.46,4.8,7.53,10.5,10.72,23.94,15,38.26,17.51a119.75,119.75,0,0,0,49-1.78,21,21,0,0,1,5.4-.85c3.29.1,6.44,1,7.36,4.71.86,3.43-1.18,5.75-3.9,7.36-4.23,2.49-9,3.29-13.79,4-25.17,3.71-50.09,3.16-74.29-5.56-13.67-4.94-25.08-12.87-31.64-26.46-8.81-18.25.15-38.14,13.72-48.12s29.49-13.4,45.85-14.88a172.52,172.52,0,0,1,38.34.74c.33,0,.67,0,1,.08,5.63.82,9.21,4,8.72,7.77s-4.54,6.08-10.3,5.44c-16.61-1.84-33.18-2.64-49.56,1.68-13.06,3.45-24,9.67-29.47,22.91C1016.05,119.23,1015.9,120,1015.46,121.57Z"/><path class="cls-1" d="M1475.19,79.12c6.81.16,12.3,2.78,17.43,6.33,8.7,6,15.7,13.82,22.2,22a289.18,289.18,0,0,1,33,53.18c1.17,2.4,2.44,4.82,2.13,7.56a9.33,9.33,0,0,1-7.74,8.64c-4.82,1.08-8-1.29-10-5.44A372.07,372.07,0,0,0,1511.64,134c-6.67-10.54-13.61-20.87-22.83-29.43-10.15-9.43-16.43-9.48-26.65,0-11.06,10.3-19.08,22.93-26.82,35.73a341.11,341.11,0,0,0-16.25,30.2c-3,6.26-7.66,8.17-12.82,5.65s-6.86-7.81-4.09-13.56c11.7-24.34,25.56-47.28,44.23-67a64.48,64.48,0,0,1,16.79-13.16A27,27,0,0,1,1475.19,79.12Z"/><path class="cls-1" d="M689,177.26c-7-.16-12.51-2.65-17.68-6.16-8.5-5.76-15.37-13.23-21.7-21.17A289,289,0,0,1,615.72,95.5c-1.17-2.39-2.47-4.84-2.09-7.57.63-4.57,3.22-7.57,7.86-8.51s7.79,1.17,9.73,5.14c4.93,10.15,10.13,20.15,15.89,29.87,7,11.88,14.43,23.5,23.92,33.64,13.27,14.19,20.59,14.39,33.73.27,15.78-17,26.73-37.11,37.27-57.49,1.22-2.36,2.2-4.86,3.55-7.13,2.54-4.24,6.79-5.61,11.16-3.82a9.07,9.07,0,0,1,5.56,10.92,57.54,57.54,0,0,1-4.16,9.54c-11.27,22-24.1,42.87-41.37,60.71-6.85,7.08-14.29,13.5-24.4,15.61C691.07,177,689.75,177.13,689,177.26Z"/><path class="cls-1" d="M562.05,79.13c6.73.05,12.11,2.53,17.15,5.92,8.53,5.72,15.4,13.2,21.74,21.13A292.29,292.29,0,0,1,635.11,161c1.16,2.38,2.42,4.83,1.94,7.6a9.53,9.53,0,0,1-8.13,8.34c-4.6.85-7.69-1.57-9.56-5.52a360.21,360.21,0,0,0-20.27-37.11c-6.91-11-14.14-21.76-23.89-30.53-9.36-8.42-15.41-8.47-24.83-.22-8.09,7.08-14.28,15.73-20.23,24.57a335.83,335.83,0,0,0-23.55,41.54c-3.36,6.94-7.9,9.07-13.31,6.37s-6.76-8.07-3.53-14.61c11.79-23.92,25.42-46.66,44-66.1a64.21,64.21,0,0,1,16.86-13.1A27,27,0,0,1,562.05,79.13Z"/><path class="cls-1" d="M878.62,177.27a31.56,31.56,0,0,1-16.34-5.5c-8.79-5.68-15.78-13.25-22.26-21.29-13.84-17.13-25.08-35.9-34.72-55.65a20.1,20.1,0,0,1-1.15-2.76c-1.57-5.11.55-10,5.18-12.06,4.8-2.12,9.33-.48,11.93,4.84a379.9,379.9,0,0,0,23.82,42.52c5.87,8.89,12.06,17.54,20,24.77,9.79,8.91,16.12,8.93,25.94-.14,11.49-10.62,19.74-23.72,27.72-37q8.49-14.06,15.53-28.93c3-6.31,7.56-8.39,12.69-6.11s7.18,7.9,4.29,13.9c-11.81,24.49-25.72,47.64-44.73,67.35-6.84,7.09-14.33,13.46-24.47,15.48C880.74,177,879.42,177.14,878.62,177.27Z"/><path class="cls-4" d="M981.86,128c0,12.78,0,25.56,0,38.34,0,6.84-3,10.22-8.76,10.24-6,0-9.22-3.59-9.23-10.43q0-38.34,0-76.67c0-6.55,3.28-10.35,8.76-10.44s9.17,3.91,9.21,10.63C981.9,102.49,981.86,115.27,981.86,128Z"/><path class="cls-3" d="M774,127.49c0-12.6,0-25.21,0-37.82,0-6.64,3.15-10.42,8.6-10.6s9.32,3.86,9.34,10.52q.1,38.57,0,77.15c0,6.45-3.07,9.81-8.62,9.88-5.85.08-9.29-3.41-9.32-9.81C774,153.71,774,140.6,774,127.49Z"/><path class="cls-5" d="M215.06,22.48c-1.58-10.32,1.34-13.85,11.74-14,7.49-.09,15-.14,22.48,0,9.61.21,12.63,3.59,11.23,13.12-1.21,8.2-3.53,16.2-4.41,24.48-.33,3.06.34,4.84,2.77,6.65q12.6,9.38,24.9,19.14c6.15,4.87,11.86,10.23,15.76,17.16,6.23,11,3.2,20.43-8.28,25.81-9.19,4.3-18.95,4.55-28.83,4-6.79-.38-6.81-.35-6,6.11,1.92,15.41,8.25,29,17.83,41,22.25,27.82,12.14,58.51-13.63,74.77-19.39,12.24-40.67,14.61-62.88,11a28.69,28.69,0,0,0-11.7.31c-23.87,5.61-47.78,5.66-71.58-.62-5.78-1.53-11.13.95-16.69,1.4C74.69,254.7,53.28,250.66,35,235.57c-22-18.23-25-45.54-7.49-68.18,9.81-12.71,16.67-26.69,19-42.71.87-6.12.85-6.19-5.16-5.84-9.36.56-18.6.42-27.54-3C-.34,110.43-3.88,99.69,4.43,87c5.29-8.08,12.85-13.86,20.25-19.77,28.14-22.47,58.08-42.13,91-57,30.49-13.76,41.2-13.68,71.71.16,9.06,4.1,17.83,8.84,26.74,13.29l1.22.1C215.25,23.37,215.16,22.92,215.06,22.48ZM198.6,238.3c3.32,1.12,1.3,4,2.05,6l-.56.3c.1,0,.24,0,.28,0a1.23,1.23,0,0,0,.21-.37c6-2,10.68-6,14.34-11,5.69-7.77,3.32-15-5.74-18.45-6.52-2.45-13-4.93-19.62-7.22-2.31-.81-3.13-1.9-2.63-4.38a83.7,83.7,0,0,0,1.58-21.76c-.88-14.38-3.41-28.36-11.78-40.54-11.67-17-31.84-19.06-46.77-5-.69.65-1.18,1.66-2.38,1.53-.72-1.37.29-2.21,1-3,6.62-7,14.66-10.77,24.44-10.21,13.71.78,22.14,9.11,28,20.42,9,17.45,10.31,36.19,7.82,55.3-.51,4,.1,6,4.18,7.3a223.94,223.94,0,0,1,21.42,8.13c7.51,3.31,9.28,9.75,5.23,16.88-2.72,4.79-6.86,8.07-11.49,10.81-3,1.78-6.1,3.39-10.13,5.6,21.66,3,40.91.48,58.15-11.75,20.57-14.6,31.61-44.69,13.79-69.17A91.48,91.48,0,0,1,253.33,125c-.68-5.5-3.05-6.94-8-7.16-28.24-1.24-56.46-3-84.71-3.92-28-.94-55.84,1.87-83.76,3-7.8.31-15.59,1-23.39,1.48-2.12.13-3.34.81-3.6,3.15-2,18.43-9.46,34.74-19.48,50.08a40.84,40.84,0,0,0-6,31c3.67,19.08,15.26,32.1,32.42,40.35,14.78,7.11,30.4,8.37,48,5.61-3.54-1.83-5.84-3-8.09-4.2-6.2-3.44-11.81-7.54-14.74-14.31-2.14-4.93-1.18-9,2.94-12.53a15.19,15.19,0,0,1,9.88-4.07c-.62,1.95-2.62,1.76-4,2.47-5.26,2.7-7.32,7.27-5.33,12.83,2.87,8,9.38,12.17,16.89,16.06.18-2.82-1.17-5.19,1.52-6.44-.93,4.31,1.2,7,4.88,8.59a58.58,58.58,0,0,0,9.35,3.35c17.31,4.24,34.87,4.53,52.47,2.63,7.9-.85,15.8-2.2,23.1-5.7C197.4,245.42,200,243,198.6,238.3Zm64.06-123.66c3.5,0,7.06.44,10.47-.09,8.31-1.29,16.11-4,19.34-12.77s-1.72-15-7.18-20.86c-.34-.36-.69-.72-1.06-1.06A376.29,376.29,0,0,0,173.07,8.78c-15.37-6.36-30.29-5.58-45.48.72C93,23.82,62,43.91,32.86,67,26,72.51,19.11,78.13,13.75,85.22c-8,10.58-4.82,22,7.42,27.14A35.81,35.81,0,0,0,36.81,115q14.46-.67,28.91-1.6c29.73-1.9,59.45-4,89.26-3.83C191,109.77,226.78,112.84,262.66,114.64ZM252.27,47.47c1.25-8.75,2.45-17.23,3.66-25.71.9-6.24-1.08-8.82-7.27-9-7.14-.15-14.29-.09-21.44,0-2.94,0-6.66-.48-7.47,3.28-.9,4.15-1.55,9.36,2.26,12C231.74,34.93,242,41,252.27,47.47Z"/><path class="cls-6" d="M262.66,114.64c-35.88-1.8-71.71-4.87-107.68-5.12-29.81-.21-59.53,1.93-89.26,3.83q-14.44.91-28.91,1.6a35.81,35.81,0,0,1-15.64-2.59C8.93,107.21,5.75,95.8,13.75,85.22,19.11,78.13,26,72.51,32.86,67,62,43.91,93,23.82,127.59,9.5c15.19-6.3,30.11-7.08,45.48-.72A376.29,376.29,0,0,1,284.23,79.86c.37.34.72.7,1.06,1.06,5.46,5.91,10.36,12.21,7.18,20.86s-11,11.48-19.34,12.77C269.72,115.08,266.16,114.64,262.66,114.64Z"/><path class="cls-7" d="M94.75,213.44a15.19,15.19,0,0,0-9.88,4.07c-4.12,3.51-5.08,7.6-2.94,12.53,2.93,6.77,8.54,10.87,14.74,14.31,2.25,1.24,4.55,2.37,8.09,4.2-17.55,2.76-33.17,1.5-47.95-5.61-17.16-8.25-28.75-21.27-32.42-40.35a40.84,40.84,0,0,1,6-31c10-15.34,17.5-31.65,19.48-50.08.26-2.34,1.48-3,3.6-3.15,7.8-.45,15.59-1.17,23.39-1.48,27.92-1.1,55.8-3.91,83.76-3,28.25,1,56.47,2.68,84.71,3.92,4.92.22,7.29,1.66,8,7.16A91.48,91.48,0,0,0,270,167.75c17.82,24.48,6.78,54.57-13.79,69.17-17.24,12.23-36.49,14.79-58.15,11.75,4-2.21,7.13-3.82,10.13-5.6,4.63-2.74,8.77-6,11.49-10.81,4-7.13,2.28-13.57-5.23-16.88a223.94,223.94,0,0,0-21.42-8.13c-4.08-1.32-4.69-3.35-4.18-7.3,2.49-19.11,1.21-37.85-7.82-55.3-5.85-11.31-14.28-19.64-28-20.42-9.78-.56-17.82,3.2-24.44,10.21-.76.8-1.77,1.64-1,3l0,.09c-3.91.73-4.56,4.41-5.92,7.1-8.87,17.56-10.71,36.27-7.86,55.47.54,3.63-.19,5.69-3.14,7.34h0a11.48,11.48,0,0,0-8,3h0a11.47,11.47,0,0,0-8,3ZM224.63,179c5.16,0,10.32.17,15.47,0,7.24-.29,10.92-4.13,11-11.36.11-6.47.13-13,0-19.42-.14-6.23-3.11-10.2-9-10.62a239,239,0,0,0-34.37,0c-6.07.45-8.85,4.25-8.91,10.53s0,12.62,0,18.93c0,8.2,3.51,11.76,11.81,12C215.31,179.05,220,179,224.63,179ZM77.86,137.16v.34c-5.8,0-11.65-.42-17.4.11s-8.47,3.94-8.56,9.65q-.15,10.69,0,21.39c.07,5.81,2.66,9.31,8.37,9.82a209.52,209.52,0,0,0,34.8,0c5.83-.46,8.42-3.85,8.53-9.65.11-6.8.08-13.6,0-20.4-.06-7.5-3.2-10.87-10.81-11.25C87.84,137,82.85,137.16,77.86,137.16Z"/><path class="cls-8" d="M127.58,137.45c1.2.13,1.69-.88,2.38-1.53,14.93-14.09,35.1-12,46.77,5,8.37,12.18,10.9,26.16,11.78,40.54a83.7,83.7,0,0,1-1.58,21.76c-.5,2.48.32,3.57,2.63,4.38,6.58,2.29,13.1,4.77,19.62,7.22,9.06,3.42,11.43,10.68,5.74,18.45-3.66,5-8.29,9-14.34,11l.07.07c-.75-2,1.27-4.93-2.05-6l0,0c.08-.78-.26-1.13-1-1l0,0c-.12-2-1.33-2.36-3-2.06l0,0c-.25-1.2-.93-1.53-2-1l0,0c-2-3.21-5.63-3.41-8.65-3.84-5.42-.77-5.7-3.13-4.06-7.6a68.11,68.11,0,0,0,4-19.39c2.3-11.16,1.8-22.3-.34-33.41-1.79-9.31-4.54-18.24-10.75-25.73-10.19-15.44-30.72-16.42-41.48-2a25,25,0,0,0-5.91,8.51c-10.91,23.09-10,46.7-3,70.57a14.15,14.15,0,0,0,1.94,6.12c-.67,3-3.48,1.92-5.25,2.58-4.68,1.72-9.92,2.16-13.47,6.28l0,0c-.67,0-1,.32-1,1l0,0a.89.89,0,0,0-1,1l.08,0c-2.69,1.25-1.34,3.62-1.52,6.44-7.51-3.89-14-8-16.89-16.06-2-5.56.07-10.13,5.33-12.83,1.39-.71,3.39-.52,4-2.47h0c3.08.09,5.93-.43,8-3h0c3.1.16,5.94-.39,8-3h0c5,.7,5.39-2.1,4.78-6a107.54,107.54,0,0,1,.81-36.58c1.88-9.95,6.37-18.7,11.33-27.31Z"/><path class="cls-9" d="M198.6,238.3c1.38,4.66-1.2,7.12-5,8.93-7.3,3.5-15.2,4.85-23.1,5.7-17.6,1.9-35.16,1.61-52.47-2.63A58.58,58.58,0,0,1,108.7,247c-3.68-1.59-5.81-4.28-4.88-8.59l-.08,0c.87.18,1.13-.24,1-1l0,0c.78.11,1.27-.09,1-1l0,0c.31.05.7.25.94.13,16.45-7.87,34.06-7.88,51.7-7.55a128.93,128.93,0,0,1,34.28,5.32l0,0c.32,1,1.11,1.16,2,1l0,0a3.41,3.41,0,0,0,3,2.06l0,0a.9.9,0,0,0,1,1Z"/><path class="cls-7" d="M252.27,47.47C242,41,231.74,34.93,222,28.09c-3.81-2.67-3.16-7.88-2.26-12,.81-3.76,4.53-3.25,7.47-3.28,7.15-.06,14.3-.12,21.44,0,6.19.13,8.17,2.71,7.27,9C254.72,30.24,253.52,38.72,252.27,47.47Z"/><path class="cls-10" d="M215.06,22.48c.1.44.19.89.28,1.34l-1.22-.1C214.43,23.3,214.75,22.89,215.06,22.48Z"/><path class="cls-8" d="M200.58,244.28a1.23,1.23,0,0,1-.21.37s-.18,0-.28,0l.56-.3Z"/><path class="cls-11" d="M224.63,179c-4.66,0-9.32.09-14,0-8.3-.2-11.78-3.76-11.81-12,0-6.31,0-12.62,0-18.93s2.84-10.08,8.91-10.53a239,239,0,0,1,34.37,0c5.88.42,8.85,4.39,9,10.62.14,6.47.12,13,0,19.42-.12,7.23-3.8,11.07-11,11.36C235,179.12,229.79,179,224.63,179Zm20.13-17c2.41-19.17-.94-19.66-15.28-19.07a3,3,0,0,0-.9.38l-6.58.08c-3.24-1.07-6.6-.63-9.85-.38-4.14.31-6.72,2.73-6.78,7.1-.05,4,.13,7.93.2,11.9-.09,9.45,1.12,10.7,10.43,10.71h18.43C243.9,172.71,245,171.61,244.76,162Z"/><path class="cls-11" d="M77.86,137.16c5,0,10-.2,15,0,7.61.38,10.75,3.75,10.81,11.25.06,6.8.09,13.6,0,20.4-.11,5.8-2.7,9.19-8.53,9.65a209.52,209.52,0,0,1-34.8,0c-5.71-.51-8.3-4-8.37-9.82q-.13-10.69,0-21.39c.09-5.71,2.77-9.12,8.56-9.65s11.6-.11,17.4-.11Zm-3,6.17c-3.22-1-6.54-.54-9.78-.36-4.17.23-6.76,2.79-7,6.94s-.6,8.19.33,12.25c.29,9.86,1,10.56,11.13,10.56H87c9.74,0,10.83-1.11,10.81-10.84.08-3.92.28-7.85.21-11.77-.07-4.28-2.58-6.76-6.69-7.1-3.21-.27-6.53-.64-9.75.32Z"/><path class="cls-5" d="M127.62,137.54c-5,8.61-9.45,17.36-11.33,27.31a107.54,107.54,0,0,0-.81,36.58c.61,3.92.25,6.72-4.78,6,3-1.65,3.68-3.71,3.14-7.34-2.85-19.2-1-37.91,7.86-55.47C123.06,142,123.71,138.27,127.62,137.54Z"/><path class="cls-5" d="M102.73,210.44c-2.07,2.58-4.92,3.1-8,3A11.47,11.47,0,0,1,102.73,210.44Z"/><path class="cls-5" d="M110.72,207.44c-2.06,2.61-4.9,3.16-8,3A11.44,11.44,0,0,1,110.72,207.44Z"/><path class="cls-5" d="M192.65,234.31A128.93,128.93,0,0,0,158.37,229c-17.64-.33-35.25-.32-51.7,7.55-.24.12-.63-.08-.94-.13,3.55-4.12,8.79-4.56,13.47-6.28,1.77-.66,4.58.38,5.25-2.58l.87-.72c.75,2.32,2.64,1.58,4.14,1.36a143.56,143.56,0,0,1,44,.08c2.74.43,3.68-.64,4.45-3.15a181.45,181.45,0,0,0,4.9-21.7l1.18.06a68.11,68.11,0,0,1-4,19.39c-1.64,4.47-1.36,6.83,4.06,7.6C187,230.9,190.65,231.1,192.65,234.31Z"/><path class="cls-12" d="M122.51,221.43c-7.06-23.87-7.92-47.48,3-70.57a25,25,0,0,1,5.91-8.51l1,1c-6.49,8.26-10,17.73-11.86,28-3,17-1,33.57,3,50.08Z"/><path class="cls-12" d="M184,203.48l-1.18-.06c.14-1.64.29-3.28.41-4.92,1.38-18.81-.39-37-11.31-53.17l1-1c6.21,7.49,9,16.42,10.75,25.73C185.78,181.18,186.28,192.32,184,203.48Z"/><path class="cls-12" d="M131.41,142.35c10.76-14.43,31.29-13.45,41.48,2l-1,1c-13.46-14.43-25.59-15.05-39.46-2Z"/><path class="cls-5" d="M122.51,221.43l1-.06q.87,2.73,1.76,5.46l-.87.72A14.15,14.15,0,0,1,122.51,221.43Z"/><path class="cls-5" d="M197.63,237.35a3.41,3.41,0,0,1-3-2.06C196.3,235,197.51,235.37,197.63,237.35Z"/><path class="cls-5" d="M194.65,235.31c-.92.14-1.71,0-2-1C193.72,233.78,194.4,234.11,194.65,235.31Z"/><path class="cls-5" d="M105.77,236.37c.23.93-.26,1.13-1,1C104.73,236.69,105.1,236.38,105.77,236.37Z"/><path class="cls-5" d="M104.76,237.36c.11.79-.15,1.21-1,1A.89.89,0,0,1,104.76,237.36Z"/><path class="cls-5" d="M198.63,238.35a.9.9,0,0,1-1-1C198.37,237.22,198.71,237.57,198.63,238.35Z"/><path class="cls-13" d="M222,143.39l6.58-.07C231.17,152,234.5,160,244.76,162c.2,9.61-.86,10.71-10.33,10.72H216c-9.31,0-10.52-1.26-10.43-10.71C216.51,160.6,219.63,152.33,222,143.39Z"/><path class="cls-14" d="M244.76,162c-10.26-2-13.59-10-16.18-18.68a2.83,2.83,0,0,1,.9-.39C243.82,142.34,247.17,142.83,244.76,162Z"/><path class="cls-15" d="M222,143.39c-2.37,8.94-5.49,17.21-16.43,18.62-.07-4-.25-7.93-.2-11.9.06-4.37,2.64-6.79,6.78-7.1C215.4,142.76,218.76,142.32,222,143.39Z"/><path class="cls-13" d="M97.79,161.88c0,9.73-1.07,10.84-10.81,10.84H69.56c-10.1,0-10.84-.7-11.13-10.56,10.76-1.69,14.22-9.72,16.43-18.83h6.7C84.06,152.05,87.35,160.08,97.79,161.88Z"/><path class="cls-14" d="M74.86,143.33c-2.21,9.11-5.67,17.14-16.43,18.83-.93-4.06-.54-8.19-.33-12.25s2.81-6.71,7-6.94C68.32,142.79,71.64,142.33,74.86,143.33Z"/><path class="cls-15" d="M97.79,161.88c-10.44-1.8-13.73-9.83-16.23-18.55,3.22-1,6.54-.59,9.75-.32,4.11.34,6.62,2.82,6.69,7.1C98.07,154,97.87,158,97.79,161.88Z"/><path class="cls-16" d="M125.32,226.83q-.88-2.73-1.76-5.46c-4-16.51-6-33.13-3-50.08,1.82-10.25,5.37-19.72,11.86-28,13.87-13,26-12.41,39.46,2,10.92,16.21,12.69,34.36,11.31,53.17-.12,1.64-.27,3.28-.41,4.92a181.45,181.45,0,0,1-4.9,21.7c-.77,2.51-1.71,3.58-4.45,3.15a143.56,143.56,0,0,0-44-.08C128,228.41,126.07,229.15,125.32,226.83Zm54.24-33.21c-.6-2.3-1.66-4.29-4.53-4.29-3,0-4.62,1.74-4.57,4.68,0,2.69,1.52,4.4,4.31,4.45C177.85,198.53,179.09,196.51,179.56,193.62Z"/><path class="cls-5" d="M179.56,193.62c-.47,2.89-1.71,4.91-4.79,4.84-2.79-.05-4.27-1.76-4.31-4.45-.05-2.94,1.53-4.68,4.57-4.68C177.9,189.33,179,191.32,179.56,193.62Z"/></g></g></svg>