<svg xmlns="http://www.w3.org/2000/svg" viewBox="0 0 1374.92 350.94"><defs><style>.cls-1{fill:#959396;}.cls-2{fill:#e72a29;}.cls-3{fill:#e52524;}.cls-4{fill:#949296;}.cls-5{fill:#e62625;}.cls-6{fill:#959397;}.cls-7{fill:#969498;}.cls-8{fill:#979599;}.cls-9{fill:#e32221;}.cls-10{fill:#9f9da0;}.cls-11{fill:#ea3231;}.cls-12{fill:none;}</style></defs><title>Recurso 3</title><g id="Capa_2" data-name="Capa 2"><g id="Capa_1-2" data-name="Capa 1"><path class="cls-1" d="M1374.92,220.63c-9.58,6.08-14.77,2.23-18.78-7.27-7.26-17.22-15.48-34-25.85-49.68-17.33-26.15-26.31-26-43.84.57-10.33,15.66-18.24,32.61-26,49.61-2.55,5.58-4.89,12.43-12.83,9-7.06-3.09-6.33-10.06-3.89-15.79,10.82-25.38,23.36-49.91,42.19-70.43,15.47-16.86,29.48-16.91,45.08-.17,15.91,17.06,26.77,37.52,37,58.27,2.13,4.31,2.38,9.69,6.9,12.71Z"/><path class="cls-2" d="M397.74,187.22c0-5.5-.07-11,0-16.5.1-6-.82-13.73,7.53-14,8.56-.32,8,7.27,8,13.38,0,9.9.49,19.83-.16,29.69-.58,8.84,3.29,11.56,11.5,11.67,11.65.17,23.13.12,34.22-4.14,12.81-4.92,22-13.36,23.29-27.32,1.32-14.4-7.67-23.72-19.46-29.94-19.35-10.22-40.21-10.45-61.3-7.38-3.26.47-6.43,1.56-9.68,2.16-4.52.85-9.18,1.28-10.68-4.52-1.21-4.64,2.26-6.88,5.66-8.92,24.69-14.78,89.36-1.58,105.94,21.63,14.85,20.8,8.68,49.27-14.62,62.58-21.49,12.27-44.85,14-68.93,8.94-8.07-1.69-10.77-7.14-11.14-14.2-.41-7.68-.1-15.4-.1-23.1Z"/><path class="cls-3" d="M637.92,214c.56,6.35-1.48,10.12-6.11,11.85-6.47,2.44-9.06-2.44-11-7-8.19-19.28-17.31-38.06-29.16-55.38-15.64-22.86-24-22.78-39.92.14-11.68,16.8-20.6,35.06-28.64,53.8-2.13,4.95-4.28,11.17-11.7,8.32-7.63-2.93-6.91-9.56-4.52-15.35,11-26.57,24.08-52,44.17-73,13.77-14.41,26.09-14.78,40.09-.83C613.43,158.67,626.55,186.57,637.92,214Z"/><path class="cls-4" d="M1103,124.38c8.46-.32,14.71,4.19,20.16,9.78,20.7,21.24,33.94,47.06,45,74.16,2.21,5.44,2.53,11.42-3.67,14.33-8,3.73-10.52-2.79-13.09-8.38-9.18-19.94-18.07-40.09-31.53-57.66-12.83-16.75-20.44-16.53-33.15.06-13.49,17.6-22.55,37.6-31.74,57.55-2.59,5.61-5.16,12.07-13.07,8.5-6.16-2.77-6.18-8.63-3.89-14.21,11.12-27,24.52-52.78,44.86-74.28C1088.24,128.54,1094.59,124.22,1103,124.38Z"/><path class="cls-5" d="M689.78,226.93c-8-1-13.91-5-18.79-10.41-19.41-21.67-31.29-47.61-41.71-74.28-2.31-5.89-2.65-12.74,5.26-14.86,7.67-2.06,8.8,5.25,10.63,10,6.81,17.42,14.56,34.39,24.37,50.31,15.72,25.5,23,25.61,39,.93,9.91-15.25,17-31.93,24.08-48.62,2.28-5.39,2.75-15.29,12.15-12.27,9.56,3.07,6.44,11.16,3.68,18-9.5,23.5-20.5,46.19-36.39,66.19C706.16,219.28,699.33,225.56,689.78,226.93Z"/><path class="cls-6" d="M1209,124.49c12.12,0,24.24-.18,36.36.1,4.48.11,9.44,1.47,8.77,7.33-.49,4.37-4.71,5.14-8.7,6-9,2-21.67-5.72-26.53,5.62-3.4,7.93-1,18.38-1,27.71-.11,13.73.14,27.48-.34,41.2-.2,5.46-1.41,11.7-9.11,11.17-7.05-.48-8.61-5.93-8.64-11.85-.08-19.23-.91-38.51.23-57.67.79-13.4-3.86-17.45-16.79-16.47-6.83.52-18.89,3.92-19.2-6.27-.33-10.95,11.72-6.25,18.53-6.88,8.74-.8,17.62-.19,26.43-.19Z"/><path class="cls-7" d="M838.86,138.09c-7.1,1.22-19,3.18-30.89,5.38-4.81.89-9.33.61-10.94-4.51-1.73-5.49,2.66-8.28,7-9.37,33.55-8.54,66.82-9.28,97.6,8.87,18,10.62,16.38,27.31-2.52,36.43-13.68,6.6-28.61,7.67-43.5,7.8-4.09,0-9.77-.36-10.29-6.08-.6-6.61,5.31-5.68,9.39-6.25,9.27-1.27,18.67-1.83,27.81-3.68,5.19-1.05,11.12-3,11.86-9.77.79-7.22-5.22-9.24-10.16-11.19C871.27,140.62,857.74,138.31,838.86,138.09Z"/><path class="cls-8" d="M930.83,158.46c0-7.7-.12-15.39,0-23.09.11-5.47,2.36-9.88,8.31-10.53,7.28-.8,10,4.62,10.35,10.26.72,10.4.4,20.87.41,31.31,0,32.13,14.39,45.51,46.89,43.6,1.65-.1,3.27-.56,4.92-.62,7.61-.29,19.28-6.09,20.14,6,.68,9.58-11.14,7.77-18.48,8.62-1.64.19-3.3.12-5,.15C947,225,930.62,209.19,930.83,158.46Z"/><path class="cls-9" d="M785,176.63c0,12.67-.05,25.33,0,38,0,6-1.34,11.73-8.44,11.68-5.74-.05-8.26-4.63-8.25-10.36,0-26.43,0-52.86.1-79.29,0-4.92,2.21-8.79,7.56-9.12,6.37-.4,8.8,3.88,8.88,9.45.18,13.21.06,26.43.06,39.64Z"/><path class="cls-10" d="M837.32,190.61c0,7.64.19,15.28-.09,22.91-.22,6.09-2.69,10.72-9.85,10.38-6-.28-8.78-4.15-8.84-9.71q-.28-24.56-.06-49.11c.06-6.18,2.88-10.73,9.85-10.44s8.84,5.51,9,11.41C837.46,174.23,837.33,182.42,837.32,190.61Z"/><path class="cls-11" d="M252.57,143.71C238.08,156,195,151.43,186.2,138.2c-3.29-4.95-3.06-10.12-1.77-15.79C188,106.93,196.9,94.44,206,82c1.87-2.57,4.17-6.22,7.84-4,4.29,2.53,2.7,6.63.68,10.11C209,97.56,202.8,106.72,198,116.55c-6.76,13.67-2.5,20.76,12.73,22.25C224.16,140.12,238.19,136.62,252.57,143.71Z"/><path class="cls-11" d="M172.74,85.92l9.38-.06q-1.4,5-2.78,10-1.49,2.7-3,5.4c-9.31,24.08-17.83,48.57-35.43,68.44C145.85,139.5,159.85,112.92,172.74,85.92Z"/><path class="cls-9" d="M176.35,101.23q1.5-2.7,3-5.4Q177.86,98.53,176.35,101.23Z"/><path class="cls-12" d="M116.45,312.59c-.86-8.82-7.57-8.26-14.32-8.83-9.58-.81-14.46,2.54-16.08.3-1.07-1.49.06-4,.45-4.85,2.76-6.11,11.15-6.75,10.93-8.62-.15-1.24-4-2.2-7.46-1.89a14.11,14.11,0,0,0-3.7.9l.67,1.18a3.35,3.35,0,0,1-1.25,4.54,3.39,3.39,0,0,1-1.65.43,3.32,3.32,0,0,1-2.89-1.68l-.5-.88a20.45,20.45,0,0,0-4.48,6.23c-1,2.27-2.61,5.78-1.07,8.48,1.77,3.11,6.72,3.38,11.26,3.63,7.09.39,9.56-1.45,14.65.29,1.73.6,5.17,1.78,5.36,3.69.44,4.62-18.48,8.48-18.08,10.29.22,1,6.89,1.88,13.9-.46l-.7-1.24a3.33,3.33,0,0,1,5.79-3.29l.92,1.62a21.65,21.65,0,0,0,2.64-2A23,23,0,0,0,116.45,312.59Z"/><path class="cls-9" d="M331.85,0H315.28c-1.41,6-4.84,11-2.6,18.35,5.88,19.33-3.63,28.18-23,22.77-58.76-16.39-93.19-3.2-116.9,44.8l9.38-.06C201.7,48.49,247.36,46.55,281,55.48c22.89,6.08,29.31,17.1,25.78,40.41-3.34,22-13.17,41.9-22.4,61.77-18.59,40-40,78.45-69.93,111.36-16,17.56-30.82,19.82-52,9.32a127.67,127.67,0,0,1-18.25-11.25c-10.7-7.81-20.41-19.68-33-1.71-2.56,3.66-9.83,4.45-15.14,5.72-25,6-46.65-3.4-67.5-15.41-9.21-5.31-17.86-11.58-28.57-18.6,4.84,41.48,21.21,75,46.56,104.42,5.26,6.1,12.27,8.87,20.48,9.23,37.21,1.65,71.26-6.76,100-31.43,12.8-11,24-23.59,42-27.17,6.22-1.23,12-7.75,16.71-12.94,46.51-50.81,79.38-109.21,97.52-175.71,3.56-13,4.17-25.93-1.43-38.72-6.16-14.07-2.74-28.7,5.7-39C335.21,16.54,336.21,9.58,331.85,0ZM110.55,326.56a3.35,3.35,0,0,1-1.25,4.54,3.32,3.32,0,0,1-4.54-1.25l-2.57-4.51c-7,2.34-13.68,1.5-13.9.46-.4-1.81,18.52-5.67,18.08-10.29-.19-1.91-3.63-3.09-5.36-3.69-5.09-1.74-7.56.1-14.65-.29-4.54-.25-9.49-.52-11.26-3.63-1.54-2.7.05-6.21,1.07-8.48a20.45,20.45,0,0,1,4.48-6.23l-2.77-4.87A3.33,3.33,0,0,1,83.67,285l2.6,4.57a14.11,14.11,0,0,1,3.7-.9c3.47-.31,7.31.65,7.46,1.89.22,1.87-8.17,2.51-10.93,8.62-.39.86-1.52,3.36-.45,4.85,1.62,2.24,6.5-1.11,16.08-.3,6.75.57,13.46,0,14.32,8.83a23,23,0,0,1-5.61,7.83,21.65,21.65,0,0,1-2.64,2Z"/></g></g></svg>