<?xml version="1.0" encoding="utf-8"?>
<!-- Generator: Adobe Illustrator 24.0.2, SVG Export Plug-In . SVG Version: 6.00 Build 0)  -->
<svg version="1.1" id="Capa_1" xmlns="http://www.w3.org/2000/svg" xmlns:xlink="http://www.w3.org/1999/xlink" x="0px" y="0px"
	 viewBox="0 0 304.1 67.5" style="enable-background:new 0 0 304.1 67.5;" xml:space="preserve">
<style type="text/css">
	.st0{fill:#FFFFFF;}
</style>
<title>resRecurso 1res</title>
<path class="st0" d="M123.2,0.3h10.6L154.6,35c2.7-2,3.7-5.4,5.4-8.1c5.4-8.8,10.7-17.6,16.1-26.5h10.5c0.7,3.9,1,53.1,0.3,66.7
	h-10.4l-1.4-2.7V29.6l-2.2-1.7l-13.3,22.3h-9.3c-1.5-2.5-2.9-5.3-4.7-7.8c-1.7-2.3-2.4-5.2-4.7-7.2s-2-5.8-5.7-7.7v38.8l-12,1.2
	L123.2,0.3z"/>
<path class="st0" d="M231.6,41.1c1.4,5.2,4.7,8.7,6.8,12.8s5.1,7.4,7,11.6c-4.2,2.9-8.6,1.2-12.8,1.8l-14.7-24h-11.8v23.8h-10.8
	l-2.3-3.3c-0.2-0.5-0.2-1.2,0.1-1.7c1.2-1.8,0.9-3.7,0.9-5.6c0-17.5,0-35,0-52.5V1.3c0.8-0.5,1.7-0.9,2.6-1.1
	c10.8-0.1,21.7-0.2,32.5,0c3.3,0.2,6.4,1.5,8.9,3.6c4,3,6.9,7.2,8.4,12c0.7,2.5,0.2,4.8,0.6,7.2c0.2,1.2-0.5,2.7,1,3.6
	c-2.6,3.2-4.9,6.5-7,10C237.8,37.8,236.2,42,231.6,41.1z M235,18.2c-1.5-1.6-3-3.5-4.7-5.2c-1.9-1.6-4.3-2.6-6.8-2.7
	c-5.4-0.4-10.9-0.1-16-0.1l-1.5,1.5c0,6.7,0,13.6,0,20.5c6.1,0,11.8,0.2,17.4-0.1c4.5-0.1,8.5-2.6,10.6-6.5
	C235.2,23.5,235,21.3,235,18.2z"/>
<path class="st0" d="M266.2,55.2h36.6c2.4,3,0.6,6.5,1.2,9.4c-1.6,1.7-3.8,2.7-6.2,2.6c-14.1-0.1-28.3,0-42.4,0l-1.5-1.5v-65
	c4.1-0.8,34.2-1,48.9-0.4c2.3,2.8,0.5,6.3,1.2,9.3l-1.6,1.6h-36.4c-0.2,2.6-0.3,5.2-0.1,7.8c0,2.6,0,5.3,0,8.1h31.8v11h-30.2
	l-1.4,1.4L266.2,55.2z"/>
<path class="st0" d="M114.9,0.4v10.7H78c0,3.1-0.2,6,0,9c0.2,2.7-1,5.6,1.2,8.1h31.9c-1.5,1.7-1.1,3.4-1.1,5.1c0,1.7,0.3,3,0.5,4.9
	h-10c-6.3,0-12.7,0-19,0c-1.4,0-2.6,0.1-3.4,1.5v15.4h36.7v10.6c-2.6,1.8-5.8,1.5-9,1.5H68.5l-2.4-2.4V1.6l1.2-1.2H114.9z"/>
<path class="st0" d="M12,0.2v40.9H0.2V0.2H12z"/>
<path class="st0" d="M58.2,25.8C56.5,17.4,51.5,10,44.3,5.3C39.2,1.9,33.2,0.1,27,0.2c-2.4,0.1-4.9,0-7.4,0v10c1.7,0,3.5,0,5.2,0
	c0.4,0,0.8,0.6,1.3,1c4-0.4,7.3,1.7,10.6,3.2c5,2.3,9,8.8,9.4,14.5c0.2,0.9,0.5,1.8,0.8,2.7c0.2,1,0.6,2.3,0.1,2.8
	c-1.1,1.3-0.7,2.8-1,4.1c-0.3,1.7-0.9,3.3-1.7,4.8c-1.8,3.1-4.2,5.8-7,8c-2.5,2.1-5.6,3.4-8.9,3.7c-5.4,0.5-10.9,0.1-16.5,0.1v-6.8
	H1.5c-0.5,0.5-1,0.9-1.5,1.3v16l1.4,1.4c0.2,0,0.3,0.1,0.5,0.1c7.7,0,15.3,0.1,23,0c3.2-0.1,6.4-0.6,9.6-1c0.6-1.7,2.4-0.6,3.4-1.3
	c4.5-3.2,9.4-5.8,13.2-10.2c4.2-4.8,6.9-10.9,7.7-17.3C59.3,33.5,59.1,29.6,58.2,25.8z"/>
</svg>
