<svg xmlns="http://www.w3.org/2000/svg" viewBox="0 0 1395.77 885.54"><defs><style>.cls-1{fill:#fff;}</style></defs><title>Recurso 51sdfd</title><g id="Capa_2" data-name="Capa 2"><g id="drawables"><g id="F"><path class="cls-1" d="M1361.81,885.54H34a34,34,0,0,1-34-34V34A34,34,0,0,1,34,0H1361.81a34,34,0,0,1,34,34V851.57A34,34,0,0,1,1361.81,885.54ZM37.36,878.74H1358.41A30.57,30.57,0,0,0,1389,848.18V37.36a30.57,30.57,0,0,0-30.57-30.57H37.36A30.57,30.57,0,0,0,6.79,37.36V848.18A30.57,30.57,0,0,0,37.36,878.74Z"/><rect class="cls-1" x="106.78" y="78.44" width="643.62" height="20"/><rect class="cls-1" x="154.75" y="135.13" width="547.68" height="20"/><rect class="cls-1" x="191.82" y="220.17" width="331.81" height="20"/><rect class="cls-1" x="135.13" y="305.21" width="331.81" height="20"/><rect class="cls-1" x="83.44" y="253.52" width="95.04" height="10"/><rect class="cls-1" x="135.13" y="418.59" width="331.81" height="20"/><rect class="cls-1" x="83.44" y="366.9" width="95.04" height="10"/><rect class="cls-1" x="83.44" y="480.29" width="95.04" height="10"/><polygon class="cls-1" points="714.55 771.26 712.05 771.25 142.62 768.52 142.64 763.52 145.14 763.54 714.57 766.26 714.55 771.26"/><rect class="cls-1" x="366.9" y="792.1" width="123.39" height="10"/><rect class="cls-1" x="159.78" y="676.71" width="140.77" height="14" transform="translate(-484.3 583.81) rotate(-63.43)"/><rect class="cls-1" x="234" y="705.06" width="77.38" height="14" transform="translate(-486.15 637.5) rotate(-63.43)"/><rect class="cls-1" x="205.65" y="705.06" width="77.38" height="14" transform="translate(-501.81 612.15) rotate(-63.43)"/><rect class="cls-1" x="262.34" y="705.06" width="77.38" height="14" transform="translate(-470.48 662.86) rotate(-63.43)"/><rect class="cls-1" x="290.69" y="705.06" width="77.38" height="14" transform="translate(-454.81 688.21) rotate(-63.43)"/><rect class="cls-1" x="319.04" y="705.06" width="77.38" height="14" transform="translate(-439.14 713.57) rotate(-63.43)"/><rect class="cls-1" x="386.56" y="676.71" width="140.77" height="14" transform="translate(-358.94 786.63) rotate(-63.43)"/><rect class="cls-1" x="460.77" y="705.06" width="77.38" height="14" transform="translate(-360.79 840.33) rotate(-63.43)"/><rect class="cls-1" x="432.42" y="705.06" width="77.38" height="14" transform="translate(-376.46 814.98) rotate(-63.43)"/><rect class="cls-1" x="489.11" y="705.06" width="77.38" height="14" transform="translate(-345.12 865.69) rotate(-63.43)"/><rect class="cls-1" x="517.46" y="705.06" width="77.38" height="14" transform="translate(-329.45 891.04) rotate(-63.43)"/><rect class="cls-1" x="545.81" y="705.06" width="77.38" height="14" transform="translate(-313.79 916.39) rotate(-63.43)"/><rect class="cls-1" x="574.15" y="705.06" width="77.38" height="14" transform="translate(-298.12 941.75) rotate(-63.43)"/><rect class="cls-1" x="602.5" y="705.06" width="77.38" height="14" transform="translate(-282.45 967.1) rotate(-63.43)"/><path class="cls-1" d="M1335.68,800.39H825.44a3.89,3.89,0,0,1-.57-7.74c52.87-8,99.06-24,133.56-46.47,35.15-22.87,56.45-51.41,61.6-82.54a101.1,101.1,0,0,0,0-31.83,3.88,3.88,0,0,1,5.36-4.17l55.17,23.5,55.17-23.5a3.9,3.9,0,0,1,5.36,4.23,94.65,94.65,0,0,0,0,31.77c5.15,31.13,26.45,59.67,61.6,82.54,34.5,22.44,80.69,38.51,133.57,46.47a3.89,3.89,0,0,1-.58,7.74Zm-470.09-7.78h429.95c-37.55-9.14-70.62-22.69-97.09-39.91-37-24.09-59.51-54.45-65-87.79a102.92,102.92,0,0,1-.93-27.43l-50.4,21.46a3.85,3.85,0,0,1-3,0l-50.48-21.5a106.79,106.79,0,0,1-.85,27.47c-5.52,33.34-28,63.7-65,87.79C936.2,769.92,903.13,783.47,865.59,792.61Z"/><path class="cls-1" d="M1080.56,598.63c-38.59,0-75-15.53-102.62-43.74a149,149,0,0,1-42.75-104.81V334.16c-.74-65.22,33.47-123.41,87.15-148.21h0c9.72-4.49,61-25.59,116.44,0,53.69,24.8,87.9,83,87.16,148.25V450.08a149.09,149.09,0,0,1-42.75,104.81C1155.6,583.1,1119.15,598.63,1080.56,598.63ZM1025.4,192.56c-51.09,23.6-83.64,79.16-82.93,141.56v116c0,77.9,61.95,141.27,138.09,141.27S1218.65,528,1218.65,450.08V334.16c.71-62.44-31.84-118-82.92-141.6-53.62-24.76-104.69-2.6-110.33,0Z"/></g></g></g></svg>