<svg xmlns="http://www.w3.org/2000/svg" viewBox="0 0 935.29 843.3"><defs><style>.cls-1{fill:#21725f;}.cls-2{fill:#2c816f;}.cls-3{fill:#eaf3fe;}.cls-4{fill:#ff9d62;}.cls-5{fill:#b4b496;}.cls-6{fill:#0b1a56;}.cls-7{fill:#0a0905;}.cls-8{fill:#606060;}.cls-9{fill:#d1d4d9;}.cls-10{fill:#7b7579;}.cls-11{fill:#5b5751;}.cls-12{fill:#8c8780;}.cls-13{fill:#716c62;}.cls-14{fill:#616370;}.cls-15{fill:#4c4d5a;}.cls-16{fill:#a5a59d;}.cls-17{fill:#b5b5a9;}.cls-18{fill:#051a92;}.cls-19{fill:#b7f0ea;}.cls-20{fill:#01248c;}.cls-21{fill:#fff;}.cls-22{fill:#05236d;}.cls-23{fill:#ccc8c2;}.cls-24{fill:#1543b7;}.cls-25{fill:#fffef2;}.cls-26{fill:#2b3990;}.cls-27{fill:#04116b;}.cls-28{fill:#45403f;}.cls-29{fill:#e7edfd;}.cls-30{fill:#002793;}.cls-31{fill:#ced7ea;}.cls-32{fill:#ffc27a;}.cls-33{fill:#00259a;}.cls-34{fill:#fffdfd;}.cls-35{fill:#27aae1;}.cls-36,.cls-38{fill:#111;}.cls-36{stroke:#111;stroke-miterlimit:10;stroke-width:16px;}.cls-36,.cls-37{opacity:0.8;}</style></defs><title>Recurso 2s</title><g id="Capa_2" data-name="Capa 2"><g id="Layer_1" data-name="Layer 1"><path class="cls-1" d="M688.82,418.83,822.74,695.08h16.82s-75.49-357.92-82.79-363.33-82.36,39-82.36,39Z"/><path class="cls-2" d="M651.29,359.53s-59.15,93.53-67,153.58,0,171.76,0,171.76H606s31.83-188,82.27-224,71.14-82.53,68.3-119.64S651.29,359.53,651.29,359.53Z"/><path class="cls-3" d="M584.33,684.87s-25.82-8.41-28.53-6.31,17.12,23.72,45,27.32,5.11-21,5.11-21Z"/><path class="cls-3" d="M822.74,695.08s-43.54,16.21-35.13,17.71,57.35,6,56.15,0-4.2-17.71-4.2-17.71Z"/><path class="cls-4" d="M638.83,194.45s-11.26,25.6-20.87,25.3-33.33-54.65-33.33-54.65,1-9.9-1.35-10.36-4.66,8-4.06,9.76l-15.16-14.26s-.9,14,10.51,19.67c0,0,11,43.69,17.72,58.55s24.47,38.13,39.18,32.88,41.44-31.08,45-43.09,1.35-17.56-1.65-20.27-22.37-6-23-6S638.83,194.45,638.83,194.45Z"/><path class="cls-5" d="M709.24,97.39s32.13,15.32,48.34,45,18.92,57.2,18.92,57.2-14.86,22.61-49.09,13.11L755.33,237l4.5,102.24s-58.55,37.38-108.54,20.27c0,0,13.51-105.4,11.71-123s-1.8-23.83-1.8-23.83-20-8.15-22.37-18.29c0,0,12.91-35.8,21.24-51.79s15.39-25,15.39-25l17-10.36Z"/><path class="cls-3" d="M812,330.69a18,18,0,0,1-12.87,22l-103.42,27a18,18,0,0,1-22-12.88L658.1,307A18,18,0,0,1,671,285L774.4,258a18,18,0,0,1,22,12.88Z"/><path class="cls-4" d="M727.41,212.74S764,354.52,760.12,362.88l-15.37,4s-.08,10.49,9.23,9.44,18.46-8.11,19.07-14.26,3.45-162.45,3.45-162.45Z"/><path class="cls-4" d="M690.17,75.62s6.46,18.77,19.07,21.77c0,0-18.32,22.07-33.78,20.27,0,0,1-9.91-3.3-17.56s6.15-15.77,6.15-15.77l-3.3-6,5.55-8.76Z"/><path class="cls-4" d="M638.83,56.41c.45,1.5.3,32,7,31.68s8-1.81,8-1.81,7.21,20.42,17.72,18.77,21-13.87,22.52-24.28,1.65-39.83,1.5-40.43S679.82,34,679.36,34s-14.41-.31-15.31.9-4.65,2.55-5.86,4.2S638.83,56.41,638.83,56.41Z"/><path class="cls-6" d="M632.37,55.35s4.81,12.77,17.42,8.56,17.44-2.7,17.44-2.7,1-8.71,6.28-8.25,2,14.71,2,14.71,3.6,9.16,9.91,11.26S711,65.26,712.54,50s-6.15-35.73-26.72-40.38-42.64,21.17-63.21,14.26-40.53,15.31-21,23.72S628.43,49.54,632.37,55.35Z"/><path class="cls-6" d="M653.84,86.28S667.5,90.19,670,84.89s-5.18-18.69-7.21-22.63a10.5,10.5,0,0,1-.62-7.77L666,55.62s7,16.21,11.14,22.86,9.46,18.35,6.09,24.21-9.35,8.55-16.55,5.63S654.74,97.54,653.84,86.28Z"/><path class="cls-7" d="M579.87,163.71a.91.91,0,0,1-1.37.08l-24.3-24.06a1.13,1.13,0,0,1-.06-1.5l12-14.21a1,1,0,0,1,1.4-.07l24.38,23.52A1.14,1.14,0,0,1,592,149Z"/><path class="cls-5" d="M703.28,331.45a5.86,5.86,0,0,1-5.86,5.86h0a5.86,5.86,0,0,1-5.86-5.86h0a5.85,5.85,0,0,1,5.86-5.85h0a5.85,5.85,0,0,1,5.86,5.85Z"/><polygon class="cls-8" points="862.25 740.02 914 682.1 737.75 682.1 813.74 723.47 862.25 740.02"/><polygon class="cls-9" points="855.79 614.25 904.29 581.14 904.29 687.07 857.4 732.99 833.15 667.2 855.79 614.25"/><rect class="cls-10" x="425.66" y="614.25" width="436.59" height="125.77"/><rect class="cls-5" x="828.29" y="614.25" width="11.32" height="125.77"/><rect class="cls-5" x="792.18" y="614.25" width="11.32" height="125.77"/><rect class="cls-5" x="483.41" y="614.25" width="11.32" height="125.77"/><rect class="cls-5" x="453.36" y="614.25" width="11.31" height="125.77"/><polygon class="cls-8" points="862.25 614.25 914.18 579.53 821.18 579.53 744.06 614.82 862.25 614.25"/><polygon class="cls-11" points="803.6 610.66 844.03 578.32 747.01 583.17 747.01 591.26 803.6 610.66"/><polyline class="cls-9" points="834.33 487.66 834.33 579.93 792.28 610.66 787.43 515.14 793.9 492.5 834.33 487.66"/><path class="cls-11" d="M803.6,515.14l34-30.72H396.12l-43.67,30.72,59.83,81S525.48,601,535.18,601,803.6,515.14,803.6,515.14Z"/><rect class="cls-12" x="352.45" y="515.14" width="451.14" height="100.37"/><rect class="cls-13" x="768.03" y="515.14" width="19.4" height="100.37"/><rect class="cls-13" x="676.15" y="515.14" width="64.96" height="100.37"/><rect class="cls-13" x="642.54" y="515.14" width="20.15" height="100.37"/><polygon class="cls-14" points="862.25 505.25 914 472.47 737.75 472.47 813.74 495.89 862.25 505.25"/><polygon class="cls-9" points="855.79 434.07 904.29 415.33 904.29 475.28 857.4 501.27 833.15 464.04 855.79 434.07"/><rect class="cls-15" x="425.66" y="434.07" width="436.59" height="71.19"/><rect class="cls-5" x="828.29" y="434.07" width="11.32" height="71.19"/><rect class="cls-5" x="792.18" y="434.07" width="11.32" height="71.19"/><rect class="cls-5" x="483.41" y="434.07" width="11.32" height="71.19"/><rect class="cls-5" x="453.36" y="434.07" width="11.31" height="71.19"/><polygon class="cls-14" points="862.25 434.07 914.18 414.41 821.18 414.41 744.06 434.39 862.25 434.07"/><polygon class="cls-16" points="803.6 432.03 844.03 413.73 747.01 416.47 747.01 421.05 803.6 432.03"/><polyline class="cls-9" points="834.33 362.41 834.33 414.64 792.28 432.03 787.43 377.97 793.9 365.16 834.33 362.41"/><path class="cls-16" d="M803.6,378l34-17.39H396.12L352.45,378l59.83,45.83s113.2,2.74,122.9,2.74S803.6,378,803.6,378Z"/><rect class="cls-17" x="352.45" y="377.97" width="451.14" height="56.81"/><rect class="cls-13" x="683.56" y="377.97" width="6.76" height="56.81"/><rect class="cls-13" x="651.55" y="377.97" width="22.64" height="56.81"/><rect class="cls-13" x="639.83" y="377.97" width="7.02" height="56.81"/><path class="cls-18" d="M288.05,455.79s-14.42,15.12-3,44.31,23,28.75,16.13,46.07S291,605.74,320.78,612.28s51.46-31.24,54.44-39.86,9.52-35.11,6.84-44-28-41.35-32.13-44.62-31.08-16.66-33.24-17.55S288.05,455.79,288.05,455.79Z"/><path class="cls-4" d="M285.3,459.66l-1.12,46.75c2.23,1.7,8.6.55,8.6.55s-1.12,8.82,4.57,11.83,16.51-3,16.51-3S338.18,532.29,340.3,541s19-8.81,21.76-13.39,6.58-22,6.24-22.2S326.91,489,326.91,489l-30.45-20.19Z"/><path class="cls-19" d="M43,824s-4.48,5.07-9.33-2.72S8.93,765.88,9,764.53s4.08-6.07,10.71-2.72S43,824,43,824Z"/><path class="cls-4" d="M70.62,810.3l-17.49,5.24s-7.52-14-6.65-14.34,22.2-9.49,22.2-9.49Z"/><path class="cls-20" d="M56.65,812.7S51.09,821.81,43,824s-32.86-61.41-32.86-61.41,7.65-6.18,13.5-3.88,17.4,20.68,21.53,31A218.43,218.43,0,0,0,56.65,812.7Z"/><path class="cls-21" d="M44.85,790.2a18.13,18.13,0,0,0-3.19.3,1.12,1.12,0,0,1-.23-2.22,20.9,20.9,0,0,1,3.79-.28,1.12,1.12,0,0,1-.37,2.2Z"/><path class="cls-21" d="M42.39,784.22c-1.21.11-2.58-.06-3.69.5-1.29.64-2.09-1.45-.81-2.08s2.85-.51,4.27-.64a1.12,1.12,0,0,1,.23,2.22Z"/><path class="cls-21" d="M39,778.94a8.79,8.79,0,0,0-3.35.83,1.11,1.11,0,0,1-1.45-.63,1.15,1.15,0,0,1,.63-1.45,10.48,10.48,0,0,1,3.94-1,1.12,1.12,0,0,1,.23,2.22Z"/><path class="cls-22" d="M307.09,688.44s-172,89.32-248.72,103.46l4,20.53s268.5-31.16,336.93-82.34Z"/><path class="cls-19" d="M191.81,806.63s4.58,5-3.68,9-57.65,18.9-59,18.68-5.61-4.69-1.59-10.94S191.81,806.63,191.81,806.63Z"/><path class="cls-4" d="M181,777.76l3.4,17.93s-14.72,6-14.95,5.14-7.14-23.07-7.14-23.07Z"/><path class="cls-20" d="M182,791.9s8.48,6.47,9.82,14.73S127.32,833,127.32,833s-5.35-8.26-2.45-13.84,22.36-15.16,33-18.2A219.15,219.15,0,0,0,182,791.9Z"/><path class="cls-21" d="M158.39,801.31a18,18,0,0,0,0,3.2,1.12,1.12,0,0,1-2.24,0,20.83,20.83,0,0,1,.12-3.79,1.12,1.12,0,0,1,1.37-.78,1.13,1.13,0,0,1,.78,1.37Z"/><path class="cls-21" d="M152.19,803.14c0,1.21-.33,2.56.11,3.72.5,1.35-1.66,1.93-2.16.59s-.2-2.89-.18-4.31a1.12,1.12,0,0,1,2.23,0Z"/><path class="cls-21" d="M146.59,805.92a8.61,8.61,0,0,0,.48,3.42,1.13,1.13,0,0,1-.78,1.38,1.14,1.14,0,0,1-1.37-.78,10.54,10.54,0,0,1-.56-4,1.12,1.12,0,0,1,2.23,0Z"/><path class="cls-23" d="M220.66,622.83,150.6,633.1c-1.87.27-4.13-.11-5-2.05Q127.26,592,109,553c-2.43-5.18,5.26-9.71,7.7-4.5l36.6,78.09-5-2,70.06-10.26c5.63-.83,8.05,7.77,2.37,8.6Z"/><path class="cls-20" d="M418.36,669.4s14.58,63.08-25.29,83S264,736.94,238.66,717s-43.43-27.07-43.43-27.07-6.25,47.6-4.46,86.87l-33.33,3.28S136,674.46,145.25,649.17s39-33.21,99.07-11.3S328.81,667,328.81,667Z"/><polygon class="cls-24" points="192.7 768.92 156.06 773 156.06 783.64 197.16 779.18 192.7 768.92"/><path class="cls-25" d="M358.26,513.21c-.29-.89,27.07-.89,40.17,22.32s29.75,101.74,19.93,133.87c0,0-65.75,8.93-89.55-2.38,0,0-17.55-60.39-10.41-100.55S358.26,513.21,358.26,513.21Z"/><path class="cls-4" d="M355.58,598l-38.89-10s-.38,34.81-14.66,34.59-76.53-32.8-76.53-32.8-23-10.27-29.9-.9,2.45,14.88,2.45,14.88,21.2-8.63,24.77-2.38c0,0,58.77,61.58,93.87,60S355.58,598,355.58,598Z"/><path class="cls-18" d="M281.82,461.53s.59,30.84,28,36.2,50.86,16.67,52.94,37.8-14.3,47.51,2.07,63,29.47,23,25.31,39.91,6.84,64.86,50.87,53.26,77.47-45.16,40.77-125.16c-23.21-50.58-78.94-47.9-89.95-82.71s-40.07-60.07-69.53-58.49S282.72,447.93,281.82,461.53Z"/><rect class="cls-5" x="151.02" y="520.35" width="78.01" height="30.42" rx="5.91"/><path class="cls-5" d="M169.63,542.22s-17.43,5.91-11.23,21.87c0,0-10.63-10.05-3.84-26.9S169.63,542.22,169.63,542.22Z"/><path class="cls-26" d="M218.15,530.19H162.22a1.12,1.12,0,0,1,0-2.23h55.93a1.12,1.12,0,0,1,0,2.23Z"/><path class="cls-26" d="M218.15,543H162.22a1.12,1.12,0,0,1,0-2.23h55.93a1.12,1.12,0,0,1,0,2.23Z"/><path class="cls-27" d="M725.91,767.3a198.08,198.08,0,0,1-5.71,20.85c-21.52-18.95-42.72-38.24-63.86-57.61,28.44-40.26,85-76.91,125-65.19,51.5,15.08,82.21,97.28,82.21,97.28l-18.26,28.76s-9-27.63-37.92-47.74S732.59,736,725.91,767.3Z"/><path class="cls-28" d="M863.58,762.63S885,726.32,892,730.07s.26,19-6.49,35.13-22.82,36.65-28.37,37S842.6,800,845,790.51,863.58,762.63,863.58,762.63Z"/><path class="cls-29" d="M712.35,621.82S654,680.35,671.73,726.08c0,0-34.15,66.77-84.45,74.09,0,0-35.37-82.62,0-142.37s100.14-73.94,100.14-73.94Z"/><path class="cls-30" d="M587.28,800.17s27.74,40.54,75.6,31.09,77.74-53,91.46-82,61.28-30.48,84.75-4.26S865,800.17,865,800.17l24.39-23.78s-11-87.07-57.62-113.59-138.36,18.54-160.64,64.39Z"/><path class="cls-28" d="M889.4,776.39s29.19-30.41,35.13-25.15-4.11,18.51-14.4,32.69-30.64,30.41-36.13,29.5-13.62-5.5-9.1-14.19S889.4,776.39,889.4,776.39Z"/><path class="cls-31" d="M677.52,634.63s-51.22,46-8.23,92.07C669.29,726.7,614.41,691.33,677.52,634.63Z"/><rect class="cls-28" x="764.38" y="650.16" width="83.12" height="7.76" rx="3.32"/><path class="cls-28" d="M884.77,562.45a3.33,3.33,0,0,1,4.48-1.42l2,1a3.31,3.31,0,0,1,1.43,4.47l-45.42,89.59a3.32,3.32,0,0,1-4.48,1.43l-2-1a3.33,3.33,0,0,1-1.43-4.48Z"/><path class="cls-4" d="M703.16,676.13s.91,4.88,13.41,0,51.83-56.4,76.83-56.7S826.94,631,826.94,638c0,0-.61,2.4-2.55,1.49s-3.43-6.17-6.63-8.23-3.89,1.48-4.23,2.86-3.32,6.17-9.95,5.14a93.18,93.18,0,0,0-10.4-1.14s-25.39,2.63-39.41,36.77-26.22,56.1-57,61S655,702.35,655,702.35Z"/><path class="cls-29" d="M712.35,621.82s-14,37-7.09,56.25c0,0-31.7,13.3-45.42,35.71C659.84,713.78,626.15,666.41,712.35,621.82Z"/><path class="cls-4" d="M798.32,545.91s19,46.87,11.66,48.24-16.46,0-16.46,0-8.23,27.21-26.3,24.92-24.46-19.66-24.46-19.66-20.35.92-30.41,22.41c0,0-25.38-9.83-24.93-38,0,0,39.33-4.8,47.79-20.12S745,543.62,746.65,542s32.92-16.23,32.92-16.23Z"/><path class="cls-6" d="M808.76,538S808,556.12,789.1,558.1,764,568.77,764.71,573.8s-4-7.62-6.86-4.87,2.29,12.8,2.29,12.8-18.45,4.87-28.2-3.05,2.13-12.95-2.44-22.71-22.56-16-5-29,23.32-9.14,21.95-20,6.1-22.56,26.67-12.5S792.91,516,805,517.4,809.73,533,808.76,538Z"/><path class="cls-19" d="M475.67,512.17s-5.74,1.66-1.34,8.48,34.9,40.7,36,41.14,6.39-1,6.21-7.53S475.67,512.17,475.67,512.17Z"/><path class="cls-4" d="M497,495.29l-10.79,12s8.37,11.3,8.95,10.73,16-14.16,16-14.16Z"/><path class="cls-20" d="M489.84,505.54s-9.38,1-14.17,6.63,36.67,49.44,36.67,49.44,7.83-3.78,8.19-9.33-9.95-21.7-16.63-28.9A191.8,191.8,0,0,1,489.84,505.54Z"/><path class="cls-21" d="M503.36,523.46a15.79,15.79,0,0,1-1.44,2.44,1,1,0,0,0,1.69,1,19.05,19.05,0,0,0,1.65-2.92,1,1,0,0,0-.68-1.22,1,1,0,0,0-1.22.68Z"/><path class="cls-21" d="M507.21,527.69a9.11,9.11,0,0,1-1.79,2.76c-1,.79.37,2.21,1.36,1.43a10.34,10.34,0,0,0,2.11-3.17,1,1,0,0,0-1.68-1Z"/><path class="cls-21" d="M510.17,532.36a7.77,7.77,0,0,1-1.94,2.36,1,1,0,0,0,0,1.39,1,1,0,0,0,1.4,0,9.22,9.22,0,0,0,2.26-2.78,1,1,0,0,0-1.68-1Z"/><path class="cls-19" d="M589.09,519s-4,4.44,3.35,7.9,51.15,16.06,52.33,15.85,4.91-4.21,1.29-9.68S589.09,519,589.09,519Z"/><path class="cls-4" d="M598.28,493.38l-2.81,15.88s13.08,5.16,13.27,4.37,6-20.46,6-20.46Z"/><path class="cls-20" d="M597.6,505.88s-7.42,5.82-8.51,13.13,57.27,22.54,57.27,22.54,4.65-7.35,2-12.25S628.45,516.15,619,513.58A192.35,192.35,0,0,1,597.6,505.88Z"/><path class="cls-21" d="M618.56,513.93a15.73,15.73,0,0,1,.06,2.83,1,1,0,0,0,2,0,18.71,18.71,0,0,0-.15-3.35,1,1,0,0,0-1.22-.68,1,1,0,0,0-.67,1.22Z"/><path class="cls-21" d="M624.06,515.48a8.87,8.87,0,0,1-.06,3.29c-.43,1.2,1.49,1.69,1.91.5a10.37,10.37,0,0,0,.12-3.81,1,1,0,0,0-2,0Z"/><path class="cls-21" d="M629,517.88a7.77,7.77,0,0,1-.39,3,1,1,0,0,0,.71,1.2,1,1,0,0,0,1.2-.7,9.31,9.31,0,0,0,.45-3.56,1,1,0,0,0-2,0Z"/><path class="cls-27" d="M538.46,301.15v14.54s96.81,6.82,103.63,45S613.46,503,613.46,503H594.82s19.55-90.9-10-110.9-72.26-25-72.26-25-17.73.91-23.64-17.27-9.09-27.72-9.09-29.54S488,301.15,488,301.15Z"/><path class="cls-30" d="M439.84,301.15S423.48,341.6,436.43,360s92.38,25.91,92.38,25.91-20.12,96.81-39.89,112.14l17.73,14s94.76-89.31,84.54-129.53-60-52.5-60-52.5l-32.38-22.5L488,301.15Z"/><path class="cls-32" d="M589.28,210.15s20.23,30,25,27.52S659,190.73,659,190.73s2.21-12.91,4.3-13.72.79,6.55.79,6.55,10.28-4.42,10.69-10.42,7.21,6,.75,14.87-46.82,79.05-61.5,78.14-38.66-27.24-38.66-27.24L585,216Z"/><path class="cls-33" d="M522.55,98.65s-8-19-38.76-10.17c-33.29,9.55-30.67,46-31.19,59.87s-.79,24.37-15.47,32.37-41.41,42.59-29.88,67,93.84,22.54,106.94,6.55,31.55-37.53,36.43-56.61,5.83-25.43-4.29-35.39-13.89-16-13.84-25.3S531.43,109,522.55,98.65Z"/><path class="cls-29" d="M440.15,304.22s-1.44-48.41-4.06-63.08-6.82-50.29,4.45-56.34,68.93-8.4,83.09-7.75,28.3.13,35.12,2.23,8.91,46.65,4.72,61.33-33.8,50-35.9,63.61S440.15,304.22,440.15,304.22Z"/><path class="cls-34" d="M523.07,225.07c-.22,0-.39-.46-.39-.68,0-9.08-8.24-27.84-8.32-28a.48.48,0,0,1,.2-.59.36.36,0,0,1,.51.16c.35.77,8.36,19.23,8.4,28.47,0,.22-.18.67-.4.67Z"/><polygon class="cls-34" points="495.55 176.95 514.8 195.73 502.79 203.13 495.55 176.95"/><polygon class="cls-34" points="514.8 195.73 519.43 176.95 525.85 198.41 514.8 195.73"/><path class="cls-29" d="M560,180.16s22.5,14.6,29.31,30c0,0,.57,40.67-9.69,32.9-.54-.41-13.9-7.55-20.58-14.89S560,180.16,560,180.16Z"/><path class="cls-32" d="M524.91,111.79s18,31.23,10.42,40.84-15.81,6.82-17.47,10S519.43,177,519.43,177l-4.63,18.78L495.55,177l-.75-18.64L482,155.43l-4.72-14.68,7.69-8,22.63-21.66Z"/><path class="cls-33" d="M522.55,98.65s8.35,25.38-6,31.36-23.94,11.53-23.24,16c0,0-5.33-1.75-6.46,1s1.57,10.74,7.95,11.35c0,0-8.92,11.27-20.45,12s-6.64-11.27-6.46-13.54,4.89-21.23,4.89-21.23,6.67-26.84,6.73-27.52,16.33-6.29,16.33-6.29,10.57-4.28,10.84-4.28S522.55,98.65,522.55,98.65Z"/><path class="cls-3" d="M583.21,274.12s-54.49-.61-66.66-13c0,0-14.66,25-27.65,25.41,0,0,32.57,31.85,67.44,22.54C556.34,309.11,582.32,297.44,583.21,274.12Z"/><path class="cls-35" d="M558,283.6a32,32,0,0,1-11.44,16.61c-.5.37,0,1.23.5.85A33.12,33.12,0,0,0,559,283.86a.49.49,0,0,0-1-.26Z"/><path class="cls-35" d="M541.42,279.88A32,32,0,0,1,530,296.49c-.5.38,0,1.23.5.85a33,33,0,0,0,11.88-17.2.49.49,0,0,0-.94-.26Z"/><path class="cls-35" d="M526.16,275.14a32,32,0,0,1-11.44,16.61c-.5.38,0,1.23.5.85a33,33,0,0,0,11.88-17.2.49.49,0,0,0-.94-.26Z"/><path class="cls-32" d="M447.19,237.27s.26,42.35,17,51.71,52.69,19.45,57.93,19.06,12.58-7.21,13.36-5.12-5.11,6.29-5.11,6.29,10.75,2.76,13.76.53,3.41,7.34-11.66,6.68-72.82-.3-94.49-19.89-19-59.43-19-59.43Z"/><path class="cls-29" d="M439.45,185.52s-11.85,3.24-20.58,51.71c0,0,12.72,11.07,29,7.4C447.84,244.63,461.16,221.11,439.45,185.52Z"/></g><g id="Capa_3" data-name="Capa 3"><path class="cls-36" d="M158.4,564.09c-2.18-5.63-1.43-10,.46-13.31h64.26a5.92,5.92,0,0,0,5.91-5.91V526.26a5.92,5.92,0,0,0-5.91-5.91H156.93a5.91,5.91,0,0,0-5.91,5.91v18.61a5.88,5.88,0,0,0,1.28,3.66A22.94,22.94,0,0,0,158.4,564.09Z"/><g class="cls-37"><path class="cls-38" d="M129.18,838.8a4.9,4.9,0,0,1-.77-.06,7.3,7.3,0,0,1-4-2.35,4.12,4.12,0,0,1-.88-1c-.7-1.07-6.67-10.68-2.68-18.36,1.73-3.31,6.44-6.77,11.43-9.7-34.54,5.27-60.36,8.46-67.14,9.28l-7.48,2.24c-2.86,3.43-7.07,7.35-12.4,9.14a9.37,9.37,0,0,1-5.81,2.1c-2.55,0-6.27-1.12-9.6-6.46-3.14-5-11.19-23.64-14.5-31.4-11-25.7-10.91-27-10.85-28a7.29,7.29,0,0,1,1.83-4.09,4.55,4.55,0,0,1,1-1.08c.68-.56,6.87-5.39,13.47-5.39a12.21,12.21,0,0,1,4.51.83c5.5,2.17,12.13,11.76,16.14,18.29a5.57,5.57,0,0,1,2.61,2.82,5.85,5.85,0,0,1,.42,2.32,5.7,5.7,0,0,1,3.27,6.22A5.65,5.65,0,0,1,50.57,790a5.78,5.78,0,0,1-.12.57c.46,1.07,1,2.2,1.52,3.38L54,793.1l-.06-.34a4.48,4.48,0,0,1,.7-3.39,4.42,4.42,0,0,1,2.9-1.89c21.14-3.9,51.77-14,91.07-30.12-7.2-41.07-14.06-92.05-7.61-109.73a41.13,41.13,0,0,1,5.5-10.39,8.07,8.07,0,0,1-5-4.28l-36.59-78.1a9,9,0,0,1,.53-8.77,9.51,9.51,0,0,1,7.89-4.45,8.13,8.13,0,0,1,7.44,4.9L154.7,619l62.94-9.22a11,11,0,0,1,1.4-.1,9.52,9.52,0,0,1,9.34,8.9,7.92,7.92,0,0,1-4.56,8q10.44,2.87,22,7.09l10.35,3.76a370.26,370.26,0,0,1-36.64-32.95,3.69,3.69,0,0,1-.5-.61,6.08,6.08,0,0,0-2.1-.26c-5.4,0-14.26,3.12-17.22,4.32a4.52,4.52,0,0,1-4-.29c-.58-.34-5.73-3.52-7-9.53-.56-2.71-.46-7,3.17-11.9,2.83-3.83,7.42-5.77,13.66-5.77,9.87,0,21.22,5,21.7,5.23l.25.12c23.7,12.4,64.89,32.14,74.51,32.29,2.73,0,4.73-3.23,6-6.37-20.91-14.38-17.89-50.17-11.18-67.16,3.29-8.31,1.77-10.63-3.28-18.32a129.23,129.23,0,0,1-8.55-14.66,8.68,8.68,0,0,1-3.66-1.55,4.53,4.53,0,0,1-1.78-3.69l.17-7.2c-5.07-14.51-4-25.65-2.08-32.75a39.42,39.42,0,0,1-.45-4.73,2.54,2.54,0,0,1,0-.39c.94-14.15,11.41-38.58,44.69-40.37,1-.05,1.91-.07,2.86-.07a58.06,58.06,0,0,1,23.07,4.9V378a4.5,4.5,0,0,1,2.84-4.18l43.66-17.39a4.55,4.55,0,0,1,1.67-.32H429.4c-7.25-20,3.93-50.58,6-55.88-.13-.11-.26-.22-.38-.34-9.34-8.44-15.82-21.59-18.8-38.12-6.38-3.26-10.75-7.34-13-12.13-13-27.46,15.7-64.08,31.79-72.84,12.3-6.71,12.6-14.8,13.11-28.21v-.37c0-1.2.07-2.56.09-4.05.25-16.35.79-50.35,34.36-60a59.33,59.33,0,0,1,16.29-2.51c18.73,0,25.92,11.47,27.5,14.53,5.4,6.53,8.79,16.27,10.09,29,4.46,10.78,6.07,18.92,4.88,24.74a74,74,0,0,0,8.18,9.13c5.33,5.25,8.09,10,8.91,15.49.59.14,1.15.29,1.67.45a6.94,6.94,0,0,1,2.8,1.7,129.93,129.93,0,0,1,11,8.32c-1.44-5.38-2.57-9.76-3.18-12.11-10-6.19-11.07-17.54-11.13-21.53L551,142.93a5.63,5.63,0,0,1-.35-7.59l12-14.22a5.45,5.45,0,0,1,8-.4L595,144.23a5.64,5.64,0,0,1,.46,7.58l-6.13,7.47a47.44,47.44,0,0,1-.13,5.06c1.46,3.28,6.2,13.79,11.75,24.5,11.58,22.38,16.38,25.88,17.36,26.4,3.89-.44,11.7-12,16.33-22.46,1-2.88,13.24-36.49,21.43-52.2a191.71,191.71,0,0,1,15-24.54c0-.55,0-1.26,0-2.09a19.89,19.89,0,0,1-6-1.47c-7.58-3.08-12.84-10.33-14.88-20.27-1.22.18-2.57.3-4,.37h-.3c-7.54,0-9.87-10.16-10.91-26.73a21.85,21.85,0,0,1-6.43-8.22c-.44-.44-1.29-.57-4.69-.68a59.46,59.46,0,0,1-24-5.28c-7.94-3.42-11.83-9.62-10.39-16.58C591.36,25.68,602.67,18,614.63,18A29.64,29.64,0,0,1,624,19.56a18.52,18.52,0,0,0,6,1c7.33,0,15.15-3.69,23.43-7.59,8.79-4.14,17.88-8.42,27.17-8.42a27.94,27.94,0,0,1,6.18.68c22.25,5,32,26.55,30.21,45.21-1.08,11.08-9.83,21.93-18.14,28-.11,1.13-.22,2.13-.35,3q-.06.43-.15.9c2.41,4,6.59,9.43,11.9,10.7a4.79,4.79,0,0,1,.9.31c1.36.65,33.63,16.29,50.35,47C778,170.46,780.86,198,781,199.19a4.7,4.7,0,0,1,0,.53s-.43,23.81-1,53.21a22.5,22.5,0,0,1,20.74,16.78l15.64,59.85a22.55,22.55,0,0,1-13.24,26.52h34.42a4.5,4.5,0,0,1,2.05,8.5l-.78.41v44.39l5.2-.15a4.55,4.55,0,0,1,2.38.68h67.77a4.5,4.5,0,0,1,1.59,8.71l-7,2.64V468H914a4.5,4.5,0,0,1,2.41,8.3l-51.75,32.79a4.56,4.56,0,0,1-2.41.69H838.83v64.33l5-.25H844a4.48,4.48,0,0,1,3.06,1.21h26.26l7.41-14.61a7.81,7.81,0,0,1,7-4.26,7.89,7.89,0,0,1,3.59.87l2,1a7.82,7.82,0,0,1,3.36,10.53L893.39,575h20.79a4.5,4.5,0,0,1,2.5,8.24l-7.88,5.27V677.6H914a4.5,4.5,0,0,1,3.35,7.5l-36,40.26c.45,1.26.9,2.54,1.33,3.83,3.06-2.69,5.65-3.89,8.15-3.89a6.9,6.9,0,0,1,3.26.8c10,5.38,4.11,20.29-2.57,36.29.33,1.65.62,3.17.88,4.56,9.23-9,22.8-20.82,30.27-20.82a7.1,7.1,0,0,1,4.82,1.74c8.76,7.74-1.08,21.28-12.48,37l-1.27,1.75C904.78,799,883.6,818,874.48,818h0a7.9,7.9,0,0,1-1.21-.1c-4.58-.77-10.39-3.41-12.95-8.55a11.69,11.69,0,0,1-1-3,7.64,7.64,0,0,1-1.87.37c-.44,0-.89,0-1.34,0-5.67,0-10.71-2.13-13.48-5.7a12.52,12.52,0,0,1-2.29-10.16,101.57,101.57,0,0,0-35.5-43.56,46.08,46.08,0,0,0-4.61-2.82H762.68a30.66,30.66,0,0,0-4.27,6.66c-10.34,21.83-40.26,73.76-94.66,84.5a78.86,78.86,0,0,1-15.19,1.51c-40.93,0-64-33.07-65-34.48a5.75,5.75,0,0,1-.42-.77,230.83,230.83,0,0,1-14.62-57.42H425.66a4.5,4.5,0,0,1-4.5-4.5V725c-4.2,12.74-12.06,24.43-26.08,31.44-8.45,4.23-19.28,6.37-32.22,6.37a147.22,147.22,0,0,1-19.8-1.44C305.77,774,255.27,786,192.84,797.3a23.85,23.85,0,0,1,3.19,7.48,9.33,9.33,0,0,1,1.39,6.72c-.63,3.37-3.09,6.11-7.32,8.17C183.12,823.06,133,838.8,129.18,838.8ZM199,696.61c-.91,8.08-2.46,23.33-3.34,40.53C208,731.57,221,725.59,234.29,719.3A216,216,0,0,0,199,696.61ZM368.83,439.28A98.34,98.34,0,0,1,395.25,480a5.12,5.12,0,0,1,.87-.08h25V439.28Zm278.36-83.2c.94-7.46,3.55-28.41,6-50.71a22.39,22.39,0,0,1,1.15-10.54c2.51-23.6,3.65-37.93,4.09-46.61-8,7.29-17.58,14.54-25.47,17.36a17.73,17.73,0,0,1-5.93,1,20.14,20.14,0,0,1-2.87-.22c-3.72,2.91-6.88,4.28-9.85,4.28l-.56,0c-11.59-.71-26.69-13.51-37.47-24.31-1.58-.91-4.77-2.76-8.33-5.13l-.18.65c-1.83,6.43-7.6,15.69-14.24,25.79,15.28,1.8,29.55,2,29.71,2a4.51,4.51,0,0,1,4.45,4.68c-1,25.81-28.36,38.39-29.52,38.92l-.36.14c28.85,4.15,78.73,15.22,87.73,42.72Z"/><path class="cls-38" d="M680.63,9a23.38,23.38,0,0,1,5.19.57C706.39,14.22,714,34.64,712.54,50c-1,10.34-10.17,20.88-17.95,26-.15,1.85-.32,3.5-.51,4.83a21.16,21.16,0,0,1-.47,2.29c3.12,5.6,8.34,12.6,15.63,14.33,0,0,32.13,15.32,48.34,45s18.92,57.2,18.92,57.2-.48,26.52-1.09,58.13a18,18,0,0,1,21,13.09L812,330.69a18,18,0,0,1-12.87,22l-26,6.79c0,.41,0,.78,0,1.11h64.43l-3.64,1.86.41,0V414l9.7-.27-1.51.68h71.66l-9.88,3.74v54.32H914l-51.75,32.78H834.33v73.56l9.7-.49-1.51,1.21h33.6l8.65-17.08a3.33,3.33,0,0,1,4.48-1.42l2,1a3.31,3.31,0,0,1,1.43,4.47l-6.59,13h28.12l-9.88,6.61v96H914l-37.76,42.26c1.68,4.57,3.17,9.07,4.49,13.4,3.87-4.58,7.59-8,10.13-8a2.3,2.3,0,0,1,1.13.27c6.52,3.49,1.11,17-5.13,31.86,1.83,8.83,2.54,14.46,2.54,14.46s24.73-25.76,33.3-25.76a2.65,2.65,0,0,1,1.83.61c6,5.25-4.11,18.51-14.4,32.69-10,13.8-29.55,29.54-35.65,29.54a3.58,3.58,0,0,1-.48,0c-5.48-.92-13.62-5.5-9.1-14.19h0c-.07-.54-.18-1.3-.34-2.27-3.08,3.15-5.75,5.14-7.44,5.26-.34,0-.68,0-1,0-5.55,0-13.35-2.83-11.08-11.75-1.79-4.8-11.73-28.84-37.61-46.86a50,50,0,0,0-6.08-3.63H760.66a35.62,35.62,0,0,0-6.32,9.23c-13.72,29-43.6,72.56-91.46,82a73.53,73.53,0,0,1-14.32,1.43c-39,0-61.28-32.52-61.28-32.52A228.74,228.74,0,0,1,572.54,740H425.66V693.43a36.9,36.9,0,0,1-4.72-.58c.37,20.08-3.94,47.59-27.87,59.56-8.28,4.14-18.68,5.89-30.21,5.89a145.14,145.14,0,0,1-20.24-1.54c-45.5,15.49-105.35,28.14-158.06,37.44,2.61,2.6,6.39,7.14,7.25,12.43,0,0,4.58,5-3.68,9s-56.92,18.68-58.95,18.68h0a3.61,3.61,0,0,1-1.75-1.36l-.07,0s-5.35-8.26-2.45-13.84c1.87-3.6,10.63-8.86,19.49-13v-.24a1,1,0,0,1,1.09-1.07,1.12,1.12,0,0,1,.89.41c1.21-.54,2.42-1,3.59-1.53l0-.59a1,1,0,0,1,1.1-1.07,1.07,1.07,0,0,1,1.08.8c1.4-.54,2.75-1,4-1.42,0-.24,0-.49.09-.73a1.09,1.09,0,0,1,1.1-.82.84.84,0,0,1,.27,0,1,1,0,0,1,.77.84c3.28-.95,6.79-2.16,10.07-3.38l-.12-.39c-52.42,8.84-94.91,14.1-104.09,15.2L55.05,815c-2.21,2.85-6.53,7.54-12,9a5.19,5.19,0,0,1-3.55,1.62c-1.63,0-3.67-1-5.78-4.34C28.84,813.47,8.93,765.88,9,764.53a3.62,3.62,0,0,1,1.17-1.89l0-.06s5.43-4.39,10.64-4.39a7.78,7.78,0,0,1,2.86.51c3.78,1.49,9.92,9.67,14.92,18l.23,0H39a1.13,1.13,0,0,1,.73,1.92c.66,1.15,1.29,2.29,1.88,3.41l.6,0h.12a1.11,1.11,0,0,1,.37,2.14c.68,1.35,1.29,2.64,1.82,3.85h.75a1.12,1.12,0,0,1,.91,1.29,1,1,0,0,1-.76.84c1.29,3.17,2.86,6.54,4.41,9.68l9.36-4-.77-3.91c24.83-4.57,59.62-17,95.33-31.75-5.69-31.87-15.15-92.61-8.45-111a33.66,33.66,0,0,1,13.37-17.25l-8,1.18a7.59,7.59,0,0,1-1.07.08,4.11,4.11,0,0,1-4-2.13Q127.26,592,109,553c-1.67-3.56,1.44-6.81,4.34-6.81a3.63,3.63,0,0,1,3.36,2.31L152,623.93l66.25-9.7a4.93,4.93,0,0,1,.75-.06c5.08,0,7,7.87,1.62,8.66L199.06,626c12.65,1.61,27.64,5.45,45.26,11.87,18.73,6.83,34,12.23,46.14,16.44-32.26-15.89-67.64-53-67.64-53-.95-1.66-3.14-2.27-5.85-2.27-7.49,0-18.92,4.65-18.92,4.65s-9.37-5.51-2.45-14.88c2.17-2.93,5.91-3.94,10-3.94,9,0,19.86,4.84,19.86,4.84s62.25,32.57,76.53,32.8h.14c5.84,0,9.33-5.91,11.42-12.84-21.94-11.33-18.68-47.77-12.45-63.54s-2.81-16.83-13.05-38.84a7.08,7.08,0,0,1-3.91-.92l.19-8c-5.06-14-4.17-24.6-2-31.73a39.79,39.79,0,0,1-.55-5.12c.9-13.6,11-34.59,40.44-36.17.87-.05,1.74-.07,2.62-.07a56.25,56.25,0,0,1,27.57,7.64V378l43.67-17.39h40.75c-.15-.19-.31-.38-.44-.57-12.95-18.41,3.41-58.86,3.41-58.86h.21c0-.85-.06-1.86-.1-3-.67-.52-1.32-1.06-1.94-1.61-11.05-10-15.78-25.27-17.77-37.83-6.19-2.81-10.83-6.45-13-11-11.53-24.38,15.21-59,29.88-67s14.94-18.48,15.47-32.37S450.5,98,483.79,88.48a54.71,54.71,0,0,1,15-2.33c18.42,0,23.71,12.5,23.71,12.5,6.16,7.17,8.58,18.35,9.47,27.63,3.56,8.47,6.67,18.61,4.39,24.42a67.47,67.47,0,0,0,9.92,11.54c5.64,5.55,7.84,10,7.84,16.11a29.23,29.23,0,0,1,4.58.93,2.76,2.76,0,0,1,1.22.88h0s13.5,8.77,22.75,19.87c-4.43-15.31-8.15-30.12-8.15-30.12-11.41-5.71-10.51-19.67-10.51-19.67l15.16,14.26a2.29,2.29,0,0,1-.08-.45.89.89,0,0,1-.64-.26l-24.3-24.06a1.13,1.13,0,0,1-.06-1.5l12-14.21a1,1,0,0,1,.73-.34,1,1,0,0,1,.67.27l24.38,23.52A1.14,1.14,0,0,1,592,149l-7.26,8.84a40.23,40.23,0,0,1-.09,7.29s23.72,54.35,33.33,54.65h.17c9.57,0,20.7-25.3,20.7-25.3s12.91-35.8,21.24-51.79,15.39-25,15.39-25a36.79,36.79,0,0,0-.32-8.49,11.48,11.48,0,0,1-2.77.33,15.11,15.11,0,0,1-5.65-1.18c-7.21-2.93-12-10.78-12.88-22,0,0-1.2,1.5-8,1.81h-.09c-4.76,0-6-15.41-6.55-24.75a16.8,16.8,0,0,1-6.87-8c-3.94-5.81-11.26.61-30.77-7.8-17-7.31-4.12-25,13-25a24.92,24.92,0,0,1,8,1.31A23.25,23.25,0,0,0,630,25c16.65,0,34-16,50.6-16M642.07,360.58h8.56l.66-1.05s3.33-25.95,6.46-54.24a17.94,17.94,0,0,1,1-9.42c2.67-25,4.89-49.77,4.3-58.49-9.86,10.44-22.85,20.84-31.6,24a13,13,0,0,1-4.41.76,15.56,15.56,0,0,1-4.08-.57c-3.35,2.91-6.31,4.63-8.65,4.63h-.28c-11.16-.69-27.7-16.08-35-23.41a127.6,127.6,0,0,1-14.27-9.35,48.81,48.81,0,0,1-1.33,7.22c-2,7-9.8,18.72-17.63,30.54a309.12,309.12,0,0,0,37.37,3c-.89,23.32-26.87,35-26.87,35a50.61,50.61,0,0,1-10.52,1.64c-.15,1.51-1.79,3.89-6.15,5,11.12.94,95.87,9.21,102.4,44.79M392.84,486.73l3.28-2.31h29.54V434.78H355.55c16.11,10.21,29.53,27.86,36.24,49.07q.46,1.48,1,2.88M315.38,661.4a36.37,36.37,0,0,1-5.32-.42c12.92,4.31,18.75,6,18.75,6s-.86-2.95-2.12-8a27.28,27.28,0,0,1-10,2.33c-.43,0-.87,0-1.31,0M190.8,744.22c18.43-8.19,36.26-16.48,52.19-24.07-1.59-1.08-3-2.14-4.33-3.15-25.28-19.93-43.43-27.07-43.43-27.07s-3.33,25.34-4.43,54.29M680.63,0c-10.29,0-19.84,4.5-29.08,8.85C643.73,12.53,636.35,16,630,16a14.08,14.08,0,0,1-4.55-.71,33.8,33.8,0,0,0-10.85-1.78c-14.22,0-27.23,9.07-29.62,20.67-1.47,7.11,1.18,16.52,13,21.62a64.47,64.47,0,0,0,25.59,5.65c.56,0,1.2,0,1.75.06a26,26,0,0,0,5.15,6.56,110.23,110.23,0,0,0,1.57,12.86,33.77,33.77,0,0,0,2.69,8.63c3.4,6.78,8.83,7.52,11,7.52h.5l.43,0c2.87,9.43,8.65,16.36,16.61,19.59.47.19.94.37,1.41.53a214.36,214.36,0,0,0-12.65,21.32c-8.2,15.72-20.25,48.81-21.62,52.6-3.35,7.5-8.36,15.41-11.57,18.54-2.28-2.67-6.93-9.15-14.72-24.37-4.68-9.14-8.68-17.91-10.4-21.74,0-.79.07-1.71.08-2.67l5.07-6.18a10.17,10.17,0,0,0-.81-13.7l-24.37-23.51a9.94,9.94,0,0,0-14.51.75l-12,14.22a10,10,0,0,0-2.17,4.54,84.31,84.31,0,0,0-4.24-12.93c-1.42-13-5-23.19-10.66-30.29-3.53-6.75-13.37-16.61-31.34-16.61a64,64,0,0,0-17.53,2.68c-16,4.6-27.08,14.94-32.82,30.73-4.47,12.27-4.67,25.05-4.8,33.51,0,1.51,0,2.82-.09,3.94v.38c-.53,14.08-1.2,19.21-10.76,24.43s-20.94,17.6-28.33,30.86c-9.77,17.54-11.68,34.53-5.38,47.86,2.45,5.18,6.83,9.58,13.06,13.14,3.11,15.45,9.26,28,17.95,36.76a150.24,150.24,0,0,0-5.68,20.48c-2.3,11.56-2.63,21.47-1,29.66H396.12a9,9,0,0,0-3.33.64l-43.66,17.39a9,9,0,0,0-5.68,8.36v41.24a61.23,61.23,0,0,0-18.57-2.92c-1,0-2.07,0-3.1.08-19.53,1.05-31,9.61-37.19,16.6a47.85,47.85,0,0,0-11.75,28,6.89,6.89,0,0,0,0,.79,42.8,42.8,0,0,0,.37,4.36c-1.94,7.62-2.79,19.11,2.15,33.72l-.16,6.39a9,9,0,0,0,3.55,7.37,12,12,0,0,0,3.26,1.77,138.47,138.47,0,0,0,7.92,13.33c4.89,7.46,5.28,8.07,2.86,14.2-3.14,7.95-6.31,22.55-4.93,37.57,1.31,14.25,6.29,25.31,14.56,32.49a6.42,6.42,0,0,1-.52.61c-1.89-.16-10.23-1.76-39.63-15.61-17-8-32.42-16.07-32.58-16.15s-.33-.17-.5-.24c-1.29-.58-12.89-5.62-23.53-5.62-9.65,0-14.72,4.13-17.28,7.6-4.61,6.25-4.7,11.86-4,15.48a19,19,0,0,0,6,10.22l-28.57,4.19-4.52.66-15.79-33.72-16.74-35.71a12.67,12.67,0,0,0-11.51-7.49,14,14,0,0,0-11.68,6.54,13.53,13.53,0,0,0-.81,13.09l30.93,66,5.66,12.07a12.29,12.29,0,0,0,2.79,3.85,48.82,48.82,0,0,0-3.41,7.38c-2.2,6-4.69,18.24-.91,54.44,2,18.74,5.07,38.71,7.7,54-37.4,15.18-66.6,24.76-86.84,28.49a9,9,0,0,0-2.9,1.08A10.63,10.63,0,0,0,53,782.8a9.58,9.58,0,0,0-.67-.76c0-.2,0-.39-.08-.59a10.1,10.1,0,0,0-3.52-6.16,11.6,11.6,0,0,0-.46-1.37,10.14,10.14,0,0,0-3.5-4.39C38,758.8,32.07,752.35,27,750.33a16.74,16.74,0,0,0-6.17-1.14c-8,0-15,5.32-16.3,6.38a9.23,9.23,0,0,0-1.71,1.83A11.67,11.67,0,0,0,0,764c-.14,2.23-.21,3.36,11.2,30,4.17,9.75,11.64,26.88,14.82,32,4.42,7.1,9.73,8.59,13.42,8.59a13.91,13.91,0,0,0,8-2.59,32.69,32.69,0,0,0,12.81-9.22l5.85-1.75c6.17-.74,25.2-3.11,51.28-6.92q-.26.42-.48.84c-5.06,9.74,1.52,20.77,2.89,22.88a9.07,9.07,0,0,0,1.64,1.89,11.72,11.72,0,0,0,6.25,3.44,9.64,9.64,0,0,0,1.52.12c1.12,0,3.22,0,29.83-8.25,10-3.11,27.68-8.72,33.06-11.34,6.94-3.38,9.15-8.05,9.78-11.37a13.76,13.76,0,0,0-1.61-9.29c-.21-.81-.46-1.61-.74-2.39,59.41-10.89,107.79-22.55,144-34.7a151.12,151.12,0,0,0,19.36,1.34c13.64,0,25.16-2.3,34.23-6.84a53.09,53.09,0,0,0,20.11-17.37,9,9,0,0,0,8.46,5.93H564.57A235.11,235.11,0,0,0,579,803.71a9.25,9.25,0,0,0,.85,1.54c1,1.49,25.43,36.44,68.71,36.44a83.31,83.31,0,0,0,16.07-1.6c56.4-11.14,87.21-64.54,97.84-87a26.65,26.65,0,0,1,2.41-4.08h34.18c1.11.63,2.18,1.31,3.2,2a97.21,97.21,0,0,1,33.45,40.47,17,17,0,0,0,3.36,12.31c3.62,4.66,10,7.44,17,7.44h.17l0,.07c3.31,6.65,10.55,10,16.22,11a12.74,12.74,0,0,0,2,.16c1.95,0,7.88,0,22.07-11.64a123.61,123.61,0,0,0,20.86-21.61l1.27-1.74c5.16-7.1,10-13.81,13.12-19.85,6.4-12.52,2.82-19.49-1.3-23.14a11.6,11.6,0,0,0-7.8-2.86c-4.06,0-10,1.57-23.08,12.74A84.31,84.31,0,0,0,903,743.76c3.08-13.24-2-19.07-6.73-21.62a11.43,11.43,0,0,0-4.76-1.33l29.23-32.71a9,9,0,0,0-6.71-15h-.7V591l5.88-3.94a9,9,0,0,0-5-16.48H900.71A12.33,12.33,0,0,0,895.34,554l-2-1a12.32,12.32,0,0,0-16.61,5.28l0,.06-6.15,12.15H848.53a8.94,8.94,0,0,0-4.5-1.21h-.7V514.25h18.92a9,9,0,0,0,4.82-1.39l51.74-32.79a9,9,0,0,0-4.81-16.6h-.7v-39.1l4.07-1.54a9,9,0,0,0-3.19-17.42H847.47a9,9,0,0,0-3.44-.68h-.26l-.44,0V367.49a9,9,0,0,0-5.77-15.91H816.1a27,27,0,0,0,4.63-23.16l-15.64-59.85A27,27,0,0,0,784.58,249c.52-27.52.92-49.19.92-49.19a9.21,9.21,0,0,0,0-1.05c-.12-1.19-3.08-29.65-20-60.63-17.41-31.92-51-48.17-52.37-48.85a8.65,8.65,0,0,0-1.79-.63c-2.62-.63-5.54-3.24-8.24-7.3,0-.16,0-.33.07-.5,8.8-7,17.19-18.19,18.35-30a51.18,51.18,0,0,0-6.21-29.5A41.31,41.31,0,0,0,687.81.79,32.12,32.12,0,0,0,680.63,0ZM546.05,148.72a27.31,27.31,0,0,0,.08-4.9,10,10,0,0,0,1.75,2.32l7.22,7.14a33.73,33.73,0,0,0,1,6.33,49.92,49.92,0,0,0-3.5-3.78,86.3,86.3,0,0,1-6.59-7.11Zm15.27,115.2a129.93,129.93,0,0,0,9-15.92c1.31.8,2.42,1.45,3.25,1.93,11.32,11.26,27.14,24.41,40,25.2.27,0,.55,0,.83,0,3.57,0,7.17-1.32,11.12-4.12.54,0,1.07.06,1.61.06a22.14,22.14,0,0,0,7.44-1.29c5.83-2.08,12.47-6.35,18.77-11.3-.63,8.29-1.67,19.69-3.33,35.32a26.87,26.87,0,0,0-1.26,11.56C647.05,320,645.38,334,644.16,344c-8.71-11.44-25.14-20.64-49.11-27.43-8.37-2.37-16.75-4.21-24.41-5.61,9.12-6.7,20.89-18.71,21.57-36.46a9,9,0,0,0-8.89-9.34c-.14,0-10-.14-22-1.21ZM379.53,443.78h37.13v31.64H398.38a104.56,104.56,0,0,0-18.85-31.64ZM231.92,624.21a11.25,11.25,0,0,0,.42-1.15l2.15,2-2.57-.8ZM200.54,730c.65-10.24,1.49-19.43,2.19-26.31a217.63,217.63,0,0,1,22.9,14.73q-12.81,6-25.09,11.58Z"/></g></g></g></svg>