<svg xmlns="http://www.w3.org/2000/svg" viewBox="0 0 73.08 73.18"><defs><style>.cls-1{fill:#0041d3;}.cls-2{fill:#2cd5f2;}.cls-3{fill:#b6e116;}.cls-4{fill:#0db939;}</style></defs><title>Recurso 278</title><g id="Capa_2" data-name="Capa 2"><g id="Capa_1-2" data-name="Capa 1"><path class="cls-1" d="M24,50.44V61a1.19,1.19,0,0,0,2,.8l8.7-10.3a.91.91,0,0,0,.3-.7V39.34a1.11,1.11,0,0,0-1.1-1.1H8.54a1,1,0,0,0-.9.5l-7.4,8.6a1.27,1.27,0,0,0,1,2h21.6A1,1,0,0,1,24,50.44Z"/><path class="cls-2" d="M50.24,49.24h10.7a1.19,1.19,0,0,0,.8-2l-10.3-8.8a.91.91,0,0,0-.7-.3H39.34a1.11,1.11,0,0,0-1.1,1.1v25.4a1,1,0,0,0,.5.9l8.6,7.4a1.27,1.27,0,0,0,2-1V50.34A.86.86,0,0,1,50.24,49.24Z"/><path class="cls-3" d="M22.84,23.94H12.14a1.19,1.19,0,0,0-.8,2l10.3,8.8a.91.91,0,0,0,.7.3h11.4a1.11,1.11,0,0,0,1.1-1.1V8.54a1,1,0,0,0-.5-.9L25.74.24a1.27,1.27,0,0,0-2,1v21.6C24,23.54,23.54,23.94,22.84,23.94Z"/><path class="cls-4" d="M49.14,22.84V12.24a1.19,1.19,0,0,0-2-.8l-8.8,10.3a.91.91,0,0,0-.3.7v11.4a1.11,1.11,0,0,0,1.1,1.1h25.4a1,1,0,0,0,.9-.5l7.4-8.6a1.27,1.27,0,0,0-1-2H50.24A.93.93,0,0,1,49.14,22.84Z"/></g></g></svg>