<svg xmlns="http://www.w3.org/2000/svg" viewBox="0 0 200.1 53.64"><defs><style>.cls-1{fill:#fff;}</style></defs><title>Recurso 1</title><g id="Capa_2" data-name="Capa 2"><g id="Capa_1-2" data-name="Capa 1"><g id="Capa_2-2" data-name="Capa 2"><g id="Modo_de_aislamiento" data-name="Modo de aislamiento"><path class="cls-1" d="M1.38,53.5a1.47,1.47,0,0,1-1-.38,1.49,1.49,0,0,1-.38-1V24.59a1.44,1.44,0,0,1,.38-1.05,1.42,1.42,0,0,1,1-.38H14.09a1.33,1.33,0,0,1,1.44,1.21.81.81,0,0,1,0,.22V26a1.41,1.41,0,0,1-.39,1.05,1.42,1.42,0,0,1-1,.38H6.67a2.19,2.19,0,0,0-2.19,2.19h0V34.9a2.2,2.2,0,0,0,2.19,2.2h4.41a1.31,1.31,0,0,1,1.38,1.38V40a1.38,1.38,0,0,1-.38,1,1.5,1.5,0,0,1-1,.41H6.67A2.19,2.19,0,0,0,4.48,43.6v8.47a1.44,1.44,0,0,1-.38,1,1.44,1.44,0,0,1-1,.38Z"/><path class="cls-1" d="M41.33,42.67a11.55,11.55,0,0,1-.84,4.46,9.76,9.76,0,0,1-2.33,3.45,10.9,10.9,0,0,1-3.55,2.24,12.79,12.79,0,0,1-9,0,11,11,0,0,1-3.55-2.24,9.89,9.89,0,0,1-2.33-3.45A11.53,11.53,0,0,1,19,42.67V34.16a11.51,11.51,0,0,1,.83-4.46,9.8,9.8,0,0,1,2.33-3.45A11,11,0,0,1,25.65,24a12.79,12.79,0,0,1,9,0,10.9,10.9,0,0,1,3.55,2.24,9.67,9.67,0,0,1,2.33,3.45,11.52,11.52,0,0,1,.84,4.46ZM36.8,34.16a6.84,6.84,0,0,0-1.71-4.77,6.31,6.31,0,0,0-5-1.9,6.29,6.29,0,0,0-4.95,1.9,6.85,6.85,0,0,0-1.72,4.77v8.51a6.85,6.85,0,0,0,1.72,4.77,6.32,6.32,0,0,0,4.95,1.9,6.34,6.34,0,0,0,5-1.9,6.86,6.86,0,0,0,1.71-4.77Z"/><path class="cls-1" d="M65.05,53.5a1.89,1.89,0,0,1-1.77-1.29l-5.62-10a1,1,0,0,0-1-.67h-3.4a1.6,1.6,0,0,0-1.6,1.6v9a1.32,1.32,0,0,1-1.2,1.43h-1.9a1.47,1.47,0,0,1-1-.38,1.49,1.49,0,0,1-.38-1V24.59a1.44,1.44,0,0,1,.38-1.05,1.42,1.42,0,0,1,1-.38h9.77a9.08,9.08,0,0,1,3.57.69,8.66,8.66,0,0,1,4.79,4.79,9.36,9.36,0,0,1-3.88,11.57c-.51.28-.62.74-.34,1.38l5.72,10.18a1.31,1.31,0,0,1,0,1.23,1.08,1.08,0,0,1-1,.5ZM57.81,37.22A6,6,0,0,0,59.44,37a4.57,4.57,0,0,0,2-1.18,5,5,0,0,0,1.08-1.59,4.93,4.93,0,0,0,.4-2,4.59,4.59,0,0,0-.4-2,4.46,4.46,0,0,0-1.08-1.5,4.53,4.53,0,0,0-2-1.1,5.75,5.75,0,0,0-1.6-.19H53.3A1.6,1.6,0,0,0,51.7,29v6.57a1.6,1.6,0,0,0,1.6,1.6Z"/><path class="cls-1" d="M96.83,53.5a1.33,1.33,0,0,1-1.43-1.2.88.88,0,0,1,0-.23v-20a.55.55,0,0,0-.28-.57c-.19-.1-.35,0-.48.38l-4.81,10a1.73,1.73,0,0,1-1.72,1.29h-3a1.75,1.75,0,0,1-1.72-1.29l-4.81-10c-.13-.29-.29-.43-.48-.43s-.29.21-.29.62v20a1.3,1.3,0,0,1-1.17,1.43h-2a1.42,1.42,0,0,1-1-.38,1.49,1.49,0,0,1-.38-1V24.59a1.44,1.44,0,0,1,.38-1.05,1.42,1.42,0,0,1,1-.38h4.19a1.63,1.63,0,0,1,1,.31,1.91,1.91,0,0,1,.57.83l5.62,13c.1.32.25.47.46.46s.37-.17.5-.46l5.62-13a1.85,1.85,0,0,1,.57-.83,1.63,1.63,0,0,1,1-.31H98.4a1.42,1.42,0,0,1,1,.38,1.44,1.44,0,0,1,.38,1.05V52.07a1.44,1.44,0,0,1-.38,1,1.47,1.47,0,0,1-1,.38Z"/><path class="cls-1" d="M128.09,53.15a1.51,1.51,0,0,1-1.08.34,2.87,2.87,0,0,1-1.11-.34L112,45.4a.51.51,0,0,0-.6,0,1,1,0,0,0-.35.47l-2,6.48a1.51,1.51,0,0,1-1.62,1.15h-2.33c-.92,0-1.25-.45-1-1.34l9.53-27.71a1.82,1.82,0,0,1,.64-1,1.93,1.93,0,0,1,1.07-.26h3.34a1.89,1.89,0,0,1,1.07.26,1.82,1.82,0,0,1,.64,1l9.1,26.08a1.49,1.49,0,0,1-.38,1.72Zm-11-24.46c-.22,0-.38.17-.47.52l-3.77,10.52a1.35,1.35,0,0,0,0,.93,1.28,1.28,0,0,0,.48.5l9,4.89c.35.23.6.25.76.08a.58.58,0,0,0,.14-.6"/><path class="cls-1" d="M152.1,53.5a1.88,1.88,0,0,1-1.76-1.29l-5.63-10a1,1,0,0,0-1-.67h-3.4a1.6,1.6,0,0,0-1.6,1.6h0v9a1.44,1.44,0,0,1-.38,1,1.42,1.42,0,0,1-1,.38h-1.67a1.33,1.33,0,0,1-1.43-1.22V24.59a1.33,1.33,0,0,1,1.22-1.43.74.74,0,0,1,.21,0h9.77a9.08,9.08,0,0,1,3.57.69,8.54,8.54,0,0,1,4.79,4.79,9.36,9.36,0,0,1-3.88,11.57q-.76.42-.33,1.38l5.71,10.18a1.29,1.29,0,0,1,.05,1.22,1.08,1.08,0,0,1-1,.5Zm-7.24-16.28a5.61,5.61,0,0,0,1.63-.21,4.57,4.57,0,0,0,2-1.18,5,5,0,0,0,1.07-1.59,4.93,4.93,0,0,0,.4-2,4.59,4.59,0,0,0-1.47-3.47,4.69,4.69,0,0,0-2-1.1,5.68,5.68,0,0,0-1.59-.19h-4.54a1.6,1.6,0,0,0-1.6,1.6h0v6.57a1.6,1.6,0,0,0,1.6,1.6h0Z"/><path class="cls-1" d="M185,53.5a1.33,1.33,0,0,1-1.43-1.2.88.88,0,0,1,0-.23V24.59a1.32,1.32,0,0,1,1.2-1.43.88.88,0,0,1,.23,0h12.72a1.31,1.31,0,0,1,1.43,1.2.88.88,0,0,1,0,.23V26a1.31,1.31,0,0,1-1.38,1.43h-7.63a2,2,0,0,0-2,2V35.3a2,2,0,0,0,2,2h4.59a1.31,1.31,0,0,1,1.43,1.2.88.88,0,0,1,0,.23v1.43a1.32,1.32,0,0,1-1.2,1.43h-4.82a2,2,0,0,0-2,2v3.65a2,2,0,0,0,2,2h8.58a1.4,1.4,0,0,1,1.05.38,1.42,1.42,0,0,1,.38,1v1.43a1.31,1.31,0,0,1-1.43,1.38Z"/><path class="cls-1" d="M171.15,19.33a13.56,13.56,0,0,0,3.1-9.56.19.19,0,0,1,.18-.2.18.18,0,0,1,.19.13c.52,1.55,1.36,3.67,2.25,4.33a.18.18,0,0,1,.08.2,8.33,8.33,0,0,1-5.6,5.41.19.19,0,0,1-.24-.12.19.19,0,0,1,0-.19"/><path class="cls-1" d="M166.16,19.35A13.61,13.61,0,0,1,164,9.55a.19.19,0,0,0-.17-.21.2.2,0,0,0-.19.11C163,11,161.89,13,161,13.55a.2.2,0,0,0-.1.2,8.34,8.34,0,0,0,5.1,5.89.21.21,0,0,0,.25-.11.19.19,0,0,0,0-.18"/><path class="cls-1" d="M170.1.45c-.4-.62-.87-.49-.8-.24,1.49,4.33,1.14,9.75-.5,10.76h-.11c-1.47,0-1.89-2.41-2-4.44a.14.14,0,0,0-.14-.16.15.15,0,0,0-.15.1,10.54,10.54,0,0,0,1.71,12.63.88.88,0,0,0,1.23,0l0,0c6.31-6.76,2.85-15,.73-18.66"/><path class="cls-1" d="M162.41,29.78,166.53,52A1.63,1.63,0,0,0,168,53.4h1.66A1.52,1.52,0,0,0,171,52s.82-4.5.82-5.08c-.32-.44-9.45-17.17-9.44-17.12"/><path class="cls-1" d="M179.64,23.64a1.38,1.38,0,0,0-1-.38H159a1.31,1.31,0,0,0-1.38,1.38V26.1a1.38,1.38,0,0,0,.38,1,6.36,6.36,0,0,0,1.89.28,2.51,2.51,0,0,1,.72.16h0c2.66.83,11.54,9.77,12.72,11l1.41-8.66a2.85,2.85,0,0,1,2.65-2.42,9,9,0,0,0,2.37-.29,1.42,1.42,0,0,0,.38-1V24.68a1.42,1.42,0,0,0-.38-1"/></g></g></g></g></svg>