<svg xmlns="http://www.w3.org/2000/svg" viewBox="0 0 27 21"><defs><style>.cls-1{fill:#fff;}</style></defs><title>Recurso 2s</title><g id="Capa_2" data-name="Capa 2"><g id="Layer_1" data-name="Layer 1"><path class="cls-1" d="M26.94,2.38h0a2.67,2.67,0,0,0-.09-.26h0a2.46,2.46,0,0,0-.09-.29h0a1,1,0,0,0-.08-.14h0c-.07-.13-.13-.25-.21-.37h0a1.07,1.07,0,0,0-.14-.16h0a3.36,3.36,0,0,0-.24-.29h0a1.84,1.84,0,0,0-.22-.17h0L25.56.45l-.18-.1h0L25.12.22h0c-.09,0-.19-.06-.28-.09h0L24.56.06h0L24.2,0h0L24,0h0a3,3,0,0,0-.43.05h-.18a3.5,3.5,0,0,0-.55.17h0l-.15.08h0a2.18,2.18,0,0,0-.37.2h0L13.92,6.39,4.61.47,4.5.42,4.34.33h0L4.18.24h0L3.91.16h0L3.62.06H3.45L3,0H3L2.8,0h0l-.36,0h0a2.29,2.29,0,0,0-.28.07h0c-.09,0-.19,0-.28.09h0A3,3,0,0,0,0,3V19a2,2,0,0,0,2,2H6V8.46l8.08,5.15L21,8.76V21h4a2,2,0,0,0,2-2V3A3.18,3.18,0,0,0,26.94,2.38Z"/></g></g></svg>