<svg xmlns="http://www.w3.org/2000/svg" viewBox="0 0 27 21"><defs><style>.cls-1{fill:#ea4435;}.cls-2{fill:#00ac47;}.cls-3{fill:#ffba00;}.cls-4{fill:#4285f4;}.cls-5{fill:#c52528;}</style></defs><title>Recurso 1s</title><g id="Capa_2" data-name="Capa 2"><g id="Layer_1" data-name="Layer 1"><path class="cls-1" d="M14.08,13.61,1.39,5.53A3,3,0,0,1,4.61.47l9.31,5.92L22.28.54a3,3,0,0,1,3.44,4.92Z"/><path class="cls-2" d="M25,21H21V3a3,3,0,0,1,3-3h0a3,3,0,0,1,3,3V19A2,2,0,0,1,25,21Z"/><path class="cls-3" d="M27,2.57c0-.06,0-.13,0-.19a2.67,2.67,0,0,0-.09-.26c0-.1-.06-.2-.09-.3a1,1,0,0,0-.08-.14,2.82,2.82,0,0,0-.21-.38,1.07,1.07,0,0,0-.14-.16,2.17,2.17,0,0,0-.24-.29,1.84,1.84,0,0,0-.22-.17,1.55,1.55,0,0,0-.24-.19,2.8,2.8,0,0,0-.25-.14L25.12.22c-.09,0-.19-.06-.28-.09a2.29,2.29,0,0,0-.28-.07L24.2,0,24,0a3,3,0,0,0-.43.05h-.17l-.56.18-.15.08A2.92,2.92,0,0,0,21,3V8.76l4.72-3.3A2.9,2.9,0,0,0,27,2.57Z"/><path class="cls-4" d="M3,0H3A3,3,0,0,1,6,3V21H2a2,2,0,0,1-2-2V3A3,3,0,0,1,3,0Z"/><path class="cls-5" d="M0,2.57c0-.06,0-.13,0-.19a2.67,2.67,0,0,1,.09-.26c0-.1.06-.2.09-.3a1,1,0,0,1,.08-.14A2.82,2.82,0,0,1,.53,1.3a1.07,1.07,0,0,1,.14-.16A2.17,2.17,0,0,1,.91.85,1.84,1.84,0,0,1,1.13.68,1.55,1.55,0,0,1,1.37.49L1.62.35A2.1,2.1,0,0,1,1.88.22c.09,0,.19-.06.28-.09A2.29,2.29,0,0,1,2.44.06L2.8,0,3,0l.43,0,.17,0L3.9.15l.28.09.15.08A2.71,2.71,0,0,1,4.7.53,3,3,0,0,1,6,3V8.76L1.28,5.46A2.9,2.9,0,0,1,0,2.57Z"/></g></g></svg>