<svg xmlns="http://www.w3.org/2000/svg" viewBox="0 0 14 15.23"><defs><style>.cls-1{fill:#004fa7;}</style></defs><title>Recurso 22</title><g id="Capa_2" data-name="Capa 2"><g id="Capa_1-2" data-name="Capa 1"><path class="cls-1" d="M2.42,14.23h.87a1.4,1.4,0,0,0,1.4-1.4V10A1.65,1.65,0,0,1,6.35,8.35H7.54a1.77,1.77,0,0,1,1.77,1.77v2.75a1.36,1.36,0,0,0,1.36,1.36h1A1.34,1.34,0,0,0,13,12.89V6.32a2.17,2.17,0,0,0-.87-1.74L8,1.46a1.68,1.68,0,0,0-2,0L1.87,4.58A2.17,2.17,0,0,0,1,6.32v6.49A1.42,1.42,0,0,0,2.42,14.23ZM0,13V5.82A2.17,2.17,0,0,1,.87,4.08L5.68.44a2.19,2.19,0,0,1,2.64,0l4.81,3.64A2.17,2.17,0,0,1,14,5.82V13a2.19,2.19,0,0,1-2.19,2.19H10.5A2.19,2.19,0,0,1,8.31,13V10.66A1.31,1.31,0,0,0,7,9.35H7a1.31,1.31,0,0,0-1.31,1.31V13A2.19,2.19,0,0,1,3.5,15.23H2.19A2.19,2.19,0,0,1,0,13Z"/></g></g></svg>