<?xml version="1.0" encoding="utf-8"?>
<!-- Generator: Adobe Illustrator 24.0.2, SVG Export Plug-In . SVG Version: 6.00 Build 0)  -->
<svg version="1.1" id="Capa_1" xmlns="http://www.w3.org/2000/svg" xmlns:xlink="http://www.w3.org/1999/xlink" x="0px" y="0px"
	 viewBox="0 0 317.9 82.1" style="enable-background:new 0 0 317.9 82.1;" xml:space="preserve">
<style type="text/css">
	.st0{fill:#FFFFFF;}
</style>
<title>Recurso 1</title>
<path class="st0" d="M52.9,39.9c2.4-6.7,4.7-13.2,7-19.7c0.3-0.7,0.6-1.4,0.9-2c1.9-3.6,4.4-4.8,7.5-3.7s4,3.8,2.7,7.8
	c-2.1,6.4-4.4,12.8-6.7,19.2c-3.1,8.7-6.2,17.4-9.2,26.1c-0.5,1.5-1.3,3.2,0.3,4.5s3.3,0.5,4.8-0.6c3.4-2.2,5.3-5.4,6.6-9.1
	c1.8-5.2,3.4-10.5,5.5-15.7c3.8-9,14.2-13.1,23.1-9.3c0.4,0.2,0.8,0.4,1.3,0.6c7.2,3.9,8.8,13.7,3.4,20.6c-4.6,5.8-11.6,7.9-19,5.1
	c-3.1-1.2-3.2,0.4-3.3,2.3c-0.2,3.4,2.2,5.1,5,6.1c6.4,2.2,19.1-1.4,21.2-10.5c1.2-5.1,3.4-10,5.2-15c3.1-8.8,10.6-12.4,19.6-9.5
	c1.8,0.6,3,0.9,4.7-0.5c2.2-1.9,5.4-1.9,7.6-0.1c2.6,1.9,2.3,4.5,1.4,7.1c-2.8,8-5.6,16-8.4,24.1c-0.5,1.5-1.5,3.2,0,4.4
	c1.7,1.4,3.6,0.4,5.2-0.6c4-2.4,5.9-6.2,7.4-10.3c0.8-2.1,1.6-4.1,3.9-5.1c3.4-1.5,6.5,0.5,6.3,4.1c-0.5,11.7-12.4,22.4-24.1,21.7
	c-0.7,0-1.5-0.1-2.2-0.2c-2.6-0.4-4.6-3.3-6.8-3.1s-4.1,2.6-6.6,3.1c-4.5,0.8-8.8,0.6-12.1-3c-1.2-1.3-2.1-1-3.5-0.4
	c-10.7,5-21.2,5.9-31.2-1.6c-1.5-1.1-1.9,0.2-2.7,0.8c-4.6,3.8-10.2,6.2-15.6,3.9c-5-2.1-8.7-2.2-13.6,0c-4,1.7-8.7,1-12-1.9
	c-1.5-1.2-2.3-1.1-3.8-0.2c-4.4,2.9-10,3.6-15,1.8C1.9,79-1.3,73.7,0.5,67.8c2.8-9.2,6.1-18.2,9.3-27.3c1.4-3.8,4.9-5.3,8.1-4.1
	c2.8,1,3.8,3.9,2.3,7.9c-2.6,7.5-5.4,15.1-8.1,22.6c-0.6,1.7-1.8,3.6,0.3,5s4.1,0.4,5.8-1c2.7-2.3,4.6-5.2,5.7-8.5
	c1.8-5.1,4-10.1,5.4-15.3C32.5,35.8,44.6,33.1,52.9,39.9z M127.4,51.9c0.2-3-0.1-5-2.4-5.7s-3.7,1-4.7,2.7c-0.6,1.1-1,2.2-1.3,3.4
	c-1.7,5-3.4,10-4.9,15.1c-0.5,1.7-1.1,3.8,1.1,4.9c2,1,3.6-0.3,5-1.5c0.5-0.4,0.9-0.9,1.2-1.4C124.2,63.5,125.7,57.2,127.4,51.9
	L127.4,51.9z M47.4,51.5c0-2.7-0.2-4.5-2.1-5.2s-3.3,0.6-4.4,1.9c-0.5,0.7-0.9,1.4-1.2,2.3c-1.7,4.6-3.3,9.3-4.9,13.9
	c-0.2,0.8-0.4,1.7-0.3,2.6c0,2.7,1.8,3.9,4.2,2.7c1.1-0.5,2.1-1.4,2.8-2.4C44.5,62,46.1,56.3,47.4,51.5L47.4,51.5z M91.9,49.4
	c0.1-2.1-1.5-4-3.6-4.1c-0.1,0-0.2,0-0.2,0c-2.7,0-6,4.1-5.8,7.6c0.1,2.3,2.3,2,3.9,2c3,0.1,5.6-2.2,5.8-5.3
	C91.9,49.5,91.9,49.4,91.9,49.4L91.9,49.4z"/>
<path class="st0" d="M278.6,81.8c-5.1,0.3-10.2-1.3-14.1-4.7c-1.7-1.4-2.5-1.3-4.3-0.2c-8.7,5.5-18.1,6.6-27.8,3
	c-8.3-3.1-11.5-10.2-8.8-18.5c1.5-4.7,3.1-9.3,4.9-13.9c3.2-8.6,12.4-13.2,21.2-10.8c5.4,1.2,9.4,5.6,10.2,11.1
	c0.7,5.5-3,12.5-8.1,15.1c-4.7,2.4-9.5,3.1-14.4,0.7c-2.5-1.2-2.8,0-3,1.8c-0.4,2.7,0.9,4.5,3.1,5.8c6.2,3.6,18.7,0.1,21.8-6.3
	c1.4-3,2-6.3,3.1-9.5c1.1-3.4,2.3-6.7,3.7-10c3.2-7,10.8-10.7,18.3-8.9c9.7,2.2,11.8,11.9,6.9,19.2c-1.7,2.5-4.3,3.7-7.4,1.9
	s-3.2-4.1-1.9-7c0.8-1.6,1.4-3.5-0.8-4.4c-2-0.8-3.5,0.6-4.1,2.2c-2,5.2-4.1,10.3-5.6,15.6c-1.1,3.9,2,7.4,6.6,8.2
	c7,1.2,14.5-3,18.5-10.5c0.7-1.3,1.2-2.7,2-4c1.6-2.5,3.9-2.9,6.5-1.8c2.8,1.2,3,3.3,2.1,5.8C302.9,74.1,292,81.8,278.6,81.8z
	 M248.5,49.4c0-2.5-1.5-4.2-3.7-4.2c-2.7,0-5.8,3.8-5.9,7.5c-0.1,2.4,2.1,2,3.5,2.1C245.9,55,248.5,52.7,248.5,49.4z"/>
<path class="st0" d="M211.1,15.6c6.1,0,12.2,0,18.4,0c3.1,0,5,1.2,5.3,4.4c0.2,2.7-1.8,5-4.5,5.2c-0.2,0-0.3,0-0.5,0
	c-3.7,0.2-7.5,0.2-11.2,0c-2.3-0.1-3.2,0.7-4,2.8c-5.5,15.8-11.1,31.6-16.6,47.4c-1.1,3.3-2.5,6.2-6.7,6.4c-4.9,0.2-7.4-2.8-5.9-7.3
	c2.7-8.2,5.7-16.3,8.6-24.4c2.6-7.4,5.2-14.9,7.9-22.3c0.6-1.8,0.6-2.7-1.7-2.5c-2.7,0.2-5.5,0-8.2,0c-4.2,0-5.9-1.3-6-4.3
	s2.4-5.3,6.2-5.4C198.4,15.5,204.7,15.6,211.1,15.6z"/>
<path class="st0" d="M16.4,15.5c2.4,0.8,4.4-0.5,6-2.6c0.8-1.1,1.8-2.2,3.4-1.8c1.8,0.4,2.2,2.1,2.2,3.5c0,3.4,2,5,4.8,6
	c1.3,0.5,2.5,1.1,2.5,2.8s-1.2,2.4-2.5,2.8c-3.1,1.1-4.7,3-4.4,6.4c0.2,1.4-0.6,2.8-1.9,3.3c-1.5,0.6-2.4-0.4-3.2-1.3
	c-2.2-2.7-4.8-3.7-8.2-2.4c-1.2,0.6-2.6,0.3-3.4-0.7c-0.8-1-0.9-2.4-0.1-3.5c2.1-3,2-5.6-0.1-8.8S10.9,15.2,16.4,15.5z"/>
<path class="st0" d="M173.8,51.1c2.5,0,5,0,7.5,0c1.7,0,3.3,0.2,4.1,1.9c0.7,1.6,0.5,3.5-0.6,4.9c-1.5,2.1-3.7,2.8-6.2,2.9
	c-4.5,0-9,0-13.5,0.1c-2.7,0-5.1-0.3-5.5-3.5c-0.2-3.1,2.1-5.9,5.3-6.1C167.9,51,170.9,51.2,173.8,51.1L173.8,51.1z"/>
</svg>
