<svg xmlns="http://www.w3.org/2000/svg" viewBox="0 0 101.23 101.51"><defs><style>.cls-1{fill:#fff;}</style></defs><title>Recurso 15</title><g id="Capa_2" data-name="Capa 2"><g id="Capa_1-2" data-name="Capa 1"><g id="Capa_2-2" data-name="Capa 2"><g id="Capa_1-2-2" data-name="Capa 1-2"><path class="cls-1" d="M49.75,0C70.31.4,85.87,9,95.18,27S103,63,90.91,79.16C79,95.14,62.54,101.5,42.63,98.59c-3.16-.46-6.48-.85-9.08-2.45-5.78-3.55-11-2.18-16.49.44-2.84,1.37-5.76,2.57-8.65,3.86-2.36,1.06-4.83,1.84-7-.2S0,95.65,1,93.29C3.13,88.6,5.17,83.88,6.86,79a7.38,7.38,0,0,0-.43-6.58C-8.83,44,7.77,8.5,40.2,1.12A82.89,82.89,0,0,1,49.75,0Zm1,4.12A45.48,45.48,0,0,0,10.53,71c1.43,2.75,1.84,5.19.65,8-2,5-3.92,9.93-5.87,14.88-.35.88-1.22,1.8-.25,2.7s1.83,0,2.7-.4c3.83-1.62,7.69-3.16,11.48-4.86,4.65-2.09,8.87-2,13.79.16,17.1,7.69,36.9,3.67,50.29-9.56A45.55,45.55,0,0,0,50.71,4.12Z"/><path class="cls-1" d="M60.5,47.26c0,5,.07,10,0,15,0,1.65.73,4.11-2.12,4.19-3.22.09-2.39-2.59-2.46-4.4-.13-3.16-.13-6.33,0-9.49.09-2.72-1-4-3.78-3.9-4.16.11-8.33.15-12.49,0-3-.11-4.27.93-4.12,4,.17,3.65,0,7.32,0,11,0,1.38-.15,2.75-2,2.85S31,65.35,31,63.66V31.19c0-1.68.46-3,2.52-2.88,2.24.1,2.05,1.78,2.08,3.24.05,3,.15,6,0,9s.87,4.43,4,4.12a23.17,23.17,0,0,1,2.5,0c4.29-.26,9.51,1.7,12.65-.82s.68-7.85,1.15-12c.19-1.59-.25-3.54,2.29-3.62s2.33,1.88,2.34,3.49C60.52,36.93,60.5,42.09,60.5,47.26Z"/><path class="cls-1" d="M69.61,51.9V42c0-1.68-.09-3.54,2.29-3.65s2.59,1.62,2.59,3.38V63.07c0,1.76-.26,3.51-2.57,3.42s-2.31-2-2.31-3.65C69.6,59.2,69.61,55.55,69.61,51.9Z"/><path class="cls-1" d="M72.24,27.7c1.37.33,2.63.88,2.6,2.47,0,1.86-1.39,2.5-3,2.35a2.24,2.24,0,0,1-2.32-2.15,2.16,2.16,0,0,1,0-.44C69.66,28.33,70.88,27.88,72.24,27.7Z"/></g></g></g></g></svg>