<svg xmlns="http://www.w3.org/2000/svg" viewBox="0 0 19.44 22.27"><defs><style>.cls-1{fill:#fced87;}</style></defs><title>Recurso 12vfsdf</title><g id="Capa_2" data-name="Capa 2"><g id="Capa_2-2" data-name="Capa 2"><path class="cls-1" d="M3.67,22.27a.87.87,0,0,1-.41-.11.82.82,0,0,1-.41-.72V16.6A9.73,9.73,0,0,1,0,9.18,9.82,9.82,0,0,1,9.26,0h0a9.73,9.73,0,1,1,.46,19.44c-.28,0-.56,0-.83,0L4.08,22.16A.77.77,0,0,1,3.67,22.27ZM9.3.79A8.94,8.94,0,0,0,3.52,16.16l.12.12,0,5.16,2.8-1.51,2.3-1.32.12,0c.29,0,.58,0,.88,0a9,9,0,0,0,9-9A8.94,8.94,0,0,0,9.3.79Z"/><path class="cls-1" d="M10,6.1c0-.28.21-.41.5-.41s.47.13.47.41v7.17c0,.27-.2.41-.47.41s-.5-.14-.5-.41V9.92H6.89v3.35c0,.27-.22.41-.49.41s-.48-.14-.48-.41V6.1c0-.28.2-.41.48-.41s.49.13.49.41V9H10Z"/><path class="cls-1" d="M12.58,8.36c0-.27.17-.4.45-.4s.47.13.47.4v4.92c0,.27-.2.4-.47.4s-.45-.13-.45-.4Zm1.14-2A.68.68,0,1,1,13,5.68a.67.67,0,0,1,.68.68"/></g></g></svg>