<svg xmlns="http://www.w3.org/2000/svg" viewBox="0 0 101.21 101.51"><defs><style>.cls-1{fill:#f9f5ab;}</style></defs><title>Recurso 578</title><g id="Capa_2" data-name="Capa 2"><g id="Capa_1-2" data-name="Capa 1"><path class="cls-1" d="M49.74,0C70.3.4,85.86,9,95.17,27s7.84,36-4.27,52.16C79,95.14,62.53,101.5,42.62,98.59c-3.16-.46-6.48-.85-9.08-2.45-5.78-3.55-11-2.18-16.49.44-2.84,1.37-5.76,2.57-8.65,3.86-2.36,1.06-4.83,1.84-7-.2S-.06,95.65,1,93.29C3.12,88.6,5.16,83.88,6.85,79a7.43,7.43,0,0,0-.43-6.58C-8.84,44,7.76,8.5,40.19,1.12A82,82,0,0,1,49.74,0Zm1,4.12A45.48,45.48,0,0,0,10.52,71c1.43,2.75,1.84,5.19.65,8C9.13,84,7.25,88.93,5.3,93.88c-.35.88-1.22,1.8-.25,2.7s1.83,0,2.7-.4c3.83-1.62,7.69-3.16,11.48-4.86,4.65-2.09,8.87-2,13.79.16,17.1,7.69,36.9,3.67,50.29-9.56A45.55,45.55,0,0,0,50.7,4.12Z"/><path class="cls-1" d="M60.49,47.26c0,5,.07,10,0,15,0,1.65.73,4.11-2.12,4.19-3.22.09-2.39-2.59-2.46-4.4-.13-3.16-.13-6.33,0-9.49.09-2.72-1-4-3.78-3.9-4.16.11-8.33.15-12.49,0-3-.11-4.27.93-4.12,4,.17,3.65,0,7.32,0,11,0,1.38-.15,2.75-2,2.85-2,.12-2.58-1.16-2.58-2.85q0-16.23,0-32.47c0-1.68.46-3,2.52-2.88,2.24.1,2.05,1.78,2.08,3.24.05,3,.15,6,0,9s.87,4.43,4,4.12c.83-.09,1.67,0,2.5,0,4.29-.26,9.51,1.7,12.65-.82S55.37,36,55.84,31.9c.19-1.59-.25-3.54,2.29-3.62s2.33,1.88,2.34,3.49C60.51,36.93,60.49,42.09,60.49,47.26Z"/><path class="cls-1" d="M69.6,51.9c0-3.31,0-6.63,0-9.94,0-1.68-.09-3.54,2.29-3.65s2.59,1.62,2.59,3.38q0,10.7,0,21.38c0,1.76-.26,3.51-2.57,3.42s-2.31-2-2.31-3.65C69.59,59.2,69.6,55.55,69.6,51.9Z"/><path class="cls-1" d="M72.23,27.7c1.37.33,2.63.88,2.6,2.47,0,1.86-1.39,2.5-3,2.35a2.24,2.24,0,0,1-2.3-2.59C69.65,28.33,70.87,27.88,72.23,27.7Z"/></g></g></svg>