<svg xmlns="http://www.w3.org/2000/svg" viewBox="0 0 19.78 12"><defs><style>.cls-1{fill:#fff;}</style></defs><title>Recurso 2sdfd</title><g id="Capa_2" data-name="Capa 2"><g id="Capa_1-2" data-name="Capa 1"><path class="cls-1" d="M0,11V1A1,1,0,0,1,1,0H1A1,1,0,0,1,2,1V11a1,1,0,0,1-1,1H1A1,1,0,0,1,0,11Zm13.3.3h0a1,1,0,0,1,0-1.41l2-2A.52.52,0,0,0,14.91,7H5A1,1,0,0,1,4,6V6A1,1,0,0,1,5,5h9.93a.52.52,0,0,0,.37-.89l-2-2a1,1,0,0,1,0-1.4h0a1,1,0,0,1,1.4,0l4.93,4.93a.53.53,0,0,1,0,.74L14.7,11.3A1,1,0,0,1,13.3,11.31Z"/></g></g></svg>