<svg xmlns="http://www.w3.org/2000/svg" viewBox="0 0 193.33 107.58"><defs><style>.cls-1{fill:#fff;}</style></defs><title>Recurso 2s</title><g id="Capa_2" data-name="Capa 2"><g id="Capa_1-2" data-name="Capa 1"><path class="cls-1" d="M108.61,103.91V4.84h.52v98.85Z"/><path class="cls-1" d="M9.52,54.29q3.48,3.81,7,7.61c7.11,7.58,14.4,15,21.23,22.8,3.44,3.93,7,5.16,11.71,3.09a5.87,5.87,0,0,0-2.46-5,5.87,5.87,0,0,1,2.46,5c2.4,0,4.86.57,7.12-.76a132.26,132.26,0,0,0,25.64-3.21C72.78,80.75,63,81,53.46,80l-10.93-.91L37.75,72.8l-1.24-1h0c-4-8.06-9.15-15.46-14.08-23-2.05.09-4.13,0-6,1-1.64,0-3.28-.05-4.91.08-1.41.11-3.37-.46-3.94,1.2C7.14,52.32,8.64,53.33,9.52,54.29Z"/><path class="cls-1" d="M90.78,85c-5.9,1.83-11.8,3.7-17.69,5.56-6,1.66-12.24,2.87-18.06,5.08-7.4,2.81-14.11,3.69-20-2.89-.1-.1-.31-.11-.47-.16l0,.18c-.35-.4-.7-.81-1.06-1.21l-9.59-7.2h0l-2.37-1.69a18.37,18.37,0,0,0-5.83-4.11l0,.05c-.51-1-1.31-.94-2.18-.57l0-.42L10.19,79.7C8.36,80,7,81.07,5.45,82L0,84.77,9.45,89a110,110,0,0,0,15.91,8.17l7.11,3.54h0l4,2c1.51,1,3,2.06,4.85,2.27a1,1,0,0,0,1.17.73c2.25,1.38,4.26,2.72,7.23,1.13,9.12-4.89,18.4-9.48,27.61-14.18l15-6.91A1.18,1.18,0,0,0,90.78,85ZM23.63,88.64s-.05,0-.09,0S23.6,88.63,23.63,88.64Zm1.81.18h0l0,0Zm2.18,5.06a11.72,11.72,0,0,0,1.2,1.34A11.72,11.72,0,0,1,27.62,93.88Zm4.82,3.94,0,0Z"/><path class="cls-1" d="M29.47,34.86l7.09,16q3.22,8,6.46,16.1c.5,1.25,1,2.43,2.54,2.79,5.95,1.41,11.88,2.87,17.82,4.31a12.61,12.61,0,0,0-2.05-3,12.61,12.61,0,0,1,2.05,3c1.11,1,2.49.89,3.84.9a134.28,134.28,0,0,0,23.1,6l.18-.19-.18.18.63.38-.29-.73h0A176.33,176.33,0,0,0,67.48,69.75v0A5.79,5.79,0,0,0,63.4,67.9a10.08,10.08,0,0,0-4.85-2.19v0a.34.34,0,0,0-.12-.06.34.34,0,0,1,.12.06c-.3-.91-1.11-.94-1.86-1.06a16.74,16.74,0,0,0-6.18-3,2.42,2.42,0,0,1-.27.28,2.42,2.42,0,0,0,.27-.28l-2.06-.87c-2.66-5-2.6-10.71-4.22-16C43,39.26,41.69,33.66,40.65,28c-.33-1.77-.87-3.09-2.47-3.9L24.45,21c.47,3.18,1.85,5.55,3.09,8C28.18,30.9,28.83,32.88,29.47,34.86Zm28.8,30.81a1.52,1.52,0,0,0-.34.06A1.52,1.52,0,0,1,58.27,65.67Zm-1.38.27a.32.32,0,0,1-.22-.16A.32.32,0,0,0,56.89,65.94Zm-8.46-5.08c0,.08,0,.16,0,.24,0-.08,0-.16,0-.24Zm0,.25v0Zm.16.7a.08.08,0,0,1,0,0A.08.08,0,0,0,48.64,61.81Zm.07.19v0Zm.17.32.08.08Zm.11.11.09,0Zm.12.07a.29.29,0,0,0,.1,0A.29.29,0,0,1,49.11,62.5Zm.14,0h0Zm.52-.16,0,0Zm-.37.16.11,0Zm.18-.06.11-.06Z"/><path class="cls-1" d="M95.68,75.89C95,71,96.06,65.92,94.9,61a.48.48,0,0,0-.35-.57c-.13-1.54-.26-3.08-.4-4.62.14,1.54.27,3.08.4,4.62,1.13-2.21.47-4.42,0-6.64-.08-7.11-.18-14.23-.24-21.34,0-1.69-.13-3.15-1.81-4.26-5.73-3.8-11.35-7.75-17-11.63l-1-.68-2.06-1.52L64.51,8.82a61.34,61.34,0,0,0-10-7l0,0L53.43,1c-.69-.43-1.68-1.93-2,0s.06,4,.14,5.95c-.1,3-.2,6-.29,9q.57,5.49,1.16,11c.1,7.44.24,14.89.27,22.33a4,4,0,0,0,1.91,3.7c7.63,5.21,15.2,10.51,22.8,15.78l13.82,9.77L94.39,82l1.34-2.22C95.71,78.48,95.7,77.19,95.68,75.89Zm-26.27-44h0c0,.33,0,.67,0,1Zm1,3c1.28,3.12,2.5,6.26,3.74,9.39C72.9,41.11,71.68,38,70.4,34.85Z"/><path class="cls-1" d="M134.15,14a.5.5,0,0,1-.1.33.46.46,0,0,1-.39.21.76.76,0,0,1-.31-.1,9,9,0,0,0-5.12-1.64,7.83,7.83,0,0,0-6.92,4.07,8.67,8.67,0,0,0-1.06,4.3,8.65,8.65,0,0,0,1.06,4.3,7.83,7.83,0,0,0,6.92,4.07A8.8,8.8,0,0,0,133.32,28a.49.49,0,0,1,.32-.1.48.48,0,0,1,.41.21.46.46,0,0,1,.1.31.47.47,0,0,1-.2.41A9.27,9.27,0,0,1,131.33,30a9.88,9.88,0,0,1-3.1.52A8.93,8.93,0,0,1,120.38,26a9.42,9.42,0,0,1-1.23-4.77,9.42,9.42,0,0,1,1.23-4.77,9,9,0,0,1,3.3-3.37,8.84,8.84,0,0,1,4.55-1.22,10,10,0,0,1,3,.47,9.82,9.82,0,0,1,2.66,1.3A.51.51,0,0,1,134.15,14Z"/><path class="cls-1" d="M138.24,30.14a.53.53,0,0,1-.37.15.48.48,0,0,1-.37-.15.53.53,0,0,1-.15-.37V11.57a.55.55,0,0,1,.52-.52.51.51,0,0,1,.52.52v18.2A.53.53,0,0,1,138.24,30.14Z"/><path class="cls-1" d="M153.85,17.47a.57.57,0,0,1,.14.37V29.77a.51.51,0,0,1-.52.52.48.48,0,0,1-.37-.15.53.53,0,0,1-.15-.37V27.43a5.51,5.51,0,0,1-2,2.22,5.28,5.28,0,0,1-3,.9,5.51,5.51,0,0,1-3.09-.9,6.05,6.05,0,0,1-2.16-2.47,7.78,7.78,0,0,1-.78-3.52,7.48,7.48,0,0,1,.79-3.47,6.07,6.07,0,0,1,2.17-2.42A5.63,5.63,0,0,1,148,16.9a5.42,5.42,0,0,1,3,.89A5,5,0,0,1,153,20.15V17.84a.53.53,0,0,1,.15-.37.48.48,0,0,1,.37-.15A.5.5,0,0,1,153.85,17.47ZM150.6,28.8a5.23,5.23,0,0,0,1.81-2.12,6.93,6.93,0,0,0,.65-3,6.54,6.54,0,0,0-.65-2.91,5.27,5.27,0,0,0-1.81-2.09,4.58,4.58,0,0,0-2.59-.77,4.71,4.71,0,0,0-2.58.74,5,5,0,0,0-1.81,2.05,6.56,6.56,0,0,0-.65,3,6.79,6.79,0,0,0,.65,3,5.19,5.19,0,0,0,1.79,2.12,4.81,4.81,0,0,0,5.19,0Z"/><path class="cls-1" d="M157.4,27.72a.43.43,0,0,1,.21-.34.4.4,0,0,1,.31-.13.48.48,0,0,1,.41.21,4.86,4.86,0,0,0,4.22,2.16,4.26,4.26,0,0,0,2.41-.69,2.12,2.12,0,0,0,1-1.86,2,2,0,0,0-.91-1.8,8.32,8.32,0,0,0-2.49-1,9.53,9.53,0,0,1-3.32-1.4,2.85,2.85,0,0,1-1.21-2.45,3.15,3.15,0,0,1,1.23-2.54,4.82,4.82,0,0,1,3.14-1,5.68,5.68,0,0,1,2.12.42,5.39,5.39,0,0,1,1.91,1.32.49.49,0,0,1,.18.37.57.57,0,0,1-.18.41.82.82,0,0,1-.34.11.38.38,0,0,1-.31-.16,4.48,4.48,0,0,0-3.48-1.48,3.85,3.85,0,0,0-2.33.68,2.13,2.13,0,0,0,.08,3.6,10.12,10.12,0,0,0,2.79,1.08,12.21,12.21,0,0,1,2.2.74,3.38,3.38,0,0,1,1.39,1.13A3.17,3.17,0,0,1,167,27a3.05,3.05,0,0,1-1.26,2.58,5.29,5.29,0,0,1-3.29.95,6,6,0,0,1-4.86-2.34A1,1,0,0,1,157.4,27.72Z"/><path class="cls-1" d="M181,27.31a.48.48,0,0,1,.13.33.55.55,0,0,1-.1.31,7,7,0,0,1-2.14,1.87,5.37,5.37,0,0,1-2.73.73,7,7,0,0,1-3.45-.83,5.85,5.85,0,0,1-2.36-2.37,7.29,7.29,0,0,1-.84-3.56,7.73,7.73,0,0,1,.82-3.65,6,6,0,0,1,2.17-2.41,5.44,5.44,0,0,1,2.88-.83,6.22,6.22,0,0,1,2.85.66,5.47,5.47,0,0,1,2.15,2,6.51,6.51,0,0,1,.88,3.28.54.54,0,0,1-.16.38.48.48,0,0,1-.36.17H170.5v.33a6.68,6.68,0,0,0,.65,2.95,5,5,0,0,0,1.93,2.12,5.73,5.73,0,0,0,3.06.78A4.77,4.77,0,0,0,178.5,29a4.89,4.89,0,0,0,1.73-1.54.53.53,0,0,1,.44-.24A.43.43,0,0,1,181,27.31Zm-7.58-8.86A5.15,5.15,0,0,0,171.63,20a5.46,5.46,0,0,0-1,2.43h9.56v-.24a4.31,4.31,0,0,0-.84-2.27,4.74,4.74,0,0,0-1.77-1.44,5.09,5.09,0,0,0-2.2-.5A4.31,4.31,0,0,0,173.4,18.45Z"/><path class="cls-1" d="M183.74,27.72a.42.42,0,0,1,.2-.34.42.42,0,0,1,.32-.13.48.48,0,0,1,.41.21,4.85,4.85,0,0,0,4.21,2.16,4.27,4.27,0,0,0,2.42-.69,2.14,2.14,0,0,0,1-1.86,2,2,0,0,0-.91-1.8,8.43,8.43,0,0,0-2.49-1,9.53,9.53,0,0,1-3.32-1.4,2.85,2.85,0,0,1-1.21-2.45,3.17,3.17,0,0,1,1.22-2.54,4.87,4.87,0,0,1,3.15-1,5.68,5.68,0,0,1,2.12.42,5.39,5.39,0,0,1,1.91,1.32A.49.49,0,0,1,193,19a.57.57,0,0,1-.18.41.82.82,0,0,1-.34.11.38.38,0,0,1-.31-.16,4.48,4.48,0,0,0-3.48-1.48,3.85,3.85,0,0,0-2.33.68,2.17,2.17,0,0,0-.95,1.87,2.13,2.13,0,0,0,1,1.73,10.12,10.12,0,0,0,2.79,1.08,12.21,12.21,0,0,1,2.2.74,3.45,3.45,0,0,1,1.39,1.13,3.17,3.17,0,0,1,.52,1.9,3.05,3.05,0,0,1-1.26,2.58,5.29,5.29,0,0,1-3.29.95,6,6,0,0,1-4.86-2.34A1,1,0,0,1,183.74,27.72Z"/><path class="cls-1" d="M127.82,48.36a5.25,5.25,0,0,1,1.69.69c.43.29.64.59.64.9a.52.52,0,0,1-.14.36.44.44,0,0,1-.35.16.62.62,0,0,1-.35-.08,2.23,2.23,0,0,1-.33-.29,2.26,2.26,0,0,0-.7-.57,6.47,6.47,0,0,0-2.65-.44,5.13,5.13,0,0,0-2.75.78,5.74,5.74,0,0,0-2,2.12,6,6,0,0,0-.74,2.92,6.51,6.51,0,0,0,.69,3,5.11,5.11,0,0,0,2,2.09,5.46,5.46,0,0,0,2.85.75,6,6,0,0,0,1.64-.18,5.82,5.82,0,0,0,1.19-.52,3.84,3.84,0,0,0,.73-.57,1.69,1.69,0,0,1,.26-.22.45.45,0,0,1,.26-.09.38.38,0,0,1,.32.13.47.47,0,0,1,.12.34q0,.36-.6.87a5.28,5.28,0,0,1-1.65.87,7.2,7.2,0,0,1-2.35.36,6.34,6.34,0,0,1-3.34-.88,6.15,6.15,0,0,1-2.29-2.45,7.39,7.39,0,0,1-.82-3.51,7.13,7.13,0,0,1,.82-3.38A6.44,6.44,0,0,1,122.23,49a6.28,6.28,0,0,1,3.42-.94A9.14,9.14,0,0,1,127.82,48.36Z"/><path class="cls-1" d="M144.42,58.41a6.21,6.21,0,0,1-2.3,2.44,6.35,6.35,0,0,1-6.52,0,6.36,6.36,0,0,1-2.32-2.45,7.59,7.59,0,0,1,0-6.94,6.49,6.49,0,0,1,2.3-2.46,6.39,6.39,0,0,1,6.54,0,6.27,6.27,0,0,1,2.3,2.46,7.61,7.61,0,0,1,0,6.95ZM143.53,52a5.36,5.36,0,0,0-1.91-2.09,5.3,5.3,0,0,0-5.5,0A5.35,5.35,0,0,0,134.18,52a6.25,6.25,0,0,0-.7,3,6.19,6.19,0,0,0,.7,3,5.31,5.31,0,0,0,1.94,2.1,5.1,5.1,0,0,0,2.74.76,5.1,5.1,0,0,0,4.67-2.84,6.44,6.44,0,0,0,.69-3A6.37,6.37,0,0,0,143.53,52Z"/><path class="cls-1" d="M158.05,49.47A5.26,5.26,0,0,1,159.22,53V61a.5.5,0,0,1-.16.37.49.49,0,0,1-.36.15.5.5,0,0,1-.38-.15.57.57,0,0,1-.14-.37V53.12a4.46,4.46,0,0,0-.92-2.9,3.42,3.42,0,0,0-2.8-1.13,5,5,0,0,0-2.25.55,4.87,4.87,0,0,0-1.81,1.48,3.31,3.31,0,0,0-.7,2V61a.51.51,0,0,1-.52.52.48.48,0,0,1-.37-.15.53.53,0,0,1-.15-.37V49a.5.5,0,0,1,.16-.37.49.49,0,0,1,.36-.15.5.5,0,0,1,.38.15.57.57,0,0,1,.14.37v1.74a5.81,5.81,0,0,1,2.12-1.92,5.57,5.57,0,0,1,2.74-.76A4.34,4.34,0,0,1,158.05,49.47Z"/><path class="cls-1" d="M121.82,92a5.89,5.89,0,0,1-2-2.62.78.78,0,0,1-.06-.26.44.44,0,0,1,.16-.34.52.52,0,0,1,.36-.13.52.52,0,0,1,.5.34,4.7,4.7,0,0,0,1.56,2.14,3.83,3.83,0,0,0,2.42.82,4.11,4.11,0,0,0,4.39-4.39V75a.46.46,0,0,1,.16-.36.53.53,0,0,1,.41-.16.48.48,0,0,1,.38.16.52.52,0,0,1,.14.36V87.52a5.72,5.72,0,0,1-.69,2.84,4.78,4.78,0,0,1-1.94,1.92,5.88,5.88,0,0,1-2.85.67A4.81,4.81,0,0,1,121.82,92Z"/><path class="cls-1" d="M145.22,79.87a.57.57,0,0,1,.14.37V87.8A4.86,4.86,0,0,1,144,91.56a5.35,5.35,0,0,1-3.78,1.29,5.29,5.29,0,0,1-3.77-1.29A4.89,4.89,0,0,1,135,87.8V80.24a.51.51,0,0,1,.52-.52.52.52,0,0,1,.38.15.57.57,0,0,1,.14.37V87.8a4,4,0,0,0,1.09,3,4.9,4.9,0,0,0,6.06,0,4,4,0,0,0,1.09-3V80.24a.57.57,0,0,1,.14-.37.52.52,0,0,1,.38-.15A.5.5,0,0,1,145.22,79.87Z"/><path class="cls-1" d="M160.69,79.87a.57.57,0,0,1,.14.37V92.17a.5.5,0,0,1-.16.37.49.49,0,0,1-.36.15.5.5,0,0,1-.38-.15.57.57,0,0,1-.14-.37V89.83a5.51,5.51,0,0,1-2,2.22,5.28,5.28,0,0,1-3,.9,5.54,5.54,0,0,1-3.1-.9,6.1,6.1,0,0,1-2.15-2.47,7.78,7.78,0,0,1-.78-3.52,7.48,7.48,0,0,1,.79-3.47,6.07,6.07,0,0,1,2.17-2.42,5.63,5.63,0,0,1,3.07-.87,5.42,5.42,0,0,1,3,.89,5,5,0,0,1,1.95,2.36V80.24a.57.57,0,0,1,.14-.37.56.56,0,0,1,.76,0ZM157.44,91.2a5.13,5.13,0,0,0,1.8-2.12,6.79,6.79,0,0,0,.65-3,6.41,6.41,0,0,0-.65-2.91,5.17,5.17,0,0,0-1.8-2.09,4.61,4.61,0,0,0-2.59-.77,4.74,4.74,0,0,0-2.59.74,5,5,0,0,0-1.8,2,6.56,6.56,0,0,0-.65,3,6.79,6.79,0,0,0,.65,3,5.19,5.19,0,0,0,1.79,2.12,4.81,4.81,0,0,0,5.19,0Z"/><path class="cls-1" d="M174.53,80.67a5.26,5.26,0,0,1,1.17,3.55v8a.51.51,0,0,1-.52.52.52.52,0,0,1-.38-.15.57.57,0,0,1-.14-.37V84.32a4.46,4.46,0,0,0-.92-2.9,3.42,3.42,0,0,0-2.8-1.13,5,5,0,0,0-2.25.55,4.91,4.91,0,0,0-1.8,1.48,3.25,3.25,0,0,0-.7,2v7.85a.54.54,0,0,1-.16.37.51.51,0,0,1-.36.15.49.49,0,0,1-.38-.15.52.52,0,0,1-.14-.37V80.24a.51.51,0,0,1,.52-.52.48.48,0,0,1,.37.15.53.53,0,0,1,.15.37V82a5.78,5.78,0,0,1,2.11-1.92,5.58,5.58,0,0,1,2.75-.76A4.33,4.33,0,0,1,174.53,80.67Z"/><rect class="cls-1" x="108.11" y="4.84" width="1" height="99.18"/></g></g></svg>