<svg xmlns="http://www.w3.org/2000/svg" viewBox="0 0 98.57 75.07"><defs><style>.cls-1{fill:#fff;}</style></defs><title>Recurso 178</title><g id="Capa_2" data-name="Capa 2"><g id="Capa_1-2" data-name="Capa 1"><g id="Capa_2-2" data-name="Capa 2"><g id="Capa_1-2-2" data-name="Capa 1-2"><path class="cls-1" d="M98.46,37.43c0,9.66-.1,19.32,0,29,0,4-1.4,5-5.15,3.89-14-4.18-27.6-3.9-40.49,3.67a6.89,6.89,0,0,1-7.51-.07C32.52,66.69,19.06,66.5,5.22,70.29c-1.65.45-4,1.55-4.63-1-.5-2,1.87-2.3,3.41-2.82C17,62.38,29.85,62,42.5,67.64c3.12,1.4,4.69,1.64,4.64-2.71-.17-16.65-.11-33.31,0-50,0-2.72-1-4.16-3.4-5.37-10.71-5.39-22-6-33.6-4.48-4.14.6-6.14,2.3-6,7.16.43,14.8.27,29.63.25,44.45,0,1.82.83,4.77-1.95,4.88C-1,61.7.24,58.42.23,56.57.12,40.46.29,24.31.09,8.16c0-4,2.2-5.16,5.28-5.92C18.66-1,31.76-1.26,44.3,5.13a10.09,10.09,0,0,0,9.82.17C66.49-.44,79.38-1.19,92.63,2c4.19,1,6.11,2.81,5.93,7.45C98.21,18.77,98.46,28.11,98.46,37.43Zm-3.9-1.08c0-8.32-.17-16.65.07-25,.11-3.51-1.2-5.19-4.49-5.91C77.47,2.71,65.37,3.85,53.9,10.26a4.41,4.41,0,0,0-2.41,4.43q.06,25.47,0,51c0,2.55.48,3.87,3.43,2.49C66.1,63,77.83,62.8,89.61,65.26c4.43.93,5.08-.6,5-4.38C94.43,52.67,94.56,44.51,94.56,36.35Z"/></g></g></g></g></svg>