<svg xmlns="http://www.w3.org/2000/svg" viewBox="0 0 20.87 16.12"><defs><style>.cls-1{fill:#8c70ff;}</style></defs><title>Recurso 6sdfd</title><g id="Capa_2" data-name="Capa 2"><g id="Capa_2-2" data-name="Capa 2"><path class="cls-1" d="M15.89,1a11.32,11.32,0,0,1,4,.58V14.06a13.18,13.18,0,0,0-4-.55,9.94,9.94,0,0,0-5,1.33V2.43a12,12,0,0,1,5-1.48M5,0A12.13,12.13,0,0,0,.3.74a.48.48,0,0,0-.3.45V12.8a.48.48,0,0,0,.47.48A.48.48,0,0,0,1,12.81H1V1.53A11.26,11.26,0,0,1,5,1a12.08,12.08,0,0,1,5,1.48V14.84a10,10,0,0,0-5-1.33,13,13,0,0,0-4.66.74.46.46,0,0,0-.29.6.47.47,0,0,0,.6.3A11.78,11.78,0,0,1,5,14.46a9.48,9.48,0,0,1,5.22,1.6.49.49,0,0,0,.47,0,9.48,9.48,0,0,1,5.22-1.6,11.78,11.78,0,0,1,4.35.69.48.48,0,0,0,.6-.3.4.4,0,0,0,0-.15V1.19a.48.48,0,0,0-.3-.45A12.15,12.15,0,0,0,15.89,0a12.64,12.64,0,0,0-5.46,1.62A12.59,12.59,0,0,0,5,0"/></g></g></svg>