<svg xmlns="http://www.w3.org/2000/svg" viewBox="0 0 98.57 75.06"><defs><style>.cls-1{fill:#cca8fa;}</style></defs><title>Recurso 678</title><g id="Capa_2" data-name="Capa 2"><g id="Capa_1-2" data-name="Capa 1"><path class="cls-1" d="M98.46,37.44c0,9.66-.1,19.32,0,29,0,4-1.4,5-5.15,3.89-14-4.18-27.6-3.9-40.49,3.67a6.88,6.88,0,0,1-7.51-.07C32.52,66.7,19.06,66.51,5.22,70.3c-1.65.45-4,1.55-4.63-1C.09,67.26,2.46,67,4,66.48,17,62.39,29.85,62,42.5,67.65c3.12,1.4,4.69,1.64,4.64-2.71-.17-16.65-.11-33.31,0-50,0-2.72-1-4.16-3.4-5.37-10.71-5.39-22-6-33.6-4.48C6,5.69,4,7.39,4.11,12.25c.43,14.8.27,29.63.25,44.45,0,1.82.83,4.77-1.95,4.88-3.46.13-2.17-3.15-2.18-5C.12,40.47.29,24.32.09,8.17c0-4,2.2-5.16,5.28-5.92C18.66-1,31.76-1.25,44.3,5.14a10.09,10.09,0,0,0,9.82.17C66.49-.43,79.38-1.18,92.63,2c4.19,1,6.11,2.81,5.93,7.45C98.21,18.78,98.46,28.12,98.46,37.44Zm-3.9-1.08c0-8.32-.17-16.65.07-25,.11-3.51-1.2-5.19-4.49-5.91C77.47,2.72,65.37,3.86,53.9,10.27,52,11.34,51.49,12.7,51.49,14.7q.06,25.47,0,51c0,2.55.48,3.87,3.43,2.49,11.18-5.23,22.91-5.38,34.69-2.92,4.43.93,5.08-.6,5-4.38C94.43,52.68,94.56,44.52,94.56,36.36Z"/></g></g></svg>