<?xml version="1.0" encoding="utf-8"?>
<!-- Generator: Adobe Illustrator 24.0.2, SVG Export Plug-In . SVG Version: 6.00 Build 0)  -->
<svg version="1.1" id="Capa_1" xmlns="http://www.w3.org/2000/svg" xmlns:xlink="http://www.w3.org/1999/xlink" x="0px" y="0px"
	 viewBox="0 0 210 105" style="enable-background:new 0 0 210 105;" xml:space="preserve">
<style type="text/css">
	.st0{display:none;fill:#111111;}
	.st1{opacity:1.000000e-02;}
	.st2{fill:#FFFFFF;}
</style>
<rect x="-248" y="-135" class="st0" width="513" height="323"/>
<g class="st1">
	<g>
		<g>
			<path class="st2" d="M160.5,50.4V61c0,1,1.3,1.5,2,0.8l8.7-10.3c0.2-0.2,0.3-0.4,0.3-0.7V39.3c0-0.6-0.5-1.1-1.1-1.1H145
				c-0.4,0-0.6,0.1-0.9,0.5l-7.4,8.6c-0.6,0.8,0,2,1,2h21.6C160,49.2,160.5,49.7,160.5,50.4z"/>
			<path class="st2" d="M186.7,49.2h10.7c1,0,1.5-1.3,0.8-2l-10.3-8.8c-0.2-0.2-0.4-0.3-0.7-0.3h-11.4c-0.6,0-1.1,0.5-1.1,1.1v25.4
				c0,0.4,0.1,0.6,0.5,0.9l8.6,7.4c0.8,0.6,2,0,2-1V50.3C185.6,49.7,186.1,49.2,186.7,49.2z"/>
			<path class="st2" d="M159.3,23.9h-10.7c-1,0-1.5,1.3-0.8,2l10.3,8.8c0.2,0.2,0.4,0.3,0.7,0.3h11.4c0.6,0,1.1-0.5,1.1-1.1V8.5
				c0-0.4-0.1-0.6-0.5-0.9l-8.6-7.4c-0.8-0.6-2,0-2,1v21.6C160.5,23.5,160,23.9,159.3,23.9z"/>
			<path class="st2" d="M185.6,22.8V12.2c0-1-1.3-1.5-2-0.8l-8.8,10.3c-0.2,0.2-0.3,0.4-0.3,0.7v11.4c0,0.6,0.5,1.1,1.1,1.1H201
				c0.4,0,0.6-0.1,0.9-0.5l7.4-8.6c0.6-0.8,0-2-1-2h-21.6C186.1,23.9,185.6,23.5,185.6,22.8z"/>
		</g>
		<g>
			<path class="st2" d="M6.4,58.1c-1.6,0-3-0.6-4.2-1.7c-1.2-1.2-1.7-2.5-1.7-4.2s0.6-3.1,1.7-4.2c1.2-1.1,2.5-1.7,4.2-1.7
				c1.6,0,3,0.6,4.2,1.7c1.2,1.1,1.7,2.5,1.7,4.2c0,1.6-0.6,3-1.7,4.2C9.4,57.5,8,58.1,6.4,58.1z"/>
			<path class="st2" d="M1.7,103.3V65.8c0-0.6,0.5-1,1-1l7.3-1c0.6,0,1,0.5,1,1v38.5c0,0.6-0.5,1-1,1H2.7
				C2.1,104.4,1.7,103.9,1.7,103.3z"/>
		</g>
		<path class="st2" d="M40,95.5c-5.6,0-11.7-1.7-14.2-7.2c-1.8-4-0.7-8.9,2.4-11.9l0,0c4.1-4,10.4-4.3,15.7-3.5
			c0.4,0.1,0.8,0.1,1.2,0.2c0.6,0.1,1.1-0.3,1.2-0.8l1.2-7.2c0.1-0.6-0.3-1.1-0.9-1.2c-0.5-0.1-1-0.1-1.5-0.2
			c-8.2-1.1-17.3,0-23.4,6.1c-3.8,3.8-6.1,9-6.1,14.4c0,2.9,0.6,5.5,1.7,7.9c3.3,7.4,10.5,11.9,18.5,12.7c0.7,0.1,1.3,0.1,1.9,0.1
			c0.6,0,1.2,0.1,1.8,0.1c2.1,0,4-0.1,5.6-0.3c0.8-0.1,1.5-0.2,2.2-0.3c0.6-0.1,1-0.7,0.8-1.3l-1.5-7.2c-0.1-0.6-0.6-0.9-1.2-0.8
			C43.9,95.2,41.1,95.5,40,95.5z"/>
		<path class="st2" d="M147.4,84.1c-1.2-0.8-2.4-1.6-3.8-2.1c-1.5-0.6-2.9-1-4.1-1.4h-0.1c-0.7-0.1-1.5-0.3-2.4-0.6
			c-0.9-0.2-1.8-0.4-2.8-0.7c-1-0.2-1.7-0.4-2.4-0.6c-0.7-0.1-1.2-0.3-1.4-0.3c-0.6-0.1-1.3-0.4-1.7-0.8c-0.7-0.6-1-1.3-0.9-2.2
			c0.1-1.2,0.9-2.2,2.5-2.9c1-0.4,2.2-0.6,3.6-0.6c0.7,0,1.5,0.1,2.3,0.1l0,0c2,0.3,4,0.8,6,1.6c0.6,0.3,1.2,0.5,1.7,0.7
			c0.6,0.3,1.4-0.1,1.5-0.8c0.3-2,0.6-4.3,1-6.8c0.1-0.5-0.2-1-0.6-1.2c-1-0.4-2.2-0.8-3.3-1.3c-1.7-0.6-3.6-0.9-5.6-1
			c-0.8-0.1-1.5-0.1-2.2-0.1c-1.3,0-2.5,0.1-3.7,0.3c-1.9,0.3-3.7,0.8-5.3,1.5c-1.6,0.8-3,1.8-4.2,3.1c-1.1,1.3-2,2.8-2.5,4.7
			c-0.5,1.8-0.6,3.5-0.3,4.9c0.3,1.5,0.9,2.8,1.8,3.9s2.1,2.1,3.5,2.9c1.5,0.8,3.1,1.4,4.9,1.8l0,0l0,0c1.5,0.4,3.1,0.8,4.7,1.1
			c1.5,0.3,2.9,0.6,4.1,0.9l0,0c3.6,1,4.1,2.8,3.9,4.1l0,0l0,0c-0.3,1.4-1.5,2.4-3.6,2.9c-1.1,0.3-2.4,0.5-3.9,0.5
			c-0.8,0-1.7-0.1-2.7-0.1c-2.8-0.3-5.1-0.7-7-1.3c-0.5-0.1-1-0.3-1.5-0.5c-0.5-0.1-1,0.1-1.3,0.6l-2.7,6.1c-0.3,0.6,0,1.3,0.6,1.5
			c0.9,0.3,1.9,0.6,2.9,1c1.5,0.4,3.3,0.8,5.4,1.3c2,0.3,4.1,0.6,6.3,0.6s4.3-0.3,6.4-0.8c2-0.6,3.8-1.4,5.4-2.5
			c1.5-1.1,2.8-2.4,3.7-4s1.4-3.5,1.5-5.6c0.1-1.8-0.3-3.4-1-4.6C149.4,86,148.5,84.9,147.4,84.1z"/>
		<path class="st2" d="M112.3,72.3c-0.9-1.6-2-3-3.3-4.3c-0.1-0.1-0.2-0.2-0.3-0.3c-4.8-4.3-10.9-4.7-13.5-4.5
			c-6,0.5-11.4,3.8-14.9,8.7c-2.4,3.6-3.8,7.8-3.8,12.1c-0.1,2.9,0.5,5.6,1.6,8c2.2,4.9,6.4,8.9,11.4,11c4.5,1.9,9.7,2,14.6,1.7
			c0.9-0.1,4.3-0.6,6.1-0.8c0.5-0.1,0.8-0.6,0.7-1.1l-1.7-7.2c-0.1-0.6-0.7-0.9-1.3-0.8c-2.5,0.6-5,0.8-7.6,0.9
			c-2.3,0-4.6-0.1-6.8-0.8c-2.7-0.9-5.1-2.6-6.5-5.2c-0.1-0.3-0.3-0.6-0.4-0.9h27c0.3,0,0.6-0.3,0.6-0.6c0.1-1.1,0.3-2.2,0.3-3.3
			C114.9,80.5,114.4,76.1,112.3,72.3z M86.6,80.5c0.6-1.7,2.7-9.3,12.2-7.9c6.1,1,7,7.4,7,7.9H86.6z"/>
		<path class="st2" d="M79.4,42.8c-8,0.8-15.8,3.7-19.9,11.1c-0.6,1-1,2.2-1.4,3.3c-0.8,2.6-0.9,4.2-1,6.6h-4.2c-0.6,0-1,0.5-1,1
			L50.7,72c0,0.6,0.5,1,1,1h5.2v30.4c0,0.6,0.5,1,1,1h7.4c0.6,0,1-0.5,1-1V73.1h8.6c0.6,0,1-0.5,1-1l1.1-7.2c0-0.6-0.5-1-1-1h-9.7
			v-0.1c0-1.6,0.3-3,0.8-4.3c2-4.5,6.5-6.4,11.1-7c0.6-0.1,0.8-0.3,1-1l1.2-7.7C80.4,43.2,80,42.8,79.4,42.8z"/>
	</g>
</g>
</svg>
