<svg xmlns="http://www.w3.org/2000/svg" viewBox="0 0 98.63 98.22"><defs><style>.cls-1{fill:#fbca8f;}</style></defs><title>Recurso 278</title><g id="Capa_2" data-name="Capa 2"><g id="Capa_1-2" data-name="Capa 1"><path class="cls-1" d="M49.36,98.18c-10.16,0-20.32.1-30.47,0C6.88,98,.62,91.53.31,79.53c-.53-20.3-.28-40.6,0-60.91C.52,6.8,7.18.11,19.05.07Q49.52-.06,80,.07c11.73.06,18.56,7,18.6,18.7q.09,30.47,0,60.94c0,11.51-6.72,18.28-18.26,18.44C70,98.29,59.68,98.18,49.36,98.18ZM50,3.82c-10.49,0-21-.07-31.48,0-9.47.08-14,4.64-14,14.19q-.1,31.22,0,62.43c0,9.19,5,14.3,14.16,14.35q31.23.2,62.45,0c9.27,0,14.55-5.43,14.58-14.69q.11-31,0-62C95.62,9,90.52,3.91,81.47,3.84,71,3.76,60.49,3.82,50,3.82Z"/><path class="cls-1" d="M41.3,66.31c-.14,2.29-1.87,2.62-3.54,2.43-4.57-.52-6.91,1-6.29,6,.19,1.59.05,3.79-2.16,3.77-2,0-2.56-2-2.32-3.72.66-4.84-1.41-6.62-6.11-6-1.52.2-3.28-.14-3.41-2-.15-2.28,1.73-2.71,3.45-2.45,4.75.73,6.68-1.13,6.13-5.91a2.33,2.33,0,0,1,2.32-2.71c1.71,0,2.22,1.55,2.05,2.86-.66,5.14,2,6.3,6.41,5.76C39.33,64.07,40.87,64.33,41.3,66.31Z"/><path class="cls-1" d="M69.37,33.24l-4.16,3.92c-1.16,1.11-2.52,2-3.9.65S61,34.9,62.13,34C66,31,67,28.06,62.4,24.74c-1.16-.83-2.28-2.29-.59-3.74,1.36-1.16,2.62-.39,3.39.76,3.45,5.12,6.59,4,9.82-.23.94-1.25,2.45-2.13,3.8-.65s-.1,2.59-1.07,3.32c-4.4,3.31-5.13,6.46-.15,10,1.14.8,2.37,2.28.63,3.72s-2.67-.1-3.81-1C72.93,35.6,71.94,33.66,69.37,33.24Z"/><path class="cls-1" d="M29,32c-2.81,0-5.62,0-8.43,0-1.67,0-3.14-.5-3.18-2.34,0-1.59,1.34-2.18,2.79-2.19q9.16,0,18.35,0c1.42,0,2.75.58,2.68,2.26S39.93,32,38.47,32c-3.14,0-6.28,0-9.43,0Z"/><path class="cls-1" d="M69,65.46c-2.82,0-5.64.07-8.46,0-1.36,0-2.73-.54-2.79-2.23-.05-1.85,1.43-2.09,2.77-2.1,6-.05,12,0,17.93,0,1.24,0,2.44.34,2.57,1.79.16,1.74-1.14,2.27-2.56,2.35-3.15.2-6.3.31-9.45.46Z"/><path class="cls-1" d="M69.66,75.43c-3,0-6,.06-9,0-1.34,0-2.8-.4-2.9-2.1s1.4-2.18,2.73-2.17c6.15,0,12.31.17,18.46.32,1.06,0,2,.45,2.07,1.68,0,1.54-1.17,1.91-2.39,1.93-3,.07-6,0-9,0Z"/></g></g></svg>