<svg xmlns="http://www.w3.org/2000/svg" viewBox="0 0 19.46 19.46"><defs><style>.cls-1{fill:#fcb05c;}</style></defs><title>Recurso 2sdfd</title><g id="Capa_2" data-name="Capa 2"><g id="Capa_2-2" data-name="Capa 2"><path class="cls-1" d="M18.75,16.18a2.48,2.48,0,0,1-2.48,2.48H3.37A2.48,2.48,0,0,1,.89,16.18V3.28A2.48,2.48,0,0,1,3.37.8h12.9a2.48,2.48,0,0,1,2.48,2.48ZM16.05,0H3.4A3.41,3.41,0,0,0,0,3.41V16.05a3.41,3.41,0,0,0,3.4,3.41H16.05a3.41,3.41,0,0,0,3.41-3.41V3.41A3.41,3.41,0,0,0,16.05,0"/><path class="cls-1" d="M7.75,12.71H6.21V11.39a.44.44,0,0,0-.88,0v1.32H3.79a.44.44,0,0,0-.44.44.44.44,0,0,0,.44.44H5.33v1.54a.44.44,0,0,0,.88,0V13.59H7.75a.44.44,0,0,0,.44-.44.44.44,0,0,0-.44-.44"/><path class="cls-1" d="M7.75,5.45h-4a.44.44,0,0,0,0,.88h4a.44.44,0,1,0,0-.88"/><path class="cls-1" d="M15.66,14H11.71a.43.43,0,0,0-.44.44.44.44,0,0,0,.44.44h3.95a.44.44,0,0,0,.44-.44.43.43,0,0,0-.44-.44"/><path class="cls-1" d="M15.66,12.05H11.71a.43.43,0,0,0-.44.44.44.44,0,0,0,.44.44h3.95a.44.44,0,0,0,.44-.44.43.43,0,0,0-.44-.44"/><path class="cls-1" d="M12,7.54a.42.42,0,0,0,.59,0l0,0,1.12-1.12L14.9,7.54a.42.42,0,0,0,.59,0l0,0a.42.42,0,0,0,0-.59l0,0L14.39,5.8l1.12-1.12a.42.42,0,0,0,.09-.61A.44.44,0,0,0,15,4a.24.24,0,0,0-.08.09L13.77,5.19,12.65,4.07a.44.44,0,0,0-.61.61L13.16,5.8,12,6.92A.41.41,0,0,0,12,7.5s0,0,.06,0"/></g></g></svg>