<svg xmlns="http://www.w3.org/2000/svg" viewBox="0 0 632.65 490.99"><defs><style>.cls-1{fill:#fff;}</style></defs><title>Recurso 1vfsdf654XZCV</title><g id="Capa_2" data-name="Capa 2"><g id="Capa_1-2" data-name="Capa 1"><path class="cls-1" d="M452.69,298.35c7.14-5.47,12.23-12.24,14.81-20.74,2.11-6.95,2.57-14,.37-21-1.17-3.72.08-4,3.25-3.58a95.78,95.78,0,0,0,40.33-3.77,103,103,0,0,0,72.49-108.88C579,92.84,541,54.44,493.5,49.14,437,42.82,385.74,83,379.56,139.08c-3.83,34.77,7.75,64.21,33.3,88.16.45.43.94.82,1.38,1.26a6.64,6.64,0,0,1,.56.9c-16.9,8.18-25.34,21.61-24.73,40.49-45.23-31.3-78.47-105-47-178.31,32.7-76.1,121.24-111.69,197.07-79.39,77,32.79,113.11,120.67,80.44,197.27C587.42,287.31,507,311.47,452.69,298.35Z"/><path class="cls-1" d="M249.27,195c0,27,0,53.91,0,80.87a26,26,0,0,1-21.34,25.72c-13.12,2.2-25.49-5-29.7-17.27a36.32,36.32,0,0,1-1.47-11.81q0-73.56,0-147.13c0-36.06-24.21-65.29-59.62-72C98.8,46.17,59.42,74.9,54.61,113.57a97.24,97.24,0,0,0-.71,11.94q0,74.86,0,149.75c0,11.25-5.13,19.75-15.48,24.38-10,4.47-19.55,3-28-4.07-5.64-4.71-8.92-11-8.93-18.28-.09-53-1-106.1.3-159.11C3.18,60.4,48.68,10.48,105.77,1.52,172.09-8.89,235,35.25,247.22,100.81a122,122,0,0,1,2.05,22.32Q249.26,159.07,249.27,195Z"/><path class="cls-1" d="M462,156c0,13.72,0,27.44,0,41.16,0,15.71-11.81,27.49-27.4,27.47s-27.32-12-27.34-27.61q-.06-39.66-.14-79.32a16.56,16.56,0,0,0-.4-4.46c-1.48-5.1.05-9.19,3.17-13.37a91.29,91.29,0,0,1,37.9-30.12c2.5-1.07,3.48-.69,4.52,1.93a131.77,131.77,0,0,1,9.7,49.15Q461.95,138.41,462,156Z"/><path class="cls-1" d="M389.89,14.47C373.27,24.77,360.63,39,348.75,54a2,2,0,0,1-2.46.81c-33-8.2-69.81,9.57-84.34,38.31a4.83,4.83,0,0,1-.67.75c-1.35-5.34-2.59-10.55-4-15.71a100.78,100.78,0,0,0-17.7-36c-1.5-1.92-1.3-3,.26-4.63C261,15.08,287,3,317.71.56c21.72-1.73,42.87.39,63,9.2A49.34,49.34,0,0,1,389.89,14.47Z"/><path class="cls-1" d="M349.24,407.58c-3.95,2.46-6.58,5.72-6.73,10.54-12.27-7.59-19.54-28.65-12.12-46.45a40.67,40.67,0,0,1,77.25,24.52c-4.88,20.9-24.35,34.07-46.37,30.9,3.18-3.25,4.57-6.85,4-11.25-.28-2,1.84-1.08,2.83-1.1a27.7,27.7,0,0,0,25.66-18A27.51,27.51,0,0,0,347.35,369,27.1,27.1,0,0,0,346.27,404C347.19,405.2,348.18,406.32,349.24,407.58Z"/><path class="cls-1" d="M14.06,398.91c0,7,0,14,0,20.95,0,4.84-2.87,8-7,8S.23,424.76.27,420.08c.11-15-.9-30,.4-44.87,1.46-16.7,16.18-29.54,32.1-29.06,17.29.52,30.63,13,31.72,30.17.93,14.57.28,29.17.29,43.76,0,4.95-3.07,7.94-7.22,7.75s-6.64-3.21-6.65-8.29c0-13.72.08-27.44,0-41.16-.08-9.17-7.4-17.26-16.19-18.28a18.54,18.54,0,0,0-20.14,14.16,23.14,23.14,0,0,0-.46,5.2C14,385.94,14.06,392.43,14.06,398.91Z"/><path class="cls-1" d="M454.46,266.13a24.81,24.81,0,1,1-25-24.8A24.58,24.58,0,0,1,454.46,266.13Z"/><path class="cls-1" d="M476.21,379.76c8.81-4.28,17.14-4.71,25.26-.18,8.62,4.82,13.19,12.32,13.45,22.22.17,6.23.06,12.47,0,18.7,0,4.29-2.58,7.19-6.32,7.31-4,.13-6.62-2.69-6.68-7.31-.08-5.86,0-11.72,0-17.58-.09-7.95-5.6-13.76-12.83-13.67s-12.77,6-12.85,13.76c-.06,5.86,0,11.72,0,17.58,0,4.32-2.6,7.18-6.35,7.22s-6.5-2.81-6.51-7.11q-.06-29.93,0-59.85c0-4.5,2.84-7.53,6.67-7.39s6.17,3,6.19,7.42C476.23,367,476.21,373.08,476.21,379.76Z"/><path class="cls-1" d="M632.43,410.54c0,3.74.09,7.48,0,11.22a5.81,5.81,0,0,1-3.84,5.51c-2.49,1-5.19.93-6.9-1.22s-3-1.47-4.95-.6a26.55,26.55,0,1,1,15.73-24.64c.06,3.24,0,6.49,0,9.73Zm-13-9.57a13.58,13.58,0,1,0-13.64,13.83A13.63,13.63,0,0,0,619.41,401Z"/><path class="cls-1" d="M224.26,401.43a26.36,26.36,0,0,1-26.41,26.4,26.6,26.6,0,1,1,0-53.19A26.5,26.5,0,0,1,224.26,401.43Zm-26.73,13.38a13.59,13.59,0,0,0,13.85-13.24,13.66,13.66,0,1,0-13.85,13.24Z"/><path class="cls-1" d="M521.06,401.15a26.57,26.57,0,1,1,26.52,26.68A26.54,26.54,0,0,1,521.06,401.15Zm26.54,13.66a13.7,13.7,0,0,0,13.69-13.45,13.68,13.68,0,1,0-27.35,0A13.64,13.64,0,0,0,547.6,414.81Z"/><path class="cls-1" d="M230.46,401c0-6.11.06-12.22,0-18.32-.05-3.25.67-6.08,3.9-7.38,3.06-1.23,5.91-.72,7.94,2.17,1.34,1.92,2.41.17,3.42-.28,15.47-7,33.29,1.26,37.1,17.7,2.09,9,1.1,18.36.65,27.55-.17,3.44-3.23,5.54-6.52,5.37-3.59-.19-6.11-2.76-6.17-6.68-.11-6.73.08-13.47-.08-20.19a13.68,13.68,0,0,0-11.62-13.17A13.85,13.85,0,0,0,244,397.41a15.3,15.3,0,0,0-.49,4.8c0,6.11,0,12.22,0,18.33-.06,4.45-2.59,7.24-6.35,7.29-3.92,0-6.61-2.85-6.66-7.38C230.41,414,230.46,407.48,230.46,401Z"/><path class="cls-1" d="M414.34,401c.34-10.55,5-18.39,14.1-23.2s18.27-4.16,27.05,1.09c3.89,2.33,4.91,6.24,2.85,9.55s-5.74,3.92-9.78,1.48c-6.25-3.79-13.46-2.84-18,2.36a13.45,13.45,0,0,0-.2,17.49c4.52,5.47,11.73,6.51,18.19,2.62,4-2.41,7.7-1.82,9.78,1.55s1,7.19-2.89,9.55c-8.91,5.36-18.16,6-27.35.94S414.48,411.34,414.34,401Z"/><path class="cls-1" d="M150.22,401.92c0-4.11-.17-8.24.06-12.34.17-3-.54-4.54-3.81-4a5.24,5.24,0,0,1-1.12,0c-3.88-.15-6.54-2.61-6.66-6.13s2.63-6.48,6.54-6.74c5-.34,5-.34,5-5.22,0-2.25,0-4.49,0-6.73.06-4.29,2.66-7.3,6.29-7.37,3.86-.07,6.47,2.9,6.53,7.5,0,3.11.12,6.23,0,9.34-.09,2,.6,2.75,2.54,2.48a9.38,9.38,0,0,1,1.5,0c4.7.09,7.55,2.51,7.59,6.41,0,4.09-2.63,6.68-7.42,6.38-3.59-.22-4.35,1.06-4.25,4.37.24,7.23.12,14.46.05,21.69,0,1.91.19,3.12,2.41,3.87,3.34,1.13,4.68,4.18,3.93,7.51-.69,3.08-3.51,5-7.05,4.84a12.76,12.76,0,0,1-12.07-12.44C150.13,410.9,150.22,406.41,150.22,401.92Z"/><path class="cls-1" d="M122,387.73c0-9,0-17.94,0-26.91,0-4.55,2.32-7.28,6.14-7.37s6.59,2.94,6.6,7.47q.08,25.05,0,50.09c0,2.25.13,3.75,2.81,4.7,3.25,1.15,4.07,4.29,3.27,7.48s-3.25,4.61-6.45,4.62A12.45,12.45,0,0,1,122,415.39C122,406.17,122,397,122,387.73Z"/><path class="cls-1" d="M114,401.32c0,6.36,0,12.71,0,19.07-.05,4.73-2.45,7.22-6.7,7.16-4.06-.06-6.26-2.48-6.27-7.14q-.06-19.26,0-38.51c0-4.51,2.39-7.17,6.26-7.27s6.66,2.69,6.7,7.25C114.07,388.36,114,394.84,114,401.32Z"/><path class="cls-1" d="M103.67,351.33C98.58,353.39,95.8,357,95,362c-11.72-3.61-18.46-1.07-25.79,9.82a38.34,38.34,0,0,0-6-13.09c-.94-1.24-.29-1.93.51-2.85C72.68,345.58,91.58,343.22,103.67,351.33Z"/><path class="cls-1" d="M112.43,481.43c0,3,0,5.51,0,8,0,.73,0,1.53-1.1,1.56s-1.63-.46-1.63-1.53c0-7.21,0-14.43,0-21.65,0-1.13,1-2,1.53-1.38,2,2.46,3.49.09,5.09-.34a8.41,8.41,0,0,1,9.15,3.39,10.51,10.51,0,0,1-.58,11.55,8.32,8.32,0,0,1-9.52,2.18A32.6,32.6,0,0,1,112.43,481.43Zm11.5-6.56c0-3.91-2.12-6.32-5.65-6.34s-5.81,2.55-5.85,6.27,2.46,6.45,5.73,6.49S123.89,478.6,123.93,474.87Z"/><path class="cls-1" d="M107.61,371.39a7.38,7.38,0,0,1-7.2-7.55,7.45,7.45,0,1,1,7.2,7.55Z"/><path class="cls-1" d="M153,478.57c-2.58,4.87-7.08,6.58-11.63,4.59-4.21-1.84-6.16-7.44-4.22-12.14a8.43,8.43,0,0,1,10.78-4.74,7.46,7.46,0,0,1,3.79,2.88c1.25,1.81,2.11,4,1.4,5.95s-3.08.75-4.69.86c-2.84.19-5.71,0-8.74,0a4.85,4.85,0,0,0,3.42,4.86,5.23,5.23,0,0,0,5.87-1.15C150.07,478.64,151,477.59,153,478.57Zm-7.76-5.18c1.22-.94,4.3,1.76,4.47-1.44.12-2.19-2.22-3.39-4.61-3.41s-4.37,1.06-5.08,3.52C139.63,473.33,139.82,473.39,145.21,473.39Z"/><path class="cls-1" d="M404,474.73c0,2.36,0,4.73,0,7.09,0,1.64-1.63,2.24-2,1.47-1.29-2.47-2.33-.7-3.48-.17a8.5,8.5,0,0,1-10.08-2.47c-2.5-3.37-2.29-9.1.45-12.15A8,8,0,0,1,399,467c.78.45,1.52,2.29,2.39-.24.3-.86,2.57-1.05,2.57,1.28Zm-2.87.21c.05-3.77-2.26-6.37-5.7-6.42s-5.82,2.54-5.85,6.29,2.34,6.44,5.7,6.5S401.08,478.61,401.13,474.94Z"/><path class="cls-1" d="M473.74,474.78c0,2.25,0,4.49,0,6.74,0,1.36-1,2.74-1.77,1.81-1.9-2.37-3.06-.29-4.5.18a8.52,8.52,0,0,1-9.59-3.3,10.51,10.51,0,0,1,.61-11.59,8.11,8.11,0,0,1,9.85-1.9c1.09.54,1.83,1.61,3.05-.16.53-.77,2.41-.53,2.35,1.49C473.69,470.29,473.74,472.54,473.74,474.78Zm-2.83,0c0-3.76-2.39-6.32-5.83-6.29s-5.64,2.55-5.62,6.43,2.37,6.41,5.75,6.36S470.93,478.54,470.91,474.81Z"/><path class="cls-1" d="M286.11,478.52c-2,4.47-5.48,6.17-10.25,5.05-4.11-1-6.52-4.9-6.06-9.87a8.33,8.33,0,0,1,8-8,8.42,8.42,0,0,1,8.44,6.08c.95,3.46.43,4.16-3.11,4.18-2.63,0-5.25,0-7.87,0-.77,0-1.87-.53-2.25.65a2.74,2.74,0,0,0,.8,2.39,5.72,5.72,0,0,0,8.59.58C283.54,478.52,284.47,477.66,286.11,478.52ZM278,473.46a5.29,5.29,0,0,0,1.49,0c1.26-.39,3.48,1.06,3.69-1s-1.49-3.35-3.5-3.77a5.31,5.31,0,0,0-4,.43c-1.34.8-2.78,1.91-2.56,3.38.28,1.88,2.22.65,3.38,1A6.17,6.17,0,0,0,278,473.46Z"/><path class="cls-1" d="M339.58,472c0-.5,0-1,0-1.5,0-11.47,0-11.47,11.61-10.18.84.09,1.81-.13,1.82,1.23,0,1.2-.7,1.48-1.68,1.49H347.2c-4.55,0-5.6,1.49-4.6,6,.34,1.5,1.27,1.25,2.21,1.28,1.75,0,3.5,0,5.24,0,.83,0,1.45.33,1.43,1.31S350.84,473,350,473a19.83,19.83,0,0,1-3.36,0c-3.23-.52-4.2.59-4.16,4,0,3.21,1,4.16,4,3.76,1.72-.22,3.5,0,5.25,0,1.15,0,1.56.49,1.52,1.56s-.51,1.29-1.43,1.28c-3.62,0-7.24,0-10.87,0-1.54,0-1.36-1.14-1.37-2.11C339.57,478.26,339.58,475.14,339.58,472Z"/><path class="cls-1" d="M61.37,472c0-.62,0-1.25,0-1.87.21-3.18-1.42-8,.66-9.18,2.86-1.61,7.24-.52,11-.58.77,0,1.53.07,1.58,1.11a1.37,1.37,0,0,1-1.54,1.63H68.93c-4.48,0-5.71,1.71-4.6,6.05.38,1.47,1.34,1.2,2.27,1.22,1.75.06,3.5,0,5.24.05.82,0,1.45.32,1.45,1.29s-.56,1.3-1.42,1.31a18.84,18.84,0,0,1-3.36,0c-3.44-.56-4.41.81-4.29,4.21.1,2.72.63,3.87,3.51,3.49a50.13,50.13,0,0,1,5.62,0c1.05,0,1.64.35,1.58,1.51a1.21,1.21,0,0,1-1.38,1.33c-3.62,0-7.24,0-10.86,0-1.55,0-1.3-1.22-1.31-2.17C61.36,478.21,61.37,475.09,61.37,472Z"/><path class="cls-1" d="M354.35,424.57a6.6,6.6,0,0,1-6.91-6.71,6.87,6.87,0,0,1,6.82-6.92,7,7,0,0,1,7,6.81A6.85,6.85,0,0,1,354.35,424.57Z"/><path class="cls-1" d="M211.81,483.76c-5.3,0-9-3.57-9.11-8.77a9.06,9.06,0,1,1,18.12-.11A8.66,8.66,0,0,1,211.81,483.76Zm6.09-9a6.15,6.15,0,1,0-12.29.13,6.15,6.15,0,1,0,12.29-.13Z"/><path class="cls-1" d="M534.36,483.76c-5.39,0-8.93-3.46-9-8.78a8.94,8.94,0,1,1,17.88-.09A8.48,8.48,0,0,1,534.36,483.76Zm6-9a6,6,0,0,0-6-6.22,6,6,0,0,0-6.14,6.46,6.16,6.16,0,0,0,6,6.32A6.33,6.33,0,0,0,540.41,474.74Z"/><path class="cls-1" d="M297.44,475c0-1.74,0-3.49,0-5.23.05-2-.63-4.89,3.15-2.59.44.27,1.52-.53,2.31-.81,4.32-1.55,8.38.68,8.83,5.14.34,3.46.11,7,.14,10.46,0,1-.29,1.64-1.5,1.57s-1.42-.76-1.42-1.74c0-2.86,0-5.73,0-8.59,0-2.61-1.15-4.37-3.87-4.57a4.12,4.12,0,0,0-4.74,3.78c-.38,2.94-.22,6-.32,8.94,0,.93.3,2.16-1.28,2.16s-1.27-1.24-1.28-2.17C297.42,479.19,297.45,477.07,297.44,475Z"/><path class="cls-1" d="M446,475.17c0,2.12,0,4.24,0,6.36,0,1.09-.58,2.59-1.46,1.84-2.1-1.78-3.57.09-5.27.35-4.2.63-7.39-1.45-7.76-5.56-.3-3.34-.1-6.73-.12-10.1,0-.95.12-1.68,1.37-1.74,1.54-.08,1.51.87,1.51,1.92,0,2.75,0,5.49,0,8.24s1.34,4.71,4.16,4.73,4.55-1.81,4.61-4.79c0-2.62,0-5.24,0-7.86,0-1.06-.35-2.36,1.55-2.23,1.52.09,1.38,1.11,1.38,2.1Q446,471.79,446,475.17Z"/><path class="cls-1" d="M554.14,474.88c0-2.25,0-4.49,0-6.73,0-1.17.69-2.48,1.53-1.7,1.94,1.82,3.19.06,4.65-.36,3.54-1,7.06.6,8,4.12,1,3.9.36,7.93.45,11.9,0,.87-.43,1.34-1.36,1.39-1.19.07-1.51-.58-1.51-1.6q0-4.11,0-8.22c0-2.82-1-5-4.19-5.06s-4.62,2-4.66,5.1c0,2.62,0,5.23,0,7.85,0,1.1-.16,2-1.6,1.91-1.25-.09-1.25-1-1.25-1.88C554.13,479.36,554.14,477.12,554.14,474.88Z"/><path class="cls-1" d="M237.09,483.76a5.73,5.73,0,0,1-5.38-2.3c-.61-.85-1.63-2-.5-2.9.95-.75,2-.18,2.69,1,1.11,2,3.06,1.91,4.94,1.57a2.64,2.64,0,0,0,2.36-2.51,2.45,2.45,0,0,0-2-2.43c-1.54-.48-3.14-.75-4.7-1.18a4.21,4.21,0,0,1-3.43-4.31,4.51,4.51,0,0,1,3.35-4.43c3-1,5.66-.74,7.86,1.66.65.7,1.56,1.83.89,2.54a1.69,1.69,0,0,1-2.79-.57,2.89,2.89,0,0,0-1.36-1.2,4.53,4.53,0,0,0-4.28.34A1.7,1.7,0,0,0,234,471c.49,1.57,1.9,1.78,3.25,2.05.49.09,1,.13,1.47.24,3,.64,5.57,1.75,5.31,5.5C243.78,482,241.3,483.75,237.09,483.76Z"/><path class="cls-1" d="M493.05,483.76c-4.53-.07-7.77-2.62-8.66-6.6A9.26,9.26,0,0,1,489,466.69c3.58-1.73,8.22-.85,10.56,2.11.65.81,1.93,1.91.93,2.86s-2.07.12-3-1c-2.61-2.83-6.17-2.94-8.53-.51a7.06,7.06,0,0,0,.19,9.49c2.6,2.39,5.91,2.18,8.47-.86,1-1.16,2.11-1.83,3.06-.92s-.29,2-.94,2.87A7.51,7.51,0,0,1,493.05,483.76Z"/><path class="cls-1" d="M91.6,477.05c-5.42,6.3-5.42,6.3-7.48,6.09,0-.24,0-.55.18-.7,4.84-5.12,6.77-10.29-.42-15.55,3.07-.47,3.07-.47,7.78,5.25,2.64-1.48,2.32-6.71,8-5.41-7.48,5.38-5.44,10.65-.59,15.87.13.14.09.45.16.81C94.38,484,94.52,479,91.6,477.05Z"/><path class="cls-1" d="M363.51,466c4.4,3,3.93,8.88,6.89,13.34a61.78,61.78,0,0,1,3-7.7c1.08-2,.1-6.16,4.9-5l-6,15.31a2.08,2.08,0,0,1-2.19,1.6c-1.3,0-1.66-.88-2-1.82q-2.91-7.45-5.83-14.9Z"/><path class="cls-1" d="M190.77,483.51c-3.66.07-5.44-1.64-5.55-5.42-.06-1.86.06-3.73,0-5.58s1-4.28-2.49-3.95c-.6.06-.72-.57-.71-1.07s.08-1.15.71-1.08c2.68.27,2.63-1.45,2.53-3.28-.07-1.1.13-2,1.58-1.91,1.25.08,1.39,1,1.23,1.85-.56,3.06,1,3.6,3.56,3.28.7-.09,1.56-.11,1.67,1,.14,1.32-.82,1.47-1.68,1.3-3.58-.67-3.79,1.39-3.54,4.06a43.41,43.41,0,0,1,0,4.84c-.06,2,.55,3.42,2.91,3.36,1,0,2.15,0,2.07,1.43S191.71,483.44,190.77,483.51Z"/><path class="cls-1" d="M415.62,470.13c0-3.11,0-6.23,0-9.34,0-1.07.07-2,1.54-2s1.37,1.07,1.37,2c0,4.86-.08,9.72.05,14.58.06,2-1.06,4.56,1.77,5.89.24.11.23,1.18,0,1.7-.27.71-1.07.51-1.64.43-2.29-.34-3.08-1.91-3.11-4C415.6,476.36,415.62,473.24,415.62,470.13Z"/><path class="cls-1" d="M165.89,466.4c1.42,3,3.15-.22,4.88,0,.84.09,2.12-.67,2.37.94.2,1.3-.5,1.68-1.7,1.83-3.39.43-4.49,2.65-4.4,5.8.06,2.24,0,4.48,0,6.71,0,1.2-.36,1.87-1.7,1.84s-1.24-1-1.24-1.81c0-4.6,0-9.2,0-13.8C164.09,466.81,164.4,466.2,165.89,466.4Z"/><path class="cls-1" d="M512.05,474.62c0-2.23,0-4.46,0-6.69,0-1,.19-1.64,1.42-1.6s1.52.52,1.52,1.58q0,6.87,0,13.74c0,1.19-.35,1.87-1.69,1.83s-1.23-1-1.23-1.8C512,479.33,512.05,477,512.05,474.62Z"/><path class="cls-1" d="M532.88,463.41c1.23-2.05.85-5.16,4.78-4.24C536.67,461.19,536.37,463.62,532.88,463.41Z"/><path class="cls-1" d="M513.62,459.49a1.76,1.76,0,0,1,1.82,1.94,2,2,0,0,1-4,0A1.88,1.88,0,0,1,513.62,459.49Z"/></g></g></svg>