<svg xmlns="http://www.w3.org/2000/svg" viewBox="0 0 22.31 22.31"><defs><style>.cls-1{fill:#14eb8c;}</style></defs><title>Recurso 10sdfd</title><g id="Capa_2" data-name="Capa 2"><g id="Capa_2-2" data-name="Capa 2"><path class="cls-1" d="M.74,11.15A10.37,10.37,0,0,1,19.36,4.83H17.11a.38.38,0,1,0,0,.75h3.07l.07,0,0,0s0,0,0,0,0,0,.05,0l0-.06,0-.06a.22.22,0,0,0,0-.08,0,0,0,0,0,0,0v-3a.37.37,0,0,0-.37-.37.38.38,0,0,0-.37.37V4.08A11.11,11.11,0,0,0,0,11.15a11,11,0,0,0,.55,3.47.37.37,0,0,0,.35.25.25.25,0,0,0,.12,0,.36.36,0,0,0,.23-.46,10.71,10.71,0,0,1-.51-3.24"/><path class="cls-1" d="M21.74,7.63a.37.37,0,0,0-.7.24A10.38,10.38,0,0,1,3,17.48H5.21a.38.38,0,0,0,0-.75h-3l-.08,0-.06,0H2l0,0L2,16.87l0,.06,0,.06a.22.22,0,0,0,0,.08s0,0,0,0v3a.37.37,0,0,0,.37.37.36.36,0,0,0,.37-.37V18.23A11.13,11.13,0,0,0,21.74,7.63"/><path class="cls-1" d="M14,9.93a4,4,0,0,1,2.65-1h1.55v1.51a4,4,0,0,1-1,2.69,4,4,0,0,1-2.65,1h-1l3.83-3.83a.37.37,0,0,0,0-.52.37.37,0,0,0-.53,0L13,13.6v-1a4,4,0,0,1,1-2.7M12.3,14.65h0a.41.41,0,0,0,.07.11l.09.06,0,0,.14,0h1.92a4.71,4.71,0,0,0,3.18-1.22A4.65,4.65,0,0,0,19,10.41V8.55a.37.37,0,0,0-.37-.37H16.67A4.77,4.77,0,0,0,13.49,9.4a4.74,4.74,0,0,0-1.22,3.24V14.5a.4.4,0,0,0,0,.15"/><path class="cls-1" d="M10.79,9.67v1L7,6.8a.37.37,0,0,0-.53,0,.39.39,0,0,0,0,.53l3.83,3.82h-1a4,4,0,0,1-2.64-1,4,4,0,0,1-1-2.72V6H7.13A4,4,0,0,1,9.78,7a4.1,4.1,0,0,1,1,2.72M10.3,6.43A4.62,4.62,0,0,0,7.13,5.2H5.21a.36.36,0,0,0-.37.37V7.42a4.66,4.66,0,0,0,1.22,3.25A4.74,4.74,0,0,0,9.23,11.9h1.55V19a.38.38,0,1,0,.75,0V11.53h0V9.68A4.75,4.75,0,0,0,10.3,6.43"/></g></g></svg>