<svg xmlns="http://www.w3.org/2000/svg" viewBox="0 0 99.02 98.21"><defs><style>.cls-1{fill:#a9fac2;}</style></defs><title>Recurso 478</title><g id="Capa_2" data-name="Capa 2"><g id="Capa_1-2" data-name="Capa 1"><path class="cls-1" d="M87.07,16.62c.24-.74.39-1.2.55-1.66.67-2-1.37-5.62,1.67-5.65C91.4,9.28,90.4,13,90.41,15c0,10.73.9,9.19-9.36,9.32-3.41,0-3.41,0-6-1.5,1.9-2.14,4.38-1,6.53-1.3,1.08-.17,2.54.46,3-1s-.75-2.11-1.52-2.92C72.15,6.35,58.86,1,43.31,3.48,14.85,8.09-1.21,32.33,4.79,60.62c.3,1.45,1.64,3.71-.73,4.2-1.72.36-1.78-2-2.21-3.38C-5.27,39,8.84,11.66,32.27,3.29c18.95-6.77,36-3,51,10.44C84.34,14.69,85,16.2,87.07,16.62Z"/><path class="cls-1" d="M9.27,89.65C8,84.9,8.4,80.22,9,75.56c.13-1,1.42-1.39,2.42-1.41,3.5-.09,7-.1,10.49-.08,1,0,2.12.31,2,1.61-.05.94-.89,1.32-1.8,1.37-.5,0-1,0-1.5.08-2,.32-5.25-1.07-5.93.83-.75,2.11,2.21,3.69,3.85,5.21a45.52,45.52,0,0,0,53.3,6.47A45.79,45.79,0,0,0,95,40.72c-.25-1.31-.48-2.62-.69-3.94s-1.48-2.89.57-3.25c1.53-.26,1.84,1.65,2.22,2.86,7.6,24.16-8.59,53.07-33.63,59.8-18.15,4.87-34.24,1-48-12-.92-.87-1.61-2.64-3.08-2.11-1.79.65-.85,2.58-1.05,4S11.63,88.8,9.27,89.65Z"/><path class="cls-1" d="M51,60.63c0,6.81,0,13.63,0,20.44,0,1.3.61,3.5-1.71,3.35-1.75-.12-1.35-2-1.36-3.28,0-8-.18-16,0-23.93.11-3.6-.86-5-4.7-4.92C24.28,52.5,20.68,39.75,21.61,26c.1-1.49.63-2.69,2.26-2.75,6.8-.28,13.74-1,19.7,3.38,4.21,3.1,6.89,7.32,7.07,12.61.23,7.13.06,14.28.06,21.42ZM46.11,46.07C49,32.2,39.8,23.68,27.22,26.12a2.62,2.62,0,0,0-2.44,2c-3,10.3,5.92,21.75,16.6,21.12.79,0,1.91-.11,2.26-.6.72-1-.27-1.82-1-2.5-4-4-8-8-12-12-1-1-2.95-2.28-1.7-3.64C30.7,28.63,31.89,31,32.9,32,37.37,36.65,41.72,41.38,46.11,46.07Z"/><path class="cls-1" d="M54.69,58.11c-.36-18.9,12.16-23.17,26.75-21.83,1.82.17,2.56,1.21,2.69,2.94C85.63,59,76.19,67.16,57.5,65.41,52.45,64.94,55.68,60.28,54.69,58.11ZM58.38,60c5.43-5.57,10-10.32,14.66-15,.93-.92,2.06-2.86,3.57-1.21,1.18,1.27-.43,2.4-1.31,3.29C71.45,51,67.51,54.83,63.66,58.75c-.76.77-2.12,1.5-1.51,2.85s2,.84,3.12.81c10.46-.31,18.41-10.95,15.8-21a2.6,2.6,0,0,0-2.31-2.15C66.33,36.47,56.48,45.55,58.38,60Z"/></g></g></svg>