<svg xmlns="http://www.w3.org/2000/svg" viewBox="0 0 17.67 16.64"><defs><style>.cls-1{fill:none;stroke:#004fa7;stroke-linecap:round;stroke-linejoin:round;stroke-width:0.75px;}</style></defs><title>Recurso 9sdfd</title><g id="Capa_2" data-name="Capa 2"><g id="Capa_2-2" data-name="Capa 2"><path class="cls-1" d="M5,16.26a3.87,3.87,0,0,1-.64-7.64"/><path class="cls-1" d="M.38,7.81l3.76.05a.68.68,0,0,1,.67.68v3.77"/><line class="cls-1" x1="8.12" y1="11.75" x2="11" y2="11.75"/><line class="cls-1" x1="8.17" y1="7.73" x2="14.14" y2="7.73"/><line class="cls-1" x1="5.37" y1="3.77" x2="14.11" y2="3.77"/><path class="cls-1" d="M1.93,4.56V2.24A1.86,1.86,0,0,1,3.79.38H15.43A1.87,1.87,0,0,1,17.3,2.24V13.66a1.87,1.87,0,0,1-1.87,1.87H8.08"/></g></g></svg>