<svg xmlns="http://www.w3.org/2000/svg" xmlns:xlink="http://www.w3.org/1999/xlink" viewBox="0 0 289.2 144.2"><defs><style>.cls-1{fill:#becd31;}.cls-2{fill:url(#Degradado_sin_nombre_2);}.cls-3{fill:#85a700;}.cls-4{fill:url(#Degradado_sin_nombre_2-2);}</style><linearGradient id="Degradado_sin_nombre_2" x1="87.23" y1="88.18" x2="87.23" y2="-21.99" gradientTransform="matrix(1, 0, 0, -1, 0, 147)" gradientUnits="userSpaceOnUse"><stop offset="0" stop-color="#becd31"/><stop offset="1" stop-color="#608d3e"/></linearGradient><linearGradient id="Degradado_sin_nombre_2-2" x1="220.7" y1="93.21" x2="220.7" y2="7.38" xlink:href="#Degradado_sin_nombre_2"/></defs><title>Recurso 1</title><g id="Capa_2" data-name="Capa 2"><g id="svg42"><g id="Layer_1" data-name="Layer 1"><path id="path7" class="cls-1" d="M267.9,30.2H250.7a3.37,3.37,0,0,0-3.4,3.4V36h1.2c7.8,0,10.7,1.3,10.7,8.4V54.5H268a3.37,3.37,0,0,0,3.4-3.4V33.7A3.54,3.54,0,0,0,267.9,30.2Z"/><path id="path9" class="cls-1" d="M286.7,30.6H273.9a2.48,2.48,0,0,1-2.5-2.5v-13a2.48,2.48,0,0,1,2.5-2.5h12.8a2.48,2.48,0,0,1,2.5,2.5v13A2.48,2.48,0,0,1,286.7,30.6Z"/><path id="path11" class="cls-1" d="M269.6,12.2h-8.7a1.75,1.75,0,0,1-1.7-1.7V1.7A1.75,1.75,0,0,1,260.9,0h8.7a1.75,1.75,0,0,1,1.7,1.7v8.8A1.69,1.69,0,0,1,269.6,12.2Z"/><path id="path18" class="cls-2" d="M33,36H14.4C4.5,36,0,40.4,0,50.4v63.9c0,3.8,1.2,5.1,5.1,5.1H6.3c3.8,0,5.1-1.2,5.1-5.1V89.5H33c19.2,0,28.1-8.5,28.1-26.7S52.1,36,33,36ZM49.6,62.7c0,10.4-2.7,16-16.7,16H11.4V51.9c0-3.7,1.4-5.1,5.1-5.1H33C43.5,46.7,49.6,49.3,49.6,62.7ZM85,54.3a61.25,61.25,0,0,0-13.7,1.3c-3.1.7-4.4,1.5-4.4,5.1v1a5.87,5.87,0,0,0,.6,3,2.62,2.62,0,0,0,2.4,1.2,7.39,7.39,0,0,0,1.9-.3,69.46,69.46,0,0,1,13.6-1.4c11.1,0,15.7,3.1,15.7,10.6v6.7h-14c-18,0-26.4,6.1-26.4,19.2,0,12.7,8.7,19.7,24.4,19.7,18.7,0,27.1-6.4,27.1-20.7V74.8C112.2,61,103.3,54.3,85,54.3Zm16.2,36.3v8.8c0,7.1-2.6,11.3-16.2,11.3-8.9,0-13.3-3.2-13.3-9.9,0-7.3,4.4-10.1,15.5-10.1h14Zm73-29.3-14.5,57.8c-4.2,17-11.5,24.2-25,25.1h-1c-2.9,0-3.8-1.6-4.4-4.2l-.2-1.1c-.2-1.2-.4-2.5.3-3.4s1.9-1.2,3.7-1.3c9.1-.9,12.1-5.1,15.1-14.6a15.1,15.1,0,0,1-5,.7c-9.9,0-12.6-6.9-14.9-15.3L116.4,61.3c-.4-1.5-.7-3,.1-4s2.3-1.2,3.8-1.2h1c3.8,0,5.2,1.1,6.2,4.7l11.8,43.4c1.5,5.4,3.1,6.3,6.9,6.3,3.1,0,5-1,6.3-6.3l10.4-43.4c.8-3.6,2.3-4.8,6.1-4.8h1.1c1.5,0,3,.1,3.8,1.1C174.7,58.3,174.5,59.8,174.2,61.3Z"/><g id="g30"><g id="g28"><path id="path26" class="cls-3" d="M248.5,36h-1.2V51a3.37,3.37,0,0,0,3.4,3.4h8.5v-10C259.2,37.3,256.3,36,248.5,36Z"/></g></g><g id="g39"><path id="path37" class="cls-4" d="M250.7,54.4a3.37,3.37,0,0,1-3.4-3.4V36H246c-7.8,0-10.7,1.3-10.7,8.4V88.3a11.64,11.64,0,0,1-1.7,6.8c-2.1,3.3-6.3,4.8-13,4.8s-10.9-1.5-13-4.8a12.68,12.68,0,0,1-1.7-6.8V44.4c0-7.1-2.9-8.4-10.7-8.4h-2.4c-7.8,0-10.7,1.3-10.7,8.4V88.3c0,7.1,1.6,13,4.7,17.8,5.9,9.3,17.4,14.3,33.8,14.3h.2c16.4,0,27.9-5,33.8-14.3,3.1-4.8,4.7-10.8,4.7-17.8V54.5Z"/></g></g></g></g></svg>