<svg xmlns="http://www.w3.org/2000/svg" viewBox="0 0 150.61 33.16"><defs><style>.cls-1{fill:#fff;}</style></defs><title>resRecurso 1resss</title><g id="Capa_2" data-name="Capa 2"><g id="Capa_1-2" data-name="Capa 1"><g id="Capa_2-2" data-name="Capa 2"><g id="Capa_1-2-2" data-name="Capa 1-2"><path class="cls-1" d="M59.59,21.28H55.83V27a2.68,2.68,0,0,1-.58,1.87,1.93,1.93,0,0,1-1.46.63,2,2,0,0,1-1.5-.62A2.74,2.74,0,0,1,51.73,27V11.42a2.53,2.53,0,0,1,.62-1.93,2.82,2.82,0,0,1,2-.58h5.27a14.06,14.06,0,0,1,3.6.35,5.5,5.5,0,0,1,2.14,1.15,5.14,5.14,0,0,1,1.38,2A7,7,0,0,1,67.18,15a5.8,5.8,0,0,1-1.91,4.69A8.66,8.66,0,0,1,59.59,21.28ZM58.6,12H55.83v6.19H58.6a8.24,8.24,0,0,0,2.42-.3,2.94,2.94,0,0,0,1.49-1A3,3,0,0,0,63,15.07a3,3,0,0,0-.79-2.18C61.64,12.3,60.43,12,58.6,12Z"/><path class="cls-1" d="M80.29,11.05V25.8h8.32a2.18,2.18,0,0,1,1.53.48,1.59,1.59,0,0,1,.53,1.22,1.52,1.52,0,0,1-.53,1.21,2.28,2.28,0,0,1-1.53.46H78.7a2.6,2.6,0,0,1-1.93-.6,2.62,2.62,0,0,1-.58-1.92V11.05a2.73,2.73,0,0,1,.56-1.87,1.89,1.89,0,0,1,1.47-.62,2,2,0,0,1,1.5.62A2.69,2.69,0,0,1,80.29,11.05Z"/><path class="cls-1" d="M112.38,12.07h-9.25v5h8.52a2,2,0,0,1,1.4.42,1.41,1.41,0,0,1,.46,1.11,1.55,1.55,0,0,1-.45,1.13,2,2,0,0,1-1.41.43h-8.52v5.77h9.57a2.09,2.09,0,0,1,1.46.45,1.61,1.61,0,0,1,.49,1.19,1.56,1.56,0,0,1-.49,1.17,2.09,2.09,0,0,1-1.46.45H101.54a2.68,2.68,0,0,1-1.93-.59,2.69,2.69,0,0,1-.61-2V11.42A3.32,3.32,0,0,1,99.29,10a1.57,1.57,0,0,1,.82-.82,3.48,3.48,0,0,1,1.43-.25h10.84a2.14,2.14,0,0,1,1.46.43,1.45,1.45,0,0,1,.47,1.14,1.49,1.49,0,0,1-.47,1.16A2.12,2.12,0,0,1,112.38,12.07Z"/><path class="cls-1" d="M122.82,25.23l4.54-6.62-3.82-5.89a10.52,10.52,0,0,1-.81-1.47,3,3,0,0,1-.27-1.18A1.41,1.41,0,0,1,123,9a1.84,1.84,0,0,1,1.27-.46,1.74,1.74,0,0,1,1.33.5,12.23,12.23,0,0,1,1.32,1.88l3,4.92,3.25-4.92c.27-.42.5-.77.68-1.07a5.58,5.58,0,0,1,.55-.73,1.81,1.81,0,0,1,.6-.42,2.12,2.12,0,0,1,.75-.14A1.79,1.79,0,0,1,137,9a1.48,1.48,0,0,1,.49,1.1,5.11,5.11,0,0,1-1.07,2.52l-4,6,4.3,6.62a10.4,10.4,0,0,1,.84,1.44,2.73,2.73,0,0,1,.26,1.09,1.59,1.59,0,0,1-.23.88,1.76,1.76,0,0,1-.66.64,2,2,0,0,1-1,.23,1.83,1.83,0,0,1-1-.24,2,2,0,0,1-.65-.6c-.17-.24-.48-.7-.93-1.39l-3.56-5.62L126,27.45c-.29.46-.51.78-.63,1A3.53,3.53,0,0,1,125,29a1.81,1.81,0,0,1-.62.41,2,2,0,0,1-.84.15,1.72,1.72,0,0,1-1.24-.45,1.69,1.69,0,0,1-.49-1.33A4.61,4.61,0,0,1,122.82,25.23Z"/><path class="cls-1" d="M146.49,27V11a2.69,2.69,0,0,1,.57-1.87,1.91,1.91,0,0,1,1.47-.62,2,2,0,0,1,1.5.62A2.69,2.69,0,0,1,150.6,11V27a2.7,2.7,0,0,1-.57,1.88,2,2,0,0,1-1.5.62,1.89,1.89,0,0,1-1.46-.62A2.71,2.71,0,0,1,146.49,27Z"/><path class="cls-1" d="M6.93,21.66c-4,2.51-6.65,6-5.92,7.82a1.61,1.61,0,0,0,1.23.95c-1.09.08-1.87-.2-2.14-.87C-.54,28,2,24.7,5.82,22.3c.39-.24.77-.47,1.15-.67Z"/><path class="cls-1" d="M39.09,1.07c6.51-.72,11.75.8,11.71,3.4a2.73,2.73,0,0,1-.7,1.65A3.78,3.78,0,0,0,52,3.41C52,.94,47-.52,40.84.17a23.12,23.12,0,0,0-8.45,2.45A28,28,0,0,1,39.09,1.07Z"/><path class="cls-1" d="M24.15,22.64c11.51-5.27,19.28-12.88,17.35-17-.88-1.89-3.63-2.72-7.5-2.57,5.14-.63,9,.2,10.12,2.6,2,4.26-5.4,11.83-16.5,16.9C21.47,25.4,15.44,26.86,11,26.86A54.4,54.4,0,0,0,24.15,22.64Z"/><path class="cls-1" d="M30.33,26.74c-13.14,3.15-24,2.75-24.37-.91-.14-1.67,2-3.73,5.51-5.78-5,2.48-8.09,5.17-7.91,7.29.34,3.77,10.87,4.36,23.54,1.32A63,63,0,0,0,44.47,22,80.19,80.19,0,0,1,30.33,26.74Z"/><path class="cls-1" d="M36,15.63V10.16a1.4,1.4,0,0,0-1.4-1.4H15a1.4,1.4,0,0,0-1.4,1.4v15l2.8-.62v-13H33.24v6C34.21,17,35.15,16.16,36,15.63Z"/><path class="cls-1" d="M37,27.87a.57.57,0,0,0-.52-.35h-1.3l-.69.16c-1.46.34-2.89.65-4.3.93l.19.82H28.66l-.08-.52-1.06.19v.33H25.83c-2.81.44-5.47.76-7.91.94h.95l-.29,1.05H16.71l.35-1-1.18.07-.37.93H13.64l.41-.88H12.44l-1,1.85a.56.56,0,0,0,.31.73.54.54,0,0,0,.22,0H38.86a.56.56,0,0,0,.56-.57.64.64,0,0,0,0-.2ZM21.65,31.39H19.79L20,30.34h1.79Zm3.07,0H22.86l.1-1h1.79Zm1.21,0v-1h1.79l.1,1Zm3.07,0-.16-1h1.79l.24,1Zm2.22-2.9h1.65l.34.93H31.49Zm.85,2.9-.29-1h1.79l.37,1Zm1.86-2.89h1.64l.47.93H34.32Zm1.22,2.89-.43-1h1.79l.5,1Z"/></g></g></g></g></svg>