<svg xmlns="http://www.w3.org/2000/svg" viewBox="0 0 848.27 134.31"><defs><style>.cls-1{fill:#fff;}</style></defs><title>resRecurso 1resss</title><g id="Capa_2" data-name="Capa 2"><g id="Capa_1-2" data-name="Capa 1"><path class="cls-1" d="M0,39.84C0,29.53.07,19.21,0,8.9,0,5.58.74,2.7,3.81,1c3.26-1.84,6.28-.82,9.1,1.11,3.9,2.67,7.91,5.21,11.59,8.16,2.45,1.95,4.27,1.93,6.92.31C42.58,3.74,54.68-.06,67.9.05a67.48,67.48,0,0,1,65.4,52.73c9.37,42-23.21,82-66.46,81.53A67.45,67.45,0,0,1,1,78.91,60.69,60.69,0,0,1,0,67.79C.09,58.47,0,49.16,0,39.84ZM59,101.49a15.89,15.89,0,0,0,8.66-4.1c13-12.89,26-25.7,39-38.57,4-4,5.18-10.11,3-14.76-2.43-5.13-7.5-8-13.41-7.62A12.36,12.36,0,0,0,88,40.35c-9.11,9-18.28,18-27.29,27.1-1.86,1.88-3,1.91-4.72,0-2.67-2.94-5.6-5.66-8.46-8.43-6.09-5.91-13.91-6.26-19.32-.89s-5.43,13.1.57,19.27c6.69,6.87,13.59,13.52,20.45,20.21A13.43,13.43,0,0,0,59,101.49Z"/><path class="cls-1" d="M172.17,68.11c0-11.55.1-23.11-.07-34.66,0-3.21.55-4.52,4.2-4.4,9.22.29,18.46.08,27.69.1a31.61,31.61,0,0,1,31.15,28.91c1.41,15.24-9.58,29.8-24.87,33.06-6.18,1.32-12.43.62-18.63.6-3.07,0-3.86,1-3.65,3.81s-.11,6,.1,8.93c.18,2.55-.85,3.21-3.22,3.07a65.64,65.64,0,0,0-9,0c-2.88.23-3.84-.62-3.8-3.65C172.27,92,172.17,80,172.17,68.11ZM188,60.47c0,4.34.05,8.68,0,13,0,1.77.31,2.75,2.42,2.69,4.85-.12,9.72.17,14.56-.1,8-.44,14.48-7.75,14.38-15.77a15.79,15.79,0,0,0-15.11-15.47c-4.48-.13-9,.1-13.44-.08-2.47-.1-2.88,1-2.82,3.07C188.13,52,188,56.26,188,60.47Z"/><path class="cls-1" d="M591,107.49c-5.36,0-10.73-.13-16.09.05-2.4.09-3-.75-2.85-3,.35-3.93-1.62-9.06.82-11.45,1.94-1.89,7.11-.55,10.84-.56,6.86,0,13.73,0,20.59,0,.74,0,1.5,0,2.24,0A3.39,3.39,0,0,0,610,88.86c0-2.33-1.84-2.42-3.44-2.45-5.24-.1-10.48,0-15.72-.1-12-.26-20.38-10.33-18.4-22.08a18.06,18.06,0,0,1,17.48-15c9.36,0,18.72.08,28.07-.07,2.53,0,3.24.76,3.09,3.16a59.65,59.65,0,0,0,0,8.56c.21,2.58-.86,3.12-3.21,3.08-8-.12-16,0-24,0h-2.62C588.8,64,587,65.09,587,67.6s1.8,4,4.43,4c5.11,0,10.23,0,15.34,0,10.18.06,18,7.36,18.14,16.93a18.66,18.66,0,0,1-18.17,18.91C601.51,107.56,596.27,107.48,591,107.49Z"/><path class="cls-1" d="M766.83,93.22c6.3.87,11.31-1,14.81-6.09,1.21-1.77,2.07-1.67,3.41-.25a72,72,0,0,0,6.63,6.56c2.4,2,2,3.53.08,5.44-8.15,8.29-17.94,11.49-29.28,8.84-11.75-2.74-19.22-10.37-22.06-21.91-4.43-18,5.11-34.39,22.22-38.31,11.18-2.56,20.88.67,29,8.76,2.1,2.09,2.4,3.69.21,6.21-8,9.18-15.73,18.61-23.55,28C767.69,91.16,766.81,91.77,766.83,93.22Zm-10.49-8.14c.67-.79,1.09-1.23,1.45-1.71,4.8-6.35,9.57-12.72,14.4-19,1.67-2.18.46-2.31-1.43-2.41C758.7,61.28,751.2,72.94,756.34,85.08Z"/><path class="cls-1" d="M323.09,93.12c6.73,1.06,11.71-.87,15.32-5.88,1.16-1.61,2-1.87,3.39-.34,2.38,2.54,4.84,5,7.41,7.38,1.42,1.3,1.42,2.21.15,3.65-8.08,9.2-18.33,12.4-30,9.78-12.37-2.78-20-11.08-22.43-23.36-3.13-15.78,4-29.54,17.61-35.35a30.57,30.57,0,0,1,34.74,8.21c1.41,1.65,1.51,2.65.05,4.37-8.39,9.86-16.65,19.83-24.94,29.77C324,91.8,323.68,92.29,323.09,93.12ZM313,84.88a4.45,4.45,0,0,0,.86-.62c4.2-5.52,8.46-11,12.55-16.6,1.18-1.62,4.06-3.58,2.89-5-1.4-1.73-4.57-.79-7-.31a2.55,2.55,0,0,0-.35.14C313.25,65.13,309.18,75.07,313,84.88Z"/><path class="cls-1" d="M532.78,93.13c6.79,1.15,12-.53,15.58-5.68,1.5-2.14,2.25-1.91,3.76-.23a67.4,67.4,0,0,0,6.62,6.58c2.11,1.77,1.62,3,0,4.75A30.27,30.27,0,0,1,526.69,107a29.83,29.83,0,0,1-20.14-25.83c-1.28-17,7.43-30.1,23-33.54,11.61-2.55,21.63.8,29.68,9.74,1.56,1.72,1.25,2.76-.13,4.34-4.4,5.08-8.64,10.29-12.95,15.45Zm7.9-30.85c-7.38-1.17-13,.3-16.68,6.21-3.21,5.22-3.28,10.77-.94,17.11Z"/><path class="cls-1" d="M673.64,78.44c0-8.69,0-17.39,0-26.08,0-1.11-.67-2.71,1.08-3.15a3.46,3.46,0,0,1,4,1.27c.35.51.82.94,1.15,1.46,1.33,2.05,2.63,2.29,4.82.79,8.73-6,18.1-6.9,27.49-1.85s14,13,14,23.75c-.07,9.81-.13,19.63.05,29.44.06,2.86-.84,3.68-3.59,3.46a61.71,61.71,0,0,0-8.6,0c-2.3.14-3-.64-3-2.94.11-9.82.06-19.63,0-29.44,0-7.24-4.62-12.35-11.11-12.37S688.72,68,688.7,75.05c0,9.69-.08,19.38,0,29.07,0,2.49-.5,3.63-3.26,3.42a63.93,63.93,0,0,0-9,0c-2.39.15-2.94-.78-2.91-3C673.71,95.84,673.64,87.14,673.64,78.44Z"/><path class="cls-1" d="M825.58,37.38c0,3,.13,6,0,8.94-.13,2.27.64,3,3,3,5.49-.15,11,.1,16.46-.11,2.72-.1,3.46.87,3.28,3.41a67.91,67.91,0,0,0,0,8.56c.13,2.25-.62,3-3,3-5.36-.15-10.73.14-16.08-.12-3.08-.15-3.8,1-3.67,3.8.21,4.59,0,9.19.07,13.78a10.9,10.9,0,0,0,10.89,11c3.11.09,6.24.09,9.35,0,1.77,0,2.43.58,2.38,2.36-.1,3.47,0,7,0,10.43,0,1.25-.16,2.22-1.78,2.16-6.67-.25-13.47,1-19.87-2.07-9.85-4.66-15.55-12.17-16-23.19-.2-4.84-.17-9.69,0-14.53.09-2.62-.47-4.15-3.44-3.6-3.5.65-4.28-1.05-4-4.16a48.61,48.61,0,0,0,0-7.82c-.17-2.33.74-3.25,3-2.86,3.74.63,4.64-1,4.46-4.54-.29-5.45,0-10.93-.11-16.39,0-2.07.62-2.91,2.78-2.81,3.23.14,6.48.11,9.72,0,1.92-.06,2.7.58,2.62,2.56C825.5,31.17,825.58,34.27,825.58,37.38Z"/><path class="cls-1" d="M464.59,85.58c0-6.21-.11-12.42.05-18.63.07-2.53-.57-3.8-3.27-3.32-3.25.57-4.62-.64-4.1-4a30.14,30.14,0,0,0,0-4.46c0-5.37,0-5.51,5.38-6,2.53-.22,1.83-1.85,1.9-3.18.57-11.23,6-19.19,16.25-23.86,6.42-2.9,13.22-1.77,19.9-2,.92,0,1.35.48,1.33,1.38,0,.37,0,.74,0,1.12-.07,4,1.3,9-.64,11.57s-7.21.63-11,.8a11.08,11.08,0,0,0-10.92,11.33c0,2,.48,2.88,2.69,2.8,4.36-.15,8.74,0,13.1-.08,1.89,0,2.72.47,2.61,2.49-.19,3.83,1.18,8.67-.68,11.22s-7,.71-10.63.78c-7.05.14-7.05,0-7.05,7,0,11.18-.12,22.36.07,33.53.05,2.9-.85,3.63-3.57,3.42a70.8,70.8,0,0,0-9,0c-2,.11-2.52-.66-2.49-2.57C464.65,98.5,464.59,92,464.59,85.58Z"/><path class="cls-1" d="M436.68,71.19c-4.86-7.82-10.78-10.79-17.45-9-6.41,1.73-10.8,7.88-11.12,15.58-.3,7.17,3.34,12.68,9.89,15,6.86,2.42,13,.06,19-8,3.16,3.45,6.16,6.83,9.28,10.1,1.59,1.66-.08,2.44-.81,3.32-9.94,12.13-29.35,13.87-41.62,3.54-9.69-8.14-12.92-18.68-10-30.83,3-12.36,10.76-20.57,23.33-23.59,10.41-2.5,22.6,2.45,28.77,11,1.16,1.62,1.28,2.61-.27,4C442.68,65.13,439.84,68.08,436.68,71.19Z"/><path class="cls-1" d="M248.22,78.36c0-8.69,0-17.39,0-26.08,0-1.22-.68-2.92,1.36-3.35a3.34,3.34,0,0,1,3.55,1.48c1.26,1.63,1.91,4.45,3.94,4.57,1.63.1,3.36-1.82,5.06-2.83,5.55-3.29,11.69-3,17.8-2.93,8.2.05,8.2,0,8.2,8.11,0,6.76,0,6.76-6.66,6.76-2.37,0-4.74,0-7.11,0-6.31.2-10.74,4.6-10.8,10.94-.09,9.56-.11,19.13,0,28.69,0,2.76-.47,4.18-3.64,3.79-3.78-.46-8.72,1.59-11.11-.86-2.21-2.26-.56-7.1-.62-10.8C248.15,90,248.22,84.2,248.22,78.36Z"/><path class="cls-1" d="M379.2,78.36c0,8.7-.09,17.39.06,26.08,0,2.44-.65,3.26-3.11,3.09-3.11-.2-6.24-.12-9.35,0-1.8.07-2.66-.29-2.66-2.4q.12-26.82,0-53.64c0-1.76.54-2.42,2.34-2.37,3.37.1,6.74.16,10.1,0,2.26-.12,2.66.84,2.64,2.83C379.15,60.73,379.2,69.55,379.2,78.36Z"/><path class="cls-1" d="M381.71,33A10.09,10.09,0,0,1,371.81,43a10,10,0,0,1-10-9.88,9.82,9.82,0,0,1,9.85-10A10,10,0,0,1,381.71,33Z"/><path class="cls-1" d="M657.13,102.11c-.06,5.42-4.06,9.24-9.57,9.14a9.27,9.27,0,0,1-9.19-9.26,9.52,9.52,0,0,1,9.49-9.43A9.31,9.31,0,0,1,657.13,102.11Z"/></g></g></svg>