<svg xmlns="http://www.w3.org/2000/svg" viewBox="0 0 218.09 195"><defs><style>.cls-1{fill:#fff;}</style></defs><title>Recurso 1vfsdf654XZCV</title><g id="Capa_2" data-name="Capa 2"><g id="Capa_1-2" data-name="Capa 1"><g id="Capa_2-2" data-name="Capa 2"><g id="Capa_1-2-2" data-name="Capa 1-2"><path class="cls-1" d="M162.55,65.08c13.66,0,27.32-.09,41,0,8.43.07,14.31,6,14.47,14.44.12,6.32.06,12.65,0,19a5.93,5.93,0,0,1-2.88,5.57c-5,3.07-10.07-2.24-10.09-6.19v-16c0-3.46-.43-3.85-4-3.86h-77c-.67,0-1.33,0-2,0a2.38,2.38,0,0,0-2,1.86,7.44,7.44,0,0,0,0,2v66.45a5.61,5.61,0,0,0,5.56,5.66H126c7.5,0,15,.08,22.49,0a7.88,7.88,0,0,1,6.52,3.51c2.07,2.71.85,7.39-2.07,9.23A2.93,2.93,0,0,1,151,167c-11,0-22,0-33,.08a5.48,5.48,0,0,1-3.46-1.25c-2.91-2.51-5.79-5.14-7.21-8.94a8,8,0,0,1-.27-2.88c0-24.65-.06-49.3,0-73.95,0-6,3.44-9.93,8.29-13.08a12.45,12.45,0,0,1,7.22-2C135.9,65.11,149.23,65.08,162.55,65.08Z"/><path class="cls-1" d="M62.38.15c7.73-.86,14.9,2,21.56,6,5.48,3.33,10.28,7.48,13.29,13.47,1.17,2.33,2.86,4.49,3.72,7,1,2.94,2.1,5.9,2.12,9.12,0,1.72-.5,3.54.91,5.13a1.76,1.76,0,0,1-.43,2.23c-.64.48-.55,1.15-.5,1.79.56,7.25-3,13.24-6,19.41-.61,1.27-1.92,2.22-3,3.27-1.86,1.9-3.75,3.77-5.64,5.65-4.22,4.23-12.66,7.76-18.75,9a33.62,33.62,0,0,1-10.1.78c-8.35-.8-16.14-3.16-22.88-8.63a36.39,36.39,0,0,1-8-8.15c-3.76-5.77-7.43-11.63-7.53-18.79,0-1.6-1.26-2.57-1.12-4.08.7-7.19,1.39-14.33,5-20.9C30.49,12.41,38.34,5.54,49.33,2A36.57,36.57,0,0,1,62.38.15ZM89.07,42.34c-.08-3.88.19-6.92-1-9.91a33.36,33.36,0,0,0-4-7.29A26.61,26.61,0,0,0,72.21,16c-4.21-1.78-8.37-2-12.69-1.89S51.34,15.85,47.68,18a28.25,28.25,0,0,0-8.8,8.71c-3,4.39-3.68,9.49-4.79,14.47-.12.57-.29,1.33.38,1.82,1,.74.64,1.83.56,2.74-.22,2.33.8,4.33,1.59,6.34,1.49,3.81,4.7,7.09,8.64,10.82,4.13,3.92,9.34,5,14.45,6.07,4.59,1,9-1,13.39-2.39,3.65-1.11,5.65-4.51,9-6,1.12-2.84,4-4.6,4.91-7.43C88.13,49.37,89.94,45.66,89.07,42.34Z"/><path class="cls-1" d="M61.78,96.07c7.82,0,15.65.21,23.46-.09,3.63-.14,7,1,10.57,1.13,1.32,0,4,3,4.23,4.26.67,4.5-1,7.42-5.06,9.34-.84.4-2,.6-2.28.29-1.56-1.61-3.44-.89-5.15-.9-16.47,0-32.94.09-49.41-.13-3.47,0-6.66,1.09-10.06,1.21a8.14,8.14,0,0,0-4.58,2c-5.5,4.72-9.71,10.11-9.49,18,.25,8.81.07,17.63.05,26.45,0,4.55-2.1,7-6.31,8.25-1.69.48-2.41-1.94-4-.9C2.07,163.36,0,162.21,0,159.17c.18-11,.06-22,.08-32.94,0-2.83,2.95-10.59,4.78-13.5a33,33,0,0,1,9-9.65,35,35,0,0,1,14.91-6.2c5.56-.82,11.05-.67,16.58-.78S56.29,96.07,61.78,96.07Z"/><path class="cls-1" d="M161.2,155.3c0-3.3-.87-7,.25-9.82s4.22-4.57,6.46-6.81c8.12-8.12,16.33-16.16,24.34-24.4,5.35-5.49,15.14-5.46,20.56,0,3.38,3.39,5.56,7.13,5.11,11.86a12.66,12.66,0,0,1-3.46,8Q198.71,149.82,183,165.57a4.12,4.12,0,0,1-3.39,1.53c-5.16-.14-10.32,0-15.48-.07-2.41,0-3.07-.73-3.11-3.24V155.3Zm14.75,0c1.2.65,2.22-.86,3.4-2l24.72-24.72a18.89,18.89,0,0,0,1.4-1.43c.83-1,.49-4-.72-4.7a3.5,3.5,0,0,0-3.66.14,10.51,10.51,0,0,0-1.43,1.4l-24.72,24.72a14.43,14.43,0,0,0-1.4,1.42c-1,1.31-.53,2.87-.45,4.28.06,1.09,1.29.49,2.91.85Z"/><path class="cls-1" d="M108.07,195H61.12c-3.85,0-5.46-1-6.69-4.12a6.51,6.51,0,0,1,3.7-8.43,6.82,6.82,0,0,1,1.94-.43H154a17,17,0,0,1,3.49,0c3,.65,4.93,3.95,4.58,7.43a6.18,6.18,0,0,1-6,5.51c-10,.06-20,0-30,0Z"/><path class="cls-1" d="M163,104.07c-9,0-18-.17-26.95.1-2.9.09-4.29-1.56-5.62-3.3-1.12-1.46-.91-3.81-.27-5.21a6.66,6.66,0,0,1,5.36-3.57,16.68,16.68,0,0,1,2,0h50.91a6.76,6.76,0,0,1,4.15.88c3.16,2,4.19,3.53,3.38,7.08-.35,1.54-1.9,2.19-2.79,3.33s-2.13.67-3.22.67C181,104.09,172,104.07,163,104.07Z"/><path class="cls-1" d="M152.94,123.06H136c-1.5,0-2.91,0-3.92-1.43-.8-1.16-2.43-1.82-2-3.65.29-1.38-.63-2.92.73-4.19s2.82-2.57,4.86-2.73h33.4c.94,0,2-.46,2.84.34,1.41,1.38,3.13,2.63,4.07,4.3,1.39,2.47-2,7.28-5.05,7.31C164.9,123.11,158.92,123.06,152.94,123.06Z"/><path class="cls-1" d="M144.43,143.06c-2.33,0-4.65-.05-7,0-3.31.08-5.37-2.08-7.12-4.32s.63-6.63,3.23-7.76a13.52,13.52,0,0,1,5.59-.93h10.44a8.46,8.46,0,0,1,7.43,5.64c.89,3.36-2.11,7.28-5.64,7.34C149.07,143.09,146.75,143.06,144.43,143.06Z"/></g></g></g></g></svg>