<svg xmlns="http://www.w3.org/2000/svg" viewBox="0 0 235.75 70.5"><defs><style>.cls-1{fill:#fff;}</style></defs><title>Recurso 1vfsdf654XZCV</title><g id="Capa_2" data-name="Capa 2"><g id="Capa_1-2" data-name="Capa 1"><path class="cls-1" d="M69.55,56.6V52.9c0-.2.1-.4.2-.4a2.54,2.54,0,0,1,.7.2q1,.3,2.4.6c.9.2,1.8.3,2.7.5a9.38,9.38,0,0,0,2.2.2,6.19,6.19,0,0,0,4.6-1.7,5.42,5.42,0,0,0,1.5-4,5,5,0,0,0-1.5-3.7,10.33,10.33,0,0,0-4.2-2.1,24.32,24.32,0,0,1-3-.9,13,13,0,0,1-3.1-1.6,8.53,8.53,0,0,1-2.5-2.8,10.11,10.11,0,0,1-1-4.6,8.65,8.65,0,0,1,5.7-8.7,14.16,14.16,0,0,1,5.5-1,24.62,24.62,0,0,1,2.6.2,26.14,26.14,0,0,1,2.7.6,12.34,12.34,0,0,1,2.3.8,2.19,2.19,0,0,1,.5.3.75.75,0,0,1,.1.5v3.4c0,.8-.5.9-1.5.4a16.87,16.87,0,0,0-2.7-1.1,12.3,12.3,0,0,0-3.5-.5,6.11,6.11,0,0,0-4.1,1.3,4.37,4.37,0,0,0-1.6,3.3,4.55,4.55,0,0,0,.8,2.7,6,6,0,0,0,2.2,1.6,23.07,23.07,0,0,0,2.8,1c1,.3,1.9.5,2.8.8a14.17,14.17,0,0,1,3.7,1.8,6.63,6.63,0,0,1,2.3,2.9,12.42,12.42,0,0,1,.8,4.7,10.45,10.45,0,0,1-1.6,6.1,10.06,10.06,0,0,1-4.3,3.6,15.89,15.89,0,0,1-6.4,1.2,26,26,0,0,1-3.6-.3,20,20,0,0,1-3.7-.9,1.51,1.51,0,0,1-.8-.4C69.65,57.1,69.55,56.9,69.55,56.6Z"/><path class="cls-1" d="M102.85,58.8a19.35,19.35,0,0,1-4.9-.6,6.54,6.54,0,0,1-3.7-2.3,7.84,7.84,0,0,1-1.4-5,8.2,8.2,0,0,1,1-4.4,7,7,0,0,1,2.5-2.6,12,12,0,0,1,3.3-1.3,18.83,18.83,0,0,1,3.1-.4,19.27,19.27,0,0,1,2.4.1q1.2.15,2.1.3c.4.1.6-.2.6-.8a3.58,3.58,0,0,0-1.3-3.2,6.67,6.67,0,0,0-3.8-.9,9.86,9.86,0,0,0-3.8.7c-1.2.5-2.2.9-3,1.3a1.23,1.23,0,0,1-.7.2.59.59,0,0,1-.2-.5l-.4-2.7V36a2.25,2.25,0,0,1,.5-.5,12.6,12.6,0,0,1,3.3-1.4,15.21,15.21,0,0,1,4.4-.5,17.06,17.06,0,0,1,5.6.8,6.56,6.56,0,0,1,3.1,2.1,6.77,6.77,0,0,1,1.4,3.1,19.82,19.82,0,0,1,.4,3.6v4.5c0,1.4-.1,2.8-.1,4.2s-.1,2.8-.3,4.2a4.65,4.65,0,0,1-.3.9,1.25,1.25,0,0,1-.9.5,14.5,14.5,0,0,1-1.9.6,18.66,18.66,0,0,1-2.5.4,22.86,22.86,0,0,1-2.5.2A15.56,15.56,0,0,1,102.85,58.8Zm.3-3.6a4.48,4.48,0,0,0,1.1-.1,6.88,6.88,0,0,0,1.3-.2,3.7,3.7,0,0,0,1.1-.5.89.89,0,0,0,.5-.8c.1-.9.2-1.9.3-3.1s.1-2.2.1-3.2a.92.92,0,0,0-.6-1,5.28,5.28,0,0,0-1.7-.4,15.48,15.48,0,0,0-2.1-.1,7.84,7.84,0,0,0-1.4.2,5.07,5.07,0,0,0-1.5.7,3.64,3.64,0,0,0-1.2,1.5,6.33,6.33,0,0,0-.5,2.6,4.14,4.14,0,0,0,.6,2.3,4.63,4.63,0,0,0,1.6,1.5A3.92,3.92,0,0,0,103.15,55.2Z"/><path class="cls-1" d="M126.65,58.7a23.26,23.26,0,0,1-4.8-.4,9.72,9.72,0,0,1-2.8-.8,7.26,7.26,0,0,1-1.2-.5c-.3-.1-.4-.3-.5-.6a3,3,0,0,1-.2-1c-.1-.7-.3-1.6-.4-2.9s-.2-2.7-.2-4.2-.1-2.9-.1-4.1c0-4.1,0-8.1.2-12s.5-7.3.9-10.3a.52.52,0,0,1,.2-.4c.1-.1.3-.1.6-.1h4.2c.5,0,.7.1.7.2v.9q-.15.9-.3,2.1c-.1.8-.2,1.6-.3,2.5s-.1,1.7-.2,2.5a18.48,18.48,0,0,0-.1,2.3c0,.7-.1,1.3-.1,1.8,0,.3.1.5.2.5a.9.9,0,0,0,.5.1,12.75,12.75,0,0,1,1.8-.4,18.32,18.32,0,0,1,2.1-.2,16.41,16.41,0,0,1,3.7.5,8.16,8.16,0,0,1,3.3,2,10.41,10.41,0,0,1,2.4,4,20,20,0,0,1,.9,6.5c0,4.2-.9,7.3-2.8,9.2C132.65,57.8,130.05,58.7,126.65,58.7Zm-.1-4.4a4.3,4.3,0,0,0,2.5-.7,5,5,0,0,0,1.7-2.4,14.23,14.23,0,0,0,.6-4.6,16.94,16.94,0,0,0-.4-4.3,5.37,5.37,0,0,0-1.2-2.4,4.19,4.19,0,0,0-1.6-1.1,5.08,5.08,0,0,0-1.7-.3,5.74,5.74,0,0,0-1.2.1c-.5.1-1,.2-1.4.3a6.21,6.21,0,0,0-1,.3.52.52,0,0,0-.4.2.75.75,0,0,0-.1.5c0,.8-.1,1.7-.1,2.7v3.3c0,1.2,0,2.4.1,3.6s.1,2.4.2,3.5a.76.76,0,0,0,.2.5l.3.3a15.46,15.46,0,0,0,1.5.4C125.15,54.2,125.85,54.3,126.55,54.3Z"/><path class="cls-1" d="M140.45,46.1a24.16,24.16,0,0,1,.5-4.7,11,11,0,0,1,1.7-4,8.25,8.25,0,0,1,3.3-2.8,11.94,11.94,0,0,1,5.3-1,13.16,13.16,0,0,1,5.4.9,7.47,7.47,0,0,1,3,2.5,10.71,10.71,0,0,1,1.4,3.5,24.33,24.33,0,0,1,.3,3.8,5.75,5.75,0,0,1-.5,2.8,1.68,1.68,0,0,1-1.4.6h-12.8c-.2,0-.3,0-.4.1s-.1.2-.1.5a7.31,7.31,0,0,0,.8,3.3,5.41,5.41,0,0,0,2.2,2.3,6.48,6.48,0,0,0,3.5.8,13.32,13.32,0,0,0,3.4-.5,14.22,14.22,0,0,0,2.6-1c.4-.2.7-.3.9-.4s.4.2.7.7l1,1.9c.2.3.2.6.1.7a2.49,2.49,0,0,1-.7.5,10.61,10.61,0,0,1-4.2,1.7,22.06,22.06,0,0,1-5.1.5,12.58,12.58,0,0,1-5.5-1,8.91,8.91,0,0,1-3.3-2.7A10.67,10.67,0,0,1,141,51,26.26,26.26,0,0,1,140.45,46.1Zm15.1-2.9a8.25,8.25,0,0,0-.4-2.8,3.42,3.42,0,0,0-1.4-1.9,5,5,0,0,0-2.6-.7,4.77,4.77,0,0,0-2.2.5,4.71,4.71,0,0,0-1.5,1.3,5.56,5.56,0,0,0-.9,1.7,11.63,11.63,0,0,0-.4,1.8c0,.5,0,.8.1.9s.2.2.5.2h8.1a.85.85,0,0,0,.6-.2C155.55,44,155.55,43.7,155.55,43.2Z"/><path class="cls-1" d="M172.75,33.6a16.11,16.11,0,0,1,6.2,1c.3.1.5.3.5.4a.75.75,0,0,1,.1.5l-.8,2.9a.59.59,0,0,1-.2.5,1.76,1.76,0,0,1-.6-.1,6.47,6.47,0,0,0-2-.4,12.13,12.13,0,0,0-1.8-.1,6.62,6.62,0,0,0-1.5.1c-.4.1-.8.1-1.1.2a2.54,2.54,0,0,1-.7.2c-.1.1-.3.2-.5.4s-.3.5-.3.9V57.5a1.29,1.29,0,0,1-.2.8.85.85,0,0,1-.6.2h-4.4a.6.6,0,0,1-.4-.1,1,1,0,0,1-.2-.7v-21a1.85,1.85,0,0,1,.2-1c.1-.2.4-.3.7-.5a12.4,12.4,0,0,1,3.7-1.1A14.86,14.86,0,0,1,172.75,33.6Z"/><path class="cls-1" d="M192.65,58.4c-.5,0-.7-.2-.7-.7V32.2c0-.2-.1-.3-.3-.2l-3.9,2.1c-.5.3-.9.2-1.1-.2l-2.2-3.9c-.3-.5-.1-.9.4-1.3l9.1-5.1a1.63,1.63,0,0,0,.6-.3c.1-.1.3-.1.6-.1h4.1c.5,0,.7.2.7.7V57.6c0,.5-.2.7-.7.7h-6.6Z"/><path class="cls-1" d="M211,58.4c-.5,0-.7-.2-.7-.7V32.2c0-.2-.1-.3-.3-.2l-3.9,2.1c-.5.3-.9.2-1.1-.2l-2.2-3.9c-.3-.5-.1-.9.4-1.3l9.1-5.1a1.63,1.63,0,0,0,.6-.3c.1-.1.3-.1.6-.1h4.1c.5,0,.7.2.7.7V57.6c0,.5-.2.7-.7.7H211Z"/><path class="cls-1" d="M222,27.3a6.29,6.29,0,0,1,.9-3.3,6.42,6.42,0,0,1,2.5-2.4,7.26,7.26,0,0,1,7,0,6.42,6.42,0,0,1,2.5,2.4,6.5,6.5,0,0,1,0,6.6,7.18,7.18,0,0,1-2.5,2.4,7.26,7.26,0,0,1-7,0,6.42,6.42,0,0,1-2.5-2.4A6.29,6.29,0,0,1,222,27.3Zm3.7,0a2.58,2.58,0,0,0,.9,2.1,3.17,3.17,0,0,0,2.3.9,2.94,2.94,0,0,0,2.2-.9,2.88,2.88,0,0,0,.9-2.1,2.58,2.58,0,0,0-.9-2.1,2.94,2.94,0,0,0-2.2-.9,3.34,3.34,0,0,0-2.3.9A2.93,2.93,0,0,0,225.65,27.3Z"/><path class="cls-1" d="M37.75,22.6a1.77,1.77,0,0,0-1.7-1.8h0l-17.8-.4a1.61,1.61,0,0,0-.9.3c-.1.1-.2.1-.2.2L.65,34.6a1.82,1.82,0,0,0,1.1,3.2h0l15.7.1h1a1.71,1.71,0,0,1,1.7,1.8L20,68.6a1.9,1.9,0,0,0,1.9,1.9,1.5,1.5,0,0,0,1.1-.4l13.6-11.4c.6-.5.8-.8.8-1.4Z"/><path class="cls-1" d="M58.45,2.2A1.77,1.77,0,0,0,56.75.4h0L39,0a1.61,1.61,0,0,0-.9.3c-.1.1-.2.1-.2.2L21.35,14.2a1.82,1.82,0,0,0,1.1,3.2h0l15.7.1h1a1.71,1.71,0,0,1,1.7,1.8l-.2,45.6a1.9,1.9,0,0,0,1.9,1.9,1.5,1.5,0,0,0,1.1-.4L57.25,55c.6-.5.8-.8.8-1.4Z"/><path class="cls-1" d="M77.85,12v1.6h-7.5V3.6h7.3V5.2h-5.5V7.8H77V9.2h-4.8V12Z"/><path class="cls-1" d="M84.25,13.6l-2-2.7-2,2.7h-2l3-3.9-2.9-3.8h2l1.9,2.5,1.9-2.5h1.9l-2.9,3.7,3,3.9h-1.9Z"/><path class="cls-1" d="M93.55,9.1v4.5h-1.7v-.9a2.61,2.61,0,0,1-2.4,1c-1.8,0-2.9-1-2.9-2.3s.9-2.3,3.2-2.3h2V9c0-1-.6-1.7-1.9-1.7a3.57,3.57,0,0,0-2.3.8l-.7-1.3a5.49,5.49,0,0,1,3.2-.9C92.25,5.8,93.55,6.9,93.55,9.1Zm-1.8,2.1v-.9h-1.9c-1.2,0-1.5.5-1.5,1s.5,1.1,1.5,1.1A2,2,0,0,0,91.75,11.2Z"/><path class="cls-1" d="M108.35,9.2v4.4h-1.8V9.4c0-1.4-.6-2-1.7-2s-2,.8-2,2.3v3.9h-1.8V9.4c0-1.4-.6-2-1.7-2s-2,.8-2,2.3v3.9h-1.8V5.9h1.7v1a3.25,3.25,0,0,1,2.5-1.1,2.82,2.82,0,0,1,2.6,1.3,3.49,3.49,0,0,1,2.9-1.3C107.05,5.8,108.35,6.9,108.35,9.2Z"/><path class="cls-1" d="M117.55,10.3h-6a2.27,2.27,0,0,0,2.5,1.8,3,3,0,0,0,2.1-.8l1,1.1a4,4,0,0,1-3.1,1.2c-2.6,0-4.2-1.6-4.2-3.9a4,4,0,0,1,7.9.1C117.65,9.9,117.65,10.1,117.55,10.3Zm-6-1.2h4.3a2.11,2.11,0,0,0-2.2-1.9A2.24,2.24,0,0,0,111.55,9.1Z"/><path class="cls-1" d="M126.55,9.2v4.4h-1.8V9.4c0-1.4-.7-2-1.8-2a2,2,0,0,0-2.1,2.3v3.9h-1.8V5.9h1.7v1a3.31,3.31,0,0,1,2.6-1.1C125.25,5.8,126.55,6.9,126.55,9.2Z"/></g></g></svg>