<svg xmlns="http://www.w3.org/2000/svg" viewBox="0 0 100 100"><defs><style>.cls-1{fill:#fff;}</style></defs><title>Recurso 1</title><g id="Capa_2" data-name="Capa 2"><g id="svg1478"><g id="layer1"><path id="path118" class="cls-1" d="M39.19,35.37,45.86,42a5.88,5.88,0,0,0,8.28,0l5.48-5.44,1.15-1.22L92.84,3.27A1.91,1.91,0,0,0,91.49,0H80.22a13.67,13.67,0,0,0-9.66,4L50,24.56l-6.8-6.79a13.33,13.33,0,0,0-9.45-3.92h-16L39.23,35.34l0,0"/><path id="path120" class="cls-1" d="M60.81,64.63,54.14,58a5.87,5.87,0,0,0-8.28,0l-5.48,5.43-1.15,1.22L7.15,96.74A1.91,1.91,0,0,0,8.5,100H19.89a13.36,13.36,0,0,0,9.46-3.92L50,75.44l6.7,6.7a13.68,13.68,0,0,0,9.68,4H82.26L60.77,64.67l0,0"/><path id="path122" class="cls-1" d="M24.56,50l-6.74,6.74a13.56,13.56,0,0,0-4,9.58V82.26L35.33,60.77l0,0L42,54.12a5.87,5.87,0,0,0,0-8.29L3.24,7.13A1.9,1.9,0,0,0,0,8.47V19.8a13.53,13.53,0,0,0,4,9.62L24.56,50"/><path id="path124" class="cls-1" d="M96.07,70.62,75.55,50l6.81-6.84a13.23,13.23,0,0,0,3.85-9.33V17.73L64.82,39.22l0,0-6.55,6.62a5.88,5.88,0,0,0,0,8.24l6.58,6.76,0,0,32,32.15A1.86,1.86,0,0,0,100,91.62V80.15a13.4,13.4,0,0,0-3.93-9.53"/></g></g></g></svg>