<svg xmlns="http://www.w3.org/2000/svg" viewBox="0 0 21.27 22.79"><defs><style>.cls-1{fill:#fff;}</style></defs><title>Recurso 7sdfd</title><g id="Capa_2" data-name="Capa 2"><g id="Capa_2-2" data-name="Capa 2"><path class="cls-1" d="M2.17,7.58a.38.38,0,0,0,.47-.26A9.16,9.16,0,0,1,11.39.76,9.31,9.31,0,0,1,13.3,1a1.93,1.93,0,0,0,.38,1.16c0,.07.1.16.1.17,0,1.36-.28,1.59-.27,1.59a2.7,2.7,0,0,0-2,1.26,1.2,1.2,0,0,0,.06,1.29,9.42,9.42,0,0,1,.49.88c.32.62.68,1.32,1.24,1.32a.77.77,0,0,0,.39-.11,3.31,3.31,0,0,0,1.07-1.45,4.16,4.16,0,0,1,.45-.79c.38,0,.57.4.83,1a1.9,1.9,0,0,0,.76,1c.64.32,2.75,0,3.92-.51a.4.4,0,0,0,.22-.45A10,10,0,0,0,15.13.73a.38.38,0,0,0-.28.71A9.19,9.19,0,0,1,20.1,7.16a6.79,6.79,0,0,1-3,.41,1.58,1.58,0,0,1-.41-.65c-.27-.58-.63-1.37-1.56-1.4-.48,0-.75.52-1.09,1.2-.21.41-.51,1-.76,1.14-.14,0-.42-.58-.59-.9a10.17,10.17,0,0,0-.53-1,.45.45,0,0,1,0-.52,2,2,0,0,1,1.34-.85c.68,0,1-.79,1-2.35a1.05,1.05,0,0,0-.22-.57,1.16,1.16,0,0,1-.23-1A.38.38,0,0,0,13.81.3,9.78,9.78,0,0,0,11.39,0,9.92,9.92,0,0,0,1.91,7.11a.38.38,0,0,0,.26.47"/><path class="cls-1" d="M17.74,10.88a1.69,1.69,0,0,1-.33.38,2.74,2.74,0,0,0-.81,1.11,1,1,0,0,1-1,.59.71.71,0,0,1-.39-.08,7.21,7.21,0,0,0-1.73-1.05h0a.41.41,0,0,1,.32,0,.88.88,0,0,0,.38.09,1.25,1.25,0,0,0,.92-.61c.17-.21.34-.42.51-.42a2.25,2.25,0,0,0,.51-.11,3.71,3.71,0,0,1,1-.18.73.73,0,0,1,.54.18l.07.08M16,10.07a2.84,2.84,0,0,1-.3.08,1.49,1.49,0,0,0-1.1.7c-.09.12-.26.32-.37.32a1.25,1.25,0,0,0-.53-.13.93.93,0,0,0-.93.64.74.74,0,0,0,.47.83,6.85,6.85,0,0,1,1.54.91,1.32,1.32,0,0,0,.92.3,1.71,1.71,0,0,0,1.67-1.11,2.06,2.06,0,0,1,.61-.8c.29-.28.57-.54.57-.92a.88.88,0,0,0-.29-.63,1.46,1.46,0,0,0-1.08-.4,4.37,4.37,0,0,0-1.18.21"/><path class="cls-1" d="M21.17,8.51a.38.38,0,0,0-.42-.33.38.38,0,0,0-.33.43,8.9,8.9,0,0,1,.09,1.26,9.13,9.13,0,0,1-9,9.12c-1.35-.86-2.61-1.92-2.05-3.24,1-2.36.07-3.24-.33-3.62L9,12.06a1.72,1.72,0,0,0-.36-.26c-.28-.17-.35-.21-.2-.66a1.44,1.44,0,0,1,.38-.6,2.2,2.2,0,0,0,.62-1.81,1.43,1.43,0,0,0-.87-1.37,1.9,1.9,0,0,0-1.91.22.86.86,0,0,0-.25.94c.27.81-.35,2-1.51,2.85-.3.23-.39.13-.45.06a1.82,1.82,0,0,1,0-1.78A.56.56,0,0,0,4.61,9C4.3,8.32,2.34,8.37,2,8.39a.38.38,0,0,0-.36.33,8.77,8.77,0,0,0-.07,1.15A9.85,9.85,0,0,0,9,19.46a.38.38,0,0,0,.46-.28.39.39,0,0,0-.28-.46A9.08,9.08,0,0,1,2.28,9.87c0-.26,0-.49,0-.73a5.38,5.38,0,0,1,1.46.16,2.58,2.58,0,0,0,.15,2.63A1,1,0,0,0,5.4,12c1.46-1.1,2.15-2.55,1.77-3.7,0,0,0-.07,0-.14A1.13,1.13,0,0,1,8.3,8.06a.66.66,0,0,1,.42.67c0,.86-.17,1-.41,1.29a2.11,2.11,0,0,0-.55.88,1.12,1.12,0,0,0,.53,1.55,1,1,0,0,1,.22.15.76.76,0,0,0,.09.09c.33.31,1,.89.15,2.76-.91,2.13,1.44,3.61,2.44,4.24a.36.36,0,0,0,.2.06,9.89,9.89,0,0,0,9.88-9.88,8.89,8.89,0,0,0-.1-1.36"/><path class="cls-1" d="M17.74,18.41a10.64,10.64,0,0,1-17-8.54.38.38,0,0,0-.76,0A11.41,11.41,0,0,0,11,21.26v1.15a.38.38,0,0,0,.76,0V21.25A11.25,11.25,0,0,0,18.19,19a.38.38,0,0,0,.08-.54.38.38,0,0,0-.53-.07"/><path class="cls-1" d="M11.89,16.86a.66.66,0,0,1-.77,0s0-.11.09-.28a1.36,1.36,0,0,1,.42-.42,1.46,1.46,0,0,1,.25.43c0,.12,0,.23,0,.26m-.21-1.47a1.66,1.66,0,0,0-1.23,1,.86.86,0,0,0,.13,1,1.29,1.29,0,0,0,.92.36,1.32,1.32,0,0,0,.93-.36,1,1,0,0,0,.17-1,2,2,0,0,0-.5-.8.59.59,0,0,0-.42-.17"/></g></g></svg>