<svg xmlns="http://www.w3.org/2000/svg" viewBox="0 0 101.3 107.72"><defs><style>.cls-1{fill:#f6a7c2;}</style></defs><title>Recurso 378</title><g id="Capa_2" data-name="Capa 2"><g id="Capa_1-2" data-name="Capa 1"><path class="cls-1" d="M7.34,48.43a2.78,2.78,0,0,1,0-.5c.45-2.66-1.24-6.35,1.82-7.72,3.37-1.5,7.24-.61,10.66.93,1.91.87,2.43,2.35,1.56,4.54-1.1,2.76-2.4,6.67.73,8,2.57,1.1,4.55-2.63,6.26-4.78A10,10,0,0,0,30.78,41c-.68-4.35,1.77-6.33,5.47-6.77,4-.47,7.36.95,8.52,5.21A11,11,0,0,1,42.5,49.76c-2.37,2.82-3,5.06.6,7.78,4.56,3.4,4.86,8.3,3.27,13.56-2.85,9.4-1.16,13.49,7.34,18.49,3.77,2.22,7.6.45,11.15-.39C85.14,84.39,99,65.4,97.91,44.41a2.85,2.85,0,0,1,0-.5c.19-1.45-1.1-3.9,1.41-3.94,2.14,0,1.83,2.47,1.93,4a44.86,44.86,0,0,1-3.74,20.94C90.35,81.18,77.62,90,60.4,93.54c-9.75,2-24.22-11.25-18.35-21.58,2.6-4.58,2.1-9.61-3-13.23-3.92-2.78-2.81-6.35-.59-9.66,1.48-2.22,3.25-4.21,3-7.17-.22-2.67-1.63-3.87-4.2-3.89s-2.83,1.58-2.77,3.68c.17,6.46-3.39,11-8.17,14.67-4.24,3.27-8,1.94-9.35-3.21a14,14,0,0,1-.24-5.44c.35-2.19.78-3.86-2.38-4s-3.52,1.42-3.58,4c-.38,16.6,11.89,33.9,28.35,39.9,2,.74,5.93.7,5.1,3.37-.95,3-4,.41-6-.19C20.31,85.1,7.77,67.82,7.34,48.43Z"/><path class="cls-1" d="M54.41.11A20.45,20.45,0,0,1,57,.13c3.36.44,7.89-.43,9.41,3,2.22,5,4.14,10.61,1.19,16.31-.88,1.69-2.27,2.16-3.91,2.7-2.55.84-5.65,2.05-5.56,5,.1,3.29,2.56,6.05,4.48,8.74.76,1,1.81.33,2.39-.63.94-1.57,1.82-3.17,2.72-4.76,3-5.36,6.57-5.51,10.21-.43,5.18,7.24,5.15,7.1,13.8,5.3,4-.84,4.3-2.54,2.71-5.89C90.11,20.3,83.75,13.1,74.72,8.35c-1-.55-2.1-1-3.09-1.63-.7-.43-1.46-1-1.1-2C71,3.46,72,3.67,73,4.06a41.72,41.72,0,0,1,11.43,7A48.79,48.79,0,0,1,98.72,31.8c1.37,3.61,0,4.92-3,5.68-2.74.69-5.51,1.29-8.28,1.87-5.14,1.09-9.2.09-11.22-5.48-.5-1.39-1.15-3.46-3.25-3.28-1.74.15-2,2.06-2.73,3.3-.25.43-.49.87-.75,1.3-1.47,2.39-2.62,5.48-5.9,5.5s-4.48-3.09-5.85-5.52C52.19,25.5,52.82,23.5,63,18.54a4.47,4.47,0,0,0,2.47-2.88,9.55,9.55,0,0,0-8-12.42C39.58,1.44,21,13.15,14,30.64c-.24.61-.31,1.31-.61,1.9-.7,1.39-1.06,3.73-3.3,2.67-1.75-.83-.77-2.66-.21-4C16,16.31,26.52,6.13,42.2,1.73,46.19.61,50.29-.33,54.41.11Z"/><path class="cls-1" d="M1.86,45.56c2,.69,1.68,2.38,1.77,3.78a52.75,52.75,0,0,0,9.37,27c15.25,22,45,27.9,68.27,13.78,1.52-.92,3.64-3.7,5-1.57,1.61,2.55-2,3.25-3.56,4.27a49.45,49.45,0,0,1-21.91,7.64c-3.23.36-5.58.84-5,4.86.14,1,0,2.24-1.25,2.38-1.7.19-1.8-1.35-1.67-2.42.47-4.06-2-4.34-5.15-4.82C21,96.35.76,74.88.15,50,.11,48.36-.68,46.24,1.86,45.56Z"/><path class="cls-1" d="M73.38,65c-3.8-1.08-8.13-3.81-12-7.16-1.7-1.48-.46-4.39,1.16-4.4,6.19,0,9.79-6,15.72-6.29,1,0,2-.23,3-.29,2.7-.16,5,.7,6.28,3.16,1.4,2.62-.47,4.31-1.93,6.14-1.23,1.54-2.35,3.18-3.43,4.83C80.41,63.69,78,65.11,73.38,65Zm7.21-14.19c-4.78-.21-8.09,2.54-11.26,5.55-.61.59-1.13,1.05-.46,2.06a6.11,6.11,0,0,0,10.41.09c1-1.5,2.09-3,3.13-4.46.54-.77,1.59-1.46.87-2.57S81.54,50.67,80.59,50.78Z"/><path class="cls-1" d="M55,84.48c-2.79-.33-5.49-1.16-5.37-4.52s2.2-6.18,5.69-6.43,4.67,2.91,5,5.69C60.72,82.76,58,83.93,55,84.48Z"/></g></g></svg>