<svg xmlns="http://www.w3.org/2000/svg" viewBox="0 0 424.27 299.8"><defs><style>.cls-1{fill:#fff;}.cls-2{fill:#fafafa;}.cls-3{fill:#939598;}.cls-4{fill:#8c70ff;}.cls-5{fill:#1c1c1c;}.cls-6{fill:#fcb05c;}.cls-7{fill:#ff91bd;}.cls-8{fill:#14eb8c;}.cls-9{fill:#fced87;}.cls-10{fill:#2cd5f2;}</style></defs><title>Recurso 4vfsdf</title><g id="Capa_2" data-name="Capa 2"><g id="Capa_3" data-name="Capa 3"><rect class="cls-1" x="0.25" y="0.24" width="423.79" height="299.33"/></g><g id="Capa_2-2" data-name="Capa 2"><path class="cls-2" d="M332.54,20.37H424V55.49H332.54Zm-92.87,0h92.87V55.49H239.67Zm0-20.12H424V20.37H239.67ZM.25.25H239.67V55.49H.25Z"/><rect class="cls-3" x="423.77" y="0.5" width="0.5" height="19.62"/><rect class="cls-3" width="239.67" height="0.5"/><rect class="cls-3" y="0.5" width="0.5" height="19.87"/><rect class="cls-3" y="20.37" width="0.5" height="34.87"/><rect class="cls-3" x="239.42" y="20.12" width="93.12" height="0.5"/><rect class="cls-3" y="55.24" width="239.67" height="0.5"/><rect class="cls-3" y="55.74" width="0.5" height="30.96"/><rect class="cls-3" x="239.67" y="55.24" width="92.87" height="0.5"/><rect class="cls-3" x="332.54" y="55.24" width="91.73" height="0.5"/><rect class="cls-3" y="86.7" width="239.67" height="0.5"/><rect class="cls-3" y="87.2" width="0.5" height="30.96"/><rect class="cls-3" x="239.67" y="86.7" width="92.87" height="0.5"/><rect class="cls-3" x="332.54" y="86.7" width="91.73" height="0.5"/><rect class="cls-3" y="118.16" width="239.67" height="0.5"/><rect class="cls-3" y="118.66" width="0.5" height="30.96"/><rect class="cls-3" x="239.67" y="118.16" width="92.87" height="0.5"/><rect class="cls-3" x="332.54" y="118.16" width="91.73" height="0.5"/><rect class="cls-3" y="149.61" width="239.67" height="0.5"/><rect class="cls-3" y="150.11" width="0.5" height="30.96"/><rect class="cls-3" x="239.67" y="149.61" width="92.87" height="0.5"/><rect class="cls-3" x="332.54" y="149.61" width="91.73" height="0.5"/><rect class="cls-3" y="181.07" width="239.67" height="0.5"/><rect class="cls-3" y="181.57" width="0.5" height="30.96"/><rect class="cls-3" x="239.67" y="181.07" width="92.87" height="0.5"/><rect class="cls-3" x="332.54" y="181.07" width="91.73" height="0.5"/><rect class="cls-3" y="212.53" width="239.67" height="0.5"/><rect class="cls-3" y="213.03" width="0.5" height="30.96"/><rect class="cls-3" x="239.67" y="212.53" width="92.87" height="0.5"/><rect class="cls-3" x="332.54" y="212.53" width="91.73" height="0.5"/><rect class="cls-3" y="243.99" width="239.67" height="0.5"/><rect class="cls-3" y="244.49" width="0.5" height="27.16"/><rect class="cls-3" x="239.67" y="243.99" width="92.87" height="0.5"/><rect class="cls-3" x="332.54" y="243.99" width="91.73" height="0.5"/><rect class="cls-3" y="271.65" width="239.67" height="0.5"/><rect class="cls-3" y="272.15" width="0.5" height="27.16"/><rect class="cls-3" x="239.67" y="271.65" width="92.87" height="0.5"/><rect class="cls-3" x="332.54" y="271.65" width="91.73" height="0.5"/><rect class="cls-3" y="299.3" width="239.67" height="0.5"/><rect class="cls-3" x="239.67" width="92.87" height="0.5"/><rect class="cls-3" x="239.42" y="0.5" width="0.5" height="19.62"/><rect class="cls-3" x="332.54" width="91.73" height="0.5"/><rect class="cls-3" x="239.42" y="20.62" width="0.5" height="34.62"/><rect class="cls-3" x="239.42" y="55.74" width="0.5" height="30.96"/><rect class="cls-3" x="239.42" y="87.2" width="0.5" height="30.96"/><rect class="cls-3" x="239.42" y="118.66" width="0.5" height="30.96"/><rect class="cls-3" x="239.42" y="150.11" width="0.5" height="30.96"/><rect class="cls-3" x="239.42" y="181.57" width="0.5" height="30.96"/><rect class="cls-3" x="239.42" y="213.03" width="0.5" height="30.96"/><rect class="cls-3" x="239.42" y="244.49" width="0.5" height="27.16"/><rect class="cls-3" x="239.42" y="272.15" width="0.5" height="27.16"/><rect class="cls-3" x="239.67" y="299.3" width="92.87" height="0.5"/><rect class="cls-3" x="332.54" y="20.12" width="91.73" height="0.5"/><rect class="cls-3" x="332.29" y="20.62" width="0.5" height="34.62"/><rect class="cls-3" x="423.77" y="20.62" width="0.5" height="34.62"/><rect class="cls-3" x="332.29" y="55.74" width="0.5" height="30.96"/><rect class="cls-3" x="423.77" y="55.74" width="0.5" height="30.96"/><rect class="cls-3" x="332.29" y="87.2" width="0.5" height="30.96"/><rect class="cls-3" x="423.77" y="87.2" width="0.5" height="30.96"/><rect class="cls-3" x="332.29" y="118.66" width="0.5" height="30.96"/><rect class="cls-3" x="423.77" y="118.66" width="0.5" height="30.96"/><rect class="cls-3" x="332.29" y="150.11" width="0.5" height="30.96"/><rect class="cls-3" x="423.77" y="150.11" width="0.5" height="30.96"/><rect class="cls-3" x="332.29" y="181.57" width="0.5" height="30.96"/><rect class="cls-3" x="423.77" y="181.57" width="0.5" height="30.96"/><rect class="cls-3" x="332.29" y="213.03" width="0.5" height="30.96"/><rect class="cls-3" x="423.77" y="213.03" width="0.5" height="30.96"/><rect class="cls-3" x="332.29" y="244.49" width="0.5" height="27.16"/><rect class="cls-3" x="423.77" y="244.49" width="0.5" height="27.16"/><rect class="cls-3" x="332.29" y="272.15" width="0.5" height="27.16"/><rect class="cls-3" x="423.77" y="272.15" width="0.5" height="27.16"/><rect class="cls-3" x="332.54" y="299.3" width="91.73" height="0.5"/></g><g id="Capa_1-2" data-name="Capa 1"><path d="M104.13,25.64a2.75,2.75,0,0,1,1.24,1,2.88,2.88,0,0,1,.43,1.6,2.91,2.91,0,0,1-.43,1.59,2.75,2.75,0,0,1-1.24,1,4.68,4.68,0,0,1-1.91.36h-1.89v2.43H98.77v-8.4h3.45A4.68,4.68,0,0,1,104.13,25.64Zm-.43,3.86a1.7,1.7,0,0,0,0-2.47,2.39,2.39,0,0,0-1.55-.43h-1.82v3.33h1.82A2.39,2.39,0,0,0,103.7,29.5Z"/><path d="M110.86,27.2v1.43a1.42,1.42,0,0,0-.34,0,1.81,1.81,0,0,0-1.37.51,2,2,0,0,0-.49,1.47v3.11h-1.5V27.27h1.42v.94A2.5,2.5,0,0,1,110.86,27.2Z"/><path d="M118.4,27.27v6.41H117v-.82a2.42,2.42,0,0,1-.9.67,3,3,0,0,1-1.16.23,2.53,2.53,0,0,1-2.76-2.83V27.27h1.5v3.46A1.88,1.88,0,0,0,114,32a1.44,1.44,0,0,0,1.11.42,1.67,1.67,0,0,0,1.28-.5,2,2,0,0,0,.47-1.43V27.27Z"/><path d="M126.37,31h-5a1.77,1.77,0,0,0,.69,1.13,2.29,2.29,0,0,0,1.39.41,2.33,2.33,0,0,0,1.74-.7l.8.93a2.79,2.79,0,0,1-1.09.78,4.12,4.12,0,0,1-1.49.26,4,4,0,0,1-1.86-.42,3,3,0,0,1-1.24-1.17,3.5,3.5,0,0,1,0-3.38,3,3,0,0,1,1.18-1.17,3.65,3.65,0,0,1,3.38,0A3,3,0,0,1,126,28.78a3.57,3.57,0,0,1,.41,1.73C126.39,30.61,126.38,30.76,126.37,31Zm-4.44-2.13a1.82,1.82,0,0,0-.6,1.14H125a1.77,1.77,0,0,0-.58-1.13,1.79,1.79,0,0,0-1.23-.43A1.85,1.85,0,0,0,121.93,28.82Z"/><path d="M133.06,27.61a2.92,2.92,0,0,1,1.16,1.15,3.41,3.41,0,0,1,.42,1.71,3.49,3.49,0,0,1-.42,1.73,2.92,2.92,0,0,1-1.16,1.15,3.35,3.35,0,0,1-1.68.41,2.92,2.92,0,0,1-1.2-.23,2.31,2.31,0,0,1-.92-.68v.83h-1.43V24.77h1.5v3.28a2.64,2.64,0,0,1,.91-.64,3,3,0,0,1,1.14-.21A3.35,3.35,0,0,1,133.06,27.61Zm-.48,4.32a2,2,0,0,0,.53-1.46,2,2,0,0,0-.53-1.45,1.81,1.81,0,0,0-1.36-.55,1.88,1.88,0,0,0-1,.25,1.76,1.76,0,0,0-.68.7,2.09,2.09,0,0,0-.25,1,2.13,2.13,0,0,0,.25,1.06,1.83,1.83,0,0,0,.68.7,1.88,1.88,0,0,0,1,.25A1.85,1.85,0,0,0,132.58,31.93Z"/><path d="M140.61,27.88a2.64,2.64,0,0,1,.75,2v3.76h-1.42V32.9a1.74,1.74,0,0,1-.79.64,3,3,0,0,1-1.23.22,3.08,3.08,0,0,1-1.26-.24,2,2,0,0,1-.83-.69,1.69,1.69,0,0,1-.29-1,1.68,1.68,0,0,1,.64-1.38,3.15,3.15,0,0,1,2-.53h1.66v-.09a1.3,1.3,0,0,0-.41-1,1.71,1.71,0,0,0-1.19-.36,3.49,3.49,0,0,0-1.06.16,2.73,2.73,0,0,0-.88.47L135.73,28a3.6,3.6,0,0,1,1.21-.59,5.6,5.6,0,0,1,1.5-.2A3.1,3.1,0,0,1,140.61,27.88Zm-1.37,4.53a1.41,1.41,0,0,0,.62-.74v-.74h-1.55c-.87,0-1.3.28-1.3.85a.77.77,0,0,0,.33.65,1.46,1.46,0,0,0,.9.24A2,2,0,0,0,139.24,32.41Z"/><path d="M272,6.3v8.4h-1.28L266.06,9V14.7h-1.55V6.3h1.28L270.42,12V6.3Z"/><path d="M280.29,8.29V14.7h-1.43v-.82a2.42,2.42,0,0,1-.9.67,2.83,2.83,0,0,1-1.16.23,2.79,2.79,0,0,1-2-.71A2.83,2.83,0,0,1,274,12V8.29h1.5v3.46a1.88,1.88,0,0,0,.39,1.29,1.44,1.44,0,0,0,1.11.42,1.67,1.67,0,0,0,1.27-.49,2,2,0,0,0,.48-1.44V8.29Zm-2.52-2.52h1.76l-2.09,1.65h-1.29Z"/><path d="M292.26,8.92A2.82,2.82,0,0,1,293,11V14.7h-1.5V11.22A1.89,1.89,0,0,0,291.1,10,1.35,1.35,0,0,0,290,9.53a1.53,1.53,0,0,0-1.21.5,2,2,0,0,0-.46,1.42V14.7h-1.5V11.22a1.89,1.89,0,0,0-.37-1.27,1.35,1.35,0,0,0-1.07-.42,1.55,1.55,0,0,0-1.21.49,2,2,0,0,0-.45,1.43V14.7h-1.5V8.29h1.42v.82a2.29,2.29,0,0,1,.9-.66,3.09,3.09,0,0,1,1.2-.23,2.9,2.9,0,0,1,1.28.27,2.06,2.06,0,0,1,.88.8,2.75,2.75,0,0,1,1-.79,3.31,3.31,0,0,1,1.38-.28A2.59,2.59,0,0,1,292.26,8.92Z"/><path d="M300.94,12h-5a1.77,1.77,0,0,0,.69,1.12,2.31,2.31,0,0,0,1.39.41,2.36,2.36,0,0,0,1.74-.69l.8.92a2.79,2.79,0,0,1-1.09.78,3.92,3.92,0,0,1-1.49.26,4,4,0,0,1-1.86-.42,3,3,0,0,1-1.24-1.17,3.5,3.5,0,0,1,0-3.38A3,3,0,0,1,296,8.64a3.65,3.65,0,0,1,3.38,0,3,3,0,0,1,1.15,1.17,3.49,3.49,0,0,1,.41,1.73A4.14,4.14,0,0,1,300.94,12Zm-4.43-2.13A1.74,1.74,0,0,0,295.9,11h3.64a1.75,1.75,0,0,0-1.82-1.56A1.76,1.76,0,0,0,296.51,9.85Z"/><path d="M306.11,8.22V9.65a1.5,1.5,0,0,0-.35,0,1.79,1.79,0,0,0-1.36.51,2,2,0,0,0-.5,1.47V14.7h-1.5V8.29h1.43v.94A2.5,2.5,0,0,1,306.11,8.22Z"/><path d="M308.46,14.36a3,3,0,0,1-1.21-1.17,3.21,3.21,0,0,1-.44-1.69,3.22,3.22,0,0,1,.44-1.7,3.07,3.07,0,0,1,1.21-1.16,3.9,3.9,0,0,1,3.52,0A3.1,3.1,0,0,1,313.2,9.8a3.48,3.48,0,0,1,0,3.39A3.05,3.05,0,0,1,312,14.36a3.9,3.9,0,0,1-3.52,0ZM311.58,13a2,2,0,0,0,.54-1.45,2,2,0,0,0-.54-1.46,2,2,0,0,0-2.73,0,2,2,0,0,0-.53,1.46,2,2,0,0,0,.53,1.45,2,2,0,0,0,2.73,0Z"/><path d="M324.66,5.8v8.9h-1.44v-.83a2.3,2.3,0,0,1-.91.69,3.18,3.18,0,0,1-1.21.22,3.37,3.37,0,0,1-1.66-.4,3,3,0,0,1-1.16-1.16,3.48,3.48,0,0,1-.42-1.72,3.45,3.45,0,0,1,.42-1.72,2.92,2.92,0,0,1,1.16-1.15,3.38,3.38,0,0,1,1.66-.41,2.92,2.92,0,0,1,1.16.22,2.25,2.25,0,0,1,.9.64V5.8Zm-2.41,7.45a1.72,1.72,0,0,0,.69-.7,2.2,2.2,0,0,0,.25-1.05,2.24,2.24,0,0,0-.25-1.06,1.79,1.79,0,0,0-.69-.7,2,2,0,0,0-1.94,0,1.79,1.79,0,0,0-.69.7,2.24,2.24,0,0,0-.25,1.06,2.2,2.2,0,0,0,.25,1.05,1.72,1.72,0,0,0,.69.7,2,2,0,0,0,1.94,0Z"/><path d="M332.63,12h-5a1.77,1.77,0,0,0,.69,1.12,2.33,2.33,0,0,0,1.39.41,2.36,2.36,0,0,0,1.74-.69l.8.92a2.72,2.72,0,0,1-1.09.78,3.88,3.88,0,0,1-1.49.26,4,4,0,0,1-1.86-.42,3,3,0,0,1-1.24-1.17,3.3,3.3,0,0,1-.44-1.69,3.4,3.4,0,0,1,.43-1.69,3,3,0,0,1,1.18-1.17,3.47,3.47,0,0,1,1.71-.42,3.41,3.41,0,0,1,1.67.41,2.94,2.94,0,0,1,1.15,1.17,3.49,3.49,0,0,1,.42,1.73C332.66,11.64,332.65,11.78,332.63,12ZM328.2,9.85a1.78,1.78,0,0,0-.61,1.13h3.64a1.81,1.81,0,0,0-.59-1.13,1.95,1.95,0,0,0-2.44,0Z"/><path d="M342.63,8.63a2.85,2.85,0,0,1,1.16,1.15,3.45,3.45,0,0,1,.42,1.72,3.48,3.48,0,0,1-.42,1.72,2.94,2.94,0,0,1-1.16,1.16,3.41,3.41,0,0,1-1.67.4,2.57,2.57,0,0,1-2-.86V17h-1.5V8.29h1.43v.84a2.28,2.28,0,0,1,.91-.68A3.18,3.18,0,0,1,341,8.22,3.41,3.41,0,0,1,342.63,8.63ZM342.15,13a2,2,0,0,0,.54-1.45,2,2,0,0,0-.54-1.46,1.83,1.83,0,0,0-1.36-.55,1.87,1.87,0,0,0-1,.25,1.7,1.7,0,0,0-.68.7,2.13,2.13,0,0,0-.26,1.06,2.1,2.1,0,0,0,.26,1.05,1.64,1.64,0,0,0,.68.7,1.87,1.87,0,0,0,1,.25A1.79,1.79,0,0,0,342.15,13Z"/><path d="M349.35,8.22V9.65a1.56,1.56,0,0,0-.35,0,1.83,1.83,0,0,0-1.37.51,2,2,0,0,0-.49,1.47V14.7h-1.5V8.29h1.43v.94A2.5,2.5,0,0,1,349.35,8.22Z"/><path d="M356.56,12h-5a1.77,1.77,0,0,0,.69,1.12,2.31,2.31,0,0,0,1.39.41,2.36,2.36,0,0,0,1.74-.69l.8.92a2.79,2.79,0,0,1-1.09.78,3.92,3.92,0,0,1-1.49.26,4,4,0,0,1-1.86-.42,3,3,0,0,1-1.24-1.17,3.5,3.5,0,0,1,0-3.38,3,3,0,0,1,1.18-1.17,3.65,3.65,0,0,1,3.38,0,3,3,0,0,1,1.15,1.17,3.49,3.49,0,0,1,.41,1.73A4.14,4.14,0,0,1,356.56,12Zm-4.43-2.13a1.74,1.74,0,0,0-.61,1.13h3.64a1.75,1.75,0,0,0-1.82-1.56A1.76,1.76,0,0,0,352.13,9.85Z"/><path d="M364.38,8.29v5.44q0,3.38-3.45,3.38a6.61,6.61,0,0,1-1.75-.23,3.67,3.67,0,0,1-1.37-.68l.67-1.13a3.22,3.22,0,0,0,1.06.56,4.16,4.16,0,0,0,1.3.21,2.15,2.15,0,0,0,1.55-.48,2,2,0,0,0,.49-1.46v-.34a2.46,2.46,0,0,1-.93.64,3.38,3.38,0,0,1-1.21.21,3.46,3.46,0,0,1-1.65-.39,2.88,2.88,0,0,1-1.17-1.1,3.32,3.32,0,0,1,0-3.23,2.93,2.93,0,0,1,1.17-1.09,3.58,3.58,0,0,1,1.65-.38,3.4,3.4,0,0,1,1.26.23,2.37,2.37,0,0,1,1,.69V8.29Zm-2,4.34a1.71,1.71,0,0,0,.55-1.33,1.66,1.66,0,0,0-.55-1.3,2,2,0,0,0-1.4-.51,2,2,0,0,0-1.41.51,1.69,1.69,0,0,0-.54,1.3,1.74,1.74,0,0,0,.54,1.33,2,2,0,0,0,1.41.51A2,2,0,0,0,362.36,12.63Z"/><path d="M372.56,8.29V14.7h-1.43v-.82a2.42,2.42,0,0,1-.9.67,2.84,2.84,0,0,1-1.17.23,2.77,2.77,0,0,1-2-.71A2.83,2.83,0,0,1,366.3,12V8.29h1.5v3.46a1.88,1.88,0,0,0,.39,1.29,1.44,1.44,0,0,0,1.11.42,1.67,1.67,0,0,0,1.28-.49,2,2,0,0,0,.48-1.44V8.29Z"/><path d="M380.1,8.93a2.78,2.78,0,0,1,.73,2.1V14.7h-1.5V11.22a1.84,1.84,0,0,0-.39-1.27,1.47,1.47,0,0,0-1.13-.42,1.71,1.71,0,0,0-1.31.5,2,2,0,0,0-.48,1.43V14.7h-1.5V8.29H376v.83a2.28,2.28,0,0,1,.94-.67,3.38,3.38,0,0,1,1.27-.23A2.66,2.66,0,0,1,380.1,8.93Z"/><path d="M386.6,14.35a1.81,1.81,0,0,1-.65.33,2.9,2.9,0,0,1-.79.1,2.28,2.28,0,0,1-1.64-.55,2.14,2.14,0,0,1-.57-1.61V9.54h-1.06V8.34H383V6.88h1.5V8.34h1.71v1.2h-1.71v3.05a1,1,0,0,0,.23.71.83.83,0,0,0,.66.25,1.32,1.32,0,0,0,.84-.27Z"/><path d="M392.45,8.9a2.64,2.64,0,0,1,.75,2V14.7h-1.42v-.78a1.74,1.74,0,0,1-.79.64,3,3,0,0,1-1.23.22,3.08,3.08,0,0,1-1.26-.24,2,2,0,0,1-.83-.69,1.82,1.82,0,0,1,.35-2.37,3.15,3.15,0,0,1,2-.52h1.66v-.1a1.3,1.3,0,0,0-.41-1,1.73,1.73,0,0,0-1.19-.36,3.22,3.22,0,0,0-1.06.17,2.53,2.53,0,0,0-.88.46L387.57,9a3.79,3.79,0,0,1,1.21-.59,5.6,5.6,0,0,1,1.5-.2A3.15,3.15,0,0,1,392.45,8.9Zm-1.37,4.53a1.39,1.39,0,0,0,.62-.73V12h-1.55c-.87,0-1.3.29-1.3.85a.75.75,0,0,0,.33.65,1.46,1.46,0,0,0,.9.24A1.87,1.87,0,0,0,391.08,13.43Z"/><path d="M395.57,14.58a4,4,0,0,1-1.19-.52l.58-1.14a3.56,3.56,0,0,0,1,.47,4.5,4.5,0,0,0,1.19.17c.9,0,1.35-.24,1.35-.71a.49.49,0,0,0-.35-.47,6.45,6.45,0,0,0-1.09-.25,9.46,9.46,0,0,1-1.29-.27,2.05,2.05,0,0,1-.87-.55,1.54,1.54,0,0,1-.36-1.09,1.69,1.69,0,0,1,.76-1.45,3.42,3.42,0,0,1,2.06-.55,5.94,5.94,0,0,1,1.32.15,3.65,3.65,0,0,1,1.08.4l-.58,1.14a3.56,3.56,0,0,0-1.84-.48,2.05,2.05,0,0,0-1,.2.59.59,0,0,0-.34.52.52.52,0,0,0,.37.51,5.23,5.23,0,0,0,1.13.28,9.4,9.4,0,0,1,1.26.28,2,2,0,0,1,.85.53A1.5,1.5,0,0,1,400,12.8a1.67,1.67,0,0,1-.78,1.44,3.68,3.68,0,0,1-2.12.54A5.64,5.64,0,0,1,395.57,14.58Z"/><path d="M262.67,26.83a12.81,12.81,0,0,1,2-.15,3.31,3.31,0,0,1,2.26.67,2.15,2.15,0,0,1,.71,1.69,2.38,2.38,0,0,1-.62,1.73,3.37,3.37,0,0,1-2.47.88,3.56,3.56,0,0,1-.84-.07v3.24h-1.05Zm1.05,3.9a3.44,3.44,0,0,0,.86.08c1.26,0,2-.61,2-1.72s-.76-1.59-1.91-1.59a4.11,4.11,0,0,0-1,.09Z"/><path d="M268.81,30.83c0-.69,0-1.27-.05-1.81h.92l0,1.13h0a1.74,1.74,0,0,1,1.6-1.27,1.28,1.28,0,0,1,.3,0v1a1.28,1.28,0,0,0-.36,0,1.47,1.47,0,0,0-1.41,1.35,2.57,2.57,0,0,0,0,.5v3.09h-1Z"/><path d="M273.83,27.38a.65.65,0,1,1-1.3,0,.64.64,0,0,1,.66-.66A.62.62,0,0,1,273.83,27.38Zm-1.17,7.44V29h1v5.8Z"/><path d="M275.47,30.59c0-.6,0-1.09-.05-1.57h.92l.05.93h0a2,2,0,0,1,1.83-1.07,1.71,1.71,0,0,1,1.64,1.17h0a2.21,2.21,0,0,1,.64-.76,2,2,0,0,1,1.29-.41c.76,0,1.9.51,1.9,2.52v3.42h-1V31.53c0-1.11-.41-1.78-1.26-1.78a1.36,1.36,0,0,0-1.25,1,2,2,0,0,0-.08.52v3.59h-1V31.34c0-.92-.41-1.59-1.21-1.59a1.44,1.44,0,0,0-1.31,1.05,1.49,1.49,0,0,0-.08.52v3.5h-1Z"/><path d="M286.1,32.11a1.85,1.85,0,0,0,2,2,3.75,3.75,0,0,0,1.6-.3l.19.76a4.72,4.72,0,0,1-1.94.36A2.69,2.69,0,0,1,285.09,32c0-1.75,1-3.13,2.72-3.13a2.46,2.46,0,0,1,2.4,2.74,2.81,2.81,0,0,1,0,.49Zm3.09-.76a1.5,1.5,0,0,0-1.46-1.71,1.74,1.74,0,0,0-1.62,1.71Z"/><path d="M291.52,30.83c0-.69,0-1.27,0-1.81h.93l0,1.13h.05a1.75,1.75,0,0,1,1.61-1.27,1.36,1.36,0,0,1,.3,0v1a1.32,1.32,0,0,0-.36,0,1.48,1.48,0,0,0-1.42,1.35,3.68,3.68,0,0,0-.05.5v3.09h-1Z"/><path d="M298.58,34.82l-.09-.73h0a2.19,2.19,0,0,1-1.78.86,1.65,1.65,0,0,1-1.77-1.66c0-1.41,1.24-2.18,3.49-2.16V31a1.21,1.21,0,0,0-1.32-1.35,3,3,0,0,0-1.52.43l-.24-.69a3.64,3.64,0,0,1,1.91-.52c1.78,0,2.21,1.21,2.21,2.38v2.17a8.47,8.47,0,0,0,.09,1.39Zm-.16-3c-1.15,0-2.46.18-2.46,1.31a.93.93,0,0,0,1,1,1.45,1.45,0,0,0,1.4-1,1,1,0,0,0,.06-.33Z"/><path d="M267.58,48.74a2.82,2.82,0,0,0,1.39.42c.77,0,1.13-.38,1.13-.86s-.3-.78-1.08-1.07c-1-.37-1.53-.95-1.53-1.64a1.79,1.79,0,0,1,2-1.71,2.94,2.94,0,0,1,1.43.36l-.27.77a2.32,2.32,0,0,0-1.19-.33c-.62,0-1,.36-1,.79s.35.69,1.11,1c1,.38,1.52.89,1.52,1.75,0,1-.79,1.74-2.17,1.74a3.3,3.3,0,0,1-1.63-.4Z"/><path d="M273.07,47.11a1.85,1.85,0,0,0,2,2,3.75,3.75,0,0,0,1.6-.3l.18.76a4.63,4.63,0,0,1-1.93.36A2.69,2.69,0,0,1,272.06,47c0-1.75,1-3.13,2.72-3.13a2.46,2.46,0,0,1,2.4,2.74,4.35,4.35,0,0,1,0,.49Zm3.09-.76a1.5,1.5,0,0,0-1.46-1.71,1.74,1.74,0,0,0-1.62,1.71Z"/><path d="M278.35,48.74a2.79,2.79,0,0,0,1.39.42c.76,0,1.12-.38,1.12-.86s-.3-.78-1.08-1.07c-1-.37-1.53-.95-1.53-1.64a1.79,1.79,0,0,1,2-1.71,2.91,2.91,0,0,1,1.43.36l-.26.77a2.32,2.32,0,0,0-1.19-.33c-.63,0-1,.36-1,.79s.34.69,1.1,1c1,.38,1.52.89,1.52,1.75,0,1-.79,1.74-2.17,1.74a3.33,3.33,0,0,1-1.63-.4Z"/><path d="M284.42,42.38a.66.66,0,0,1-1.31,0,.65.65,0,0,1,.66-.66A.63.63,0,0,1,284.42,42.38Zm-1.18,7.44V44h1.06v5.8Z"/><path d="M291.3,46.87A2.83,2.83,0,0,1,288.41,50a2.76,2.76,0,0,1-2.78-3,2.84,2.84,0,0,1,2.88-3.09A2.74,2.74,0,0,1,291.3,46.87Zm-4.6.06c0,1.27.73,2.23,1.76,2.23s1.76-.95,1.76-2.25c0-1-.49-2.23-1.74-2.23S286.7,45.83,286.7,46.93ZM290,41.51l-1.46,1.71h-.76l1.06-1.71Z"/><path d="M292.64,45.59c0-.6,0-1.09-.05-1.57h.93l.06,1h0a2.13,2.13,0,0,1,1.92-1.1c.8,0,2.05.48,2.05,2.47v3.47h-1.06V46.47c0-.93-.34-1.71-1.34-1.71a1.5,1.5,0,0,0-1.42,1.08,1.75,1.75,0,0,0-.07.49v3.49h-1.05Z"/><path d="M351.66,33.55a3.72,3.72,0,0,0,1.88.53c1.06,0,1.69-.57,1.69-1.38s-.44-1.19-1.53-1.61c-1.32-.47-2.13-1.15-2.13-2.29a2.33,2.33,0,0,1,2.61-2.2A3.72,3.72,0,0,1,356,27l-.29.85a3.24,3.24,0,0,0-1.53-.38c-1.11,0-1.53.66-1.53,1.21,0,.76.5,1.13,1.61,1.56,1.37.53,2.06,1.19,2.06,2.37s-.92,2.33-2.83,2.33a4.13,4.13,0,0,1-2.06-.52Z"/><path d="M358.28,32.11a1.85,1.85,0,0,0,2,2,3.75,3.75,0,0,0,1.6-.3l.18.76a4.63,4.63,0,0,1-1.93.36A2.69,2.69,0,0,1,357.27,32c0-1.75,1-3.13,2.72-3.13a2.46,2.46,0,0,1,2.4,2.74,2.81,2.81,0,0,1,0,.49Zm3.09-.76a1.5,1.5,0,0,0-1.46-1.71,1.74,1.74,0,0,0-1.62,1.71Z"/><path d="M368.7,29c0,.42-.05.88-.05,1.59V34a3.35,3.35,0,0,1-.82,2.65,3.09,3.09,0,0,1-2.12.7,3.78,3.78,0,0,1-1.93-.48l.27-.81a3.25,3.25,0,0,0,1.7.46c1.08,0,1.87-.56,1.87-2v-.65h0a2.09,2.09,0,0,1-1.85,1A2.6,2.6,0,0,1,363.28,32a2.79,2.79,0,0,1,2.61-3.09,2,2,0,0,1,1.82,1h0l0-.87Zm-1.09,2.29a1.44,1.44,0,0,0-.06-.48,1.52,1.52,0,0,0-1.48-1.12c-1,0-1.72.85-1.72,2.2,0,1.14.57,2.08,1.71,2.08a1.55,1.55,0,0,0,1.47-1.08,1.81,1.81,0,0,0,.08-.56Z"/><path d="M375.27,33.24c0,.6,0,1.12,0,1.58h-.93l-.06-1h0A2.16,2.16,0,0,1,372.37,35c-.91,0-2-.5-2-2.54V29h1.06v3.21c0,1.1.33,1.85,1.29,1.85a1.53,1.53,0,0,0,1.39-1,1.57,1.57,0,0,0,.1-.54V29h1.06Z"/><path d="M377,30.59c0-.6,0-1.09,0-1.57h.94l.06,1h0a2.13,2.13,0,0,1,1.92-1.1c.8,0,2,.48,2,2.47v3.47h-1V31.47c0-.93-.35-1.71-1.35-1.71a1.5,1.5,0,0,0-1.41,1.08,1.45,1.45,0,0,0-.07.49v3.49H377Z"/><path d="M388.72,26.31v7c0,.52,0,1.1,0,1.5h-.94l-.05-1h0a2.16,2.16,0,0,1-2,1.14c-1.41,0-2.49-1.18-2.49-3,0-1.93,1.19-3.12,2.61-3.12a2,2,0,0,1,1.75.89h0V26.31Zm-1.06,5.07a1.77,1.77,0,0,0-.05-.45,1.54,1.54,0,0,0-1.52-1.22c-1.09,0-1.74,1-1.74,2.24s.58,2.15,1.72,2.15a1.59,1.59,0,0,0,1.54-1.26,1.64,1.64,0,0,0,.05-.45Z"/><path d="M393.69,34.82l-.09-.73h0a2.19,2.19,0,0,1-1.78.86A1.65,1.65,0,0,1,390,33.29c0-1.41,1.24-2.18,3.49-2.16V31a1.21,1.21,0,0,0-1.32-1.35,2.9,2.9,0,0,0-1.51.43l-.24-.69a3.6,3.6,0,0,1,1.9-.52c1.78,0,2.21,1.21,2.21,2.38v2.17a7.44,7.44,0,0,0,.1,1.39Zm-.16-3c-1.15,0-2.46.18-2.46,1.31a.93.93,0,0,0,1,1,1.45,1.45,0,0,0,1.4-1,1,1,0,0,0,.06-.33Z"/><path d="M359.76,48.74a2.79,2.79,0,0,0,1.39.42c.77,0,1.13-.38,1.13-.86s-.3-.78-1.08-1.07c-1.05-.37-1.54-.95-1.54-1.64a1.8,1.8,0,0,1,2-1.71,2.9,2.9,0,0,1,1.42.36l-.26.77a2.32,2.32,0,0,0-1.19-.33c-.62,0-1,.36-1,.79s.35.69,1.1,1c1,.38,1.53.89,1.53,1.75,0,1-.8,1.74-2.17,1.74a3.34,3.34,0,0,1-1.64-.4Z"/><path d="M365.24,47.11a1.86,1.86,0,0,0,2,2,3.8,3.8,0,0,0,1.61-.3l.18.76a4.67,4.67,0,0,1-1.93.36A2.7,2.7,0,0,1,364.23,47c0-1.75,1-3.13,2.73-3.13a2.47,2.47,0,0,1,2.4,2.74,4.35,4.35,0,0,1,0,.49Zm3.1-.76a1.5,1.5,0,0,0-1.47-1.71,1.76,1.76,0,0,0-1.62,1.71Z"/><path d="M370.52,48.74a2.82,2.82,0,0,0,1.39.42c.77,0,1.13-.38,1.13-.86s-.3-.78-1.08-1.07c-1-.37-1.53-.95-1.53-1.64a1.79,1.79,0,0,1,2-1.71,2.94,2.94,0,0,1,1.43.36l-.27.77a2.32,2.32,0,0,0-1.19-.33c-.62,0-1,.36-1,.79s.35.69,1.11,1c1,.38,1.52.89,1.52,1.75,0,1-.79,1.74-2.17,1.74a3.3,3.3,0,0,1-1.63-.4Z"/><path d="M376.59,42.38a.65.65,0,1,1-1.3,0,.64.64,0,0,1,.66-.66A.62.62,0,0,1,376.59,42.38Zm-1.17,7.44V44h1.05v5.8Z"/><path d="M383.48,46.87A2.83,2.83,0,0,1,380.59,50a2.76,2.76,0,0,1-2.78-3,2.83,2.83,0,0,1,2.87-3.09A2.75,2.75,0,0,1,383.48,46.87Zm-4.61.06c0,1.27.73,2.23,1.77,2.23s1.76-.95,1.76-2.25c0-1-.49-2.23-1.74-2.23S378.87,45.83,378.87,46.93Zm3.35-5.42-1.46,1.71H380l1.06-1.71Z"/><path d="M384.81,45.59c0-.6,0-1.09,0-1.57h.93l.06,1h0a2.1,2.1,0,0,1,1.91-1.1c.81,0,2.05.48,2.05,2.47v3.47H388.7V46.47c0-.93-.35-1.71-1.34-1.71a1.5,1.5,0,0,0-1.42,1.08,1.45,1.45,0,0,0-.07.49v3.49h-1.06Z"/><path d="M52.18,75.61V68.42l-3.52,6.07h-.3l-3.52-6v7.16h-.6v-8.4h.52l3.76,6.49,3.75-6.49h.51v8.4Z"/><path d="M59.41,69.89A2.3,2.3,0,0,1,60,71.64v4h-.58V74.49a2.06,2.06,0,0,1-.87.86,2.87,2.87,0,0,1-1.38.31,2.57,2.57,0,0,1-1.65-.49,1.58,1.58,0,0,1-.61-1.3,1.62,1.62,0,0,1,.56-1.27,2.69,2.69,0,0,1,1.78-.48h2.15v-.51A1.76,1.76,0,0,0,59,70.28a1.91,1.91,0,0,0-1.38-.45,3.44,3.44,0,0,0-1.2.21,3,3,0,0,0-1,.58l-.3-.43a3.4,3.4,0,0,1,1.13-.66,4.25,4.25,0,0,1,1.38-.23A2.5,2.5,0,0,1,59.41,69.89Zm-.79,4.92a2.24,2.24,0,0,0,.82-1V72.59H57.3a2.18,2.18,0,0,0-1.34.33,1.15,1.15,0,0,0-.41.93,1.14,1.14,0,0,0,.46,1,2,2,0,0,0,1.28.36A2.38,2.38,0,0,0,58.62,74.81Z"/><path d="M65.62,75.21a1.34,1.34,0,0,1-.57.33,2.18,2.18,0,0,1-.72.12,1.7,1.7,0,0,1-1.26-.45A1.74,1.74,0,0,1,62.63,74V69.86H61.48v-.51h1.15V68h.6v1.37h2v.51h-2v4a1.35,1.35,0,0,0,.29.93,1.11,1.11,0,0,0,.87.32,1.37,1.37,0,0,0,1-.35Z"/><path d="M72.36,72.62H67a2.57,2.57,0,0,0,.38,1.3,2.37,2.37,0,0,0,.94.89,2.91,2.91,0,0,0,1.34.31,3,3,0,0,0,1.13-.22,2.19,2.19,0,0,0,.87-.66l.35.4a2.59,2.59,0,0,1-1,.75,3.31,3.31,0,0,1-1.34.27A3.35,3.35,0,0,1,68,75.25a3,3,0,0,1-1.15-1.13,3.2,3.2,0,0,1-.41-1.64,3.4,3.4,0,0,1,.39-1.64,2.84,2.84,0,0,1,1.07-1.13,2.89,2.89,0,0,1,1.54-.41,3,3,0,0,1,1.53.4A2.86,2.86,0,0,1,72,70.82a3.39,3.39,0,0,1,.39,1.63Zm-4.16-2.5a2.26,2.26,0,0,0-.85.83,2.67,2.67,0,0,0-.36,1.2h4.8a2.71,2.71,0,0,0-.36-1.2,2.37,2.37,0,0,0-2-1.12A2.36,2.36,0,0,0,68.2,70.12Z"/><path d="M83.86,70a2.69,2.69,0,0,1,.67,2v3.66h-.6V72a2.24,2.24,0,0,0-.52-1.61A1.85,1.85,0,0,0,82,69.84a2.18,2.18,0,0,0-1.67.66,2.5,2.5,0,0,0-.62,1.77v3.34h-.6V72a2.24,2.24,0,0,0-.52-1.61,1.85,1.85,0,0,0-1.43-.55,2.18,2.18,0,0,0-1.68.66,2.5,2.5,0,0,0-.62,1.77v3.34h-.6V69.35h.58v1.34a2.38,2.38,0,0,1,.93-1,2.86,2.86,0,0,1,1.47-.36,2.62,2.62,0,0,1,1.44.38,2.09,2.09,0,0,1,.85,1.13,2.48,2.48,0,0,1,1-1.1A2.83,2.83,0,0,1,82,69.3,2.44,2.44,0,0,1,83.86,70Z"/><path d="M90.9,69.89a2.29,2.29,0,0,1,.62,1.75v4H91V74.49a2,2,0,0,1-.88.86,2.81,2.81,0,0,1-1.38.31A2.61,2.61,0,0,1,87,75.17a1.71,1.71,0,0,1,0-2.57,2.69,2.69,0,0,1,1.78-.48h2.14v-.51a1.76,1.76,0,0,0-.47-1.33,2,2,0,0,0-1.39-.45,3.43,3.43,0,0,0-1.19.21,3.21,3.21,0,0,0-1,.58l-.3-.43a3.51,3.51,0,0,1,1.13-.66,4.25,4.25,0,0,1,1.38-.23A2.52,2.52,0,0,1,90.9,69.89Zm-.8,4.92a2.13,2.13,0,0,0,.82-1V72.59H88.79a2.16,2.16,0,0,0-1.34.33,1.12,1.12,0,0,0-.41.93,1.15,1.15,0,0,0,.45,1,2.06,2.06,0,0,0,1.29.36A2.33,2.33,0,0,0,90.1,74.81Zm0-7.9h.87l-1.89,1.42H88.4Z"/><path d="M97.1,75.21a1.37,1.37,0,0,1-.56.33,2.18,2.18,0,0,1-.72.12,1.7,1.7,0,0,1-1.26-.45A1.74,1.74,0,0,1,94.12,74V69.86H93v-.51h1.15V68h.6v1.37h2v.51h-2v4a1.3,1.3,0,0,0,.29.93,1.11,1.11,0,0,0,.87.32,1.35,1.35,0,0,0,1-.35Z"/><path d="M98.73,67.68a.43.43,0,0,1-.15-.34.49.49,0,0,1,.15-.35.48.48,0,0,1,.34-.14.48.48,0,0,1,.35.14.42.42,0,0,1,.14.34.46.46,0,0,1-.14.35.48.48,0,0,1-.35.14A.44.44,0,0,1,98.73,67.68Zm0,1.67h.6v6.26h-.6Z"/><path d="M102.76,75.25a2.92,2.92,0,0,1-1.13-1.13,3.51,3.51,0,0,1,0-3.29,2.86,2.86,0,0,1,1.13-1.13,3.46,3.46,0,0,1,3-.11,2.45,2.45,0,0,1,1,.86l-.44.32a2.15,2.15,0,0,0-.83-.7,2.67,2.67,0,0,0-1.1-.23,2.64,2.64,0,0,0-1.32.33,2.39,2.39,0,0,0-.91.93,3.05,3.05,0,0,0,0,2.76,2.39,2.39,0,0,0,.91.93,2.64,2.64,0,0,0,1.32.33,2.53,2.53,0,0,0,1.1-.24,2.07,2.07,0,0,0,.83-.7l.44.33a2.43,2.43,0,0,1-1,.85,3.09,3.09,0,0,1-1.37.3A3.26,3.26,0,0,1,102.76,75.25Z"/><path d="M112.46,69.89a2.3,2.3,0,0,1,.63,1.75v4h-.58V74.49a2.06,2.06,0,0,1-.87.86,2.87,2.87,0,0,1-1.38.31,2.57,2.57,0,0,1-1.65-.49,1.58,1.58,0,0,1-.61-1.3,1.62,1.62,0,0,1,.56-1.27,2.69,2.69,0,0,1,1.78-.48h2.15v-.51a1.8,1.8,0,0,0-.47-1.33,2,2,0,0,0-1.39-.45,3.35,3.35,0,0,0-1.19.21,3,3,0,0,0-1,.58l-.3-.43a3.4,3.4,0,0,1,1.13-.66,4.25,4.25,0,0,1,1.38-.23A2.5,2.5,0,0,1,112.46,69.89Zm-.79,4.92a2.24,2.24,0,0,0,.82-1V72.59h-2.14a2.13,2.13,0,0,0-1.33.33,1.24,1.24,0,0,0,0,1.89,2,2,0,0,0,1.28.36A2.38,2.38,0,0,0,111.67,74.81Z"/><path d="M115.71,75.43a2.77,2.77,0,0,1-1.07-.58l.27-.48a3.1,3.1,0,0,0,1,.54,3.65,3.65,0,0,0,1.27.22,2.48,2.48,0,0,0,1.4-.31A1,1,0,0,0,119,74a.79.79,0,0,0-.25-.62,1.6,1.6,0,0,0-.6-.34c-.24-.07-.58-.14-1-.22a8.85,8.85,0,0,1-1.2-.29,1.93,1.93,0,0,1-.78-.51,1.33,1.33,0,0,1-.32-1,1.51,1.51,0,0,1,.61-1.23,2.83,2.83,0,0,1,1.76-.48,4,4,0,0,1,1.19.17,3.06,3.06,0,0,1,1,.44l-.28.48a3.05,3.05,0,0,0-.87-.42,3.47,3.47,0,0,0-1-.14,2.22,2.22,0,0,0-1.32.32,1,1,0,0,0-.45.85.87.87,0,0,0,.26.66,1.58,1.58,0,0,0,.61.34,10.49,10.49,0,0,0,1,.25,9,9,0,0,1,1.18.28,1.79,1.79,0,0,1,.77.49,1.33,1.33,0,0,1,.31.92,1.47,1.47,0,0,1-.65,1.25,3.08,3.08,0,0,1-1.82.47A4.53,4.53,0,0,1,115.71,75.43Z"/><path d="M285.64,75.06v.55h-5.77v-.43l3.55-3.53a4.64,4.64,0,0,0,.94-1.19,2.27,2.27,0,0,0,.25-1,1.53,1.53,0,0,0-.55-1.26,2.41,2.41,0,0,0-1.57-.46,3.71,3.71,0,0,0-1.39.24,2.69,2.69,0,0,0-1,.74l-.43-.39a3.16,3.16,0,0,1,1.22-.85,4.4,4.4,0,0,1,1.67-.3,3,3,0,0,1,2,.6,2,2,0,0,1,.73,1.62,2.84,2.84,0,0,1-.28,1.24A5.86,5.86,0,0,1,283.87,72l-3.1,3.09Z"/><path d="M291.51,71.37a2.17,2.17,0,0,1,.83,1.82,2.43,2.43,0,0,1-.33,1.27,2.27,2.27,0,0,1-1,.89,3.74,3.74,0,0,1-1.62.32,4.6,4.6,0,0,1-1.71-.31,3.09,3.09,0,0,1-1.24-.82l.31-.47a2.75,2.75,0,0,0,1.1.75,4,4,0,0,0,1.53.29,2.61,2.61,0,0,0,1.73-.52,1.72,1.72,0,0,0,.61-1.38,1.66,1.66,0,0,0-.69-1.44,4.14,4.14,0,0,0-2.33-.49H287l.44-4.07h4.46v.55H288l-.32,3h1.2A4.35,4.35,0,0,1,291.51,71.37Z"/><path d="M377.82,75.06v.55h-5.77v-.43l3.55-3.53a4.88,4.88,0,0,0,.94-1.19,2.4,2.4,0,0,0,.25-1,1.56,1.56,0,0,0-.55-1.26,2.42,2.42,0,0,0-1.58-.46,3.62,3.62,0,0,0-1.38.24,2.69,2.69,0,0,0-1,.74l-.43-.39a3.08,3.08,0,0,1,1.22-.85,4.4,4.4,0,0,1,1.67-.3,3,3,0,0,1,2,.6,2,2,0,0,1,.73,1.62,2.85,2.85,0,0,1-.29,1.24A5.36,5.36,0,0,1,376,72L373,75.06Z"/><path d="M383.69,71.37a2.16,2.16,0,0,1,.82,1.82,2.43,2.43,0,0,1-.33,1.27,2.27,2.27,0,0,1-1,.89,3.74,3.74,0,0,1-1.62.32,4.67,4.67,0,0,1-1.71-.31,3.16,3.16,0,0,1-1.24-.82l.31-.47a2.82,2.82,0,0,0,1.1.75,4,4,0,0,0,1.53.29,2.66,2.66,0,0,0,1.74-.52,1.72,1.72,0,0,0,.6-1.38,1.66,1.66,0,0,0-.69-1.44,4.1,4.1,0,0,0-2.32-.49h-1.7l.44-4.07h4.45v.55h-3.93l-.33,3H381A4.39,4.39,0,0,1,383.69,71.37Z"/><path d="M44.23,98.67h.62v7.85h4.83v.55H44.23Z"/><path d="M56.26,104.08H50.87a2.67,2.67,0,0,0,.37,1.3,2.34,2.34,0,0,0,.94.88,3,3,0,0,0,2.48.09,2.22,2.22,0,0,0,.87-.65l.34.4a2.66,2.66,0,0,1-1,.75,3.31,3.31,0,0,1-1.34.27,3.41,3.41,0,0,1-1.67-.41,2.88,2.88,0,0,1-1.14-1.13,3.2,3.2,0,0,1-.42-1.64,3.4,3.4,0,0,1,.39-1.64,3,3,0,0,1,5.21,0,3.36,3.36,0,0,1,.39,1.63Zm-4.17-2.5a2.16,2.16,0,0,0-.84.83,2.65,2.65,0,0,0-.37,1.2h4.8a2.42,2.42,0,0,0-.36-1.2,2.33,2.33,0,0,0-.85-.83,2.36,2.36,0,0,0-1.19-.3A2.39,2.39,0,0,0,52.09,101.58Z"/><path d="M59,106.71a3,3,0,0,1-1.13-1.14,3.48,3.48,0,0,1,0-3.28A2.92,2.92,0,0,1,59,101.16a3.26,3.26,0,0,1,1.63-.4,3.13,3.13,0,0,1,1.38.29,2.52,2.52,0,0,1,1,.86l-.45.32a2.15,2.15,0,0,0-.83-.7,2.49,2.49,0,0,0-1.1-.23,2.63,2.63,0,0,0-1.31.33,2.33,2.33,0,0,0-.91.93,3.05,3.05,0,0,0,0,2.76,2.33,2.33,0,0,0,.91.93,2.63,2.63,0,0,0,1.31.33,2.5,2.5,0,0,0,1.1-.24,2.07,2.07,0,0,0,.83-.7L63,106a2.44,2.44,0,0,1-1,.86,3.14,3.14,0,0,1-1.38.3A3.26,3.26,0,0,1,59,106.71Z"/><path d="M68,106.67a1.34,1.34,0,0,1-.57.33,2.16,2.16,0,0,1-.71.12,1.67,1.67,0,0,1-1.26-.45,1.7,1.7,0,0,1-.45-1.26v-4.09H63.83v-.52H65V99.44h.6v1.36h2v.52h-2v4a1.3,1.3,0,0,0,.3.93,1.12,1.12,0,0,0,.87.32,1.41,1.41,0,0,0,1-.35Z"/><path d="M75.12,100.8v6.27h-.57v-1.35a2.33,2.33,0,0,1-.93,1,2.8,2.8,0,0,1-1.44.37,2.4,2.4,0,0,1-2.61-2.66V100.8h.6v3.62a2.18,2.18,0,0,0,.54,1.6,2,2,0,0,0,1.52.56,2.18,2.18,0,0,0,1.67-.66,2.52,2.52,0,0,0,.62-1.78V100.8Z"/><path d="M79.14,101.12a2.88,2.88,0,0,1,1.49-.36v.58h-.15a2.09,2.09,0,0,0-1.63.66,2.61,2.61,0,0,0-.58,1.81v3.27h-.6V100.8h.57v1.37A2.2,2.2,0,0,1,79.14,101.12Z"/><path d="M86.19,101.35a2.33,2.33,0,0,1,.62,1.75v4h-.58V106a2.06,2.06,0,0,1-.87.86,3,3,0,0,1-1.38.31,2.52,2.52,0,0,1-1.65-.5,1.56,1.56,0,0,1-.61-1.29,1.62,1.62,0,0,1,.56-1.27,2.71,2.71,0,0,1,1.78-.48h2.15v-.51a1.78,1.78,0,0,0-.47-1.33,2,2,0,0,0-1.39-.46,3.4,3.4,0,0,0-1.19.22,2.82,2.82,0,0,0-1,.58l-.3-.44A3.38,3.38,0,0,1,83,101a4,4,0,0,1,1.38-.23A2.5,2.5,0,0,1,86.19,101.35Zm-.8,4.91a2.22,2.22,0,0,0,.82-1V104H84.07a2.12,2.12,0,0,0-1.33.34,1.11,1.11,0,0,0-.42.92,1.15,1.15,0,0,0,.46,1,2,2,0,0,0,1.28.35A2.38,2.38,0,0,0,85.39,106.26Z"/><path d="M93.88,106.58a4.09,4.09,0,0,1-1.56-1.53,4.47,4.47,0,0,1,0-4.37,4.14,4.14,0,0,1,1.56-1.52,4.5,4.5,0,0,1,2.23-.55,4.78,4.78,0,0,1,1.68.29,3.58,3.58,0,0,1,1.31.87l-.39.4a3.49,3.49,0,0,0-2.58-1,3.91,3.91,0,0,0-1.92.48A3.52,3.52,0,0,0,92.86,101a3.65,3.65,0,0,0-.49,1.89,3.7,3.7,0,0,0,.49,1.89,3.56,3.56,0,0,0,1.35,1.32,3.91,3.91,0,0,0,1.92.48,3.52,3.52,0,0,0,2.58-1l.39.39a3.44,3.44,0,0,1-1.32.88,4.55,4.55,0,0,1-1.67.3A4.6,4.6,0,0,1,93.88,106.58Z"/><path d="M102.43,101.12a2.91,2.91,0,0,1,1.49-.36v.58h-.14a2.06,2.06,0,0,0-1.63.66,2.56,2.56,0,0,0-.59,1.81v3.27H101V100.8h.57v1.37A2.26,2.26,0,0,1,102.43,101.12Z"/><path d="M106.86,98.37h.86l-1.88,1.41h-.65Zm-1.28,2.43h.6v6.27h-.6Z"/><path d="M111.82,106.67a1.47,1.47,0,0,1-.57.33,2.18,2.18,0,0,1-.72.12,1.7,1.7,0,0,1-1.26-.45,1.74,1.74,0,0,1-.44-1.26v-4.09h-1.15v-.52h1.15V99.44h.6v1.36h2v.52h-2v4a1.35,1.35,0,0,0,.29.93,1.15,1.15,0,0,0,.87.32,1.39,1.39,0,0,0,1-.35Z"/><path d="M113.44,99.14a.43.43,0,0,1-.15-.34.47.47,0,0,1,.15-.35.48.48,0,0,1,.34-.14.45.45,0,0,1,.35.14.43.43,0,0,1,.15.34.5.5,0,0,1-.5.49A.48.48,0,0,1,113.44,99.14Zm0,1.66h.6v6.27h-.6Z"/><path d="M117.47,106.71a2.88,2.88,0,0,1-1.13-1.14,3.48,3.48,0,0,1,0-3.28,2.86,2.86,0,0,1,1.13-1.13,3.26,3.26,0,0,1,1.63-.4,3.09,3.09,0,0,1,1.37.29,2.48,2.48,0,0,1,1,.86l-.45.32a2.15,2.15,0,0,0-.83-.7,2.49,2.49,0,0,0-1.1-.23,2.58,2.58,0,0,0-1.31.33,2.35,2.35,0,0,0-.92.93,3.05,3.05,0,0,0,0,2.76,2.35,2.35,0,0,0,.92.93,2.58,2.58,0,0,0,1.31.33,2.5,2.5,0,0,0,1.1-.24,2.07,2.07,0,0,0,.83-.7l.45.32a2.41,2.41,0,0,1-1,.86,3.09,3.09,0,0,1-1.37.3A3.26,3.26,0,0,1,117.47,106.71Z"/><path d="M127.18,101.35a2.33,2.33,0,0,1,.62,1.75v4h-.58V106a2.06,2.06,0,0,1-.87.86,3,3,0,0,1-1.38.31,2.52,2.52,0,0,1-1.65-.5,1.56,1.56,0,0,1-.61-1.29,1.62,1.62,0,0,1,.56-1.27,2.71,2.71,0,0,1,1.78-.48h2.15v-.51a1.78,1.78,0,0,0-.47-1.33,2,2,0,0,0-1.39-.46,3.4,3.4,0,0,0-1.19.22,2.91,2.91,0,0,0-1,.58l-.3-.44A3.38,3.38,0,0,1,124,101a4,4,0,0,1,1.38-.23A2.5,2.5,0,0,1,127.18,101.35Zm-.8,4.91a2.16,2.16,0,0,0,.82-1V104h-2.14a2.12,2.12,0,0,0-1.33.34,1.11,1.11,0,0,0-.42.92,1.15,1.15,0,0,0,.46,1,2,2,0,0,0,1.28.35A2.38,2.38,0,0,0,126.38,106.26Z"/><path d="M287.88,104.74h-1.76v2.33h-.6v-2.33h-4.79v-.44l4.56-5.63H286l-4.47,5.53h4v-2h.59v2h1.76Z"/><path d="M290.54,98.67v8.4h-.61V99.22h-2.05v-.55Z"/><path d="M376.57,106.61a3.37,3.37,0,0,1-1.16-1.49,6.26,6.26,0,0,1,0-4.51,3.34,3.34,0,0,1,1.16-1.48,3.07,3.07,0,0,1,3.42,0,3.34,3.34,0,0,1,1.16,1.48,6.26,6.26,0,0,1,0,4.51,3.37,3.37,0,0,1-1.16,1.49,3.07,3.07,0,0,1-3.42,0Zm3.11-.48a2.86,2.86,0,0,0,.94-1.28,5.32,5.32,0,0,0,.34-2,5.41,5.41,0,0,0-.34-2,2.83,2.83,0,0,0-.94-1.27,2.45,2.45,0,0,0-2.8,0,2.83,2.83,0,0,0-.94,1.27,5.41,5.41,0,0,0-.34,2,5.32,5.32,0,0,0,.34,2,2.86,2.86,0,0,0,.94,1.28,2.49,2.49,0,0,0,2.8,0Z"/><path d="M44.68,138.27a3.46,3.46,0,0,1-1.3-.82l.28-.46a3.13,3.13,0,0,0,1.19.76,4.23,4.23,0,0,0,1.58.3,3,3,0,0,0,1.81-.46,1.4,1.4,0,0,0,.61-1.19,1.24,1.24,0,0,0-.32-.9,2.2,2.2,0,0,0-.8-.51,11.58,11.58,0,0,0-1.3-.38,12.72,12.72,0,0,1-1.48-.44,2.36,2.36,0,0,1-1-.67,1.77,1.77,0,0,1-.39-1.2,2.09,2.09,0,0,1,.32-1.12,2.24,2.24,0,0,1,1-.81,4.09,4.09,0,0,1,1.67-.3,4.48,4.48,0,0,1,1.36.2,4.22,4.22,0,0,1,1.17.55l-.23.49a4,4,0,0,0-1.11-.52,4.14,4.14,0,0,0-1.19-.18,2.85,2.85,0,0,0-1.77.46,1.49,1.49,0,0,0-.6,1.22,1.25,1.25,0,0,0,.33.9,2.12,2.12,0,0,0,.8.51,13.21,13.21,0,0,0,1.31.39,12.47,12.47,0,0,1,1.47.44,2.41,2.41,0,0,1,.95.65,1.74,1.74,0,0,1,.39,1.19,2,2,0,0,1-.33,1.11,2.23,2.23,0,0,1-1,.81,4.14,4.14,0,0,1-1.68.3A5,5,0,0,1,44.68,138.27Z"/><path d="M52.2,138.17A3,3,0,0,1,51.07,137a3.54,3.54,0,0,1,0-3.27,3,3,0,0,1,1.13-1.14,3.33,3.33,0,0,1,3.2,0,2.86,2.86,0,0,1,1.12,1.14,3.47,3.47,0,0,1,0,3.27,2.92,2.92,0,0,1-1.12,1.14,3.4,3.4,0,0,1-3.2,0Zm2.89-.47a2.47,2.47,0,0,0,.9-.94A3,3,0,0,0,56,134a2.4,2.4,0,0,0-.9-.94,2.62,2.62,0,0,0-2.58,0,2.4,2.4,0,0,0-.9.94,3,3,0,0,0,0,2.73,2.47,2.47,0,0,0,.9.94,2.69,2.69,0,0,0,2.58,0Z"/><path d="M59.64,138.17A3,3,0,0,1,58.51,137a3.29,3.29,0,0,1-.4-1.64,3.36,3.36,0,0,1,.4-1.65,2.9,2.9,0,0,1,1.13-1.12,3.29,3.29,0,0,1,1.63-.41,3.11,3.11,0,0,1,1.38.3,2.44,2.44,0,0,1,1,.86l-.44.32a2.17,2.17,0,0,0-.84-.7,2.5,2.5,0,0,0-1.1-.24,2.63,2.63,0,0,0-1.31.33,2.33,2.33,0,0,0-.91.93,3.05,3.05,0,0,0,0,2.76,2.33,2.33,0,0,0,.91.93,2.63,2.63,0,0,0,1.31.33,2.49,2.49,0,0,0,1.1-.23,2.26,2.26,0,0,0,.84-.7l.44.32a2.52,2.52,0,0,1-1,.86,3.1,3.1,0,0,1-1.38.29A3.28,3.28,0,0,1,59.64,138.17Z"/><path d="M65.4,130.6a.48.48,0,0,1-.14-.34.5.5,0,0,1,.14-.35.46.46,0,0,1,.35-.14.49.49,0,0,1,.35.13.5.5,0,0,1,.14.35.48.48,0,0,1-.14.34.47.47,0,0,1-.35.15A.5.5,0,0,1,65.4,130.6Zm0,1.66h.6v6.27h-.6Z"/><path d="M72.48,132.81a2.28,2.28,0,0,1,.63,1.74v4h-.58v-1.12a2.09,2.09,0,0,1-.88.86,2.93,2.93,0,0,1-1.38.3,2.55,2.55,0,0,1-1.65-.49,1.7,1.7,0,0,1,0-2.56,2.68,2.68,0,0,1,1.78-.49h2.15v-.5A1.75,1.75,0,0,0,72,133.2a1.89,1.89,0,0,0-1.38-.46,3.23,3.23,0,0,0-1.2.22,2.85,2.85,0,0,0-1,.57l-.3-.43a3.18,3.18,0,0,1,1.12-.65,4,4,0,0,1,1.38-.24A2.47,2.47,0,0,1,72.48,132.81Zm-.8,4.91a2.22,2.22,0,0,0,.83-1V135.5H70.37a2.09,2.09,0,0,0-1.34.34,1.13,1.13,0,0,0-.41.92,1.17,1.17,0,0,0,.45,1,2.13,2.13,0,0,0,1.29.35A2.33,2.33,0,0,0,71.68,137.72Z"/><path d="M75.58,129.62h.6v8.91h-.6Z"/><path d="M84,135.54H78.61a2.57,2.57,0,0,0,.38,1.3,2.35,2.35,0,0,0,.94.88,2.79,2.79,0,0,0,1.34.31,2.85,2.85,0,0,0,1.13-.22,2.17,2.17,0,0,0,.87-.65l.35.39a2.72,2.72,0,0,1-1,.76,3.3,3.3,0,0,1-1.34.26,3.34,3.34,0,0,1-1.66-.4A3,3,0,0,1,78.44,137a3.21,3.21,0,0,1-.41-1.65,3.39,3.39,0,0,1,.39-1.63,2.8,2.8,0,0,1,1.07-1.14,3.08,3.08,0,0,1,3.07,0,2.79,2.79,0,0,1,1.06,1.12,3.36,3.36,0,0,1,.39,1.63ZM79.84,133a2.23,2.23,0,0,0-.85.82,2.72,2.72,0,0,0-.36,1.21h4.8a2.64,2.64,0,0,0-.36-1.2,2.36,2.36,0,0,0-.86-.83,2.33,2.33,0,0,0-1.18-.3A2.36,2.36,0,0,0,79.84,133Z"/><path d="M86,138.35a3.15,3.15,0,0,1-1.07-.58l.28-.48a2.9,2.9,0,0,0,1,.54,3.79,3.79,0,0,0,1.26.22,2.47,2.47,0,0,0,1.4-.32,1,1,0,0,0,.45-.86.79.79,0,0,0-.25-.62,1.37,1.37,0,0,0-.6-.34c-.24-.07-.57-.15-1-.23a8.15,8.15,0,0,1-1.2-.29,1.9,1.9,0,0,1-.78-.5,1.37,1.37,0,0,1-.32-1,1.47,1.47,0,0,1,.62-1.23,2.78,2.78,0,0,1,1.75-.49,4.39,4.39,0,0,1,1.19.17,2.85,2.85,0,0,1,1,.45l-.27.48a2.65,2.65,0,0,0-.88-.42,3.43,3.43,0,0,0-1-.15,2.22,2.22,0,0,0-1.32.33,1,1,0,0,0-.44.85.82.82,0,0,0,.25.65,1.57,1.57,0,0,0,.62.35,9.52,9.52,0,0,0,1,.25,7.82,7.82,0,0,1,1.19.28,1.83,1.83,0,0,1,.76.48,1.32,1.32,0,0,1,.31.93,1.49,1.49,0,0,1-.65,1.25,3.08,3.08,0,0,1-1.82.46A4.52,4.52,0,0,1,86,138.35Z"/><path d="M99.72,132.26l-3.21,7.12a2.76,2.76,0,0,1-.84,1.17,1.78,1.78,0,0,1-1.12.35,2.38,2.38,0,0,1-.81-.14,1.78,1.78,0,0,1-.64-.42l.3-.46a1.56,1.56,0,0,0,1.16.49,1.2,1.2,0,0,0,.78-.25,2.15,2.15,0,0,0,.6-.86l.34-.76-2.82-6.24h.63l2.51,5.61,2.51-5.61Z"/><path d="M105.63,138a4,4,0,0,1-1.56-1.52,4.47,4.47,0,0,1,0-4.37,4.07,4.07,0,0,1,1.56-1.52,4.47,4.47,0,0,1,2.23-.55,4.56,4.56,0,0,1,1.68.29,3.58,3.58,0,0,1,1.31.87l-.39.4a3.49,3.49,0,0,0-2.58-1,3.91,3.91,0,0,0-1.92.48,3.45,3.45,0,0,0-1.35,1.33,3.66,3.66,0,0,0-.5,1.89,3.71,3.71,0,0,0,.5,1.89,3.5,3.5,0,0,0,1.35,1.32,3.91,3.91,0,0,0,1.92.48,3.49,3.49,0,0,0,2.58-1l.39.4a3.56,3.56,0,0,1-1.32.88,4.55,4.55,0,0,1-1.67.3A4.48,4.48,0,0,1,105.63,138Z"/><path d="M112.66,130.6a.45.45,0,0,1-.15-.34.47.47,0,0,1,.15-.35.44.44,0,0,1,.34-.14.48.48,0,0,1,.35.13.47.47,0,0,1,.15.35.45.45,0,0,1-.15.34.45.45,0,0,1-.35.15A.48.48,0,0,1,112.66,130.6Zm0,1.66h.6v6.27h-.6Z"/><path d="M121.32,132.26v6.27h-.57v-1.35a2.38,2.38,0,0,1-.93,1,2.8,2.8,0,0,1-1.44.36,2.59,2.59,0,0,1-1.92-.68,2.66,2.66,0,0,1-.69-2v-3.66h.59v3.61a2.21,2.21,0,0,0,.54,1.61,2,2,0,0,0,1.53.55,2.18,2.18,0,0,0,1.67-.66,2.5,2.5,0,0,0,.62-1.77v-3.34Z"/><path d="M129.43,129.62v8.91h-.59v-1.48a2.65,2.65,0,0,1-1,1.13,3,3,0,0,1-1.52.39,3.13,3.13,0,0,1-1.59-.4,3,3,0,0,1-1.11-1.13,3.3,3.3,0,0,1-.4-1.65,3.36,3.36,0,0,1,.4-1.65,2.85,2.85,0,0,1,1.11-1.12,3.14,3.14,0,0,1,1.59-.41,2.9,2.9,0,0,1,1.5.4,2.72,2.72,0,0,1,1.05,1.1v-4.09Zm-1.83,8.08a2.47,2.47,0,0,0,.9-.94,3,3,0,0,0,0-2.73,2.4,2.4,0,0,0-.9-.94,2.62,2.62,0,0,0-2.58,0,2.4,2.4,0,0,0-.9.94,3,3,0,0,0,0,2.73,2.47,2.47,0,0,0,.9.94,2.69,2.69,0,0,0,2.58,0Z"/><path d="M135.86,132.81a2.28,2.28,0,0,1,.63,1.74v4h-.58v-1.12a2.12,2.12,0,0,1-.87.86,3,3,0,0,1-1.38.3,2.52,2.52,0,0,1-1.65-.49,1.57,1.57,0,0,1-.61-1.29,1.61,1.61,0,0,1,.56-1.27,2.68,2.68,0,0,1,1.78-.49h2.15v-.5a1.75,1.75,0,0,0-.48-1.33,1.87,1.87,0,0,0-1.38-.46,3.23,3.23,0,0,0-1.2.22,2.85,2.85,0,0,0-1,.57l-.3-.43a3.22,3.22,0,0,1,1.13-.65,4,4,0,0,1,1.38-.24A2.46,2.46,0,0,1,135.86,132.81Zm-.79,4.91a2.27,2.27,0,0,0,.82-1V135.5h-2.14a2.11,2.11,0,0,0-1.34.34,1.13,1.13,0,0,0-.41.92,1.15,1.15,0,0,0,.46,1,2.07,2.07,0,0,0,1.28.35A2.38,2.38,0,0,0,135.07,137.72Z"/><path d="M144.53,129.62v8.91h-.59v-1.48a2.78,2.78,0,0,1-1,1.13,3,3,0,0,1-1.53.39,3.12,3.12,0,0,1-1.58-.4,3,3,0,0,1-1.11-1.13,3.3,3.3,0,0,1-.4-1.65,3.36,3.36,0,0,1,.4-1.65,2.85,2.85,0,0,1,1.11-1.12,3.13,3.13,0,0,1,1.58-.41,3,3,0,0,1,1.51.4,2.85,2.85,0,0,1,1.05,1.1v-4.09Zm-1.83,8.08a2.47,2.47,0,0,0,.9-.94,3,3,0,0,0,0-2.73,2.4,2.4,0,0,0-.9-.94,2.62,2.62,0,0,0-2.58,0,2.4,2.4,0,0,0-.9.94,3,3,0,0,0,0,2.73,2.47,2.47,0,0,0,.9.94,2.69,2.69,0,0,0,2.58,0Z"/><path d="M151,132.81a2.27,2.27,0,0,1,.62,1.74v4H151v-1.12a2.09,2.09,0,0,1-.88.86,2.93,2.93,0,0,1-1.38.3,2.55,2.55,0,0,1-1.65-.49,1.71,1.71,0,0,1,0-2.56,2.73,2.73,0,0,1,1.79-.49H151v-.5a1.74,1.74,0,0,0-.47-1.33,1.91,1.91,0,0,0-1.39-.46,3.22,3.22,0,0,0-1.19.22,3,3,0,0,0-1,.57l-.3-.43a3.31,3.31,0,0,1,1.13-.65,4,4,0,0,1,1.38-.24A2.48,2.48,0,0,1,151,132.81Zm-.8,4.91a2.14,2.14,0,0,0,.82-1V135.5h-2.13a2.09,2.09,0,0,0-1.34.34,1.1,1.1,0,0,0-.41.92,1.17,1.17,0,0,0,.45,1,2.11,2.11,0,0,0,1.29.35A2.33,2.33,0,0,0,150.16,137.72Z"/><path d="M159,132.9a2.68,2.68,0,0,1,.68,2v3.66h-.6v-3.62a2.22,2.22,0,0,0-.53-1.6,2,2,0,0,0-1.5-.56,2.32,2.32,0,0,0-1.74.66,2.48,2.48,0,0,0-.63,1.78v3.34h-.6v-6.27h.57v1.36a2.36,2.36,0,0,1,1-1,3,3,0,0,1,1.52-.38A2.51,2.51,0,0,1,159,132.9Z"/><path d="M166,132.81a2.28,2.28,0,0,1,.63,1.74v4h-.58v-1.12a2.09,2.09,0,0,1-.88.86,2.93,2.93,0,0,1-1.38.3,2.55,2.55,0,0,1-1.65-.49,1.7,1.7,0,0,1,0-2.56,2.68,2.68,0,0,1,1.78-.49h2.15v-.5a1.75,1.75,0,0,0-.48-1.33,1.89,1.89,0,0,0-1.38-.46,3.23,3.23,0,0,0-1.2.22,2.85,2.85,0,0,0-1,.57l-.3-.43a3.18,3.18,0,0,1,1.12-.65,4,4,0,0,1,1.38-.24A2.47,2.47,0,0,1,166,132.81Zm-.8,4.91a2.22,2.22,0,0,0,.83-1V135.5h-2.14a2.09,2.09,0,0,0-1.34.34,1.13,1.13,0,0,0-.41.92,1.17,1.17,0,0,0,.45,1,2.13,2.13,0,0,0,1.29.35A2.33,2.33,0,0,0,165.23,137.72Z"/><path d="M169.27,138.35a3.25,3.25,0,0,1-1.07-.58l.28-.48a3.1,3.1,0,0,0,1,.54,3.85,3.85,0,0,0,1.27.22,2.44,2.44,0,0,0,1.39-.32,1,1,0,0,0,.45-.86.81.81,0,0,0-.24-.62,1.46,1.46,0,0,0-.61-.34c-.24-.07-.57-.15-1-.23a7.56,7.56,0,0,1-1.2-.29,1.78,1.78,0,0,1-.78-.5,1.33,1.33,0,0,1-.33-1,1.5,1.5,0,0,1,.62-1.23,2.81,2.81,0,0,1,1.76-.49,4.44,4.44,0,0,1,1.19.17,2.85,2.85,0,0,1,1,.45l-.28.48a2.65,2.65,0,0,0-.88-.42,3.37,3.37,0,0,0-1-.15,2.17,2.17,0,0,0-1.32.33,1,1,0,0,0-.45.85.86.86,0,0,0,.25.65,1.64,1.64,0,0,0,.62.35,10.49,10.49,0,0,0,1,.25,7.66,7.66,0,0,1,1.18.28,1.83,1.83,0,0,1,.76.48,1.32,1.32,0,0,1,.31.93,1.48,1.48,0,0,1-.64,1.25,3.12,3.12,0,0,1-1.83.46A4.61,4.61,0,0,1,169.27,138.35Z"/><path d="M285.64,138v.56h-5.77v-.44l3.55-3.52a4.83,4.83,0,0,0,.94-1.2,2.2,2.2,0,0,0,.25-1,1.53,1.53,0,0,0-.55-1.26,2.35,2.35,0,0,0-1.57-.46,3.71,3.71,0,0,0-1.39.24,2.66,2.66,0,0,0-1,.73l-.43-.38a3.16,3.16,0,0,1,1.22-.85,4.4,4.4,0,0,1,1.67-.3,3,3,0,0,1,2,.6,2,2,0,0,1,.73,1.62,2.77,2.77,0,0,1-.28,1.23,5.87,5.87,0,0,1-1.08,1.37l-3.1,3.08Z"/><path d="M291.51,134.28a2.18,2.18,0,0,1,.83,1.82,2.46,2.46,0,0,1-.33,1.28,2.25,2.25,0,0,1-1,.88,3.6,3.6,0,0,1-1.62.33,4.6,4.6,0,0,1-1.71-.32,3.08,3.08,0,0,1-1.24-.81l.31-.47a2.84,2.84,0,0,0,1.1.74,3.79,3.79,0,0,0,1.53.29,2.61,2.61,0,0,0,1.73-.51,1.75,1.75,0,0,0,.61-1.38,1.64,1.64,0,0,0-.69-1.44,4.13,4.13,0,0,0-2.33-.5H287l.44-4.06h4.46v.55H288l-.32,3h1.2A4.42,4.42,0,0,1,291.51,134.28Z"/><path d="M377.82,138v.56h-5.77v-.44l3.55-3.52a5.09,5.09,0,0,0,.94-1.2,2.33,2.33,0,0,0,.25-1,1.56,1.56,0,0,0-.55-1.26,2.36,2.36,0,0,0-1.58-.46,3.62,3.62,0,0,0-1.38.24,2.66,2.66,0,0,0-1,.73l-.43-.38a3.08,3.08,0,0,1,1.22-.85,4.4,4.4,0,0,1,1.67-.3,3,3,0,0,1,2,.6,2,2,0,0,1,.73,1.62,2.78,2.78,0,0,1-.29,1.23,5.38,5.38,0,0,1-1.08,1.37L373,138Z"/><path d="M383.69,134.28a2.18,2.18,0,0,1,.82,1.82,2.46,2.46,0,0,1-.33,1.28,2.25,2.25,0,0,1-1,.88,3.6,3.6,0,0,1-1.62.33,4.68,4.68,0,0,1-1.71-.32,3.15,3.15,0,0,1-1.24-.81l.31-.47a2.92,2.92,0,0,0,1.1.74,3.86,3.86,0,0,0,1.53.29,2.65,2.65,0,0,0,1.74-.51,1.75,1.75,0,0,0,.6-1.38,1.64,1.64,0,0,0-.69-1.44,4.09,4.09,0,0,0-2.32-.5h-1.7l.44-4.06h4.45v.55h-3.93l-.33,3H381A4.46,4.46,0,0,1,383.69,134.28Z"/><path d="M45.56,169.49A4.07,4.07,0,0,1,44,168a4.47,4.47,0,0,1,0-4.37,4,4,0,0,1,1.56-1.52,4.48,4.48,0,0,1,2.23-.56,4.64,4.64,0,0,1,1.68.3,3.54,3.54,0,0,1,1.3.87l-.38.39a3.52,3.52,0,0,0-2.58-1,3.91,3.91,0,0,0-1.92.48,3.48,3.48,0,0,0-1.36,1.33,3.74,3.74,0,0,0-.49,1.88,3.81,3.81,0,0,0,.49,1.9A3.52,3.52,0,0,0,45.89,169a3.91,3.91,0,0,0,1.92.48,3.49,3.49,0,0,0,2.58-1l.38.4a3.39,3.39,0,0,1-1.31.87,4.59,4.59,0,0,1-1.67.3A4.47,4.47,0,0,1,45.56,169.49Z"/><path d="M52.59,162.06a.45.45,0,0,1-.15-.34.47.47,0,0,1,.15-.35.44.44,0,0,1,.34-.14.48.48,0,0,1,.35.13.45.45,0,0,1,.15.34.51.51,0,0,1-.5.5A.48.48,0,0,1,52.59,162.06Zm0,1.66h.6V170h-.6Z"/><path d="M61.06,167H55.67a2.7,2.7,0,0,0,.37,1.3,2.41,2.41,0,0,0,.94.88,3.06,3.06,0,0,0,2.48.09,2.43,2.43,0,0,0,.87-.65l.34.39a2.68,2.68,0,0,1-1,.76,3.52,3.52,0,0,1-1.34.26,3.31,3.31,0,0,1-1.67-.41,2.86,2.86,0,0,1-1.14-1.12,3.21,3.21,0,0,1-.42-1.65,3.36,3.36,0,0,1,.39-1.63,2.87,2.87,0,0,1,1.07-1.14,3.11,3.11,0,0,1,3.07,0,2.91,2.91,0,0,1,1.07,1.13,3.36,3.36,0,0,1,.39,1.63Zm-4.17-2.51a2.3,2.3,0,0,0-.84.83,2.6,2.6,0,0,0-.37,1.21h4.8a2.42,2.42,0,0,0-.36-1.2,2.33,2.33,0,0,0-.85-.83,2.36,2.36,0,0,0-1.19-.3A2.49,2.49,0,0,0,56.89,164.49Z"/><path d="M67.85,164.36a2.63,2.63,0,0,1,.68,2V170h-.6v-3.61a2.22,2.22,0,0,0-.53-1.6,2,2,0,0,0-1.49-.56,2.29,2.29,0,0,0-1.74.66,2.43,2.43,0,0,0-.64,1.78V170h-.6v-6.26h.58v1.36a2.35,2.35,0,0,1,1-1,3.08,3.08,0,0,1,1.52-.37A2.51,2.51,0,0,1,67.85,164.36Z"/><path d="M71.86,169.62a2.86,2.86,0,0,1-1.13-1.13,3.3,3.3,0,0,1-.41-1.64,3.36,3.36,0,0,1,.41-1.65,2.92,2.92,0,0,1,1.13-1.13,3.36,3.36,0,0,1,1.63-.4,3.09,3.09,0,0,1,1.37.3,2.43,2.43,0,0,1,1,.85l-.44.33a2.07,2.07,0,0,0-.83-.7,2.53,2.53,0,0,0-1.1-.24,2.64,2.64,0,0,0-1.32.33,2.39,2.39,0,0,0-.91.93,3.05,3.05,0,0,0,0,2.76,2.39,2.39,0,0,0,.91.93,2.64,2.64,0,0,0,1.32.33,2.67,2.67,0,0,0,1.1-.23,2.15,2.15,0,0,0,.83-.7l.44.32a2.45,2.45,0,0,1-1,.86,3.09,3.09,0,0,1-1.37.29A3.16,3.16,0,0,1,71.86,169.62Z"/><path d="M77.62,162.06a.45.45,0,0,1-.15-.34.47.47,0,0,1,.15-.35.44.44,0,0,1,.34-.14.48.48,0,0,1,.35.13.45.45,0,0,1,.15.34.51.51,0,0,1-.5.5A.48.48,0,0,1,77.62,162.06Zm0,1.66h.6V170h-.6Z"/><path d="M84.7,164.27a2.29,2.29,0,0,1,.62,1.74v4h-.58v-1.11a2.12,2.12,0,0,1-.87.86,3,3,0,0,1-1.38.3,2.52,2.52,0,0,1-1.65-.49,1.58,1.58,0,0,1-.61-1.3,1.6,1.6,0,0,1,.56-1.26,2.65,2.65,0,0,1,1.78-.49h2.15V166a1.77,1.77,0,0,0-.47-1.33,1.91,1.91,0,0,0-1.39-.46,3.18,3.18,0,0,0-1.19.22,2.89,2.89,0,0,0-1,.57l-.3-.43a3.22,3.22,0,0,1,1.13-.65,4,4,0,0,1,1.38-.24A2.5,2.5,0,0,1,84.7,164.27Zm-.8,4.91a2.2,2.2,0,0,0,.82-1V167H82.58a2.06,2.06,0,0,0-1.33.34,1.11,1.11,0,0,0-.42.92,1.15,1.15,0,0,0,.46,1,2.07,2.07,0,0,0,1.28.35A2.38,2.38,0,0,0,83.9,169.18Z"/><path d="M87.94,169.81a3.06,3.06,0,0,1-1.07-.58l.27-.48a3.1,3.1,0,0,0,1,.54,3.89,3.89,0,0,0,1.27.21,2.48,2.48,0,0,0,1.4-.31,1,1,0,0,0,.45-.86.81.81,0,0,0-.25-.63,1.46,1.46,0,0,0-.6-.33c-.24-.07-.58-.15-1-.23a7.56,7.56,0,0,1-1.2-.29,1.9,1.9,0,0,1-.78-.5,1.33,1.33,0,0,1-.32-1,1.49,1.49,0,0,1,.61-1.23,2.77,2.77,0,0,1,1.76-.49,4.39,4.39,0,0,1,1.19.17,3.06,3.06,0,0,1,1,.44l-.28.49a2.51,2.51,0,0,0-.87-.42,3.48,3.48,0,0,0-1-.15,2.29,2.29,0,0,0-1.32.32,1,1,0,0,0-.44.86A.84.84,0,0,0,88,166a1.57,1.57,0,0,0,.62.35,10,10,0,0,0,1,.24,8.84,8.84,0,0,1,1.18.29,1.86,1.86,0,0,1,.77.48,1.37,1.37,0,0,1,.31.93,1.46,1.46,0,0,1-.65,1.24,3,3,0,0,1-1.82.47A4.52,4.52,0,0,1,87.94,169.81Z"/><path d="M103.64,161.58V170h-.5l-5.72-7.29V170H96.8v-8.4h.52l5.71,7.3v-7.3Z"/><path d="M110.28,164.27a2.26,2.26,0,0,1,.62,1.74v4h-.57v-1.11a2.09,2.09,0,0,1-.88.86,2.93,2.93,0,0,1-1.38.3,2.55,2.55,0,0,1-1.65-.49,1.71,1.71,0,0,1,0-2.56,2.68,2.68,0,0,1,1.79-.49h2.14V166a1.73,1.73,0,0,0-.47-1.33,1.91,1.91,0,0,0-1.39-.46,3.22,3.22,0,0,0-1.19.22,3,3,0,0,0-1,.57l-.3-.43a3.31,3.31,0,0,1,1.13-.65,4,4,0,0,1,1.38-.24A2.48,2.48,0,0,1,110.28,164.27Zm-.8,4.91a2.14,2.14,0,0,0,.82-1V167h-2.13a2.09,2.09,0,0,0-1.34.34,1.1,1.1,0,0,0-.41.92,1.17,1.17,0,0,0,.45,1,2.11,2.11,0,0,0,1.29.35A2.33,2.33,0,0,0,109.48,169.18Z"/><path d="M116.48,169.59a1.59,1.59,0,0,1-.57.33,2.35,2.35,0,0,1-.71.11,1.55,1.55,0,0,1-1.7-1.7v-4.09h-1.16v-.52h1.16v-1.37h.6v1.37h2v.52h-2v4a1.3,1.3,0,0,0,.29.93,1.15,1.15,0,0,0,.87.32,1.39,1.39,0,0,0,1-.35Z"/><path d="M123.64,163.72V170h-.58v-1.34a2.42,2.42,0,0,1-.92,1,2.8,2.8,0,0,1-1.44.36,2.59,2.59,0,0,1-1.92-.68,2.62,2.62,0,0,1-.7-2v-3.66h.6v3.61a2.21,2.21,0,0,0,.54,1.61,2,2,0,0,0,1.52.55,2.18,2.18,0,0,0,1.68-.66,2.5,2.5,0,0,0,.62-1.77v-3.34Z"/><path d="M127.66,164a2.85,2.85,0,0,1,1.48-.37v.59H129a2.09,2.09,0,0,0-1.63.65,2.64,2.64,0,0,0-.59,1.82V170h-.6v-6.26h.58v1.37A2.11,2.11,0,0,1,127.66,164Z"/><path d="M134.7,164.27a2.26,2.26,0,0,1,.62,1.74v4h-.57v-1.11a2.09,2.09,0,0,1-.88.86,2.93,2.93,0,0,1-1.38.3,2.55,2.55,0,0,1-1.65-.49,1.71,1.71,0,0,1-.05-2.56,2.68,2.68,0,0,1,1.79-.49h2.14V166a1.73,1.73,0,0,0-.47-1.33,1.91,1.91,0,0,0-1.39-.46,3.22,3.22,0,0,0-1.19.22,3,3,0,0,0-1,.57l-.3-.43a3.31,3.31,0,0,1,1.13-.65,4,4,0,0,1,1.38-.24A2.48,2.48,0,0,1,134.7,164.27Zm-.8,4.91a2.14,2.14,0,0,0,.82-1V167h-2.13a2.09,2.09,0,0,0-1.34.34,1.1,1.1,0,0,0-.41.92,1.17,1.17,0,0,0,.45,1,2.11,2.11,0,0,0,1.29.35A2.33,2.33,0,0,0,133.9,169.18Z"/><path d="M137.8,161.08h.6V170h-.6Z"/><path d="M146.22,167h-5.39a2.7,2.7,0,0,0,.37,1.3,2.44,2.44,0,0,0,1,.88,2.78,2.78,0,0,0,1.33.31,2.86,2.86,0,0,0,1.14-.22,2.27,2.27,0,0,0,.87-.65l.35.39a2.8,2.8,0,0,1-1,.76,3.48,3.48,0,0,1-1.34.26,3.31,3.31,0,0,1-1.67-.41,2.92,2.92,0,0,1-1.14-1.12,3.21,3.21,0,0,1-.42-1.65,3.36,3.36,0,0,1,.39-1.63,2.83,2.83,0,0,1,1.08-1.14,2.94,2.94,0,0,1,1.53-.41,3,3,0,0,1,1.53.4,2.84,2.84,0,0,1,1.07,1.13,3.36,3.36,0,0,1,.39,1.63Zm-4.16-2.51a2.26,2.26,0,0,0-.85.83,2.86,2.86,0,0,0-.37,1.21h4.8a2.42,2.42,0,0,0-.36-1.2,2.33,2.33,0,0,0-.85-.83,2.36,2.36,0,0,0-1.19-.3A2.43,2.43,0,0,0,142.06,164.49Z"/><path d="M148.24,169.81a3.06,3.06,0,0,1-1.07-.58l.27-.48a3.1,3.1,0,0,0,1,.54,3.89,3.89,0,0,0,1.27.21,2.48,2.48,0,0,0,1.4-.31,1,1,0,0,0,.45-.86.81.81,0,0,0-.25-.63,1.46,1.46,0,0,0-.6-.33c-.24-.07-.58-.15-1-.23a7.56,7.56,0,0,1-1.2-.29,1.9,1.9,0,0,1-.78-.5,1.33,1.33,0,0,1-.32-1,1.49,1.49,0,0,1,.61-1.23,2.77,2.77,0,0,1,1.76-.49,4.39,4.39,0,0,1,1.19.17,3.06,3.06,0,0,1,1,.44l-.28.49a2.51,2.51,0,0,0-.87-.42,3.48,3.48,0,0,0-1-.15,2.29,2.29,0,0,0-1.32.32,1,1,0,0,0-.44.86.84.84,0,0,0,.25.65,1.57,1.57,0,0,0,.62.35,10,10,0,0,0,1,.24,8.84,8.84,0,0,1,1.18.29,1.86,1.86,0,0,1,.77.48,1.37,1.37,0,0,1,.31.93,1.46,1.46,0,0,1-.65,1.24,3,3,0,0,1-1.82.47A4.52,4.52,0,0,1,148.24,169.81Z"/><path d="M285.38,169.43V170h-5.77v-.43l3.55-3.53a4.88,4.88,0,0,0,.94-1.19,2.33,2.33,0,0,0,.25-1,1.59,1.59,0,0,0-.55-1.27,2.42,2.42,0,0,0-1.58-.45,3.62,3.62,0,0,0-1.38.24,2.66,2.66,0,0,0-1,.73l-.43-.38a3.1,3.1,0,0,1,1.22-.86,4.4,4.4,0,0,1,1.67-.3,3.09,3.09,0,0,1,2,.6,2,2,0,0,1,.73,1.62,2.79,2.79,0,0,1-.29,1.24,5.38,5.38,0,0,1-1.08,1.37l-3.09,3.08Z"/><path d="M291.56,162.64a4.89,4.89,0,0,1,.87,3.1,5.46,5.46,0,0,1-.46,2.36,3.24,3.24,0,0,1-1.3,1.45,3.82,3.82,0,0,1-2,.49,3.68,3.68,0,0,1-1.91-.43l.26-.49a3,3,0,0,0,1.65.38,2.9,2.9,0,0,0,2.29-.94,4,4,0,0,0,.83-2.73,6.41,6.41,0,0,0-.07-1,2.24,2.24,0,0,1-1,1.28,3.15,3.15,0,0,1-1.7.45,3.45,3.45,0,0,1-1.47-.3,2.42,2.42,0,0,1-1-.88,2.48,2.48,0,0,1-.34-1.31,2.43,2.43,0,0,1,.36-1.33,2.37,2.37,0,0,1,1-.89,3.24,3.24,0,0,1,1.44-.32A3,3,0,0,1,291.56,162.64Zm-1.2,3.12a1.89,1.89,0,0,0,.83-.72,1.81,1.81,0,0,0,0-2,2,2,0,0,0-.82-.73,2.85,2.85,0,0,0-1.29-.28,2.29,2.29,0,0,0-1.6.55,2,2,0,0,0,0,2.88,2.38,2.38,0,0,0,1.67.54A2.58,2.58,0,0,0,290.36,165.76Z"/><path d="M377.55,169.43V170h-5.77v-.43l3.55-3.53a5,5,0,0,0,.95-1.19,2.31,2.31,0,0,0,.24-1,1.58,1.58,0,0,0-.54-1.27,2.44,2.44,0,0,0-1.58-.45,3.71,3.71,0,0,0-1.39.24,2.63,2.63,0,0,0-1,.73l-.44-.38a3.18,3.18,0,0,1,1.22-.86,4.42,4.42,0,0,1,1.68-.3,3,3,0,0,1,2,.6,2,2,0,0,1,.74,1.62,2.79,2.79,0,0,1-.29,1.24,5.38,5.38,0,0,1-1.08,1.37l-3.1,3.08Z"/><path d="M383.74,162.64a4.89,4.89,0,0,1,.87,3.1,5.46,5.46,0,0,1-.46,2.36,3.24,3.24,0,0,1-1.3,1.45,3.82,3.82,0,0,1-2,.49,3.68,3.68,0,0,1-1.91-.43l.25-.49a3,3,0,0,0,1.66.38,2.86,2.86,0,0,0,2.28-.94,4,4,0,0,0,.84-2.73,7.88,7.88,0,0,0-.07-1,2.28,2.28,0,0,1-1,1.28,3.17,3.17,0,0,1-1.7.45,3.45,3.45,0,0,1-1.47-.3,2.3,2.3,0,0,1-1-.88,2.49,2.49,0,0,1-.35-1.31,2.43,2.43,0,0,1,.36-1.33,2.34,2.34,0,0,1,1-.89,3.18,3.18,0,0,1,1.44-.32A3,3,0,0,1,383.74,162.64Zm-1.2,3.12a2,2,0,0,0,.83-.72,1.87,1.87,0,0,0,.29-1,1.78,1.78,0,0,0-.28-1,2,2,0,0,0-.82-.73,2.87,2.87,0,0,0-1.3-.28,2.26,2.26,0,0,0-1.59.55,2,2,0,0,0,0,2.88,2.36,2.36,0,0,0,1.66.54A2.65,2.65,0,0,0,382.54,165.76Z"/><path d="M44.23,193h.62v8.4h-.62Z"/><path d="M52.5,195.81a2.67,2.67,0,0,1,.69,2v3.66h-.6v-3.61a2.22,2.22,0,0,0-.54-1.61,2,2,0,0,0-1.49-.55,2.29,2.29,0,0,0-1.74.66,2.43,2.43,0,0,0-.64,1.78v3.33h-.6v-6.26h.58v1.35a2.44,2.44,0,0,1,1-1,3.08,3.08,0,0,1,1.52-.37A2.52,2.52,0,0,1,52.5,195.81Z"/><path d="M61.31,195.18v5.59a3.07,3.07,0,0,1-.76,2.3,3.1,3.1,0,0,1-2.28.75,5.15,5.15,0,0,1-1.63-.26,3.11,3.11,0,0,1-1.23-.74l.32-.45a3.42,3.42,0,0,0,1.13.67,4.08,4.08,0,0,0,1.4.24,2.57,2.57,0,0,0,1.85-.59,2.51,2.51,0,0,0,.6-1.85v-1.05a2.64,2.64,0,0,1-1.07,1.05,3.13,3.13,0,0,1-1.53.38,3.23,3.23,0,0,1-1.59-.4,2.93,2.93,0,0,1-1.13-1.08,3.08,3.08,0,0,1-.4-1.57,3,3,0,0,1,.4-1.57,2.8,2.8,0,0,1,1.13-1.08,3.23,3.23,0,0,1,1.59-.39,3.17,3.17,0,0,1,1.56.39,2.51,2.51,0,0,1,1.06,1.08v-1.42Zm-1.84,5.18a2.25,2.25,0,0,0,.92-.89,2.56,2.56,0,0,0,.33-1.3,2.54,2.54,0,0,0-.33-1.3,2.23,2.23,0,0,0-.92-.88,2.86,2.86,0,0,0-2.63,0,2.27,2.27,0,0,0-.91.88,2.54,2.54,0,0,0-.33,1.3,2.56,2.56,0,0,0,.33,1.3,2.29,2.29,0,0,0,.91.89,2.86,2.86,0,0,0,2.63,0Z"/><path d="M63.85,192.54h.6v8.9h-.6Z"/><path d="M72.28,198.45H66.89a2.7,2.7,0,0,0,.37,1.31,2.41,2.41,0,0,0,.94.88,3.06,3.06,0,0,0,2.48.09,2.34,2.34,0,0,0,.87-.66l.34.4a2.68,2.68,0,0,1-1,.76,3.48,3.48,0,0,1-1.34.26,3.41,3.41,0,0,1-1.67-.41A2.82,2.82,0,0,1,66.72,200a3.15,3.15,0,0,1-.42-1.64,3.42,3.42,0,0,1,.39-1.64,2.87,2.87,0,0,1,1.08-1.13,2.92,2.92,0,0,1,1.53-.41,3,3,0,0,1,1.53.4,3,3,0,0,1,1.07,1.12,3.42,3.42,0,0,1,.39,1.64ZM68.11,196a2.3,2.3,0,0,0-.84.83A2.73,2.73,0,0,0,66.9,198h4.8a2.42,2.42,0,0,0-.36-1.2,2.33,2.33,0,0,0-.85-.83,2.36,2.36,0,0,0-1.19-.3A2.49,2.49,0,0,0,68.11,196Zm2.18-3.21h.86l-1.88,1.42h-.65Z"/><path d="M74.29,201.26a2.93,2.93,0,0,1-1.06-.57l.27-.48a3.55,3.55,0,0,0,1,.54,3.89,3.89,0,0,0,1.27.21,2.48,2.48,0,0,0,1.4-.31,1,1,0,0,0,.45-.86.83.83,0,0,0-.25-.63,1.5,1.5,0,0,0-.61-.33,8.32,8.32,0,0,0-1-.23,8.85,8.85,0,0,1-1.2-.29,1.78,1.78,0,0,1-.78-.5,1.37,1.37,0,0,1-.33-1,1.5,1.5,0,0,1,.62-1.23,2.75,2.75,0,0,1,1.76-.49,4.39,4.39,0,0,1,1.19.17,3.06,3.06,0,0,1,1,.44l-.28.48a3.05,3.05,0,0,0-.87-.42,3.85,3.85,0,0,0-1-.14,2.25,2.25,0,0,0-1.32.32,1,1,0,0,0-.45.85.87.87,0,0,0,.26.66,1.53,1.53,0,0,0,.61.35c.25.07.59.15,1,.24a11,11,0,0,1,1.18.28,1.89,1.89,0,0,1,.76.49,1.29,1.29,0,0,1,.32.92,1.46,1.46,0,0,1-.65,1.25,3.09,3.09,0,0,1-1.83.47A4.62,4.62,0,0,1,74.29,201.26Z"/><path d="M284.39,201a3.41,3.41,0,0,1-1.16-1.48,6.41,6.41,0,0,1,0-4.51,3.44,3.44,0,0,1,1.16-1.49,3.07,3.07,0,0,1,3.42,0A3.46,3.46,0,0,1,289,195a6.41,6.41,0,0,1,0,4.51,3.43,3.43,0,0,1-1.17,1.48,3.07,3.07,0,0,1-3.42,0Zm3.11-.48a2.76,2.76,0,0,0,.94-1.27,5.21,5.21,0,0,0,.34-2,5.16,5.16,0,0,0-.34-2,2.79,2.79,0,0,0-.94-1.28,2.48,2.48,0,0,0-2.79,0,2.88,2.88,0,0,0-.95,1.28,5.37,5.37,0,0,0-.33,2,5.42,5.42,0,0,0,.33,2,2.85,2.85,0,0,0,.95,1.27,2.43,2.43,0,0,0,2.79,0Z"/><path d="M377,197.2a2.17,2.17,0,0,1,.83,1.82,2.46,2.46,0,0,1-.33,1.28,2.31,2.31,0,0,1-1,.88,3.6,3.6,0,0,1-1.62.32,4.6,4.6,0,0,1-1.71-.31,3.09,3.09,0,0,1-1.24-.82l.31-.46a2.84,2.84,0,0,0,1.1.74,4,4,0,0,0,1.53.29,2.55,2.55,0,0,0,1.73-.52,1.72,1.72,0,0,0,.61-1.38,1.66,1.66,0,0,0-.69-1.44,4.14,4.14,0,0,0-2.33-.49h-1.7l.44-4.07h4.46v.56h-3.94l-.32,3h1.2A4.35,4.35,0,0,1,377,197.2Z"/><path d="M383.64,197.2a2.17,2.17,0,0,1,.83,1.82,2.46,2.46,0,0,1-.33,1.28,2.31,2.31,0,0,1-1,.88,3.6,3.6,0,0,1-1.62.32,4.6,4.6,0,0,1-1.71-.31,3.13,3.13,0,0,1-1.25-.82l.32-.46a2.87,2.87,0,0,0,1.09.74,4,4,0,0,0,1.53.29,2.58,2.58,0,0,0,1.74-.52,1.72,1.72,0,0,0,.6-1.38,1.66,1.66,0,0,0-.69-1.44,4.1,4.1,0,0,0-2.32-.49h-1.7l.44-4.07H384v.56H380.1l-.33,3H381A4.37,4.37,0,0,1,383.64,197.2Z"/><path d="M45.56,232.41A4.14,4.14,0,0,1,44,230.89a4.26,4.26,0,0,1-.57-2.19,4.2,4.2,0,0,1,.57-2.18A4.09,4.09,0,0,1,45.56,225a4.58,4.58,0,0,1,2.23-.55,4.86,4.86,0,0,1,1.68.29,3.54,3.54,0,0,1,1.3.87l-.38.4a3.53,3.53,0,0,0-2.58-1,3.91,3.91,0,0,0-1.92.48,3.62,3.62,0,0,0-1.36,1.33,3.89,3.89,0,0,0,0,3.78,3.55,3.55,0,0,0,1.36,1.33,3.91,3.91,0,0,0,1.92.48,3.53,3.53,0,0,0,2.58-1l.38.39a3.41,3.41,0,0,1-1.31.88,4.59,4.59,0,0,1-1.67.3A4.47,4.47,0,0,1,45.56,232.41Z"/><path d="M57.9,226.64v6.26h-.57v-1.34a2.3,2.3,0,0,1-.93,1A2.71,2.71,0,0,1,55,233a2.39,2.39,0,0,1-2.61-2.65v-3.66H53v3.61a2.22,2.22,0,0,0,.54,1.61,2,2,0,0,0,1.52.55,2.18,2.18,0,0,0,1.67-.66A2.46,2.46,0,0,0,57.3,230v-3.33Z"/><path d="M65.74,229.91H60.35a2.7,2.7,0,0,0,.37,1.31,2.41,2.41,0,0,0,.94.88,3.06,3.06,0,0,0,2.48.09,2.34,2.34,0,0,0,.87-.66l.34.4a2.68,2.68,0,0,1-1,.76A3.48,3.48,0,0,1,63,233a3.41,3.41,0,0,1-1.67-.41,2.88,2.88,0,0,1-1.14-1.13,3.18,3.18,0,0,1-.42-1.64,3.4,3.4,0,0,1,.39-1.64A2.87,2.87,0,0,1,61.23,227a3.09,3.09,0,0,1,3.06,0,2.88,2.88,0,0,1,1.07,1.12,3.39,3.39,0,0,1,.39,1.63Zm-4.17-2.5a2.23,2.23,0,0,0-.84.83,2.72,2.72,0,0,0-.37,1.2h4.8a2.48,2.48,0,0,0-.36-1.2,2.3,2.3,0,0,0-.85-.82,2.36,2.36,0,0,0-1.19-.3A2.49,2.49,0,0,0,61.57,227.41Z"/><path d="M67.75,232.72a2.93,2.93,0,0,1-1.06-.57l.27-.49a3.1,3.1,0,0,0,1,.54,3.61,3.61,0,0,0,1.27.22,2.44,2.44,0,0,0,1.39-.31,1,1,0,0,0,.45-.87.81.81,0,0,0-.24-.62,1.72,1.72,0,0,0-.61-.34c-.24-.07-.57-.14-1-.22a8.85,8.85,0,0,1-1.2-.29,1.87,1.87,0,0,1-.78-.5,1.37,1.37,0,0,1-.33-1,1.53,1.53,0,0,1,.62-1.24,2.81,2.81,0,0,1,1.76-.48,4.44,4.44,0,0,1,1.19.17,3.06,3.06,0,0,1,1,.44l-.28.48a3.19,3.19,0,0,0-.87-.42,3.47,3.47,0,0,0-1-.14,2.25,2.25,0,0,0-1.32.32,1,1,0,0,0-.45.85.87.87,0,0,0,.26.66,1.51,1.51,0,0,0,.61.34,10.49,10.49,0,0,0,1,.25,9,9,0,0,1,1.18.28,1.79,1.79,0,0,1,.76.49,1.29,1.29,0,0,1,.32.92,1.47,1.47,0,0,1-.65,1.25,3.11,3.11,0,0,1-1.83.47A4.62,4.62,0,0,1,67.75,232.72Z"/><path d="M76.45,232.5a1.34,1.34,0,0,1-.57.33,2.12,2.12,0,0,1-.71.12,1.67,1.67,0,0,1-1.26-.45,1.7,1.7,0,0,1-.45-1.26v-4.09H72.31v-.51h1.15v-1.37h.6v1.37h2v.51h-2v4a1.29,1.29,0,0,0,.3.92,1.08,1.08,0,0,0,.87.32,1.36,1.36,0,0,0,1-.35Z"/><path d="M78.07,225a.5.5,0,0,1-.14-.35.52.52,0,0,1,.14-.35.51.51,0,0,1,.7,0,.46.46,0,0,1,.14.34.48.48,0,0,1-.49.49A.49.49,0,0,1,78.07,225Zm.05,1.66h.6v6.26h-.6Z"/><path d="M82.1,232.54A2.9,2.9,0,0,1,81,231.41a3.49,3.49,0,0,1,0-3.28A2.9,2.9,0,0,1,82.1,227a3.33,3.33,0,0,1,3.2,0,2.9,2.9,0,0,1,1.12,1.13,3.49,3.49,0,0,1,0,3.28,2.9,2.9,0,0,1-1.12,1.13,3.33,3.33,0,0,1-3.2,0Zm2.89-.47a2.37,2.37,0,0,0,.9-.93,3,3,0,0,0,0-2.74,2.37,2.37,0,0,0-.9-.93,2.62,2.62,0,0,0-2.58,0,2.37,2.37,0,0,0-.9.93,3,3,0,0,0,0,2.74,2.37,2.37,0,0,0,.9.93,2.62,2.62,0,0,0,2.58,0Z"/><path d="M93.61,227.27a2.67,2.67,0,0,1,.69,2v3.66h-.6v-3.61a2.22,2.22,0,0,0-.54-1.61,2,2,0,0,0-1.49-.55,2.29,2.29,0,0,0-1.74.66,2.42,2.42,0,0,0-.64,1.77v3.34h-.6v-6.26h.58V228a2.39,2.39,0,0,1,1-1,3,3,0,0,1,1.52-.37A2.52,2.52,0,0,1,93.61,227.27Z"/><path d="M100.67,227.18a2.33,2.33,0,0,1,.62,1.75v4h-.57v-1.12a2.09,2.09,0,0,1-.88.86,2.81,2.81,0,0,1-1.38.31,2.57,2.57,0,0,1-1.65-.49,1.61,1.61,0,0,1-.61-1.3,1.59,1.59,0,0,1,.56-1.26,2.65,2.65,0,0,1,1.78-.49h2.15v-.51a1.8,1.8,0,0,0-.47-1.33,2,2,0,0,0-1.39-.45,3.43,3.43,0,0,0-1.19.21,3.21,3.21,0,0,0-1,.58l-.3-.43a3.4,3.4,0,0,1,1.13-.66,4.25,4.25,0,0,1,1.38-.23A2.52,2.52,0,0,1,100.67,227.18Zm-.8,4.92a2.18,2.18,0,0,0,.82-1v-1.17H98.56a2.14,2.14,0,0,0-1.34.33,1.13,1.13,0,0,0-.42.93,1.16,1.16,0,0,0,.46,1,2,2,0,0,0,1.28.36A2.36,2.36,0,0,0,99.87,232.1Z"/><path d="M105.24,227a2.88,2.88,0,0,1,1.49-.36v.59l-.15,0a2.07,2.07,0,0,0-1.63.66,2.64,2.64,0,0,0-.59,1.82v3.26h-.6v-6.26h.58V228A2.2,2.2,0,0,1,105.24,227Z"/><path d="M108.34,225a.47.47,0,0,1-.15-.35.49.49,0,0,1,.15-.35.48.48,0,0,1,.34-.14.48.48,0,0,1,.35.14.43.43,0,0,1,.15.34.47.47,0,0,1-.15.35.48.48,0,0,1-.35.14A.47.47,0,0,1,108.34,225Zm0,1.66h.6v6.26h-.6Z"/><path d="M112.36,232.54a3,3,0,0,1-1.12-1.13,3.48,3.48,0,0,1,0-3.28,3,3,0,0,1,1.12-1.13,3.35,3.35,0,0,1,3.21,0,3,3,0,0,1,1.12,1.13,3.49,3.49,0,0,1,0,3.28,3,3,0,0,1-1.12,1.13,3.35,3.35,0,0,1-3.21,0Zm2.89-.47a2.37,2.37,0,0,0,.9-.93,3,3,0,0,0,0-2.74,2.37,2.37,0,0,0-.9-.93,2.62,2.62,0,0,0-2.58,0,2.37,2.37,0,0,0-.9.93,3,3,0,0,0,0,2.74,2.37,2.37,0,0,0,.9.93,2.62,2.62,0,0,0,2.58,0Z"/><path d="M122.18,232.72a2.93,2.93,0,0,1-1.06-.57l.27-.49a3.1,3.1,0,0,0,1,.54,3.65,3.65,0,0,0,1.27.22,2.48,2.48,0,0,0,1.4-.31,1,1,0,0,0,.45-.87.82.82,0,0,0-.25-.62,1.64,1.64,0,0,0-.61-.34c-.24-.07-.57-.14-1-.22a8.85,8.85,0,0,1-1.2-.29,1.87,1.87,0,0,1-.78-.5,1.37,1.37,0,0,1-.33-1,1.53,1.53,0,0,1,.62-1.24,2.81,2.81,0,0,1,1.76-.48,4.39,4.39,0,0,1,1.19.17,3.06,3.06,0,0,1,1,.44l-.28.48a3.05,3.05,0,0,0-.87-.42,3.47,3.47,0,0,0-1-.14,2.25,2.25,0,0,0-1.32.32,1,1,0,0,0-.45.85.87.87,0,0,0,.26.66,1.51,1.51,0,0,0,.61.34,10.49,10.49,0,0,0,1,.25,9,9,0,0,1,1.18.28,1.79,1.79,0,0,1,.76.49,1.29,1.29,0,0,1,.32.92,1.47,1.47,0,0,1-.65,1.25,3.09,3.09,0,0,1-1.83.47A4.62,4.62,0,0,1,122.18,232.72Z"/><path d="M128.62,232.54a3,3,0,0,1-1.12-1.13,3.48,3.48,0,0,1,0-3.28,3,3,0,0,1,1.12-1.13,3.35,3.35,0,0,1,3.21,0,3,3,0,0,1,1.12,1.13,3.49,3.49,0,0,1,0,3.28,3,3,0,0,1-1.12,1.13,3.35,3.35,0,0,1-3.21,0Zm2.89-.47a2.37,2.37,0,0,0,.9-.93,3,3,0,0,0,0-2.74,2.37,2.37,0,0,0-.9-.93,2.62,2.62,0,0,0-2.58,0,2.37,2.37,0,0,0-.9.93,3,3,0,0,0,0,2.74,2.37,2.37,0,0,0,.9.93,2.62,2.62,0,0,0,2.58,0Z"/><path d="M136.07,232.54a2.92,2.92,0,0,1-1.13-1.13,3.51,3.51,0,0,1,0-3.29,2.92,2.92,0,0,1,1.13-1.13,3.46,3.46,0,0,1,3-.11,2.48,2.48,0,0,1,1,.86l-.45.32a2.15,2.15,0,0,0-.83-.7,2.64,2.64,0,0,0-1.1-.23,2.58,2.58,0,0,0-1.31.33,2.35,2.35,0,0,0-.92.93,3.05,3.05,0,0,0,0,2.76,2.35,2.35,0,0,0,.92.93,2.58,2.58,0,0,0,1.31.33,2.64,2.64,0,0,0,1.1-.23,2.18,2.18,0,0,0,.83-.71l.45.33a2.46,2.46,0,0,1-1,.85,3.09,3.09,0,0,1-1.37.3A3.26,3.26,0,0,1,136.07,232.54Z"/><path d="M141.83,225a.47.47,0,0,1-.15-.35.5.5,0,0,1,.5-.49.48.48,0,0,1,.34.14.43.43,0,0,1,.15.34.47.47,0,0,1-.15.35.51.51,0,0,1-.69,0Zm0,1.66h.6v6.26h-.6Z"/><path d="M145.85,232.54a3,3,0,0,1-1.12-1.13,3.48,3.48,0,0,1,0-3.28,3,3,0,0,1,1.12-1.13,3.35,3.35,0,0,1,3.21,0,3,3,0,0,1,1.12,1.13,3.49,3.49,0,0,1,0,3.28,3,3,0,0,1-1.12,1.13,3.35,3.35,0,0,1-3.21,0Zm2.9-.47a2.37,2.37,0,0,0,.9-.93,3,3,0,0,0,0-2.74,2.37,2.37,0,0,0-.9-.93,2.62,2.62,0,0,0-2.58,0,2.37,2.37,0,0,0-.9.93,3,3,0,0,0,0,2.74,2.37,2.37,0,0,0,.9.93,2.62,2.62,0,0,0,2.58,0Z"/><path d="M157.74,229.91h-5.39a2.7,2.7,0,0,0,.37,1.31,2.44,2.44,0,0,0,.95.88,2.78,2.78,0,0,0,1.33.31,2.86,2.86,0,0,0,1.14-.22,2.19,2.19,0,0,0,.87-.66l.35.4a2.8,2.8,0,0,1-1,.76A3.48,3.48,0,0,1,155,233a3.41,3.41,0,0,1-1.67-.41,3,3,0,0,1-1.14-1.13,3.18,3.18,0,0,1-.42-1.64,3.4,3.4,0,0,1,.39-1.64,2.87,2.87,0,0,1,1.08-1.13,2.94,2.94,0,0,1,1.53-.41,2.91,2.91,0,0,1,1.53.4,2.82,2.82,0,0,1,1.07,1.12,3.39,3.39,0,0,1,.39,1.63Zm-4.16-2.5a2.19,2.19,0,0,0-.85.83,2.86,2.86,0,0,0-.37,1.2h4.8a2.48,2.48,0,0,0-.36-1.2,2.3,2.3,0,0,0-.85-.82,2.36,2.36,0,0,0-1.19-.3A2.43,2.43,0,0,0,153.58,227.41Z"/><path d="M160.46,232.54a3,3,0,0,1-1.13-1.13,3.58,3.58,0,0,1,0-3.29,3,3,0,0,1,1.13-1.13,3.28,3.28,0,0,1,1.63-.4,3.25,3.25,0,0,1,1.38.29,2.52,2.52,0,0,1,1,.86l-.44.32a2.26,2.26,0,0,0-.84-.7,2.76,2.76,0,0,0-2.41.1,2.33,2.33,0,0,0-.91.93,3.05,3.05,0,0,0,0,2.76,2.33,2.33,0,0,0,.91.93,2.76,2.76,0,0,0,2.41.1,2.28,2.28,0,0,0,.84-.71l.44.33a2.49,2.49,0,0,1-1,.85,3.11,3.11,0,0,1-1.38.3A3.29,3.29,0,0,1,160.46,232.54Z"/><path d="M167,232.54a2.9,2.9,0,0,1-1.12-1.13,3.48,3.48,0,0,1,0-3.28A2.9,2.9,0,0,1,167,227a3.33,3.33,0,0,1,3.2,0,2.9,2.9,0,0,1,1.12,1.13,3.49,3.49,0,0,1,0,3.28,2.9,2.9,0,0,1-1.12,1.13,3.33,3.33,0,0,1-3.2,0Zm2.89-.47a2.37,2.37,0,0,0,.9-.93,3,3,0,0,0,0-2.74,2.37,2.37,0,0,0-.9-.93,2.62,2.62,0,0,0-2.58,0,2.37,2.37,0,0,0-.9.93,3,3,0,0,0,0,2.74,2.37,2.37,0,0,0,.9.93,2.62,2.62,0,0,0,2.58,0Z"/><path d="M178.52,227.27a2.67,2.67,0,0,1,.69,2v3.66h-.6v-3.61a2.22,2.22,0,0,0-.54-1.61,2,2,0,0,0-1.49-.55,2.29,2.29,0,0,0-1.74.66,2.46,2.46,0,0,0-.64,1.77v3.34h-.6v-6.26h.58V228a2.41,2.41,0,0,1,1-1,2.91,2.91,0,0,1,1.51-.37A2.52,2.52,0,0,1,178.52,227.27Z"/><path d="M182.52,232.54a3,3,0,0,1-1.12-1.13,3.48,3.48,0,0,1,0-3.28,3,3,0,0,1,1.12-1.13,3.35,3.35,0,0,1,3.21,0,3,3,0,0,1,1.12,1.13,3.49,3.49,0,0,1,0,3.28,3,3,0,0,1-1.12,1.13,3.35,3.35,0,0,1-3.21,0Zm2.9-.47a2.37,2.37,0,0,0,.9-.93,3,3,0,0,0,0-2.74,2.37,2.37,0,0,0-.9-.93,2.62,2.62,0,0,0-2.58,0,2.37,2.37,0,0,0-.9.93,3,3,0,0,0,0,2.74,2.37,2.37,0,0,0,.9.93,2.62,2.62,0,0,0,2.58,0Zm-.31-7.87H186l-1.88,1.42h-.65Z"/><path d="M198.75,227.27a2.74,2.74,0,0,1,.66,2v3.66h-.6v-3.61a2.3,2.3,0,0,0-.51-1.61,1.88,1.88,0,0,0-1.44-.55,2.2,2.2,0,0,0-1.68.66,2.49,2.49,0,0,0-.61,1.77v3.34H194v-3.61a2.31,2.31,0,0,0-.52-1.61,1.85,1.85,0,0,0-1.44-.55,2.18,2.18,0,0,0-1.67.66,2.45,2.45,0,0,0-.62,1.77v3.34h-.6v-6.26h.57V228a2.38,2.38,0,0,1,.93-1,2.91,2.91,0,0,1,1.47-.36,2.68,2.68,0,0,1,1.45.38,2.09,2.09,0,0,1,.85,1.13,2.4,2.4,0,0,1,1-1.1,3,3,0,0,1,1.56-.41A2.48,2.48,0,0,1,198.75,227.27Z"/><path d="M201.84,225a.47.47,0,0,1-.15-.35.5.5,0,0,1,.5-.49.48.48,0,0,1,.34.14.43.43,0,0,1,.15.34.47.47,0,0,1-.15.35.51.51,0,0,1-.69,0Zm0,1.66h.6v6.26h-.6Z"/><path d="M205.87,232.54a2.92,2.92,0,0,1-1.13-1.13,3.51,3.51,0,0,1,0-3.29,2.92,2.92,0,0,1,1.13-1.13,3.48,3.48,0,0,1,3-.11,2.52,2.52,0,0,1,1,.86l-.45.32a2.15,2.15,0,0,0-.83-.7,2.64,2.64,0,0,0-1.1-.23,2.6,2.6,0,0,0-1.31.33,2.33,2.33,0,0,0-.91.93,3.05,3.05,0,0,0,0,2.76,2.33,2.33,0,0,0,.91.93,2.6,2.6,0,0,0,1.31.33,2.64,2.64,0,0,0,1.1-.23,2.18,2.18,0,0,0,.83-.71l.45.33a2.49,2.49,0,0,1-1,.85,3.14,3.14,0,0,1-1.38.3A3.26,3.26,0,0,1,205.87,232.54Z"/><path d="M212.43,232.54a2.9,2.9,0,0,1-1.12-1.13,3.48,3.48,0,0,1,0-3.28,2.9,2.9,0,0,1,1.12-1.13,3.33,3.33,0,0,1,3.2,0,2.9,2.9,0,0,1,1.12,1.13,3.49,3.49,0,0,1,0,3.28,2.9,2.9,0,0,1-1.12,1.13,3.33,3.33,0,0,1-3.2,0Zm2.89-.47a2.37,2.37,0,0,0,.9-.93,3,3,0,0,0,0-2.74,2.37,2.37,0,0,0-.9-.93,2.62,2.62,0,0,0-2.58,0,2.37,2.37,0,0,0-.9.93,3,3,0,0,0,0,2.74,2.37,2.37,0,0,0,.9.93,2.62,2.62,0,0,0,2.58,0Z"/><path d="M284,224.5v8.4h-.61v-7.85h-2.05v-.55Z"/><path d="M289.48,224.5v8.4h-.62v-7.85h-2.05v-.55Z"/><path d="M375.59,224.5v8.4H375v-7.85h-2.05v-.55Z"/><path d="M382.38,228.84a2.14,2.14,0,0,1,.73,1.7,2.28,2.28,0,0,1-.34,1.25,2.24,2.24,0,0,1-1,.86,3.71,3.71,0,0,1-1.6.31,4.69,4.69,0,0,1-1.72-.31,2.9,2.9,0,0,1-1.24-.82l.31-.47a2.86,2.86,0,0,0,1.11.75,4.06,4.06,0,0,0,1.54.29,2.65,2.65,0,0,0,1.72-.5,1.68,1.68,0,0,0,.6-1.36,1.66,1.66,0,0,0-.62-1.37,2.86,2.86,0,0,0-1.83-.49h-.53v-.45l2.48-3.18h-4.47v-.55h5.27v.43l-2.52,3.23A3.24,3.24,0,0,1,382.38,228.84Z"/><path d="M17.26,255.38H14.47v-1.32H21.6v1.32H18.82v7.08H17.26Z"/><path d="M23.11,262.12A3.12,3.12,0,0,1,21.89,261a3.56,3.56,0,0,1,0-3.39,3.17,3.17,0,0,1,1.22-1.16,3.9,3.9,0,0,1,3.52,0,3.17,3.17,0,0,1,1.22,1.16,3.56,3.56,0,0,1,0,3.39,3.12,3.12,0,0,1-1.22,1.17,3.9,3.9,0,0,1-3.52,0Zm3.12-1.41a2,2,0,0,0,.54-1.46,2,2,0,0,0-.54-1.45,2,2,0,0,0-2.73,0,2,2,0,0,0-.53,1.45,2,2,0,0,0,.53,1.46,2,2,0,0,0,2.73,0Z"/><path d="M33.58,262.11a1.8,1.8,0,0,1-.65.32,2.56,2.56,0,0,1-.79.11A2.28,2.28,0,0,1,30.5,262a2.14,2.14,0,0,1-.57-1.61V257.3H28.87v-1.2h1.06v-1.47h1.5v1.47h1.71v1.2H31.43v3.05a1,1,0,0,0,.23.71.87.87,0,0,0,.66.25,1.32,1.32,0,0,0,.84-.27Z"/><path d="M39.43,256.66a2.64,2.64,0,0,1,.75,2v3.76H38.76v-.78a1.74,1.74,0,0,1-.79.64,3,3,0,0,1-1.23.22,3.08,3.08,0,0,1-1.26-.24,2,2,0,0,1-.83-.69,1.7,1.7,0,0,1-.3-1,1.68,1.68,0,0,1,.65-1.38,3.15,3.15,0,0,1,2-.53h1.66v-.09a1.3,1.3,0,0,0-.41-1,1.73,1.73,0,0,0-1.19-.36,3.49,3.49,0,0,0-1.06.16,2.73,2.73,0,0,0-.88.47l-.59-1.09a3.6,3.6,0,0,1,1.21-.59,5.6,5.6,0,0,1,1.5-.2A3.1,3.1,0,0,1,39.43,256.66Zm-1.37,4.53a1.41,1.41,0,0,0,.62-.74v-.74H37.13c-.87,0-1.3.28-1.3.85a.77.77,0,0,0,.33.65,1.46,1.46,0,0,0,.9.24A2,2,0,0,0,38.06,261.19Z"/><path d="M42.09,253.55h1.5v8.91h-1.5Z"/><path d="M55.15,253.55v8.91H53.71v-.83a2.22,2.22,0,0,1-.92.68,2.92,2.92,0,0,1-1.2.23,3.33,3.33,0,0,1-1.67-.41A2.89,2.89,0,0,1,48.77,261a3.49,3.49,0,0,1-.42-1.73,3.41,3.41,0,0,1,.42-1.71,2.89,2.89,0,0,1,1.15-1.15,3.33,3.33,0,0,1,1.67-.41,3.11,3.11,0,0,1,1.16.21,2.42,2.42,0,0,1,.9.65v-3.29ZM52.74,261a1.76,1.76,0,0,0,.68-.7,2.13,2.13,0,0,0,.25-1.06,2.09,2.09,0,0,0-.25-1.05,1.76,1.76,0,0,0-.68-.7,1.87,1.87,0,0,0-1-.25,1.91,1.91,0,0,0-1,.25,1.83,1.83,0,0,0-.68.7,2.09,2.09,0,0,0-.25,1.05,2.13,2.13,0,0,0,.25,1.06,1.83,1.83,0,0,0,.68.7,1.91,1.91,0,0,0,1,.25A1.87,1.87,0,0,0,52.74,261Z"/><path d="M63.12,259.73h-5a1.77,1.77,0,0,0,.69,1.13,2.29,2.29,0,0,0,1.39.41,2.33,2.33,0,0,0,1.74-.7l.8.93a2.79,2.79,0,0,1-1.09.78,4.12,4.12,0,0,1-1.49.26,4,4,0,0,1-1.86-.42A3,3,0,0,1,57,261a3.5,3.5,0,0,1,0-3.38,3,3,0,0,1,1.18-1.17,3.65,3.65,0,0,1,3.38,0,3,3,0,0,1,1.15,1.17,3.57,3.57,0,0,1,.41,1.73C63.14,259.4,63.13,259.54,63.12,259.73Zm-4.44-2.13a1.82,1.82,0,0,0-.6,1.14h3.63a1.77,1.77,0,0,0-.58-1.13,1.79,1.79,0,0,0-1.23-.43A1.85,1.85,0,0,0,58.68,257.6Z"/><path d="M73.12,256.39a2.92,2.92,0,0,1,1.16,1.15,3.41,3.41,0,0,1,.42,1.71,3.49,3.49,0,0,1-.42,1.73,2.92,2.92,0,0,1-1.16,1.15,3.31,3.31,0,0,1-1.67.41,2.62,2.62,0,0,1-2.06-.86v3.11h-1.5v-8.74h1.43v.84a2.38,2.38,0,0,1,.92-.68,3,3,0,0,1,1.21-.23A3.31,3.31,0,0,1,73.12,256.39Zm-.48,4.32a2,2,0,0,0,.53-1.46,2,2,0,0,0-.53-1.45,2,2,0,0,0-2.33-.3,1.79,1.79,0,0,0-.69.7,2.09,2.09,0,0,0-.25,1.05,2.13,2.13,0,0,0,.25,1.06,1.79,1.79,0,0,0,.69.7,2,2,0,0,0,2.33-.3Z"/><path d="M79.83,256v1.43a1.42,1.42,0,0,0-.34,0,1.81,1.81,0,0,0-1.37.51,2,2,0,0,0-.49,1.47v3.11h-1.5v-6.41h1.42V257A2.5,2.5,0,0,1,79.83,256Z"/><path d="M87.05,259.73H82a1.77,1.77,0,0,0,.69,1.13,2.52,2.52,0,0,0,3.12-.29l.81.93a2.79,2.79,0,0,1-1.09.78,4.12,4.12,0,0,1-1.49.26,3.93,3.93,0,0,1-1.86-.42A3,3,0,0,1,81,261a3.22,3.22,0,0,1-.44-1.7,3.38,3.38,0,0,1,.42-1.68,3,3,0,0,1,1.19-1.17,3.63,3.63,0,0,1,3.37,0,3,3,0,0,1,1.16,1.17,3.57,3.57,0,0,1,.41,1.73C87.07,259.4,87.06,259.54,87.05,259.73Zm-4.44-2.13a1.82,1.82,0,0,0-.6,1.14h3.63a1.75,1.75,0,0,0-1.81-1.56A1.83,1.83,0,0,0,82.61,257.6Z"/><path d="M94.87,256.05v5.44q0,3.38-3.46,3.38a6.66,6.66,0,0,1-1.75-.23,3.91,3.91,0,0,1-1.37-.68l.68-1.13a3.22,3.22,0,0,0,1.06.56,4.16,4.16,0,0,0,1.3.21,2.16,2.16,0,0,0,1.55-.48,2,2,0,0,0,.49-1.47v-.33a2.44,2.44,0,0,1-.94.63,3.14,3.14,0,0,1-1.21.22,3.46,3.46,0,0,1-1.65-.39,2.93,2.93,0,0,1-1.16-1.1,3,3,0,0,1-.43-1.62,3,3,0,0,1,.43-1.61,2.9,2.9,0,0,1,1.16-1.09,3.58,3.58,0,0,1,1.65-.38,3.23,3.23,0,0,1,1.27.23,2.27,2.27,0,0,1,1,.69v-.85Zm-2,4.34a1.88,1.88,0,0,0,0-2.64,2.22,2.22,0,0,0-2.81,0,1.86,1.86,0,0,0,0,2.64,2.19,2.19,0,0,0,2.81,0Z"/><path d="M103,256.05v6.41h-1.43v-.82a2.42,2.42,0,0,1-.9.67,3,3,0,0,1-1.16.23,2.79,2.79,0,0,1-2-.71,2.83,2.83,0,0,1-.74-2.12v-3.66h1.5v3.46a1.88,1.88,0,0,0,.39,1.29,1.44,1.44,0,0,0,1.11.42,1.66,1.66,0,0,0,1.28-.5,2,2,0,0,0,.47-1.43v-3.24Z"/><path d="M110.59,256.69a2.78,2.78,0,0,1,.73,2.1v3.67h-1.5V259a1.84,1.84,0,0,0-.39-1.27,1.49,1.49,0,0,0-1.13-.42,1.74,1.74,0,0,0-1.31.49,2,2,0,0,0-.48,1.44v3.24H105v-6.41h1.43v.83a2.32,2.32,0,0,1,.93-.67,3.25,3.25,0,0,1,1.28-.23A2.65,2.65,0,0,1,110.59,256.69Z"/><path d="M117.08,262.11a1.75,1.75,0,0,1-.64.32,2.62,2.62,0,0,1-.8.11A2.25,2.25,0,0,1,114,262a2.14,2.14,0,0,1-.58-1.61V257.3h-1.05v-1.2h1.05v-1.47h1.5v1.47h1.72v1.2h-1.72v3.05a1,1,0,0,0,.23.71.87.87,0,0,0,.66.25,1.28,1.28,0,0,0,.84-.27Z"/><path d="M122.93,256.66a2.61,2.61,0,0,1,.75,2v3.76h-1.41v-.78a1.8,1.8,0,0,1-.79.64,3,3,0,0,1-1.23.22,3.08,3.08,0,0,1-1.26-.24,2,2,0,0,1-.83-.69,1.8,1.8,0,0,1,.34-2.37,3.2,3.2,0,0,1,2-.53h1.65v-.09a1.3,1.3,0,0,0-.4-1,1.75,1.75,0,0,0-1.19-.36,3.56,3.56,0,0,0-1.07.16,2.84,2.84,0,0,0-.88.47l-.59-1.09a3.65,3.65,0,0,1,1.22-.59,5.6,5.6,0,0,1,1.5-.2A3.08,3.08,0,0,1,122.93,256.66Zm-1.37,4.53a1.37,1.37,0,0,0,.62-.74v-.74h-1.55c-.86,0-1.29.28-1.29.85a.78.78,0,0,0,.32.65,1.5,1.5,0,0,0,.9.24A1.93,1.93,0,0,0,121.56,261.19Z"/><path d="M126.06,262.34a3.89,3.89,0,0,1-1.19-.52l.58-1.14a3.49,3.49,0,0,0,1,.46,4.26,4.26,0,0,0,1.2.18c.89,0,1.34-.24,1.34-.71a.48.48,0,0,0-.34-.47,5.73,5.73,0,0,0-1.1-.25,8,8,0,0,1-1.29-.28,1.91,1.91,0,0,1-.86-.54,1.5,1.5,0,0,1-.37-1.09,1.73,1.73,0,0,1,.76-1.46,3.52,3.52,0,0,1,2.06-.54,5.94,5.94,0,0,1,1.32.15,3.65,3.65,0,0,1,1.08.4l-.57,1.14a3.58,3.58,0,0,0-1.84-.48,2.05,2.05,0,0,0-1,.2.58.58,0,0,0-.34.52.52.52,0,0,0,.36.51,6,6,0,0,0,1.14.28,8.06,8.06,0,0,1,1.26.28,1.91,1.91,0,0,1,.84.53,1.44,1.44,0,0,1,.36,1.05,1.67,1.67,0,0,1-.78,1.44,3.69,3.69,0,0,1-2.13.54A5.92,5.92,0,0,1,126.06,262.34Z"/><path d="M281.06,254.71h0l-1.36.73-.2-.8,1.7-.91h.9v7.79h-1Z"/><path d="M285.18,260.31a3.42,3.42,0,0,0,1.73.5c1.35,0,1.77-.87,1.76-1.52,0-1.09-1-1.56-2-1.56h-.58v-.79h.58c.77,0,1.74-.39,1.74-1.32,0-.62-.39-1.17-1.36-1.17a2.91,2.91,0,0,0-1.56.51l-.28-.76a3.71,3.71,0,0,1,2-.6c1.54,0,2.23.91,2.23,1.86a1.94,1.94,0,0,1-1.44,1.83v0a2,2,0,0,1,1.74,2c0,1.24-1,2.34-2.84,2.34a4,4,0,0,1-2-.53Z"/><path d="M293.37,254.71h0l-1.36.73-.2-.8,1.7-.91h.9v7.79h-1Z"/><path d="M371.57,254.71h0l-1.36.73-.2-.8,1.7-.91h.9v7.79h-1Z"/><path d="M378.7,261.52V259.4h-3.62v-.69l3.47-5h1.14v4.84h1.09v.83h-1.09v2.12Zm0-2.95V256c0-.41,0-.81,0-1.22h0c-.24.45-.43.79-.65,1.15l-1.91,2.65v0Z"/><path d="M386.1,253.73v.69l-3.39,7.1h-1.09l3.38-6.89v0h-3.82v-.87Z"/><path d="M17.26,283H14.47v-1.32H21.6V283H18.82v7.08H17.26Z"/><path d="M22.56,282.39a.87.87,0,0,1,0-1.28,1,1,0,0,1,.68-.26,1,1,0,0,1,.69.25.79.79,0,0,1,.27.61.9.9,0,0,1-.27.67.93.93,0,0,1-.69.27A1,1,0,0,1,22.56,282.39Zm-.07,1.32H24v6.4h-1.5Z"/><path d="M32,287.39h-5a1.74,1.74,0,0,0,.69,1.12,2.22,2.22,0,0,0,1.38.42,2.34,2.34,0,0,0,1.74-.7l.81.92a2.61,2.61,0,0,1-1.09.78,4.29,4.29,0,0,1-3.35-.15,3,3,0,0,1-1.24-1.17,3.24,3.24,0,0,1-.44-1.7,3.42,3.42,0,0,1,.42-1.69A3,3,0,0,1,27,284.05a3.43,3.43,0,0,1,1.7-.42,3.31,3.31,0,0,1,1.67.42,2.88,2.88,0,0,1,1.16,1.16A3.61,3.61,0,0,1,32,287C32,287.05,32,287.2,32,287.39Zm-4.44-2.13a1.77,1.77,0,0,0-.6,1.13h3.63a1.71,1.71,0,0,0-.59-1.12,1.76,1.76,0,0,0-1.22-.44A1.83,1.83,0,0,0,27.52,285.26Z"/><path d="M43.43,284.34a2.84,2.84,0,0,1,.71,2.1v3.67h-1.5v-3.48a1.84,1.84,0,0,0-.38-1.26,1.31,1.31,0,0,0-1.07-.43,1.58,1.58,0,0,0-1.21.5,2.05,2.05,0,0,0-.45,1.42v3.25H38v-3.48a1.89,1.89,0,0,0-.37-1.26,1.34,1.34,0,0,0-1.07-.43,1.6,1.6,0,0,0-1.22.49,2.06,2.06,0,0,0-.45,1.43v3.25h-1.5v-6.4h1.43v.81a2.29,2.29,0,0,1,.9-.66,3.09,3.09,0,0,1,1.2-.23,2.93,2.93,0,0,1,1.28.27,2.12,2.12,0,0,1,.88.8,2.58,2.58,0,0,1,1-.78,3.25,3.25,0,0,1,1.38-.29A2.61,2.61,0,0,1,43.43,284.34Z"/><path d="M51.28,284a3,3,0,0,1,1.16,1.15,3.73,3.73,0,0,1,0,3.44,2.94,2.94,0,0,1-1.16,1.16,3.41,3.41,0,0,1-1.67.41,2.6,2.6,0,0,1-2.06-.87v3.11h-1.5v-8.73h1.43v.84a2.31,2.31,0,0,1,.92-.69,3.14,3.14,0,0,1,1.21-.23A3.41,3.41,0,0,1,51.28,284Zm-.48,4.32a2.25,2.25,0,0,0,0-2.9,1.81,1.81,0,0,0-1.36-.55,1.94,1.94,0,0,0-1,.24,1.86,1.86,0,0,0-.69.7,2.37,2.37,0,0,0,0,2.12,1.86,1.86,0,0,0,.69.7,1.94,1.94,0,0,0,1,.24A1.81,1.81,0,0,0,50.8,288.36Z"/><path d="M55.41,289.78a3,3,0,0,1-1.21-1.17,3.24,3.24,0,0,1-.44-1.7,3.18,3.18,0,0,1,.44-1.69,3,3,0,0,1,1.21-1.17,3.9,3.9,0,0,1,3.52,0,3.05,3.05,0,0,1,1.22,1.17,3.27,3.27,0,0,1,.44,1.69,3.34,3.34,0,0,1-.44,1.7,3.05,3.05,0,0,1-1.22,1.17,3.9,3.9,0,0,1-3.52,0Zm3.12-1.42a2.22,2.22,0,0,0,0-2.9,2,2,0,0,0-2.73,0,2.25,2.25,0,0,0,0,2.9,2,2,0,0,0,2.73,0Z"/><path d="M253.78,290.11V288h-3.62v-.69l3.48-5h1.14v4.84h1.09V288h-1.09v2.12Zm0-2.95v-2.6c0-.41,0-.81,0-1.22h0c-.24.45-.43.79-.65,1.15l-1.9,2.65v0Z"/><path d="M259.09,281.6h1.05v3.62h0a1.91,1.91,0,0,1,.75-.74,2.16,2.16,0,0,1,1.08-.3c.78,0,2,.48,2,2.48v3.45H263v-3.33c0-.94-.35-1.73-1.34-1.73a1.51,1.51,0,0,0-1.42,1.06,1.26,1.26,0,0,0-.07.5v3.5h-1.05Z"/><path d="M268.22,284.31l1.27,3.43c.13.38.27.84.37,1.19h0c.11-.35.23-.79.38-1.21l1.15-3.41h1.11l-1.58,4.14c-.76,2-1.27,3-2,3.63a2.73,2.73,0,0,1-1.3.68l-.26-.88a3,3,0,0,0,.92-.52,3.17,3.17,0,0,0,.89-1.17.73.73,0,0,0,.08-.26.81.81,0,0,0-.07-.27l-2.14-5.35Z"/><path d="M275.49,288.9a3.53,3.53,0,0,0,1.73.49c1.35,0,1.77-.86,1.76-1.51,0-1.09-1-1.56-2-1.56h-.58v-.79H277c.77,0,1.74-.39,1.74-1.32,0-.62-.39-1.17-1.36-1.17a2.83,2.83,0,0,0-1.56.51l-.28-.76a3.71,3.71,0,0,1,2-.6c1.54,0,2.23.91,2.23,1.86a1.94,1.94,0,0,1-1.44,1.83v0a2,2,0,0,1,1.74,2c0,1.24-1,2.34-2.84,2.34a4,4,0,0,1-2-.53Z"/><path d="M286.35,286.13c0,2.65-1,4.12-2.71,4.12-1.53,0-2.56-1.43-2.58-4s1.12-4.05,2.71-4.05S286.35,283.65,286.35,286.13Zm-4.24.12c0,2,.63,3.18,1.59,3.18s1.59-1.26,1.59-3.25-.49-3.18-1.58-3.18C282.78,283,282.11,284.13,282.11,286.25Z"/><path d="M289.74,285.88c0-.6,0-1.09,0-1.57h.92l.05.93h0a2,2,0,0,1,1.83-1.06,1.71,1.71,0,0,1,1.64,1.16h0a2.58,2.58,0,0,1,.65-.76,2,2,0,0,1,1.29-.4c.76,0,1.9.5,1.9,2.52v3.41h-1v-3.28c0-1.12-.41-1.79-1.26-1.79a1.36,1.36,0,0,0-1.25,1,2,2,0,0,0-.08.53v3.58h-1v-3.47c0-.93-.41-1.6-1.21-1.6a1.45,1.45,0,0,0-1.31,1.06,1.4,1.4,0,0,0-.08.51v3.5h-1Z"/><path d="M300.7,282.68a.62.62,0,0,1-.67.65.63.63,0,0,1-.64-.65.65.65,0,0,1,.66-.66A.63.63,0,0,1,300.7,282.68Zm-1.18,7.43v-5.8h1.06v5.8Z"/><path d="M302.1,285.88c0-.6,0-1.09,0-1.57H303l.06,1h0a2.13,2.13,0,0,1,1.92-1.09c.8,0,2.05.48,2.05,2.47v3.46H306v-3.34c0-.94-.35-1.72-1.34-1.72a1.5,1.5,0,0,0-1.42,1.08,1.45,1.45,0,0,0-.07.49v3.49H302.1Z"/><path d="M346,290.11V288h-3.63v-.69l3.48-5H347v4.84H348V288H347v2.12Zm0-2.95v-2.6c0-.41,0-.81,0-1.22h0c-.24.45-.44.79-.65,1.15l-1.91,2.65v0Z"/><path d="M351.26,281.6h1.06v3.62h0a1.93,1.93,0,0,1,.76-.74,2.16,2.16,0,0,1,1.08-.3c.78,0,2,.48,2,2.48v3.45h-1.05v-3.33c0-.94-.35-1.73-1.35-1.73a1.51,1.51,0,0,0-1.41,1.06,1.26,1.26,0,0,0-.07.5v3.5h-1.06Z"/><path d="M360.39,284.31l1.27,3.43c.14.38.28.84.38,1.19h0c.11-.35.23-.79.37-1.21l1.15-3.41h1.12l-1.58,4.14c-.76,2-1.28,3-2,3.63a2.7,2.7,0,0,1-1.29.68l-.26-.88a3,3,0,0,0,.92-.52,3.17,3.17,0,0,0,.89-1.17,1,1,0,0,0,.08-.26.81.81,0,0,0-.07-.27l-2.15-5.35Z"/><path d="M367.67,288.9a3.49,3.49,0,0,0,1.72.49c1.36,0,1.78-.86,1.77-1.51,0-1.09-1-1.56-2-1.56h-.59v-.79h.59c.77,0,1.74-.39,1.74-1.32,0-.62-.4-1.17-1.37-1.17a2.89,2.89,0,0,0-1.56.51l-.27-.76a3.69,3.69,0,0,1,2-.6c1.53,0,2.23.91,2.23,1.86a1.94,1.94,0,0,1-1.44,1.83v0a2,2,0,0,1,1.74,2c0,1.24-1,2.34-2.85,2.34a4,4,0,0,1-2-.53Z"/><path d="M378.52,286.13c0,2.65-1,4.12-2.71,4.12-1.52,0-2.55-1.43-2.58-4s1.13-4.05,2.71-4.05S378.52,283.65,378.52,286.13Zm-4.23.12c0,2,.62,3.18,1.58,3.18s1.6-1.26,1.6-3.25S377,283,375.88,283C375,283,374.29,284.13,374.29,286.25Z"/><path d="M381.91,285.88c0-.6,0-1.09-.05-1.57h.92l.05.93h0a2,2,0,0,1,1.82-1.06,1.71,1.71,0,0,1,1.64,1.16h0a2.58,2.58,0,0,1,.65-.76,2,2,0,0,1,1.28-.4c.77,0,1.91.5,1.91,2.52v3.41h-1v-3.28c0-1.12-.4-1.79-1.26-1.79a1.36,1.36,0,0,0-1.24,1,1.68,1.68,0,0,0-.09.53v3.58h-1v-3.47c0-.93-.41-1.6-1.21-1.6A1.45,1.45,0,0,0,383,286.1a1.4,1.4,0,0,0-.08.51v3.5h-1Z"/><path d="M392.86,282.68a.62.62,0,0,1-.67.65.63.63,0,0,1-.63-.65.64.64,0,0,1,.66-.66A.62.62,0,0,1,392.86,282.68Zm-1.17,7.43v-5.8h1.05v5.8Z"/><path d="M394.27,285.88c0-.6,0-1.09,0-1.57h.94l.06,1h0a2.14,2.14,0,0,1,1.92-1.09c.8,0,2,.48,2,2.47v3.46h-1.06v-3.34c0-.94-.34-1.72-1.34-1.72a1.5,1.5,0,0,0-1.41,1.08,1.44,1.44,0,0,0-.08.49v3.49h-1.05Z"/><path class="cls-4" d="M16.63,111.59,7.85,102.8a1.58,1.58,0,0,1,0-2.22l8.78-8.78a1.58,1.58,0,0,1,2.22,0l8.79,8.78a1.58,1.58,0,0,1,0,2.22l-8.79,8.79a1.58,1.58,0,0,1-2.22,0"/><path class="cls-5" d="M25.92,94.7a11.26,11.26,0,0,1,4,.58v12.53a13.13,13.13,0,0,0-4-.54,10,10,0,0,0-5,1.32V96.18a12.08,12.08,0,0,1,5-1.48M15,93.75a12.13,12.13,0,0,0-4.68.74.49.49,0,0,0-.3.45v11.61a.48.48,0,1,0,1,0h0V95.28a11.32,11.32,0,0,1,4-.58,12,12,0,0,1,5,1.48v12.41a9.92,9.92,0,0,0-5-1.32,13,13,0,0,0-4.66.73.48.48,0,0,0,.31.9,11.76,11.76,0,0,1,4.35-.68,9.48,9.48,0,0,1,5.22,1.59.49.49,0,0,0,.47,0,9.48,9.48,0,0,1,5.22-1.59,11.76,11.76,0,0,1,4.35.68.47.47,0,0,0,.6-.29.41.41,0,0,0,0-.16V94.94a.49.49,0,0,0-.3-.45,12.13,12.13,0,0,0-4.68-.74,12.73,12.73,0,0,0-5.45,1.62A12.78,12.78,0,0,0,15,93.75"/><path class="cls-6" d="M17.16,80.69,8.37,71.91a1.58,1.58,0,0,1,0-2.22l8.79-8.79a1.56,1.56,0,0,1,2.21,0l8.79,8.79a1.58,1.58,0,0,1,0,2.22l-8.79,8.78a1.55,1.55,0,0,1-2.21,0"/><path class="cls-5" d="M29.67,77.17a2.48,2.48,0,0,1-2.48,2.48H14.29a2.48,2.48,0,0,1-2.48-2.48V64.27a2.48,2.48,0,0,1,2.48-2.48h12.9a2.48,2.48,0,0,1,2.48,2.48ZM27,61H14.32a3.4,3.4,0,0,0-3.4,3.4V77.05a3.4,3.4,0,0,0,3.4,3.4H27a3.41,3.41,0,0,0,3.41-3.4V64.4A3.41,3.41,0,0,0,27,61"/><path class="cls-5" d="M18.67,73.7H17.13V72.38a.44.44,0,0,0-.88,0V73.7H14.71a.44.44,0,1,0,0,.88h1.54v1.54a.44.44,0,0,0,.88,0V74.58h1.54a.44.44,0,0,0,0-.88"/><path class="cls-5" d="M18.67,66.45h-4a.44.44,0,0,0-.44.44.44.44,0,0,0,.44.44h4a.44.44,0,0,0,.44-.44.44.44,0,0,0-.44-.44"/><path class="cls-5" d="M26.58,75H22.63a.44.44,0,1,0,0,.88h3.95a.44.44,0,0,0,0-.88"/><path class="cls-5" d="M26.58,73H22.63a.44.44,0,1,0,0,.88h3.95a.44.44,0,0,0,0-.88"/><path class="cls-5" d="M23,68.54a.41.41,0,0,0,.59,0l0,0,1.12-1.12,1.12,1.12a.43.43,0,0,0,.6,0l0,0a.42.42,0,0,0,0-.59l0,0L25.31,66.8l1.12-1.12a.45.45,0,0,0,.09-.62A.44.44,0,0,0,25.9,65l-.09.08-1.12,1.12-1.12-1.12a.44.44,0,0,0-.61.09.44.44,0,0,0,0,.53l1.12,1.12L23,67.92a.4.4,0,0,0-.06.58l.06,0"/><path class="cls-7" d="M16.63,142.53l-9-9a1.49,1.49,0,0,1,0-2.12l9-9a1.51,1.51,0,0,1,2.12,0l9,9a1.51,1.51,0,0,1,0,2.12l-9,9a1.49,1.49,0,0,1-2.12,0"/><path class="cls-5" d="M10.92,130.27a.37.37,0,0,0,.47-.26,9.15,9.15,0,0,1,8.75-6.56,9.38,9.38,0,0,1,1.91.2,2,2,0,0,0,.37,1.16,1.75,1.75,0,0,1,.11.18c0,1.36-.28,1.58-.28,1.58a2.7,2.7,0,0,0-2,1.26,1.22,1.22,0,0,0,.05,1.3,8.14,8.14,0,0,1,.49.87c.33.63.69,1.32,1.25,1.32a.8.8,0,0,0,.38-.1,3.15,3.15,0,0,0,1.07-1.46,6.3,6.3,0,0,1,.45-.79c.39.05.58.4.83,1a1.93,1.93,0,0,0,.77,1c.64.32,2.75,0,3.91-.51a.37.37,0,0,0,.22-.45,9.92,9.92,0,0,0-5.79-6.55.38.38,0,1,0-.29.7,9.16,9.16,0,0,1,5.25,5.72,6.64,6.64,0,0,1-3,.41c-.14-.07-.28-.38-.41-.65-.26-.58-.63-1.36-1.55-1.4-.48,0-.75.52-1.1,1.21a3.25,3.25,0,0,1-.75,1.13c-.14,0-.42-.57-.59-.9a10.33,10.33,0,0,0-.54-1,.45.45,0,0,1,0-.51,2,2,0,0,1,1.33-.86c.69,0,1-.79,1-2.34a1.06,1.06,0,0,0-.22-.58,1.15,1.15,0,0,1-.23-1,.38.38,0,0,0-.28-.45,9.88,9.88,0,0,0-11.9,6.81.37.37,0,0,0,.26.47"/><path class="cls-5" d="M26.49,133.57a1.69,1.69,0,0,1-.33.38,2.79,2.79,0,0,0-.82,1.12,1,1,0,0,1-.94.59.68.68,0,0,1-.39-.09,7.1,7.1,0,0,0-1.74-1h0a.45.45,0,0,1,.32,0,.74.74,0,0,0,.37.1,1.26,1.26,0,0,0,.92-.61c.18-.21.35-.43.52-.43a1.69,1.69,0,0,0,.5-.11,3.87,3.87,0,0,1,1-.18.73.73,0,0,1,.54.18l.07.08m-1.79-.81a1.51,1.51,0,0,1-.3.08,1.49,1.49,0,0,0-1.1.7c-.1.12-.26.32-.37.32a1.25,1.25,0,0,0-.54-.12.91.91,0,0,0-.92.63.74.74,0,0,0,.46.83,7.16,7.16,0,0,1,1.54.91,1.37,1.37,0,0,0,.93.31,1.71,1.71,0,0,0,1.67-1.11,2,2,0,0,1,.61-.81,1.4,1.4,0,0,0,.57-.92A.92.92,0,0,0,27,133a1.5,1.5,0,0,0-1.08-.4,4.3,4.3,0,0,0-1.18.21"/><path class="cls-5" d="M29.92,131.2a.38.38,0,0,0-.43-.32.37.37,0,0,0-.32.43,10.52,10.52,0,0,1,.08,1.26,9.11,9.11,0,0,1-9,9.11c-1.35-.86-2.62-1.92-2.05-3.23,1-2.37.07-3.25-.34-3.62l-.07-.08a2.47,2.47,0,0,0-.36-.26c-.28-.17-.35-.21-.2-.66a1.37,1.37,0,0,1,.38-.59,2.24,2.24,0,0,0,.62-1.82,1.45,1.45,0,0,0-.87-1.37,1.9,1.9,0,0,0-1.91.23.83.83,0,0,0-.25.93c.27.81-.35,2-1.51,2.85-.3.23-.4.13-.45.07a1.85,1.85,0,0,1,0-1.78.55.55,0,0,0,.15-.64c-.31-.7-2.27-.65-2.66-.63a.39.39,0,0,0-.36.34,10.6,10.6,0,0,0-.07,1.15,9.85,9.85,0,0,0,7.5,9.58.38.38,0,0,0,.19-.73A9.1,9.1,0,0,1,11,132.57c0-.27,0-.5,0-.74a5.92,5.92,0,0,1,1.47.16,2.54,2.54,0,0,0,.15,2.63,1,1,0,0,0,1.48,0c1.46-1.09,2.15-2.54,1.77-3.7,0,0,0-.07,0-.13a1.15,1.15,0,0,1,1.09-.09.66.66,0,0,1,.42.67c0,.86-.18,1-.41,1.29a2.3,2.3,0,0,0-.56.88,1.11,1.11,0,0,0,.54,1.55,1.27,1.27,0,0,1,.21.15l.1.09c.33.31.95.89.15,2.77-.91,2.12,1.43,3.6,2.44,4.23a.36.36,0,0,0,.2.06A9.88,9.88,0,0,0,30,132.57a10.39,10.39,0,0,0-.09-1.37"/><path class="cls-5" d="M26.49,141.1a10.64,10.64,0,0,1-17-8.53.38.38,0,0,0-.76,0,11.4,11.4,0,0,0,11,11.38v1.15a.38.38,0,1,0,.76,0V144a11.29,11.29,0,0,0,6.42-2.24.38.38,0,1,0-.45-.61"/><path class="cls-5" d="M20.64,139.56a.66.66,0,0,1-.77,0s0-.11.09-.28a1.37,1.37,0,0,1,.42-.42,1.46,1.46,0,0,1,.25.43.36.36,0,0,1,0,.27m-.21-1.48a1.68,1.68,0,0,0-1.23,1,.86.86,0,0,0,.13,1,1.36,1.36,0,0,0,1.84,0,1,1,0,0,0,.18-1,2.25,2.25,0,0,0-.5-.8.59.59,0,0,0-.42-.17"/><path class="cls-8" d="M17.11,176l-9.44-9.45a1.58,1.58,0,0,1,0-2.22l9.44-9.44a1.58,1.58,0,0,1,2.22,0l9.45,9.44a1.58,1.58,0,0,1,0,2.22L19.33,176a1.58,1.58,0,0,1-2.22,0"/><path class="cls-5" d="M9.51,165a10.42,10.42,0,0,1,10.41-10.41,10.29,10.29,0,0,1,8.2,4.09H25.87a.37.37,0,0,0-.37.37.38.38,0,0,0,.37.37H29l.07,0h0l0,0,.05-.05,0-.06a.14.14,0,0,0,0-.06.24.24,0,0,0,0-.08s0,0,0,0v-3a.38.38,0,0,0-.75,0v1.86a11,11,0,0,0-8.55-4.09A11.19,11.19,0,0,0,9.31,168.46a.37.37,0,0,0,.36.25h.11a.38.38,0,0,0,.24-.47A10.39,10.39,0,0,1,9.51,165"/><path class="cls-5" d="M30.51,161.47a.37.37,0,0,0-.71.24,10.42,10.42,0,0,1-9.88,13.7,10.32,10.32,0,0,1-8.2-4.09H14a.38.38,0,0,0,0-.75H11l-.08,0-.07,0,0,0,0,0-.06.06,0,.05a.14.14,0,0,0,0,.07s0,0,0,.07v3a.36.36,0,0,0,.37.37.37.37,0,0,0,.37-.37v-1.85a11,11,0,0,0,8.55,4.08,11.16,11.16,0,0,0,10.59-14.68"/><path class="cls-5" d="M22.79,163.77a3.93,3.93,0,0,1,2.65-1H27v1.5a4,4,0,0,1-1,2.7,4,4,0,0,1-2.65,1h-1l3.82-3.82a.37.37,0,0,0,0-.53.36.36,0,0,0-.52,0l-3.83,3.83v-1a4,4,0,0,1,1-2.7m-1.72,4.72v0a.3.3,0,0,0,.07.1.18.18,0,0,0,.09.06l0,0a.4.4,0,0,0,.15,0h1.92a4.7,4.7,0,0,0,3.17-1.23,4.68,4.68,0,0,0,1.23-3.23V162.4a.38.38,0,0,0-.37-.38H25.44a4.74,4.74,0,0,0-3.18,1.23A4.65,4.65,0,0,0,21,166.49v1.85a.4.4,0,0,0,0,.15"/><path class="cls-5" d="M19.55,163.51v1l-3.83-3.83a.37.37,0,0,0-.52,0,.37.37,0,0,0,0,.53L19,165H18a4,4,0,0,1-2.65-1,4.08,4.08,0,0,1-1-2.71v-1.49H15.9a4,4,0,0,1,2.64,1,4,4,0,0,1,1,2.71m-.48-3.24a4.68,4.68,0,0,0-3.17-1.22H14a.38.38,0,0,0-.37.37v1.84a4.75,4.75,0,0,0,1.22,3.26A4.77,4.77,0,0,0,18,165.74h1.55v7.07a.38.38,0,0,0,.37.37.37.37,0,0,0,.37-.37v-7.44h0v-1.85a4.66,4.66,0,0,0-1.22-3.25"/><path class="cls-9" d="M17.05,206.48l-8.79-8.79a1.58,1.58,0,0,1,0-2.22l8.79-8.79a1.58,1.58,0,0,1,2.22,0l8.78,8.79a1.56,1.56,0,0,1,0,2.22l-8.78,8.79a1.58,1.58,0,0,1-2.22,0"/><path class="cls-5" d="M14.72,208.15a.79.79,0,0,1-.42-.12.82.82,0,0,1-.41-.72l0-4.83a9.72,9.72,0,0,1,6.4-16.6h0a9.73,9.73,0,0,1,10.18,9.72,9.74,9.74,0,0,1-9.73,9.72c-.28,0-.55,0-.83,0L15.13,208A.78.78,0,0,1,14.72,208.15Zm5.62-21.49A8.94,8.94,0,0,0,14.56,202l.12.11v5.17l2.79-1.52,2.3-1.31h.12a8.64,8.64,0,0,0,.88,0,8.95,8.95,0,1,0-.42-17.88Z"/><path class="cls-5" d="M21,192c0-.29.21-.42.5-.42s.47.13.47.42v7.16c0,.27-.2.41-.47.41s-.5-.14-.5-.41V195.8H17.93v3.34c0,.27-.21.41-.49.41s-.48-.14-.48-.41V192c0-.29.2-.42.48-.42s.49.13.49.42v2.94H21Z"/><path class="cls-5" d="M23.62,194.23c0-.26.17-.39.45-.39s.47.13.47.39v4.92c0,.27-.19.4-.47.4s-.45-.13-.45-.4Zm1.14-2a.68.68,0,1,1-.68-.68.68.68,0,0,1,.68.68"/><path class="cls-10" d="M15.63,238.56l-8.78-8.78a1.56,1.56,0,0,1,0-2.22l8.78-8.79a1.58,1.58,0,0,1,2.22,0l8.79,8.79a1.58,1.58,0,0,1,0,2.22l-8.79,8.78a1.56,1.56,0,0,1-2.22,0"/><path class="cls-5" d="M26.65,238.34H21.77a.58.58,0,0,1-.59-.58v-1.83a2.25,2.25,0,1,0-4.49,0v1.83a.58.58,0,0,1-.58.58H11.23a.58.58,0,0,1-.59-.58V222.35a.58.58,0,0,1,.59-.58h4.56v-1.55a3.15,3.15,0,0,1,6.29,0v1.55h4.57a.58.58,0,0,1,.58.58v4.57h1.53a3.08,3.08,0,0,1,2.22.92,3.13,3.13,0,0,1-2.22,5.35H27.23v4.57A.58.58,0,0,1,26.65,238.34Zm-4.57-.9h4.26v-4.56a.58.58,0,0,1,.58-.58h1.84a2.24,2.24,0,0,0,1.59-3.83,2.22,2.22,0,0,0-1.59-.66H26.92a.58.58,0,0,1-.58-.58v-4.56H21.77a.6.6,0,0,1-.59-.59v-1.86a2.25,2.25,0,0,0-4.49,0v1.86a.59.59,0,0,1-.58.59H11.54v14.77h4.25v-1.51a3.15,3.15,0,0,1,6.29,0Z"/></g></g></svg>