<svg xmlns="http://www.w3.org/2000/svg" viewBox="0 0 19.85 13"><defs><style>.cls-1{fill:#004fa7;}</style></defs><title>Recurso 22</title><g id="Capa_2" data-name="Capa 2"><g id="Capa_1-2" data-name="Capa 1"><path class="cls-1" d="M9.93,10.15a3.49,3.49,0,0,0,2.58-1.06A3.54,3.54,0,0,0,13.58,6.5,3.64,3.64,0,0,0,9.92,2.85,3.52,3.52,0,0,0,7.33,3.91,3.53,3.53,0,0,0,6.27,6.5,3.49,3.49,0,0,0,7.34,9.09,3.52,3.52,0,0,0,9.93,10.15Zm0-1A2.59,2.59,0,0,1,8,8.41,2.61,2.61,0,0,1,7.22,6.5,2.61,2.61,0,0,1,8,4.59a2.72,2.72,0,0,1,3.83,0,2.6,2.6,0,0,1,.78,1.91,2.68,2.68,0,0,1-2.7,2.7Zm0,3.8A10.53,10.53,0,0,1,4,11.23,10.92,10.92,0,0,1,0,6.5,10.92,10.92,0,0,1,4,1.77,10.48,10.48,0,0,1,9.92,0a10.48,10.48,0,0,1,5.92,1.77,10.94,10.94,0,0,1,4,4.73,10.92,10.92,0,0,1-4,4.73A10.52,10.52,0,0,1,9.93,13Zm0-1a9.54,9.54,0,0,0,5.19-1.49,9.71,9.71,0,0,0,3.61-4,9.71,9.71,0,0,0-3.61-4A9.54,9.54,0,0,0,9.92,1,9.53,9.53,0,0,0,4.74,2.49a9.81,9.81,0,0,0-3.62,4,9.81,9.81,0,0,0,3.62,4A9.53,9.53,0,0,0,9.92,12Z"/></g></g></svg>