<svg xmlns="http://www.w3.org/2000/svg" viewBox="0 0 890.63 900.28"><defs><style>.cls-1,.cls-2{fill:#fff;}.cls-2{fill-rule:evenodd;}</style></defs><title>Recurso 2</title><g id="Capa_2" data-name="Capa 2"><g id="Capa_1-2" data-name="Capa 1"><path class="cls-1" d="M445.31,0C199.55,0,0,199.55,0,445.31A443.17,443.17,0,0,0,71.16,686.77h0L0,900.28l217.36-72.42a443.12,443.12,0,0,0,228,62.77c245.77,0,445.32-199.55,445.32-445.32S691.08,0,445.31,0Zm0,802.08a355,355,0,0,1-201-62L110.16,784.78l44.29-132.89A354.88,354.88,0,0,1,88.5,445.31C88.5,248.39,248.39,88.5,445.31,88.5S802.13,248.39,802.13,445.31,642.23,802.08,445.31,802.08Z"/><path class="cls-2" d="M338.16,537.94A452.66,452.66,0,0,1,239.3,309.19,79.6,79.6,0,0,1,325,220l2.3.24s26.29,7,40.69,10.92a17.77,17.77,0,0,1,12.18,11.39c6.47,19.22,21.75,64.36,29,85.59a17.75,17.75,0,0,1-5.34,19.22c-10.92,9.19-29,24.38-40.22,33.89a17.61,17.61,0,0,0-4.69,20.77,364.67,364.67,0,0,0,49.55,79.22,363.53,363.53,0,0,0,69.61,62.2,17.61,17.61,0,0,0,21.28-1.13c11.3-9.47,29.34-24.65,40.22-33.84a17.77,17.77,0,0,1,19.87-2c19.69,10.69,61.6,33.38,79.41,43a17.65,17.65,0,0,1,9.19,13.92c1.36,14.86,3.89,41.95,3.89,41.95l-.19,2.3a79.61,79.61,0,0,1-102.38,69.42A452.49,452.49,0,0,1,339.42,539.44l-1.26-1.5Z"/></g></g></svg>