<svg xmlns="http://www.w3.org/2000/svg" viewBox="0 0 890.62 900.3"><defs><style>.cls-1{fill:#f3f3f3;}.cls-1,.cls-2{fill-rule:evenodd;}.cls-2{fill:#00a82d;}</style></defs><title>Recurso 1s</title><g id="Capa_2" data-name="Capa 2"><g id="Capa_1-2" data-name="Capa 1"><g id="Capa_2-2" data-name="Capa 2"><g id="Capa_1-2-2" data-name="Capa 1-2"><path class="cls-1" d="M71.15,686.77A443.17,443.17,0,0,1,0,445.31C0,199.55,199.54,0,445.31,0S890.62,199.55,890.62,445.31,691.08,890.64,445.31,890.64a443.14,443.14,0,0,1-227.95-62.76L0,900.3,71.15,686.78Z"/><path class="cls-2" d="M154.45,651.89A354.87,354.87,0,0,1,88.5,445.31C88.5,248.39,248.39,88.5,445.31,88.5S802.12,248.39,802.12,445.31,642.23,802.08,445.31,802.08a355,355,0,0,1-201-62l-134.16,44.7Z"/><path class="cls-1" d="M338.15,537.94a452.77,452.77,0,0,1-98.86-228.75A79.58,79.58,0,0,1,325,220l2.3.24s26.29,7,40.68,10.92a17.76,17.76,0,0,1,12.19,11.39c6.47,19.22,21.75,64.36,29,85.59a17.76,17.76,0,0,1-5.39,19.22c-10.93,9.19-29,24.37-40.22,33.89a17.61,17.61,0,0,0-4.69,20.77,364.37,364.37,0,0,0,49.55,79.21,363.57,363.57,0,0,0,69.61,62.21,17.61,17.61,0,0,0,21.28-1.13c11.29-9.47,29.34-24.65,40.22-33.84a17.75,17.75,0,0,1,19.87-2c19.69,10.69,61.59,33.38,79.41,43A17.63,17.63,0,0,1,648,563.43c1.36,14.86,3.89,42,3.89,42l-.18,2.3a79.62,79.62,0,0,1-102.38,69.42A452.44,452.44,0,0,1,339.42,539.44Z"/></g></g></g></g></svg>